<?xml version="1.0" encoding="utf-8"?>
<!-- Generator: Adobe Illustrator 22.1.0, SVG Export Plug-In . SVG Version: 6.00 Build 0)  -->
<svg version="1.1" xmlns="http://www.w3.org/2000/svg" xmlns:xlink="http://www.w3.org/1999/xlink" x="0px" y="0px"
	 viewBox="0 0 274.8 257" style="enable-background:new 0 0 274.8 257;" xml:space="preserve">
<style type="text/css">
	.st0{fill:#FFFFFF;}
	.st1{fill:#211F20;}
	.st2{fill:#A6C0D8;}
	.st3{fill:#8BAAC4;}
	.st4{fill:#94ADC1;}
	.st5{fill:#7E94A1;}
	.st6{fill:#C2C490;}
	.st7{fill:#D8DAAD;}
	.st8{fill:#B1B1B1;}
	.st9{fill:none;stroke:#422918;stroke-miterlimit:10;}
	.st10{fill:#E5332A;}
	.st11{fill:#F5F5F5;}
</style>
<g id="BACKGROUND">
	<rect id="XMLID_1_" x="-114.2" y="-158" class="st0" width="500" height="500"/>
</g>
<g id="OBJECTS">
	<g id="XMLID_2_">
		<g id="XMLID_2793_">
			<g id="XMLID_2810_">
				<path id="XMLID_2811_" class="st1" d="M64.6,59.2c0.2,0,0.4,0.2,0.4,0.4c0,5.7,2.9,11.3,7.5,14.7c1.6,1.2,4.1,2.6,6.7,2.2
					c0.2,0,0.3-0.1,0.5-0.1c-0.8-0.7-1.6-1.6-2.2-2.5c-0.7-1.1-1.5-2.8-1.3-4.8c0.2-1.9,1.4-3.4,3-3.9c1.4-0.4,3,0,4.2,1
					c1,0.9,1.7,2.3,1.8,3.9c0.2,2.6-1.4,5.2-3.6,6.5c3.2,1.9,7.4,2.3,10.7,0.6c2.7-1.5,4.6-4.3,5.3-7.3c-1.5-1.8-2.2-4.2-1.8-6.6
					c0-0.2,0.1-0.8,0.6-1c0.5-0.2,1.1,0.1,1.4,0.9c0.9,2,1.1,4.3,0.7,6.5c0.4,0.4,0.8,0.8,1.3,1.1c2.3,1.6,5.5,1.7,8,0.3
					c2.5-1.4,4-4.2,3.8-7c0-0.2,0.2-0.5,0.4-0.5c0.2,0,0.5,0.2,0.5,0.4c0.2,3.1-1.5,6.3-4.3,7.9c-2.7,1.6-6.3,1.4-8.9-0.4
					c-0.4-0.2-0.7-0.5-1-0.8c-0.8,3-2.8,5.8-5.6,7.3c-3.8,2-8.6,1.5-12.1-0.9c-0.4,0.1-0.8,0.3-1.2,0.3c-2.9,0.4-5.6-1-7.4-2.3
					c-4.8-3.5-7.8-9.5-7.8-15.4c0-0.1,0-0.2,0.1-0.3C64.3,59.3,64.5,59.2,64.6,59.2z M84.3,70.1c-0.1-1.3-0.6-2.5-1.5-3.3
					c-0.9-0.8-2.2-1.2-3.3-0.8c-1.2,0.4-2.2,1.7-2.4,3.2c-0.2,1.7,0.5,3.2,1.1,4.2c0.6,1,1.5,1.9,2.4,2.6
					C82.9,75,84.5,72.6,84.3,70.1z M97,63.5c-0.1-0.2-0.2-0.4-0.3-0.4c0,0-0.1,0.1-0.1,0.3c-0.3,1.8,0.2,3.6,1.1,5.2
					C97.9,66.9,97.7,65.1,97,63.5z"/>
			</g>
			<g id="XMLID_2806_">
				<path id="XMLID_2807_" class="st1" d="M73.5,52.7c3.3-1.2,7-2.7,10.8-2.9c4.3-0.3,8.1,1,10.6,3.6c0.7,0.7,1.2,1.5,1.6,2.3
					c3.1,0.3,6.1,1.6,8.5,3.6c3.2,2.7,5.1,6.6,5.5,10.7c0,0.2-0.2,0.5-0.4,0.5c-0.2,0-0.5-0.2-0.5-0.4c-0.3-3.9-2.2-7.6-5.1-10.1
					c-2.2-1.8-4.8-3-7.6-3.3c0.3,1.1,0.4,2.2,0.3,3.2c-0.4,2.5-2.6,4.5-4.9,4.6c-1.3,0.1-2.6-0.5-3.5-1.6c-0.8-0.9-1.2-2.1-1-3.2
					c0.5-2.6,3.4-3.8,5.8-4c0.6-0.1,1.2-0.1,1.9-0.1c-0.3-0.6-0.7-1.1-1.2-1.7c-2.2-2.4-5.8-3.6-9.9-3.3c-3.7,0.2-7.4,1.6-10.6,2.9
					c-0.2,0.1-0.5,0-0.6-0.3c0,0,0,0,0,0C73.1,53,73.2,52.8,73.5,52.7z M95.8,56.6c-0.7,0-1.5,0-2.2,0c-2,0.2-4.6,1.2-5,3.3
					c-0.2,0.8,0.1,1.7,0.8,2.4c0.7,0.8,1.8,1.3,2.8,1.3c1.9-0.1,3.7-1.8,4-3.9c0.1-0.8,0.1-1.6-0.1-2.4C96,57.1,95.9,56.8,95.8,56.6
					z"/>
			</g>
			<g id="XMLID_2747_">
				<path id="XMLID_2762_" class="st2" d="M46.4,201.8c-0.3-4.4,2.1-15.5,7.6-16c5.6-0.5,1.4,11.9-1.3,16.6
					C50,207,46.5,204.1,46.4,201.8z"/>
				<path id="XMLID_2761_" class="st3" d="M54,199.8c0.8-1.9,1.6-4.1,2.1-6.2c-2.6-0.7-5.1-1.8-7.4-3.1c-1,2.1-1.7,4.5-2.1,6.8
					C48.9,198.6,51.4,199.4,54,199.8z"/>
				<path id="XMLID_2760_" class="st2" d="M9,140.3c0,0,2.2-3,8.1-1.2c2.3,0.7,6.7,2.4,5.4,7.7C21,153,9.7,187.1,39.8,199.7
					c0,0,0,0,0,0c0.2,0.3,4.1,10.9-5.7,14.1c0,0-29.6-14.4-30.7-45.1C2.8,151.8,9,140.3,9,140.3z"/>
				<path id="XMLID_2759_" class="st3" d="M39.9,199.7c0.1,0,13.3-2.1,22.1,1.4c0,0,4.7,15.5-4.8,24.7c0,0-6.5,0.2-23.1-12
					L39.9,199.7C39.9,199.7,39.9,199.7,39.9,199.7z"/>
				<path id="XMLID_2758_" class="st3" d="M3.9,173.6c4.5-3,10-4.3,15.4-3.7c-0.3-5.4,0.4-10.6,1.3-14.7c-5.2-1.3-10.7-1.5-16-0.7
					c-0.8,4.1-1.3,8.9-1.1,14.2C3.5,170.3,3.7,172,3.9,173.6z"/>
				<path id="XMLID_2757_" class="st3" d="M20.1,203.6c0.8-1.4,1.6-2.8,2.7-4c2.1-2.6,4.5-4.5,6.9-6.1c-3.9-3.4-6.4-7.4-8.1-11.5
					c-4.7,1.3-9.2,3.5-13.1,6.4C11.8,194.7,16,199.7,20.1,203.6z"/>
				<g id="XMLID_2754_">
					<path id="XMLID_2756_" class="st2" d="M58.8,201.6c4.2-1.4,17.8,0.9,16.8,5.5c-1.1,5.5-10.1,2.5-15.1,0.7
						C55.1,205.8,57.5,202.1,58.8,201.6z"/>
					<path id="XMLID_2755_" class="st3" d="M62.2,208.4c1.9,0.6,4.1,1.3,6.1,1.6c-0.6-1.2-0.9-2.6-0.8-4c0.1-1.4,0.5-2.8,1.2-4
						c-2-0.5-4.1-0.7-6-0.8c-0.3,0.6-0.6,1.4-0.8,2.6C61.8,205.2,61.9,206.8,62.2,208.4z"/>
				</g>
				<g id="XMLID_2751_">
					<path id="XMLID_2753_" class="st2" d="M58.3,211.4c4.2-1.4,17.8,0.9,16.8,5.5c-1.1,5.5-10.1,2.5-15.1,0.7
						C54.6,215.6,57,211.8,58.3,211.4z"/>
					<path id="XMLID_2752_" class="st3" d="M61.7,218.2c1.9,0.6,4.1,1.3,6.1,1.6c-0.6-1.2-0.9-2.6-0.8-4c0.1-1.4,0.5-2.8,1.2-4
						c-2-0.5-4.1-0.7-6-0.8c-0.3,0.6-0.6,1.4-0.8,2.6C61.2,215,61.3,216.6,61.7,218.2z"/>
				</g>
				<g id="XMLID_2748_">
					<path id="XMLID_2750_" class="st2" d="M55.9,219.1c4.4-0.4,17.1,4.8,15.2,9.1c-2.3,5.1-10.4,0.2-14.9-2.7
						C51.4,222.3,54.5,219.2,55.9,219.1z"/>
					<path id="XMLID_2749_" class="st3" d="M57.8,226.4c1.7,1,3.7,2.2,5.6,3c-0.3-1.3-0.3-2.8,0.1-4.1c0.4-1.3,1.1-2.6,2.1-3.6
						c-1.8-0.9-3.8-1.6-5.6-2.1c-0.5,0.5-0.9,1.3-1.4,2.4C58,223.2,57.7,224.8,57.8,226.4z"/>
				</g>
			</g>
			<g id="XMLID_2736_">
				<path id="XMLID_2739_" class="st4" d="M113.2,55.9c0,0-7.8-1.1-11.4-0.5c0,0-2.1,10.6-1.4,24.1c0,0,9.6,0.3,10.2,0.1
					C113.2,78.6,117.8,65.6,113.2,55.9z"/>
				<path id="XMLID_2737_" class="st5" d="M107,79.7c1.8,0,3.3,0,3.6-0.1c2.6-1,7.2-14,2.6-23.7c0,0-1.8-0.3-4.1-0.5
					c2,7.4,1.6,15.4-1.3,22.6C107.6,78.6,107.3,79.1,107,79.7z"/>
			</g>
			<path id="XMLID_2589_" class="st2" d="M127.8,39.6c0,0-9.6,0.5-9.6,8.5c0,0-8.5,0.1-6.8,9.6c0,0-6.4,0.2-6.6,14.2
				c-0.2,14-3.9,66.9-2,73c0,0,5.8,11.6,47.3,12.2c28.2,0.4,50.3,1.1,56.6-16.6c0.6-1.8,5.4-76.9-18.9-93.9c0,0-3.5-8.7-9.6-6.8
				c0,0-2.8-5.4-8.8-4.5c0,0-7.2-6.7-22.8-5.3C129.5,31.5,127.8,39.6,127.8,39.6z"/>
			<path id="XMLID_2652_" class="st3" d="M119.9,83.5c0,0-2.1,31.1,0.4,37.5c2.4,6.3,44.7,3.7,47.8-1.3c3.1-5-0.3-34.6-4.4-37.9
				C163.5,81.8,129.6,85.5,119.9,83.5z"/>
			<path id="XMLID_2648_" class="st2" d="M73.7,88.9c0,0-33.6-1.5-43.2,2.8c-10.2,4.6-15.6,27.8-2.5,40.9c8.4,8.4,17.2,7.5,46.5,9.5
				c0,0,6.1-1.9,5.3-27C79.4,104.3,79.9,93.4,73.7,88.9z"/>
			<path id="XMLID_2667_" class="st1" d="M121.6,84.9c0,0-2.5,30.7,0.4,35.8c0,0,29.4,4.6,44.7-2.6c0,0,0-25.4-4.5-33.2
				C162.2,84.9,130.3,88.6,121.6,84.9z"/>
			<path id="XMLID_2703_" class="st3" d="M206.7,140.5c-1.9,5.4-5.3,9.1-9.9,11.6c0,0,0,0,0,0c2.8-10.1-0.8-67.5-3.9-85.4
				c-3.2-18-7-17.7-7-17.7l-16.4-13.7c6-0.9,8.8,4.5,8.8,4.5c6.1-1.9,9.6,6.8,9.6,6.8C212.1,63.5,207.3,138.7,206.7,140.5z"/>
			<path id="XMLID_2668_" class="st3" d="M174.6,78c0,0.9-0.8,1.7-1.7,1.7c-0.9,0-1.7-0.8-1.7-1.7c0-0.9,0.8-1.7,1.7-1.7
				C173.8,76.3,174.6,77.1,174.6,78z"/>
			<path id="XMLID_2670_" class="st3" d="M178,124.7c0,0.9-0.8,1.7-1.7,1.7s-1.7-0.8-1.7-1.7c0-0.9,0.8-1.7,1.7-1.7
				S178,123.7,178,124.7z"/>
			<path id="XMLID_2671_" class="st3" d="M113.6,127.2c0,0.9-0.8,1.7-1.7,1.7c-0.9,0-1.7-0.8-1.7-1.7s0.8-1.7,1.7-1.7
				C112.9,125.5,113.6,126.2,113.6,127.2z"/>
			<circle id="XMLID_2672_" class="st3" cx="114.1" cy="78" r="1.7"/>
			<path id="XMLID_2673_" class="st6" d="M121.7,130.7c0,0-3.2,6.1-0.1,10.1c0,0,25.4,4.8,44.4,0c0,0-1.3-8-0.7-10.1
				C165.2,130.7,142,134.1,121.7,130.7z"/>
			<path id="XMLID_2669_" class="st6" d="M165.2,130.7h2.6l0.6,9.5l-2.5,0.6C165.9,140.8,164.6,133.5,165.2,130.7z"/>
			<path id="XMLID_2721_" class="st7" d="M142.3,142.9c-4.2-0.1-8-0.4-11.3-0.8c-0.8-3.7-0.9-7.7-0.8-10.4c3.9,0.3,7.7,0.5,11.4,0.5
				C141.5,134.8,141.5,139,142.3,142.9z"/>
			<path id="XMLID_2722_" class="st7" d="M165.9,140.8c-3.7,0.9-7.7,1.5-11.7,1.8c-0.9-3.9-0.9-8.2-0.7-10.8
				c7-0.4,11.7-1.2,11.7-1.2C164.6,132.8,165.9,140.8,165.9,140.8z"/>
			<path id="XMLID_2595_" class="st8" d="M143.6,86.4c0,0,5.1,2.8,6.1,2.1c0.3-0.3,0.6-1.2,0.8-2.5C148.3,86.2,146,86.3,143.6,86.4z
				 M129.5,93.4c-3.9,1.9-6.9,0.1-8.4-1.5c-0.1,2.1-0.2,4.4-0.3,6.9c1.1,0.3,2.4,0.5,4,0.5l1.6,5.4c0,0,0.9,1.7,3.9,1.2
				c3-0.5,3.6-1.5,3.5-2.4c-0.1-0.8-1.5-5.8-1.5-5.8c0,0,0-2.9,4.8-3.8c0,0,2.8,4.8,4.8,4.6c1.4-0.1,4.7-1.1,3.9-5.6
				c0,0-2.7-2.2-3.9-2.6c0,0,0.6-2.6,1.8-4c-2.5,0.1-5.1,0.2-7.5,0.2C135.9,88.3,134.6,90.9,129.5,93.4z"/>
			<path id="XMLID_2712_" class="st8" d="M153.5,121.6c-3.6,0.4-7.3,0.6-10.8,0.6c-0.8-1.5-0.6-3.4-0.7-4.7c-0.1-2.9,0.8-6,5.9-6.5
				c6.7-0.7,6.5,4.8,6.5,4.8C154.7,118.2,154.5,120.1,153.5,121.6z"/>
			<g id="XMLID_2765_">
				<g id="XMLID_2683_">
					<path id="XMLID_2778_" class="st1" d="M48.7,106.3c-0.2,0-0.5-0.1-0.6-0.3l-5.6-5.8c-0.3-0.4-0.3-0.9,0-1.3
						c0.4-0.3,0.9-0.3,1.3,0l5.6,5.8c0.3,0.4,0.3,0.9,0,1.3C49.1,106.2,48.9,106.3,48.7,106.3z"/>
				</g>
				<g id="XMLID_2684_">
					<path id="XMLID_2777_" class="st1" d="M42.8,106.1c-0.2,0-0.5-0.1-0.6-0.3c-0.3-0.4-0.3-0.9,0-1.3l5.9-5.7
						c0.4-0.3,0.9-0.3,1.3,0c0.3,0.4,0.3,0.9,0,1.3l-5.9,5.7C43.2,106,43,106.1,42.8,106.1z"/>
				</g>
				<g id="XMLID_2686_">
					<path id="XMLID_2776_" class="st1" d="M49.6,129.3c-0.2,0-0.5-0.1-0.6-0.3l-5.6-5.8c-0.3-0.4-0.3-0.9,0-1.3
						c0.4-0.3,0.9-0.3,1.3,0l5.6,5.8c0.3,0.4,0.3,0.9,0,1.3C50.1,129.2,49.8,129.3,49.6,129.3z"/>
				</g>
				<g id="XMLID_2685_">
					<path id="XMLID_2775_" class="st1" d="M43.7,129.1c-0.2,0-0.5-0.1-0.6-0.3c-0.3-0.4-0.3-0.9,0-1.3l5.9-5.7
						c0.4-0.3,0.9-0.3,1.3,0c0.3,0.4,0.3,0.9,0,1.3l-5.9,5.7C44.2,129,43.9,129.1,43.7,129.1z"/>
				</g>
			</g>
			<g id="XMLID_2682_">
				<path id="XMLID_2687_" class="st3" d="M220.9,203.3c0,0-19.2,7.8-27.5,19.3c0,0,23.9,8.7,46.9-2.3c0,0-0.1-10.3-1.2-15.9
					L220.9,203.3z"/>
				<path id="XMLID_2714_" class="st2" d="M240.3,220.2c-23,11.1-46.9,2.3-46.9,2.3s0,0,0,0c0.5-0.4,17.9-14.7,30.8-19.1l14.8,0.8
					C240.2,209.9,240.3,220.2,240.3,220.2z"/>
				<path id="XMLID_2689_" class="st3" d="M220.9,194.6c0,0-0.6,7.1,0,8.7c0,0,5.9,5.3,18.2,1c0,0,0.9-8.1,0.5-9.5
					C238.4,191.1,221.8,190.9,220.9,194.6z"/>
				<path id="XMLID_2713_" class="st2" d="M239.6,194.8c0.1,2.7-2.3,2.7-6.9,2.8c-5.4,0.1-11.5-0.8-11.8-3.1
					C221.8,190.9,238.4,191.1,239.6,194.8z"/>
			</g>
			<path id="XMLID_2706_" class="st8" d="M164.1,107c-0.7-0.3-4.1,1.5-4.9,2c-1-1.8-2.4-3.5-4.3-4.5c0.3-0.7,1.3-3.2,1-4.8
				c-0.3-1.9-2.9-2.5-4-1.7c-1,0.6-1.5,3.9-1.7,5.1c-3.2-0.4-5.9,0.3-7.6,1c-0.6-1-1.8-3.2-2.5-3.7c-1-0.7-2.2-0.4-3.5,1.3
				c-1.3,1.7,1.7,4.9,1.7,4.9c0,0,0.1,0,0.1,0c-1.9,1.8-3,3.9-3.5,6c0,0-0.1,0-0.1,0c0,0-3.4-1-5.2,0c-1,0.5-0.7,4.6,0.7,5
				c1.4,0.4,3,0.8,4,0.7c0.1,1.7,0.3,3,0.5,3.5c1,0.1,2.1,0.1,3.2,0.1c-0.1-0.4-0.1-0.6-0.1-0.6s-2.5-9.2,4.7-13.6
				c0,0,5.2-3,10.9-0.6c5.7,2.4,6,11.4,6,12.4c0,0.2,0.1,0.5,0.2,0.9c0.8-0.2,1.6-0.4,2.4-0.6v0c0-0.6-0.1-3.4-1-6.6
				c0.6,0,2.9-0.3,4-1C166.1,111.4,165,107.4,164.1,107z"/>
			<path id="XMLID_2725_" class="st8" d="M105.4,26.7c-0.5-0.1-1.1-0.3-1.5-0.3c-0.3-0.9-0.3-1.4-0.1-1.6c0.2,0,1-0.1,1.4-0.4
				c0.5-0.3,0-1.8-0.3-2c-0.3-0.1-1.5,0.6-1.8,0.7c-0.4-0.7-0.9-1.3-1.6-1.7c0.1-0.3,0.5-1.2,0.4-1.8c-0.1-0.7-1.1-0.9-1.5-0.6
				c-0.4,0.2-0.6,1.5-0.6,1.9c-1.2-0.1-2.2,0.1-2.9,0.4c-0.2-0.4-0.7-1.2-0.9-1.4c-0.4-0.3-0.8-0.1-1.3,0.5
				c-0.5,0.6,0.6,1.8,0.6,1.8c0,0,0,0,0,0c-0.7,0.7-1.1,1.5-1.3,2.3c0,0,0,0,0,0c0,0-1.3-0.4-1.9,0c-0.4,0.2-0.3,1.7,0.3,1.9
				c0.5,0.1,1.1,0.3,1.5,0.3c0.3,0.7,0.2,1,0.2,1.6c-0.2,0-1.1,0.1-1.5,0.4c-0.5,0.3,0,1.8,0.3,2c0.3,0.1,1.5-0.6,1.8-0.7
				c0.4,0.7,0.9,1.3,1.6,1.7c-0.1,0.3-0.5,1.2-0.4,1.8c0.1,0.7,1.1,0.9,1.5,0.6c0.4-0.2,0.6-1.5,0.6-1.9c1.2,0.1,2.2-0.1,2.9-0.4
				c0.2,0.4,0.7,1.2,0.9,1.4c0.4,0.3,0.8,0.1,1.3-0.5c0.5-0.6-0.6-1.8-0.6-1.8c0,0,0,0,0,0c0.7-0.7,1.1-1.5,1.3-2.3c0,0,0,0,0,0
				c0,0,1.3,0.4,1.9,0C106.1,28.4,105.9,26.8,105.4,26.7z M100.5,28.6c-0.6,0.5-2.2,0.8-3.1,0.1c-0.8-0.6-1.2-2.6-0.3-3.7
				c0.5-0.6,1.7-1.4,2.8-0.6C101.5,25.6,101.2,28,100.5,28.6z"/>
			<path id="XMLID_2697_" class="st8" d="M159.9,165.1c-0.5-0.1-1.1-0.3-1.5-0.3c-0.3-0.9-0.3-1.4-0.1-1.6c0.2,0,1-0.1,1.4-0.4
				c0.5-0.3,0-1.8-0.3-2c-0.3-0.1-1.5,0.6-1.8,0.7c-0.4-0.7-0.9-1.3-1.6-1.7c0.1-0.3,0.5-1.2,0.4-1.8c-0.1-0.7-1.1-0.9-1.5-0.6
				c-0.4,0.2-0.6,1.5-0.6,1.9c-1.2-0.1-2.2,0.1-2.9,0.4c-0.2-0.4-0.7-1.2-0.9-1.4c-0.4-0.3-0.8-0.1-1.3,0.5
				c-0.5,0.6,0.6,1.8,0.6,1.8c0,0,0,0,0,0c-0.7,0.7-1.1,1.5-1.3,2.3c0,0,0,0,0,0c0,0-1.3-0.4-1.9,0c-0.4,0.2-0.3,1.7,0.3,1.9
				c0.5,0.1,1.1,0.3,1.5,0.3c0.3,0.7,0.2,1,0.2,1.6c-0.2,0-1.1,0.1-1.5,0.4c-0.5,0.3,0,1.8,0.3,2c0.3,0.1,1.5-0.6,1.8-0.7
				c0.4,0.7,0.9,1.3,1.6,1.7c-0.1,0.3-0.5,1.2-0.4,1.8c0.1,0.7,1.1,0.9,1.5,0.6c0.4-0.2,0.6-1.5,0.6-1.9c1.2,0.1,2.2-0.1,2.9-0.4
				c0.2,0.4,0.7,1.2,0.9,1.4c0.4,0.3,0.8,0.1,1.3-0.5c0.5-0.6-0.6-1.8-0.6-1.8c0,0,0,0,0,0c0.7-0.7,1.1-1.5,1.3-2.3c0,0,0,0,0,0
				c0,0,1.3,0.4,1.9,0C160.6,166.8,160.5,165.3,159.9,165.1z M155.1,167c-0.6,0.5-2.2,0.8-3.1,0.1c-0.8-0.6-1.2-2.6-0.3-3.7
				c0.5-0.6,1.7-1.4,2.8-0.6C156,164,155.8,166.4,155.1,167z"/>
			<path id="XMLID_2790_" class="st8" d="M226.8,147c-0.5-0.1-1.1-0.3-1.5-0.3c-0.3-0.9-0.3-1.4-0.1-1.6c0.2,0,1-0.1,1.4-0.4
				c0.5-0.3,0-1.8-0.3-2c-0.3-0.1-1.5,0.6-1.8,0.7c-0.4-0.7-0.9-1.3-1.6-1.7c0.1-0.3,0.5-1.2,0.4-1.8c-0.1-0.7-1.1-0.9-1.5-0.6
				c-0.4,0.2-0.6,1.5-0.6,1.9c-1.2-0.1-2.2,0.1-2.9,0.4c-0.2-0.4-0.7-1.2-0.9-1.4c-0.4-0.3-0.8-0.1-1.3,0.5
				c-0.5,0.6,0.6,1.8,0.6,1.8c0,0,0,0,0,0c-0.7,0.7-1.1,1.5-1.3,2.3c0,0,0,0,0,0c0,0-1.3-0.4-1.9,0c-0.4,0.2-0.3,1.7,0.3,1.9
				c0.5,0.1,1.1,0.3,1.5,0.3c0.3,0.7,0.2,1,0.2,1.6c-0.2,0-1.1,0.1-1.5,0.4c-0.5,0.3,0,1.8,0.3,2c0.3,0.1,1.5-0.6,1.8-0.7
				c0.4,0.7,0.9,1.3,1.6,1.7c-0.1,0.3-0.5,1.2-0.4,1.8c0.1,0.7,1.1,0.9,1.5,0.6c0.4-0.2,0.6-1.5,0.6-1.9c1.2,0.1,2.2-0.1,2.9-0.4
				c0.2,0.4,0.7,1.2,0.9,1.4c0.4,0.3,0.8,0.1,1.3-0.5c0.5-0.6-0.6-1.8-0.6-1.8c0,0,0,0,0,0c0.7-0.7,1.1-1.5,1.3-2.3c0,0,0,0,0,0
				c0,0,1.3,0.4,1.9,0C227.5,148.7,227.4,147.1,226.8,147z M222,148.9c-0.6,0.5-2.2,0.8-3.1,0.1c-0.8-0.6-1.2-2.6-0.3-3.7
				c0.5-0.6,1.7-1.4,2.8-0.6C222.9,145.9,222.7,148.3,222,148.9z"/>
			<path id="XMLID_2738_" class="st8" d="M146,17.8c-0.1-0.2-0.3-0.5-0.4-0.7c0.2-0.4,0.4-0.6,0.6-0.6c0.1,0.1,0.4,0.3,0.7,0.4
				c0.3,0.1,0.7-0.7,0.6-0.8c-0.1-0.1-0.8-0.4-1-0.4c0.1-0.4,0.2-0.8,0-1.2c0.1-0.1,0.6-0.3,0.8-0.5c0.2-0.3,0-0.7-0.3-0.8
				c-0.2,0-0.8,0.3-0.9,0.5c-0.4-0.5-0.9-0.8-1.2-0.9c0.1-0.2,0.2-0.7,0.2-0.9c0-0.2-0.3-0.4-0.7-0.3c-0.4,0.1-0.5,0.9-0.5,0.9
				c0,0,0,0,0,0c-0.5,0-1,0.1-1.3,0.3c0,0,0,0,0,0c0,0-0.3-0.6-0.7-0.7c-0.2-0.1-0.7,0.5-0.6,0.8c0.1,0.2,0.3,0.5,0.4,0.7
				c-0.2,0.4-0.3,0.5-0.5,0.6c-0.1-0.1-0.4-0.4-0.7-0.4c-0.3-0.1-0.7,0.7-0.6,0.8c0.1,0.1,0.8,0.4,1,0.4c-0.1,0.4-0.2,0.8,0,1.2
				c-0.1,0.1-0.6,0.3-0.8,0.5c-0.2,0.3,0,0.7,0.3,0.8c0.2,0,0.8-0.3,0.9-0.5c0.4,0.5,0.9,0.8,1.2,0.9c-0.1,0.2-0.2,0.7-0.2,0.9
				c0,0.2,0.3,0.4,0.7,0.3c0.4-0.1,0.5-0.9,0.5-0.9c0,0,0,0,0,0c0.5,0,1-0.1,1.3-0.3c0,0,0,0,0,0c0,0,0.3,0.6,0.7,0.7
				C145.6,18.6,146.1,18,146,17.8z M143.5,16.7c-0.4,0-1.1-0.5-1.2-1.2c-0.1-0.5,0.5-1.4,1.3-1.4c0.4,0,1.2,0.1,1.3,0.9
				C145,15.9,144,16.7,143.5,16.7z"/>
			<path id="XMLID_2782_" class="st8" d="M56.7,156.1c-0.1-0.2-0.3-0.5-0.4-0.7c0.2-0.4,0.4-0.6,0.6-0.6c0.1,0.1,0.4,0.3,0.6,0.4
				c0.3,0.1,0.7-0.7,0.6-0.8c-0.1-0.1-0.8-0.4-1-0.4c0.1-0.4,0.2-0.8,0-1.2c0.1-0.1,0.6-0.3,0.8-0.5c0.2-0.3,0-0.7-0.3-0.8
				c-0.2,0-0.8,0.3-0.9,0.5c-0.4-0.5-0.9-0.8-1.2-0.9c0.1-0.2,0.2-0.7,0.2-0.9c0-0.2-0.3-0.4-0.7-0.3c-0.4,0.1-0.5,0.9-0.5,0.9
				c0,0,0,0,0,0c-0.5,0-1,0.1-1.3,0.3c0,0,0,0,0,0c0,0-0.3-0.6-0.7-0.7c-0.2-0.1-0.7,0.5-0.6,0.8c0.1,0.2,0.3,0.5,0.4,0.7
				c-0.2,0.4-0.3,0.5-0.5,0.6c-0.1-0.1-0.4-0.4-0.7-0.4c-0.3-0.1-0.7,0.7-0.6,0.8c0.1,0.1,0.8,0.4,1,0.4c-0.1,0.4-0.2,0.8,0,1.2
				c-0.1,0.1-0.6,0.3-0.8,0.5c-0.2,0.3,0,0.7,0.3,0.8c0.2,0.1,0.8-0.3,0.9-0.5c0.4,0.5,0.9,0.8,1.2,0.9c-0.1,0.2-0.2,0.7-0.2,0.9
				c0,0.2,0.3,0.4,0.7,0.3c0.4-0.1,0.5-0.9,0.5-0.9c0,0,0,0,0,0c0.5,0,1-0.1,1.3-0.3c0,0,0,0,0,0c0,0,0.3,0.6,0.7,0.7
				C56.3,156.9,56.8,156.3,56.7,156.1z M54.2,154.9c-0.4,0-1.1-0.5-1.2-1.2c-0.1-0.5,0.5-1.4,1.3-1.4c0.4,0,1.2,0.1,1.3,0.9
				C55.7,154.2,54.6,155,54.2,154.9z"/>
			<path id="XMLID_2727_" class="st8" d="M164.8,93c-0.9,0.3-2.2,0.4-3.1-0.3c-0.9-0.7-1.4-3.1-0.3-4.4c0.4-0.4,1.1-1,2-1.1
				c-0.3-0.8-0.7-1.6-1-2.2c0,0-1.2,0.1-3.3,0.3c-0.8,0.8-1.2,1.7-1.5,2.6c0,0,0,0,0,0c0,0-1.5-0.4-2.4,0c-0.4,0.2-0.3,2.1,0.3,2.3
				c0.6,0.2,1.3,0.4,1.8,0.3c0.3,0.8,0.3,1.2,0.2,1.9c-0.3,0-1.3,0.1-1.8,0.5c-0.6,0.4,0,2.2,0.3,2.4c0.3,0.1,1.8-0.7,2.2-0.9
				c0.5,0.8,1.1,1.6,2,2c-0.1,0.3-0.6,1.4-0.5,2.2c0.1,0.9,1.3,1.1,1.8,0.8c0.4-0.3,0.7-1.8,0.8-2.3c1.2,0.1,2.3-0.1,3-0.3
				C165.2,95.4,165,94.1,164.8,93z"/>
			<g id="XMLID_2719_">
				<path id="XMLID_2698_" class="st7" d="M104,163.3c1.9-0.4,7.1-1.4,7.4-1.1c0.3,0.3,2.2,3.4,0,3.8c-2.2,0.3-5.8,0.4-7.6-0.3
					C103.1,165.3,102.1,163.7,104,163.3z"/>
				<path id="XMLID_2695_" class="st6" d="M115.7,159.6c0,0-4.7-0.6-5.3,1c-0.7,1.9-1,7.4,2.2,7.4c3.2,0,3.5-0.2,3.5-0.2
					S116.7,160.6,115.7,159.6z"/>
				<path id="XMLID_2700_" class="st7" d="M116.7,167.3c-1.6,1.6-3.4-0.4-3.3-3.5c0.1-3.7,1.6-4.2,2.3-4.2c1,0,2,0.9,1.9,3.4
					C117.5,165.5,116.7,167.3,116.7,167.3z"/>
			</g>
			<g id="XMLID_2785_">
				<path id="XMLID_2789_" class="st7" d="M47,162.2c-1.9-0.4-7.1-1.4-7.4-1.1c-0.3,0.3-2.2,3.4,0,3.8c2.2,0.3,5.8,0.4,7.6-0.3
					C47.9,164.2,48.9,162.6,47,162.2z"/>
				<path id="XMLID_2788_" class="st6" d="M35.3,158.5c0,0,4.7-0.6,5.3,1c0.7,1.9,1,7.4-2.2,7.4c-3.2,0-3.5-0.2-3.5-0.2
					S34.3,159.5,35.3,158.5z"/>
				<path id="XMLID_2786_" class="st7" d="M34.3,166.2c1.6,1.6,3.4-0.4,3.3-3.5c-0.1-3.7-1.6-4.2-2.3-4.2c-1,0-2,0.9-1.9,3.4
					C33.5,164.4,34.3,166.2,34.3,166.2z"/>
			</g>
			<g id="XMLID_2743_">
				<path id="XMLID_2746_" class="st7" d="M183.1,22.5c0.7-0.9,2.6-3.2,2.8-3.2c0.2,0,2.2,0.7,1.4,1.6c-0.8,0.9-2.4,2.3-3.4,2.6
					C183.4,23.7,182.4,23.4,183.1,22.5z"/>
				<path id="XMLID_2745_" class="st6" d="M186.8,16.6c0,0-2.2,1.5-1.9,2.4c0.4,1.1,2.2,3.6,3.6,2.4c1.4-1.2,1.4-1.3,1.4-1.3
					S187.6,16.7,186.8,16.6z"/>
				<path id="XMLID_2744_" class="st7" d="M190,19.6c-0.1,1.3-1.6,1.1-2.7-0.3c-1.3-1.6-0.8-2.4-0.6-2.6c0.4-0.3,1.2-0.4,2,0.8
					C189.7,18.5,190,19.6,190,19.6z"/>
			</g>
			<path id="XMLID_2699_" class="st3" d="M17.2,121.2l4.5-0.2c5.1-9.5,0.3-16.8,0.3-16.8h-4C18,104.2,19.5,117.4,17.2,121.2z"/>
			<path id="XMLID_2701_" class="st4" d="M18,104.2c0,0-3.4-0.2-3.8,6.5c-0.6,8.3,1.2,11.3,3,10.5s3.1-3.4,2.8-9.6
				C19.7,105.5,18.9,104.4,18,104.2z"/>
			<g id="XMLID_2663_">
				<path id="XMLID_2656_" class="st2" d="M99.5,161.9c-1.7,1.9-11.5,9.8-9.7,16.3c2,7.4,22.8,13.3,22.8,13.3l-8.4,15.2
					c0,0-35.9-5.7-32.3-30c0,0,3-15.6,10-21.8c2.4-2.1,8.2-2.3,11.4-1.4C98,154.9,101.6,159.6,99.5,161.9z"/>
				<path id="XMLID_2662_" class="st2" d="M112.6,191.6c0,0,11-2.6,17.2-1.5c0,0,6.3,4.1,6.8,13.2c0,0-10.8,23.6-30.2,34.3
					c0,0-5.8-9.7-2.4-29.7C106.3,194.7,112.6,191.6,112.6,191.6z"/>
				<path id="XMLID_2709_" class="st3" d="M136.6,203.3c0,0-10.8,23.6-30.3,34.3c-2-31,23.4-47.5,23.4-47.5S136.2,194.3,136.6,203.3
					z"/>
				<path id="XMLID_2708_" class="st3" d="M96.7,164.7c-2.2,2.1-4.9,5.1-6.3,8.3c-0.5-0.2-1.1-0.3-1.7-0.4
					c-3.7-0.6-7.6,0.1-11.1,1.6c-2,0.8-4,1.9-5.8,3c0-0.2,0-0.3,0.1-0.5c0,0,1.4-7,4.4-13.5c3.5-1.5,7.4-2.1,11.2-1.6
					C90.8,161.9,93.9,163,96.7,164.7z"/>
				<path id="XMLID_2707_" class="st3" d="M102.5,187.9c-1.8,1.4-3.3,3-4.6,4.8c-2.3,3.2-3.8,7.1-4.4,11.1
					c-5.9-2.1-12.9-5.7-17.3-11.2c0.6-0.7,1.2-1.3,1.8-2c2.8-3,6.1-5.6,9.8-7.6c1.3-0.7,2.6-1.3,4-1.7
					C94.2,183.9,98.4,186.1,102.5,187.9z"/>
				<path id="XMLID_2704_" class="st9" d="M67.8,180.4"/>
			</g>
			<g id="XMLID_2742_">
				<path id="XMLID_2665_" class="st2" d="M162.8,247.4c0,0-3.6-48,16.3-87.2c0,0,6.8-4.3,15.5,4.3c0,0-18.1,43-12.8,80.8
					L162.8,247.4z"/>
				<path id="XMLID_2664_" class="st3" d="M162.8,247.4c0,0-0.2-6.6,8.8-7c6-0.2,9.3,1.4,10.3,4.9c0.9,3.5-2.3,6.7-8.4,7.4
					C167.7,253.3,163.4,251.5,162.8,247.4z"/>
				<path id="XMLID_2711_" class="st3" d="M182.6,208.8c-0.8,5.4-1.4,11-1.6,16.7c-2.8-0.6-5.6-0.8-8.5-0.4
					c-3.4,0.4-6.8,1.6-9.7,3.3c0.3-5.7,0.8-12.5,1.9-19.8c3.8-1.2,7.9-1.5,11.9-1.1C178.6,207.8,180.6,208.2,182.6,208.8z"/>
				<path id="XMLID_2710_" class="st3" d="M190.1,177.4c-1.4,4.5-3,10-4.5,16.1c-4.5-1.5-9.3-2-14-1.6c-1.3,0.1-2.7,0.3-4,0.7
					c1.3-5.5,2.9-11.2,4.9-16.9C178.4,175,184.4,175.6,190.1,177.4z"/>
			</g>
			<path id="XMLID_2715_" class="st4" d="M187.8,46.4c-0.2,0.2-0.4,0.5-0.5,0.7c-9.9,12.9-22.5,21.2-44.7,22.6
				c-22.2,1.3-31.2-12-31.2-12c-1.6-9.5,6.8-9.6,6.8-9.6c0-8,9.6-8.5,9.6-8.5s1.7-8.1,18.8-9.6c15.7-1.4,22.8,5.3,22.8,5.3
				c6-0.9,8.8,4.5,8.8,4.5C183.9,38,187.3,45.4,187.8,46.4z"/>
			<g id="XMLID_2638_">
				<path id="XMLID_2591_" class="st3" d="M190,54.5c0,0,8.8-1.3,12.8-0.5c0,0-3.6,9.9,1.5,27.1c0,0-10.8,0.3-11.4,0.1
					C189.9,80,184.8,65.4,190,54.5z"/>
				<path id="XMLID_2650_" class="st2" d="M202.7,53.9c0,0,4,0.7,5,7.5C209.1,70,208,81,204.3,81C198.3,81,196.7,57.7,202.7,53.9z"
					/>
				<path id="XMLID_2688_" class="st4" d="M196.9,81.2c-2,0-3.7,0-4-0.1c-3-1.1-8.1-15.7-2.9-26.6c0,0,2.1-0.3,4.6-0.5
					c-2.3,8.3-1.8,17.3,1.4,25.3C196.3,80,196.5,80.6,196.9,81.2z"/>
			</g>
			<g id="XMLID_2661_">
				<path id="XMLID_2659_" class="st2" d="M251.4,116.7c-4-1.9-15.1-3.9-17.7,1c-2.5,5,10.5,5.8,15.8,5.1
					C254.9,122.1,253.6,117.7,251.4,116.7z"/>
				<path id="XMLID_2723_" class="st3" d="M246.7,123.1c-2,0.1-4.4,0-6.5-0.4c0.3-2.7,0.3-5.4-0.1-8c2.3-0.2,4.8,0.2,7.1,0.6
					C247.5,117.9,247.3,120.5,246.7,123.1z"/>
				<path id="XMLID_2657_" class="st2" d="M208.5,59c0,0-3.6,0.9-4.1,7.1c-0.2,2.4-0.3,7.1,5.2,7.9c6.3,0.9,42.1,3.2,42.4,35.9
					c0,0,0,0,0,0c0.2,0.3,8.6,7.9,15.2,0c0,0-2.2-32.8-30.3-45.4C221.5,57.6,208.5,59,208.5,59z"/>
				<path id="XMLID_2658_" class="st3" d="M251.9,109.9c0,0.1-6.9,11.5-7,21c0,0,12.6,10.2,24.6,4.9c0,0,2.6-5.9-2.4-25.9
					L251.9,109.9C252,109.9,252,109.9,251.9,109.9z"/>
				<path id="XMLID_2705_" class="st3" d="M241.3,66.7c-4.4,3-7.8,7.7-9.2,12.8c-4.9-2.3-10-3.6-14.1-4.4c0.8-5.3,2.6-10.5,5.4-15.1
					c4.1,0.8,8.7,2.2,13.6,4.4C238.4,65.2,239.9,65.9,241.3,66.7z"/>
				<path id="XMLID_2692_" class="st3" d="M263,93.1c-1.6,0.2-3.2,0.5-4.7,1c-3.2,1-5.9,2.4-8.2,4.1c-1.7-4.9-4.4-8.7-7.7-11.8
					c3-3.9,6.7-7.2,10.9-9.7C257.9,82,260.9,87.8,263,93.1z"/>
				<g id="XMLID_2649_">
					<path id="XMLID_2660_" class="st2" d="M246.6,128.2c-2.8,3.4-5.9,16.8-1.3,17.7c5.5,1,6.1-8.4,6.3-13.7
						C251.9,126.3,247.5,127.1,246.6,128.2z"/>
					<path id="XMLID_2680_" class="st3" d="M251.6,133.9c-0.1,2-0.3,4.3-0.8,6.3c-0.9-1-2.1-1.8-3.4-2.2c-1.3-0.5-2.7-0.6-4.1-0.4
						c0.3-2,0.9-4.1,1.5-5.8c0.7-0.1,1.6,0,2.7,0.2C248.8,132.3,250.3,133,251.6,133.9z"/>
				</g>
				<g id="XMLID_2666_">
					<path id="XMLID_2678_" class="st2" d="M255.9,131.4c-2.8,3.4-5.9,16.8-1.3,17.7c5.5,1,6.1-8.4,6.3-13.7
						C261.1,129.5,256.8,130.3,255.9,131.4z"/>
					<path id="XMLID_2674_" class="st3" d="M260.8,137.1c-0.1,2-0.3,4.3-0.8,6.3c-0.9-1-2.1-1.8-3.4-2.2c-1.3-0.5-2.7-0.6-4.1-0.4
						c0.3-2,0.9-4.1,1.5-5.8c0.7-0.1,1.6,0,2.7,0.2C258.1,135.5,259.5,136.2,260.8,137.1z"/>
				</g>
				<g id="XMLID_2679_">
					<path id="XMLID_2717_" class="st2" d="M263.8,132.1c-2,3.9-2,17.7,2.7,17.5c5.6-0.2,4.1-9.5,3.1-14.8
						C268.6,129.1,264.5,130.8,263.8,132.1z"/>
					<path id="XMLID_2681_" class="st3" d="M269.9,136.5c0.3,2,0.6,4.2,0.6,6.3c-1.1-0.8-2.5-1.3-3.8-1.4c-1.4-0.1-2.8,0-4.1,0.6
						c-0.1-2-0.1-4.2,0.2-6c0.7-0.2,1.5-0.4,2.7-0.4C266.9,135.6,268.5,135.9,269.9,136.5z"/>
				</g>
			</g>
			<g id="XMLID_2675_">
				<path id="XMLID_2731_" class="st1" d="M154.1,46.3c-0.1,0-0.2,0-0.3-0.1c-4.4-4-6.7-10.2-6.1-16.2c0.2-2.2,1-5.2,3.3-7
					c0.3-0.3,0.7-0.5,1.1-0.7c0.6-4.2,3.4-8.1,7.5-9.5c3-1.1,6.4-0.7,9.2,0.8c0-0.4,0-0.9,0.1-1.3c0.4-3.1,2.7-5.9,5.7-6.9
					c3-1,6.5-0.1,8.7,2.1c0.2,0.2,0.2,0.5,0,0.6c-0.2,0.2-0.5,0.2-0.6,0c-2-2-5.1-2.8-7.8-1.9c-2.7,0.9-4.7,3.3-5.1,6.1
					c-0.1,0.6-0.1,1.1,0,1.7c1.9,1.2,3.4,2.9,4.3,4.9c0.3,0.7,0.2,1.4-0.3,1.6c-0.5,0.2-1-0.1-1.2-0.2c-1.9-1.3-3.3-3.5-3.6-5.8
					c-2.7-1.6-6-2.1-9-1c-3.5,1.3-6.1,4.6-6.8,8.3c2.5-0.8,5.4-0.2,7.3,1.7c1.1,1.1,1.7,2.5,1.7,3.9c0,1.6-0.8,3-2.1,3.8
					c-1.4,0.8-3.4,0.6-4.9-0.4c-1.6-1.1-2.3-2.9-2.7-4.1c-0.3-1.1-0.4-2.2-0.4-3.3c-0.1,0.1-0.3,0.2-0.4,0.3c-2,1.7-2.7,4.4-2.9,6.4
					c-0.6,5.7,1.7,11.6,5.8,15.4c0.2,0.2,0.2,0.5,0,0.6C154.3,46.2,154.2,46.3,154.1,46.3z M152.8,22.8c-0.1,1.2,0,2.4,0.3,3.6
					c0.3,1.1,1,2.7,2.3,3.7c1.2,0.9,2.8,1,4,0.4c1-0.6,1.6-1.7,1.6-3c0-1.2-0.5-2.4-1.4-3.3C157.9,22.4,155,21.9,152.8,22.8z
					 M169.8,15.3c0.5,1.7,1.6,3.3,3.1,4.3c0.2,0.1,0.3,0.1,0.3,0.1c0,0,0-0.2-0.1-0.5C172.3,17.7,171.1,16.3,169.8,15.3z"/>
			</g>
			<g id="XMLID_2676_">
				<path id="XMLID_2728_" class="st1" d="M141,45.2C141,45.2,141,45.2,141,45.2c-0.3,0-0.5-0.3-0.4-0.5c0.4-3.4,0.8-7.3,0.1-10.9
					c-0.7-4-2.8-7.1-5.6-8.7c-0.6-0.3-1.3-0.6-1.9-0.8c0.2,0.6,0.3,1.2,0.4,1.8c0.4,2.3,0,5.5-2.4,6.6c-1,0.5-2.2,0.4-3.3-0.1
					c-1.2-0.6-2.1-1.7-2.4-3c-0.5-2.3,1-4.9,3.3-5.9c1-0.4,2-0.6,3.2-0.5c-1-2.6-2.8-4.9-5.1-6.5c-3.2-2.3-7.2-3.2-11-2.5
					c-0.2,0-0.5-0.1-0.5-0.4c0-0.2,0.1-0.5,0.4-0.5c4.1-0.7,8.3,0.2,11.7,2.6c2.6,1.8,4.5,4.4,5.6,7.4c0.9,0.2,1.8,0.5,2.7,1
					c3.1,1.7,5.3,5.1,6.1,9.3c0.7,3.8,0.3,7.7-0.1,11.2C141.4,45,141.2,45.2,141,45.2z M131.4,24c-0.8,0-1.6,0.2-2.4,0.5
					c-2,0.9-3.2,3-2.8,4.9c0.2,1,0.9,1.9,1.9,2.4c0.9,0.4,1.8,0.5,2.6,0.1c2-0.9,2.3-3.6,1.9-5.7c-0.1-0.7-0.3-1.5-0.5-2.2
					C131.9,24,131.6,24,131.4,24z"/>
			</g>
			<path id="XMLID_2677_" class="st10" d="M16.3,106.8c0,0-11.4-2.6-13.4-0.1c-2.6,3.2-2.3,10.3,0,11.7c2.3,1.5,13.4,0.1,13.4,0.1
				S19.6,112.2,16.3,106.8z"/>
			<g id="XMLID_2726_">
				<path id="XMLID_2780_" class="st11" d="M4.4,109.8c-0.1,0-0.1,0-0.2-0.1c-0.2-0.1-0.3-0.4-0.2-0.6c0.1-0.2,1.3-2.2,7.1-1
					c0.2,0,0.4,0.3,0.4,0.5c0,0.2-0.3,0.4-0.5,0.4c-5.1-1-6.1,0.5-6.1,0.6C4.7,109.7,4.6,109.8,4.4,109.8z"/>
			</g>
			<path id="XMLID_2637_" class="st1" d="M128.8,47.3c0,0,4.2-9.9,19.6-9.6c15.4,0.3,20.4,6,20.4,6s-11.1,9.6-17.8,10
				S128.8,47.3,128.8,47.3z"/>
			<path id="XMLID_2716_" class="st3" d="M178.2,39.8c-5.5,9.5-14.8,19.6-32.8,19.6c-16.9,0-27.2-11.3-27.2-11.3
				c0-8,9.6-8.5,9.6-8.5c5.9,9.7,18.1,9.2,18.1,9.2c14.1-0.3,23.6-13.5,23.6-13.5C175.4,34.4,178.2,39.8,178.2,39.8z"/>
			<g id="XMLID_2764_">
				<path id="XMLID_2693_" class="st2" d="M201.6,162.6c-0.6,0.9-1.9,8.8-1.9,8.8h14.7l1-7.9L201.6,162.6z"/>
				<polygon id="XMLID_2694_" class="st3" points="200.9,177.1 213.9,177.1 214.5,171.4 199.7,171.4 				"/>
				<polygon id="XMLID_2763_" class="st3" points="215.5,163.5 216.9,171.4 213.9,177.1 214.5,171.4 				"/>
			</g>
			<g id="XMLID_2766_">
				<path id="XMLID_2769_" class="st2" d="M63.1,173.3c-0.3,0.5-1,4.7-1,4.7h8l0.6-4.3L63.1,173.3z"/>
				<polygon id="XMLID_2768_" class="st3" points="62.7,181.1 69.7,181.1 70,178.1 62.1,178.1 				"/>
				<polygon id="XMLID_2767_" class="st3" points="70.6,173.8 71.3,178.1 69.7,181.1 70,178.1 				"/>
			</g>
			<g id="XMLID_2801_">
				<path id="XMLID_2804_" class="st2" d="M150.9,184.5c-0.3,0.5-1,4.7-1,4.7h8l0.6-4.3L150.9,184.5z"/>
				<polygon id="XMLID_2803_" class="st3" points="150.5,192.3 157.5,192.3 157.9,189.2 149.9,189.2 				"/>
				<polygon id="XMLID_2802_" class="st3" points="158.4,184.9 159.2,189.2 157.5,192.3 157.9,189.2 				"/>
			</g>
			<path id="XMLID_2653_" class="st3" d="M73.6,88.1l0.3,8.8l-5.4,1.2v6.7l5.6,0.7l0.5,4.5l-5.7,1.1l-0.4,7.6l6.5,1.2v5.9l-6.5,1.2
				l-0.1,6.7l5.8,2.2l-0.3,3.7c-0.1,2,1.1,3.9,3.1,4.5c5.6,1.6,16.5,3.9,20.3-1.1c2.6-3.5,6.4-30.9,1.3-51.3
				c-0.7-2.7-2.9-4.6-5.7-4.9C86.2,86,73.4,85.1,73.6,88.1z"/>
			<g id="XMLID_2781_">
				<path id="XMLID_2787_" class="st2" d="M79.2,144.6c-0.3-0.1-0.6-0.2-0.9-0.2c3-12.1,3-31.6,0-58.3c0.3,0,0.6,0,0.9-0.1
					C82.3,112.7,82.2,132.4,79.2,144.6z"/>
			</g>
			<g id="XMLID_2696_">
				<path id="XMLID_2794_" class="st1" d="M120.6,183.3c-1.2,0-2.3-0.3-3.3-0.9c-0.3-0.2-0.6-0.4-0.8-0.6c-0.6,0.2-1.2,0.3-1.8,0.3
					c-1.5-0.1-3-1-4-2.4c-0.9-1.4-1.2-3.2-0.6-4.6c0.1-0.2,0.3-0.3,0.4-0.2c0.2,0.1,0.3,0.3,0.2,0.4c-0.5,1.2-0.3,2.7,0.5,4
					c0.8,1.3,2.1,2.1,3.4,2.1c0.4,0,0.9,0,1.3-0.2c-1.3-1.5-1.9-3.7-1.4-5.6c0.3-1.1,1-2.4,2.4-2.5c1.4-0.2,2.6,1.1,3,2.4
					c0.4,1.5,0,3.2-1,4.5c-0.5,0.6-1,1.1-1.6,1.4c0.2,0.1,0.3,0.2,0.5,0.3c2,1.2,4.7,1.1,6.6-0.4c0.1-0.1,0.2-0.2,0.3-0.3
					c-0.5-0.4-0.9-0.8-1.3-1.3c-1.1-1.6-1.5-3.4-1.1-5.1c0.3-1.2,1.2-2.4,2.5-2.3c1.3,0,2.2,1.3,2.4,2.6c0.4,2.1-0.2,4.4-1.6,6
					c0.7,0.4,1.6,0.7,2.4,0.7c0.8,0,1.6-0.1,2.4-0.5c-0.1-0.1-0.2-0.1-0.2-0.2c-2.1-1.7-2.8-5-1.5-7.4c0.5-1,1.6-2.1,2.9-2.1
					c0,0,0,0,0,0c1.6,0,2.7,1.4,3.1,3c0.1-1.3,0.6-2.5,1.8-2.7c1.2-0.2,2.2,0.7,2.7,1.6c1.3,2.4,0.7,5.6-1.3,7.4
					c0.4,0.4,0.9,0.7,1.5,0.8c2.2,0.7,4.5-0.7,5.6-2.4c1.3-1.9,1.6-4.4,1.8-6.5c0-0.2,0.2-0.3,0.4-0.3c0.2,0,0.3,0.2,0.3,0.4
					c-0.2,2.2-0.5,4.8-1.9,6.8c-1.3,1.9-3.9,3.5-6.4,2.7c-0.7-0.2-1.4-0.6-1.9-1.1c-1.8,1.2-4.2,1.3-6.1,0.3c-1,0.5-2.1,0.8-3.1,0.8
					c-1,0-2-0.4-2.9-0.9c-0.2,0.2-0.3,0.3-0.5,0.4C123.4,182.9,122,183.3,120.6,183.3z M131.8,181.3c1.6,0.7,3.5,0.5,5-0.4
					c-1.3-1.5-1.8-3.5-2-4.7c-0.1,1.6-0.8,3.1-2,4.3C132.4,180.8,132.1,181,131.8,181.3z M117.1,173.8c-0.1,0-0.1,0-0.2,0
					c-1,0.1-1.6,1.2-1.8,2c-0.4,1.8,0.2,3.8,1.5,5.2c0.6-0.3,1.2-0.8,1.6-1.4c0.9-1.2,1.3-2.6,0.9-3.9
					C118.8,174.7,118,173.8,117.1,173.8z M131.5,172.3C131.5,172.3,131.5,172.3,131.5,172.3c-1.1,0-1.9,0.9-2.3,1.7
					c-1.1,2.2-0.5,5,1.4,6.6c0.2,0.1,0.3,0.2,0.5,0.4c0.4-0.3,0.8-0.6,1.1-0.9c1.2-1.3,1.9-2.9,1.8-4.5
					C133.9,173.9,133,172.3,131.5,172.3z M124.6,173.1c-0.9,0-1.5,0.9-1.8,1.8c-0.4,1.5-0.1,3.1,1,4.5c0.3,0.5,0.8,0.9,1.2,1.2
					c1.3-1.4,1.9-3.5,1.5-5.5C126.3,174.2,125.6,173.2,124.6,173.1C124.7,173.1,124.7,173.1,124.6,173.1z M136.7,172.6
					c-0.1,0-0.2,0-0.2,0c-1.3,0.3-1.3,2.2-1.1,3.2c0.2,1.1,0.7,3.2,1.9,4.6c1.8-1.6,2.4-4.4,1.2-6.6
					C138.1,173.2,137.4,172.6,136.7,172.6z"/>
			</g>
		</g>
	</g>
</g>
<g id="DESIGNED_BY_FREEPIK">
</g>
</svg>
