<?xml version="1.0" encoding="utf-8"?>
<!-- Generator: Adobe Illustrator 22.1.0, SVG Export Plug-In . SVG Version: 6.00 Build 0)  -->
<svg version="1.1" id="Layer_1" xmlns="http://www.w3.org/2000/svg" xmlns:xlink="http://www.w3.org/1999/xlink" x="0px" y="0px"
	 width="450px" height="584.3px" viewBox="0 0 450 584.3" style="enable-background:new 0 0 450 584.3;" xml:space="preserve">
<style type="text/css">
	.st0{fill:#ABB8C3;}
	.st1{opacity:0.3;}
</style>
<g transform="translate(300,300)">
	<path class="st0" d="M93-111c36,13,51.1,68,37.4,110.3c-13.7,42.3-56.1,72-79,114.4C28.6,156,25.4,211.1-5.1,246
		s-88.3,49.6-127.6,28.6c-39.2-20.9-59.9-77.5-59.8-123.7c0-46.1,20.7-81.8,30.5-116.5c9.7-34.6,8.4-68.1,24.2-84.6
		c15.7-16.6,48.5-16.2,93.3-30.5S57.1-124,93-111z"/>
</g>
<g transform="translate(300,300)" class="st1">
	<path class="st0" d="M10.7-257c47.7,18.6,111.6,39.5,131.8,79.2c20.2,39.8-3.1,98.3-35.3,149.6C75.1,23.2,34.1,67.3-18.8,92.7
		s-117.7,31.9-176.2,13.8C-253.5,88.3-305.6,45.4-299.5-2.7c6.2-48.1,70.6-101.3,92.7-150.8c22.1-49.6,1.8-95.3,12.5-120.5
		c10.7-25.1,52.2-29.5,88.9-23.7C-68.8-291.8-37.1-275.6,10.7-257z"/>
</g>
</svg>
