<?xml version="1.0" encoding="utf-8"?>
<!-- Generator: Adobe Illustrator 22.1.0, SVG Export Plug-In . SVG Version: 6.00 Build 0)  -->
<svg version="1.1" id="Layer_1" xmlns="http://www.w3.org/2000/svg" xmlns:xlink="http://www.w3.org/1999/xlink" x="0px" y="0px"
	 width="466.7px" height="474.9px" viewBox="0 0 466.7 474.9" style="enable-background:new 0 0 466.7 474.9;" xml:space="preserve"
	>
<style type="text/css">
	.st0{fill:#ABB8C3;}
	.st1{opacity:0.3;}
</style>
<g transform="translate(300,300)">
	<path class="st0" d="M28-150.8c32,43,76.3,55.2,105.7,89.6c29.4,34.5,44,91.1,23.2,127.7c-20.7,36.7-76.6,53.4-130.2,70
		c-53.6,16.7-104.8,33.3-151,22.4c-46.2-10.8-87.4-49.1-112.4-95.3c-24.9-46.3-33.5-100.4-24.1-151.1c9.3-50.7,36.5-97.9,75.8-139.6
		c39.2-41.8,90.4-78.1,125.9-59.3C-23.7-267.7-4-193.8,28-150.8z"/>
</g>
<g transform="translate(300,300)" class="st1">
	<path class="st0" d="M-270.7-33c0-53.9-33.4-92.9-28.9-119.4c4.5-26.4,46.9-40.3,93.4-70.2s97.2-75.7,149-77.4
		c51.9-1.7,104.9,40.8,118.3,92.3S48.2-95.6,16.6-56.9C-15-18.4-51.7-2.1-80.8,37.4c-29,39.3-50.1,101.7-91.5,125.8
		c-41.5,24.1-103.2,10-117.4-31.6C-303.9,89.9-270.7,21-270.7-33z"/>
</g>
</svg>
