<?xml version="1.0" encoding="utf-8"?>
<!-- Generator: Adobe Illustrator 22.1.0, SVG Export Plug-In . SVG Version: 6.00 Build 0)  -->
<svg version="1.1" id="Layer_1" xmlns="http://www.w3.org/2000/svg" xmlns:xlink="http://www.w3.org/1999/xlink" x="0px" y="0px"
	 width="570px" height="286.8px" viewBox="0 0 570 286.8" style="enable-background:new 0 0 570 286.8;" xml:space="preserve">
<style type="text/css">
	.st0{fill:#ABB8C3;}
	.st1{opacity:0.3;}
</style>
<g transform="translate(300,300)">
	<path class="st0" d="M127.3-260c48.9,5.3,115.2,21.6,135.6,53.3c20.3,31.8-5.3,79-40.3,116.5c-35,37.6-79.4,65.4-126.9,74
		C48.1-7.7-2.6-18.5-39.2-38.6s-59-49.6-84.1-80c-25.1-30.5-53-61.7-56.7-97.4c-3.7-35.7,16.8-75.7,53.4-82.8
		c36.6-7,89.3,19.1,131.4,29.3C46.9-259.5,78.4-265.2,127.3-260z"/>
</g>
<g transform="translate(300,300)" class="st1">
	<path class="st0" d="M20.5-294.9c37.3,11.3,63.4,44.3,47.8,69.4c-15.5,25-72.7,42.2-98.7,70.1c-25.9,27.9-20.5,66.7-44.2,93.5
		c-23.6,26.7-76.3,41.6-100.5,24c-24.2-17.6-19.9-67.6-43.8-103.2c-23.9-35.6-76-56.7-80.7-77.8c-4.7-21,37.9-41.8,76.8-52.9
		c38.9-11.1,74.1-12.4,115.8-18.3C-65.2-295.8-16.8-306.3,20.5-294.9z"/>
</g>
</svg>
