<?xml version="1.0" encoding="utf-8"?>
<!-- Generator: Adobe Illustrator 22.1.0, SVG Export Plug-In . SVG Version: 6.00 Build 0)  -->
<svg version="1.1" id="Layer_1" xmlns="http://www.w3.org/2000/svg" xmlns:xlink="http://www.w3.org/1999/xlink" x="0px" y="0px"
	 width="485.3px" height="338px" viewBox="0 0 485.3 338" style="enable-background:new 0 0 485.3 338;" xml:space="preserve">
<style type="text/css">
	.st0{fill:#ABB8C3;}
	.st1{opacity:0.3;}
</style>
<g transform="translate(300,300)">
	<path class="st0" d="M37.5-203.8c36.4,9.4,85,10.5,114.7,35.6s40.4,74.3,28,116.9c-12.5,42.8-48,79-86.7,82.5
		C54.8,34.8,13.1,5.6-15.2-15.4s-43.1-34-90.7-46.7c-47.6-12.8-128.2-25.4-133.5-45.2c-5.2-19.7,64.8-46.5,109.5-71.2
		c44.6-24.7,63.6-47.3,85.3-49.8C-23-230.8,1.1-213.2,37.5-203.8z"/>
</g>
<g transform="translate(300,300)" class="st1">
	<path class="st0" d="M87.5-279.4c35.1,21.5,50.9,74,32.8,111.6c-18.1,37.7-70.2,60.6-98.6,85.1C-6.8-58.2-11.6-32-25.3-24.6
		c-13.8,7.5-36.3-3.8-69.8-6.6c-33.6-2.9-78,2.8-121.5-18.4s-86-69.1-83.3-113.5c2.6-44.3,50.4-85.1,98.5-104.3
		s96.5-16.8,147.9-20.4C-2.1-291.3,52.3-300.9,87.5-279.4z"/>
</g>
</svg>
