<?xml version="1.0" encoding="utf-8"?>
<!-- Generator: Adobe Illustrator 23.1.0, SVG Export Plug-In . SVG Version: 6.00 Build 0)  -->
<svg version="1.1" id="Layer_1" xmlns="http://www.w3.org/2000/svg" xmlns:xlink="http://www.w3.org/1999/xlink" x="0px" y="0px"
	 width="334px" height="110px" viewBox="0 0 334 110" enable-background="new 0 0 334 110" xml:space="preserve">
<g display="none">
	<path display="inline" fill="#82B541" d="M43.8,28.3c-1.7-0.9-6.4-0.4-12.2,1.4c-10,6.9-18.5,16.9-19.1,33.2
		c-0.1,0.4-1.1-0.1-1.3-0.2c-2.7-5.2-3.8-10.7-1.5-18.5c0.4-0.7-1-1.6-1.2-1.3C8,43.4,6,45.6,4.6,48c-6.8,11.8-2.4,26.9,9.6,33.6
		c11.9,6.6,27,2.4,33.6-9.6C55.4,58.2,48.3,30.8,43.8,28.3L43.8,28.3z"/>
	<path display="inline" d="M86.4,34.9c-14.1,0-24.4,10.5-24.4,25c0,14.6,10.2,24.8,24.9,24.8c7.4,0,13.3-2.3,17.9-7.1
		c1.4-1.5,1.5-2.9,1.5-3.5c0-2.4-1.8-4.1-4.2-4.1c-1.2,0-2.2,0.5-3.4,1.5c-2.6,2.5-6.1,5-11.9,5c-8,0-14.5-6-14.9-13.7h31.9
		c3.5,0,5.2-1.6,5.2-5c0-1,0-1.7-0.2-3.1C107.1,42.3,98.7,34.9,86.4,34.9L86.4,34.9z M86.4,42.7c7.7,0,12.6,4.9,12.9,12.8H72
		C72.7,48.1,78.9,42.7,86.4,42.7L86.4,42.7z"/>
	<path display="inline" d="M139.5,34.9c-6.4,0-12.8,3.7-15.2,8.8v-3.2c0-4.9-3.8-5.2-4.6-5.2c-2.3,0-4.7,1.4-4.7,5.2v38.2
		c0,5.1,4,5.4,4.9,5.4c0.8,0,4.9-0.3,4.9-5.4V58.3c0-8.9,5.1-15.2,12.3-15.2c7,0,10.4,4.6,10.4,14.1v21.6c0,5.1,4,5.4,4.9,5.4
		s4.9-0.3,4.9-5.4V54.2C157.2,44.9,152.5,34.9,139.5,34.9L139.5,34.9z"/>
	<path display="inline" d="M201.1,35.4c-2.2,0-3.9,1.3-4.8,3.9L183,72.7l-13.2-33.4c-1-2.6-2.6-3.9-4.9-3.9c-2.7,0-4.9,2.1-4.9,4.7
		c0,0.6,0.1,1.5,0.6,2.7l15.3,36.1c1.8,4.4,4.8,5.3,7,5.3c2.2,0,5.2-0.9,7-5.3l15.4-36.3c0.5-1.3,0.6-2.2,0.6-2.6
		C205.9,37.4,203.8,35.4,201.1,35.4L201.1,35.4z"/>
	<path display="inline" d="M229.4,34.9c-6.2,0-12,1.7-16.3,4.9c-1.5,1-2.2,2.3-2.2,3.8c0,2.2,1.7,3.9,3.8,3.9c0.9,0,1.9-0.4,2.9-1
		c3.7-2.5,7.2-3.6,10.9-3.6c7.2,0,11.3,3.7,11.3,10v1.1c-16.1,0-32.5,2-32.5,16c0,10.1,8.6,14.6,17.2,14.6c6.8,0,12.2-2.7,15.7-7.8
		v2.5c0,3.7,2.5,5,4.6,5c0.4,0,4.4-0.1,4.4-5V53.5C249.1,41.8,241.7,34.9,229.4,34.9L229.4,34.9z M237.7,61.1h2v2.2
		c0,8.2-5.2,13.5-13.3,13.5c-2.2,0-9.3-0.5-9.3-7.1C217.2,62,228.9,61.1,237.7,61.1L237.7,61.1z"/>
	<path display="inline" d="M274.4,44.2c4.3,0,4.5-3.3,4.5-4c0-2-1.2-4.1-4.5-4.1h-8.7v-8.8c0-3.9-2.6-5.4-4.8-5.4
		c-0.8,0-4.9,0.3-4.9,5.4v42c0,9.7,4.8,14.8,13.8,14.8c2.3,0,4.6-0.4,6.1-1.1c1.7-0.9,2.7-2.3,2.7-3.8c0-2.2-1.6-3.9-3.9-3.9
		c-0.4,0-1.1,0.1-1.7,0.3c-0.8,0.2-1.4,0.3-2,0.3c-3.7,0-5.4-2.4-5.4-7.6V44.2L274.4,44.2L274.4,44.2z"/>
	<path display="inline" d="M306.5,34.9c-14.7,0-25.4,10.4-25.4,24.8c0,7,2.6,13.4,7.3,17.9c4.7,4.5,11.1,7,18.1,7
		c14.5,0,25.5-10.7,25.5-25C332,45.3,321.3,34.9,306.5,34.9L306.5,34.9z M306.5,76.4c-10.1,0-15.3-8.4-15.3-16.7
		c0-11.4,8-16.6,15.3-16.6c7.4,0,15.3,5.2,15.3,16.6C321.9,71.2,313.9,76.4,306.5,76.4L306.5,76.4z"/>
</g>
<g display="none">
	<path display="inline" fill="#706D6E" d="M332.6,51v-5.8h-7.2v-9.1l-0.2,0.1l-6.8,2.1l-0.1,0v6.9h-10.7v-3.8c0-1.8,0.4-3.1,1.2-4.1
		c0.8-0.9,1.9-1.4,3.3-1.4c1,0,2.1,0.2,3.1,0.7l0.3,0.1v-6.1l-0.1,0c-1-0.4-2.3-0.5-4-0.5c-2.1,0-4,0.5-5.7,1.4
		c-1.7,0.9-3,2.2-3.9,3.9c-0.9,1.7-1.4,3.6-1.4,5.7v4.2h-5V51h5v24.5h7.2V51h10.7v15.6c0,6.4,3,9.7,9,9.7c1,0,2-0.1,3.1-0.3
		c1.1-0.2,1.8-0.5,2.2-0.7l0.1-0.1v-5.9l-0.3,0.2c-0.4,0.3-0.9,0.5-1.5,0.6c-0.6,0.2-1.1,0.2-1.4,0.2c-1.4,0-2.4-0.4-3.1-1.1
		c-0.6-0.8-1-2.1-1-3.9V51H332.6L332.6,51z M279.1,70.4c-2.6,0-4.7-0.9-6.2-2.6c-1.5-1.7-2.2-4.2-2.2-7.3c0-3.2,0.7-5.7,2.2-7.5
		c1.5-1.7,3.5-2.6,6.1-2.6c2.5,0,4.5,0.8,5.9,2.5c1.4,1.7,2.2,4.2,2.2,7.4c0,3.3-0.7,5.8-2,7.5C283.7,69.5,281.7,70.4,279.1,70.4
		L279.1,70.4z M279.4,44.4c-5,0-9,1.5-11.8,4.4c-2.8,2.9-4.3,6.9-4.3,11.9c0,4.8,1.4,8.6,4.2,11.4c2.8,2.8,6.5,4.2,11.2,4.2
		c4.9,0,8.8-1.5,11.6-4.4c2.8-2.9,4.3-6.9,4.3-11.8c0-4.8-1.3-8.7-4-11.4C287.9,45.8,284.1,44.4,279.4,44.4L279.4,44.4z M251.7,44.4
		c-3.4,0-6.2,0.9-8.4,2.6c-2.2,1.7-3.3,4-3.3,6.7c0,1.4,0.2,2.7,0.7,3.8c0.5,1.1,1.2,2,2.2,2.8c1,0.8,2.4,1.6,4.4,2.5
		c1.6,0.7,2.9,1.3,3.7,1.7c0.8,0.4,1.3,0.9,1.6,1.3c0.3,0.4,0.4,1,0.4,1.7c0,2-1.5,3-4.7,3c-1.2,0-2.5-0.2-4-0.7
		c-1.5-0.5-2.8-1.2-4-2.1l-0.3-0.2v7l0.1,0.1c1,0.5,2.3,0.9,3.8,1.2c1.5,0.3,2.9,0.5,4.1,0.5c3.7,0,6.7-0.9,8.8-2.6
		c2.2-1.7,3.3-4.1,3.3-6.9c0-2-0.6-3.8-1.8-5.2c-1.2-1.4-3.2-2.7-6-3.8c-2.3-0.9-3.7-1.7-4.3-2.2c-0.6-0.6-0.9-1.3-0.9-2.3
		c0-0.9,0.4-1.6,1.1-2.2c0.7-0.6,1.8-0.9,3.1-0.9c1.2,0,2.4,0.2,3.7,0.6c1.2,0.4,2.3,0.9,3.2,1.5l0.3,0.2v-6.6l-0.1,0
		c-0.8-0.4-1.9-0.7-3.2-0.9C253.9,44.6,252.7,44.4,251.7,44.4L251.7,44.4z M221.2,70.4c-2.6,0-4.7-0.9-6.2-2.6
		c-1.5-1.7-2.2-4.2-2.2-7.3c0-3.2,0.7-5.7,2.2-7.5c1.5-1.7,3.5-2.6,6.1-2.6c2.5,0,4.5,0.8,5.9,2.5c1.4,1.7,2.2,4.2,2.2,7.4
		c0,3.3-0.7,5.8-2,7.5C225.8,69.5,223.8,70.4,221.2,70.4L221.2,70.4z M221.5,44.4c-5,0-9,1.5-11.8,4.4c-2.8,2.9-4.3,6.9-4.3,11.9
		c0,4.8,1.4,8.6,4.2,11.4c2.8,2.8,6.5,4.2,11.2,4.2c4.9,0,8.8-1.5,11.6-4.4c2.8-2.9,4.3-6.9,4.3-11.8c0-4.8-1.3-8.7-4-11.4
		C229.9,45.8,226.2,44.4,221.5,44.4L221.5,44.4z M194.4,50.4v-5.3h-7.1v30.4h7.1V60c0-2.6,0.6-4.8,1.8-6.5c1.2-1.6,2.7-2.4,4.6-2.4
		c0.6,0,1.4,0.1,2.1,0.3c0.8,0.2,1.3,0.4,1.7,0.7l0.3,0.2v-7.2l-0.1,0c-0.7-0.3-1.6-0.4-2.8-0.4c-1.8,0-3.4,0.6-4.8,1.7
		C196,47.4,195.2,48.7,194.4,50.4L194.4,50.4L194.4,50.4z M174.5,44.4c-3.3,0-6.2,0.7-8.7,2.1c-2.5,1.4-4.4,3.4-5.7,5.9
		c-1.3,2.5-2,5.5-2,8.7c0,2.9,0.6,5.5,1.9,7.8c1.3,2.3,3.1,4.1,5.3,5.4c2.3,1.3,4.9,1.9,7.8,1.9c3.4,0,6.3-0.7,8.6-2l0.1-0.1v-6.5
		l-0.3,0.2c-1.1,0.8-2.2,1.4-3.5,1.8c-1.3,0.4-2.4,0.7-3.4,0.7c-2.8,0-5.1-0.9-6.7-2.6c-1.6-1.7-2.5-4.2-2.5-7.2
		c0-3.1,0.9-5.6,2.6-7.4c1.7-1.8,4-2.8,6.7-2.8c2.3,0,4.6,0.8,6.8,2.4l0.3,0.2V46l-0.1-0.1c-0.8-0.5-1.9-0.8-3.3-1.1
		C177.1,44.6,175.8,44.4,174.5,44.4L174.5,44.4z M153.2,45.2H146v30.4h7.1V45.2L153.2,45.2z M149.7,32.2c-1.2,0-2.2,0.4-3,1.2
		c-0.8,0.8-1.3,1.8-1.3,3c0,1.2,0.4,2.1,1.3,2.9c0.8,0.8,1.9,1.2,3.1,1.2c1.2,0,2.2-0.4,3.1-1.2c0.8-0.8,1.3-1.8,1.3-2.9
		c0-1.1-0.4-2.1-1.2-2.9C152,32.6,150.9,32.2,149.7,32.2L149.7,32.2z M131.9,42.9v32.6h7.3V33.2h-10.1l-12.8,31.5l-12.4-31.5H93.3
		v42.4h6.9V42.9h0.2l13.1,32.6h5.2l12.9-32.6H131.9L131.9,42.9z"/>
	<path display="inline" fill="#F1511B" d="M35,52.6H1.4V19H35V52.6L35,52.6z"/>
	<path display="inline" fill="#80CC28" d="M72.1,52.6H38.5V19h33.6V52.6L72.1,52.6z"/>
	<path display="inline" fill="#00ADEF" d="M35,89.7H1.4V56.1H35V89.7L35,89.7z"/>
	<path display="inline" fill="#FBBC09" d="M72.1,89.7H38.5V56.1h33.6V89.7L72.1,89.7z"/>
</g>
<g display="none">
	<path display="inline" fill="#FF302F" d="M297.8,67.2l7.8,5.2c-2.5,3.7-8.6,10.1-19,10.1c-13,0-22.6-10-22.6-22.8
		c0-13.6,9.8-22.8,21.6-22.8c11.9,0,17.7,9.4,19.5,14.5l1,2.6l-30.5,12.6c2.3,4.6,5.9,6.9,11.1,6.9C291.7,73.5,295.2,71,297.8,67.2
		L297.8,67.2z M273.8,58.9l20.4-8.5c-1.1-2.8-4.5-4.9-8.5-4.9C280.7,45.6,273.6,50.1,273.8,58.9L273.8,58.9z"/>
	<path display="inline" fill="#20B15A" d="M249.2,13.6h9.8v66.8h-9.8V13.6L249.2,13.6z"/>
	<path display="inline" fill="#3686F7" d="M233.6,38.6h9.5v40.6c0,16.8-9.9,23.8-21.7,23.8c-11.1,0-17.7-7.4-20.2-13.5l8.7-3.6
		c1.6,3.7,5.4,8.1,11.5,8.1c7.5,0,12.2-4.7,12.2-13.4v-3.3h-0.3c-2.3,2.7-6.6,5.2-12,5.2c-11.4,0-21.9-9.9-21.9-22.8
		c0-12.9,10.5-22.9,21.9-22.9c5.4,0,9.8,2.4,12,5.1h0.3V38.6L233.6,38.6z M234.3,59.7c0-8.1-5.4-13.9-12.2-13.9
		c-6.9,0-12.7,5.9-12.7,13.9c0,8,5.8,13.7,12.7,13.7C229,73.5,234.3,67.7,234.3,59.7L234.3,59.7z"/>
	<path display="inline" fill="#FF302F" d="M145.4,59.5c0,13.2-10.2,22.8-22.8,22.8s-22.8-9.7-22.8-22.8c0-13.2,10.2-22.9,22.8-22.9
		S145.4,46.3,145.4,59.5L145.4,59.5z M135.4,59.5c0-8.2-5.9-13.8-12.8-13.8c-6.9,0-12.8,5.6-12.8,13.8c0,8.1,5.9,13.8,12.8,13.8
		C129.5,73.4,135.4,67.7,135.4,59.5L135.4,59.5z"/>
	<path display="inline" fill="#FFBA40" d="M195.3,59.6c0,13.2-10.2,22.8-22.8,22.8c-12.6,0-22.8-9.7-22.8-22.8
		c0-13.2,10.2-22.8,22.8-22.8C185,36.8,195.3,46.4,195.3,59.6L195.3,59.6z M185.2,59.6c0-8.2-5.9-13.8-12.8-13.8
		c-6.9,0-12.8,5.6-12.8,13.8c0,8.1,5.9,13.8,12.8,13.8C179.3,73.5,185.2,67.7,185.2,59.6L185.2,59.6z"/>
	<path display="inline" fill="#3686F7" d="M62.3,72.5c-14.3,0-25.5-11.5-25.5-25.9s11.2-25.9,25.5-25.9c7.7,0,13.4,3,17.5,6.9
		l6.9-6.9C80.8,15.2,73.1,11,62.3,11c-19.6,0-36.1,16-36.1,35.6s16.5,35.6,36.1,35.6c10.6,0,18.6-3.5,24.8-10
		c6.4-6.4,8.4-15.4,8.4-22.8c0-2.3-0.3-4.6-0.6-6.4H62.3v9.5h23.3c-0.7,5.9-2.6,10-5.3,12.8C76.8,68.7,71.6,72.5,62.3,72.5
		L62.3,72.5L62.3,72.5z"/>
</g>
<g display="none">
	<path display="inline" fill="#45535E" d="M17.3,27.3h10.5v23.3h22.1V27.3h10.5v57.2H49.9V60.7H27.8v23.8H17.3V27.3L17.3,27.3z"/>
	<path display="inline" fill="#45535E" d="M93.6,65.8c0,4.8-3.9,8.7-8.7,8.7c-4.8,0-8.7-3.9-8.7-8.7V41.2h-9.9v24.6
		c0,10.3,8.4,18.6,18.6,18.6c10.3,0,18.6-8.4,18.6-18.6V41.2h-9.9V65.8"/>
	<path display="inline" fill="#45535E" d="M131.3,41.5c-4.9,0-8.4,1.4-11.7,4.7V27.3h-10v35.1c0,13.1,9.5,22.1,20.2,22.1
		c11.9,0,22.2-9.1,22.2-21.5C152,50.8,142.5,41.5,131.3,41.5L131.3,41.5z M131.6,75.2c-6.8,0-11.9-5.6-11.9-12.2
		c0-6.6,5.2-12.3,11.9-12.3c5.7,0,10.9,5.6,10.9,12.3C142.5,69.6,137.3,75.2,131.6,75.2L131.6,75.2z"/>
	<path display="inline" fill="#45535E" d="M168.8,44c0-5,3.3-6.6,7-6.6c2.9,0,6.8,2.2,9.4,4.9l6.5-7.6c-3.3-4.4-9.9-7.4-15.3-7.4
		c-10.8,0-18.6,6.3-18.6,16.7c0,19.3,23.8,13.2,23.8,24c0,3.3-3.3,6.3-7,6.3c-5.9,0-7.8-2.9-10.5-5.9l-7.2,7.5
		c4.6,5.6,10.3,8.5,17.2,8.5c10.3,0,18.5-6.4,18.5-16.3C192.6,46.6,168.8,53.3,168.8,44"/>
	<path display="inline" fill="#45535E" d="M218.8,40.9c-10.7,0-20.2,9-20.2,22.1v35.2h10v-19c3.3,3.3,6.8,4.7,11.7,4.7
		c11.1,0,20.7-9.3,20.7-21.5C241.1,50.1,230.7,40.9,218.8,40.9L218.8,40.9z M220.6,74.6c-6.8,0-11.9-5.7-11.9-12.3
		c0-6.6,5.2-12.3,11.9-12.3c5.7,0,10.9,5.6,10.9,12.3C231.5,69,226.3,74.6,220.6,74.6L220.6,74.6z"/>
	<path display="inline" fill="#45535E" d="M314.5,75.2c-5.9,0-7.6-2.5-7.6-6.4V51.5h9.1v-8.7H307V31.2l-10.1,4.5v35.2
		c0,9,6.2,13.5,14.7,13.5c1.3,0,3-0.1,4-0.3L318,75C316.9,75.1,315.6,75.2,314.5,75.2"/>
	<path display="inline" fill="#F8761F" d="M288.2,52c-1.9-3.3-4.6-5.9-8-7.9c-2.5-1.5-5.1-2.4-8.1-2.8V30.9c2.9-1.2,4.8-4,4.8-7.2
		c0-4.4-3.5-7.9-7.9-7.9c-4.4,0-8,3.6-8,7.9c0,3.2,1.7,6,4.7,7.2v10.5c-2.3,0.3-4.8,1.1-7,2.2c-4.5-3.5-19.4-14.8-28.2-21.4
		c0.2-0.7,0.4-1.5,0.4-2.3c0-4.9-3.9-8.8-8.8-8.8s-8.8,3.9-8.8,8.8c0,4.9,3.9,8.8,8.8,8.8c1.7,0,3.2-0.5,4.5-1.3l1.8,1.4l25.3,18.2
		c-1.3,1.2-2.6,2.6-3.6,4.2c-2,3.2-3.3,6.7-3.3,10.5v0.8c0,2.7,0.5,5.2,1.4,7.6c0.8,2.1,1.9,4,3.3,5.7l-8.4,8.4
		c-0.7-0.3-1.5-0.4-2.3-0.4c-1.8,0-3.5,0.7-4.8,2c-1.3,1.3-2,3-2,4.8c0,1.8,0.7,3.5,2,4.8c1.3,1.3,3,2,4.8,2c1.8,0,3.5-0.7,4.8-2
		c1.3-1.3,2-3,2-4.8c0-0.7-0.1-1.4-0.3-2l8.7-8.7c1.2,0.8,2.5,1.5,3.9,2.1c2.7,1.2,5.7,1.9,9,1.9h0.6c3.6,0,7.1-0.9,10.3-2.6
		c3.4-1.8,6.1-4.4,8.1-7.6c2-3.2,3.1-6.8,3.1-10.7v-0.2C291,58.8,290.1,55.3,288.2,52L288.2,52z M277.6,70.2
		c-2.4,2.6-5.1,4.2-8.1,4.2H269c-1.7,0-3.5-0.5-5.1-1.4c-1.9-1-3.3-2.3-4.5-4.1c-1.2-1.7-1.9-3.6-1.9-5.6v-0.6c0-2,0.4-3.8,1.3-5.5
		c1-1.9,2.4-3.4,4.2-4.6c1.8-1.2,3.7-1.7,5.8-1.7h0.2c1.9,0,3.7,0.4,5.4,1.3c1.7,0.9,3.2,2.2,4.3,3.9c1.1,1.7,1.7,3.5,1.9,5.5
		c0,0.4,0,0.8,0,1.2C280.7,65.5,279.7,67.9,277.6,70.2L277.6,70.2z"/>
</g>
<g display="none">
	<path display="inline" fill="#DB3975" d="M323.6,54.4c0,25.6-20.7,46.3-46.3,46.4c-25.6,0-46.3-20.7-46.4-46.3v0
		c0-25.6,20.7-46.3,46.3-46.4C302.9,8,323.6,28.7,323.6,54.4L323.6,54.4"/>
	<path display="inline" fill="#FFFFFF" d="M258.9,40.6h7.6v31.7h-7.6V40.6z"/>
	<path display="inline" fill="#FFFFFF" d="M286.7,73.3c-9.9,0-16.5-7.2-16.5-16.9c0-9.7,6.7-16.7,16.2-16.7
		c8.8,0,16.4,6.2,16.4,16.7C302.8,66.3,296.3,73.3,286.7,73.3 M286.3,46.5c-4.8,0-8.2,3.8-8.2,9.6c0,6.5,4,10.2,8.6,10.2
		c5.5,0,8.3-4.8,8.1-10.1C294.7,51,291.7,46.5,286.3,46.5"/>
	<path display="inline" fill="#FFFFFF" d="M267.9,33.1c0,2.8-2.3,5-5,5c-2.8,0-5-2.3-5-5c0-2.8,2.3-5,5-5
		C265.6,28.1,267.9,30.4,267.9,33.1"/>
	<path display="inline" fill="#4C4D4A" d="M25,38.8h9.4l0,4.5c3.2-4,8.8-5.6,12.5-5.6c3.7,0,8.4,1.4,11,6.1
		c1.6-2.2,5.7-6.1,12.7-6.1c4,0,7.8,1.1,10.5,4c3.2,3.5,3.1,7.7,3.1,11.8v25.1h-9.4v-22c0-3.7,0.6-10-6.7-10c-3,0-5.5,1.7-6.7,3.7
		c-1.8,2.9-2.1,6.1-2.1,9.5v18.7h-9.4V56.4c0-2.9,0-3.9-0.3-5.1c-0.7-2.6-2.8-4.7-6.1-4.7c-2.9,0-5.6,1.7-7.3,4.6
		c-1.7,3.1-1.7,6.8-1.7,10.7v16.7H25L25,38.8"/>
	<path display="inline" fill="#4C4D4A" d="M87.7,38.9h9.4v3.6c1.5-1.6,4.7-4.8,10.9-4.8c11.7,0,18,10.5,18,21.4
		c0,11.8-7.4,20.6-18,20.6c-5.5,0-8.9-2.6-10.9-4.4v16.2h-9.4V38.9L87.7,38.9z M106.7,70.7c4.6,0,9.6-3.2,9.6-12.1
		c0-9.9-6.9-11.8-9.8-11.8c-4.4,0-9.4,3.2-9.5,11.7C96.9,66.6,101.4,70.7,106.7,70.7L106.7,70.7z"/>
	<path display="inline" fill="#4C4D4A" d="M149.4,79.7c-12.4,0-20.6-9-20.6-21.2c0-12.1,8.4-20.9,20.2-20.9c11,0,20.5,7.7,20.5,20.9
		C169.5,70.9,161.3,79.7,149.4,79.7 M148.9,46.2c-5.9,0-10.2,4.8-10.2,12c0,8.2,5,12.7,10.7,12.7c6.9,0,10.4-6,10.1-12.6
		C159.4,51.8,155.6,46.2,148.9,46.2"/>
	<path display="inline" fill="#4C4D4A" d="M181.8,38.9V45c1.2-2.1,3.8-6.7,12.7-6.5v9.8c-2.1,0.1-5.6,0.2-8.6,2.4
		c-4,3.1-4.1,7.1-4.1,13.7v14.2h-9.2V38.9H181.8"/>
	<path display="inline" fill="#4C4D4A" d="M11.8,38.8h9.7v39.9h-9.7V38.8z"/>
	<path display="inline" fill="#4C4D4A" d="M23.3,29.1c0,3.6-2.9,6.5-6.5,6.5c-3.6,0-6.5-2.9-6.5-6.5c0-3.6,2.9-6.5,6.5-6.5
		C20.4,22.7,23.3,25.6,23.3,29.1"/>
	<path display="inline" fill="#4C4D4A" d="M220.9,47.8v-1.4h0v-6.8h0V39h-8.5V25.6h-9.5V39h-6v8.8h6v18.1c0,4,0,6.5,0.6,8.1
		c1.8,4.8,8.5,4.8,10.5,4.8c2.1,0,4-0.2,6.9-0.6v-8c-1.3,0.4-2.5,0.5-4,0.5c-4.5,0-4.5-2.1-4.5-7.1V47.8H220.9"/>
</g>
<g display="none">
	<path display="inline" fill="#FF6600" d="M293.3,81c-0.7,3.4-4.2,6.1-7.6,6.1H32.3c-3.5,0-5.6-2.7-4.9-6.1l11.7-50.9
		c0.9-3.4,4.2-6.1,7.7-6.1h253.2c3.5,0,5.6,2.7,4.9,6.1L293.3,81"/>
	<path display="inline" fill="#FFFFFF" d="M141.2,47.6l-5.6,26.6h-26.1c-2.9,0-5.1-1.1-6.7-3.5c-1.6-2.4-2-5.1-1.4-8.1
		c0.6-3.1,2.2-5.7,4.7-8.1c2.6-2.4,5.4-3.5,8.2-3.5h17l0.6-2.9c0.1-0.7,0-1.5-0.4-2c-0.4-0.6-1-0.9-1.7-0.9h-22.5l2-9.6h23
		c3.1,0,5.6,1.1,7.4,3.6C141.3,41.5,142,44.3,141.2,47.6L141.2,47.6z M114.2,58.7c-0.7,0-1.5,0.2-2.1,0.9c-0.6,0.6-1.1,1.2-1.2,2
		c-0.1,0.4-0.1,0.7,0,1.1c0.1,0.4,0.2,0.6,0.4,0.9c0.2,0.2,0.5,0.5,0.7,0.6c0.2,0.1,0.6,0.2,1,0.2h15.6l1.2-5.7H114.2L114.2,58.7z
		 M163.9,54.8l8.4,19.3h-11.7l-4.2-11.2l-9,11.2h-11.6l16.6-19.3l-8.5-19.2h11.7l4.2,11.2l9-11.2h11.7L163.9,54.8L163.9,54.8z"/>
	<path display="inline" fill="#FFFFFF" d="M206.1,45.2h-17.3c-0.9,0-1.7,0.4-2.5,1c-0.7,0.6-1.2,1.5-1.5,2.4L182,61
		c-0.2,1-0.1,1.7,0.4,2.4c0.5,0.6,1.2,1,2.1,1h19.7l-2.1,9.6h-20.6c-3.1,0-5.6-1.1-7.4-3.5c-1.7-2.4-2.2-5.2-1.6-8.5l3.1-14.5
		c0.7-3.2,2.4-6.1,5.1-8.5c2.7-2.4,5.7-3.6,8.9-3.6H208L206.1,45.2L206.1,45.2z M246.5,54.7c1-4.9,0-9.7-3-13.3
		c-2.9-3.6-7.5-5.7-12.5-5.7h-17.6l-8.2,38.5h21c9.2-0.6,17.7-7.9,19.7-17L246.5,54.7L246.5,54.7z M236.9,52.6l-0.5,2.5
		c-1,4.9-6.4,9.2-11.5,9.2h-7.5l4-19h9.6c2,0,3.7,0.7,4.9,2C237,48.7,237.3,50.6,236.9,52.6L236.9,52.6z M286.3,47.6l-5.6,26.6h-9.1
		l5.5-25.6c0.1-0.5,0.1-0.9,0-1.2c-0.1-0.4-0.2-0.7-0.5-1.1c-0.2-0.2-0.5-0.5-0.9-0.7c-0.4-0.1-0.7-0.2-1.1-0.2h-15.2l-6.2,28.9H244
		l8.2-38.5h25.2c3.1,0,5.6,1.1,7.4,3.6C286.4,41.5,286.9,44.3,286.3,47.6L286.3,47.6z M98.9,40.2c-2.4-3-6.1-4.6-10.1-4.6H50.3
		l4.6,9.9l-6.1,28.7h10.1L65,45.5h8.6l-6.1,28.7h10.1l6.1-28.7h5.1c1.1,0,2,0.4,2.5,1c0.5,0.6,0.7,1.6,0.5,2.6l-5.4,25.1h10.1
		l4.9-23C102.2,47.2,101.3,43.2,98.9,40.2L98.9,40.2z"/>
</g>
<g display="none">
	<path display="inline" fill="#5F5F5F" d="M16.3,63.5v-28c0-0.9,0.7-1.6,1.6-1.6h8.3c0.9,0,1.6,0.7,1.6,1.6v27.7
		C27.8,71.6,32,76,38.9,76S50,71.8,50,63.6V35.5c0-0.9,0.7-1.6,1.6-1.6h8.3c0.9,0,1.6,0.7,1.6,1.6v27.6c0,15.7-8.8,23.4-22.7,23.4
		C24.8,86.5,16.3,78.7,16.3,63.5z M74.2,35.5c0-0.9,0.7-1.6,1.6-1.6h19.6c12.3,0,19.8,7.3,19.8,17.9V52c0,11.9-9.3,18.1-20.9,18.1
		h-8.7v14c0,0.9-0.7,1.6-1.6,1.6h-8.3c-0.9,0-1.6-0.7-1.6-1.6V35.5z M94.5,60c5.7,0,9-3.4,9-7.8v-0.1c0-5.1-3.6-7.8-9.3-7.8h-7.3
		c-0.9,0-1.6,0.7-1.6,1.6v12.7c0,0.9,0.7,1.6,1.6,1.6h7.6V60z M122.8,59.9v-0.2c0-14.7,11-26.7,27-26.7c9.1,0,13.9,3,18.8,6.6
		c0.7,0.5,0.8,1.5,0.3,2.2l-4.6,6.6c-0.5,0.7-1.5,0.8-2.2,0.4c-3.9-2.7-7.8-5.2-12.5-5.2c-8.7,0-15,7.2-15,16.1V60
		c0,8.9,7.2,16.5,16.1,16.1c4.8-0.2,8-1.7,11.2-4.8c0.6-0.6,1.5-0.6,2.1-0.1l5.5,4.8c0.6,0.6,0.7,1.6,0.1,2.2
		c-4.7,5.3-11,8.4-20.4,8.4C134.2,86.6,122.8,74.7,122.8,59.9z M229.8,76.5l5.4-5.1c0.6-0.6,1.6-0.5,2.2,0c3.9,3.7,8.5,4.9,13.9,4.9
		c4.6,0,7.5-1.9,7.5-4.8v-0.2c0-2.9-1.8-4.3-10.5-6.6c-10.5-2.7-17.2-5.5-17.2-15.8v-0.2c0-9.4,7.5-15.6,18.1-15.6
		c7,0,13,2.1,18,5.6c0.7,0.5,0.8,1.5,0.4,2.2l-4.2,6.1c-0.5,0.7-1.4,0.8-2.1,0.4c-4.1-2.7-8.2-4.2-12.2-4.2c-4.3,0-6.6,2-6.6,4.5
		v0.2c0,3.4,2.2,4.5,11.1,6.8c10.5,2.8,16.4,6.5,16.4,15.5v0.2c0,10.3-7.8,16.1-19,16.1c-7.3,0-15.8-2.1-21.2-7.6
		C229.1,78.1,229.1,77.1,229.8,76.5z M278.6,35.5c0-0.9,0.7-1.6,1.6-1.6H316c0.9,0,1.6,0.7,1.6,1.6v7c0,0.9-0.7,1.6-1.6,1.6h-24.7
		c-0.9,0-1.6,0.7-1.6,1.6V53c0,0.9,0.7,1.6,1.6,1.6h21.3c0.9,0,1.6,0.7,1.6,1.6v7c0,0.9-0.7,1.6-1.6,1.6h-21.3
		c-0.9,0-1.6,0.7-1.6,1.6v7.8c0,0.9,0.7,1.6,1.6,1.6h25c0.9,0,1.6,0.7,1.6,1.6v7c0,0.9-0.7,1.6-1.6,1.6h-36.3
		c-0.9,0-1.6-0.7-1.6-1.6V35.5z"/>
	
		<linearGradient id="SVGID_1_" gradientUnits="userSpaceOnUse" x1="0.3775" y1="110.7334" x2="0.3775" y2="110.2376" gradientTransform="matrix(100.0958 0 0 -82.5318 161.6645 9162.0244)">
		<stop  offset="0" style="stop-color:#487BF6"/>
		<stop  offset="1" style="stop-color:#0093CB"/>
	</linearGradient>
	<path display="inline" fill="url(#SVGID_1_)" d="M197.5,24c-5.7,8.3-22,32.2-27.2,40.4c-0.7,1-0.4,2.4,0.5,3.2
		c1.3,1,3.1,2.4,4.3,3.4c1,0.7,2.3,0.7,3.2-0.1c9.4-8.1,11.2-9.6,16.9-14.8c2.3-2.1,5.7-2.1,8,0c7.5,6.7,10.8,9.3,17,14.9
		c0.9,0.8,2.3,0.9,3.2,0.1c1.4-1.1,3.2-2.5,4.5-3.4c1-0.8,1.2-2.1,0.5-3.2c-5.3-8.3-21.5-32.1-27.2-40.4
		C200.6,22.6,198.5,22.6,197.5,24L197.5,24L197.5,24z"/>
</g>
<g display="none">
	<path display="inline" fill="#4A4A55" d="M112.3,76.3c-3.3,0.1-6.6-0.8-9.4-2.6c-2.6-1.7-4.5-4.3-5.5-7.2l5.7-2.1
		c0.8,1.8,2.1,3.4,3.7,4.5c1.7,1.1,3.6,1.7,5.6,1.7c1.9,0.1,3.8-0.5,5.4-1.6c1.4-1.1,2.1-2.9,2-4.7c0-0.8-0.2-1.6-0.6-2.4
		c-0.3-0.7-0.7-1.3-1.3-1.8c-0.6-0.6-1.4-1.1-2.2-1.4c-1-0.5-1.8-0.9-2.4-1.1c-0.6-0.3-1.6-0.6-2.8-1c-1.6-0.5-2.7-1-3.5-1.3
		c-1.1-0.4-2.1-1-3.1-1.5c-1.1-0.6-2-1.3-2.8-2.2c-0.7-0.8-1.3-1.8-1.7-2.8c-1.6-4-0.5-8.6,2.7-11.5c2.3-2.1,5.5-3.1,9.5-3.1
		c3.3,0,6.1,0.7,8.2,2.2c2.1,1.4,3.6,3.5,4.3,5.9l-5.6,1.9c-0.6-1.3-1.5-2.3-2.7-3c-1.4-0.8-3.1-1.2-4.7-1.1
		c-1.6-0.1-3.2,0.4-4.6,1.3c-1.1,0.9-1.7,2.2-1.7,3.6c0,1.1,0.5,2.1,1.3,2.8c0.8,0.8,1.7,1.4,2.7,1.8c0.9,0.4,2.3,0.9,4.2,1.6
		c1.2,0.4,2,0.7,2.6,1c0.6,0.2,1.4,0.6,2.5,1.1c0.9,0.4,1.7,0.8,2.5,1.4c0.7,0.5,1.4,1.1,2,1.7c0.7,0.6,1.3,1.3,1.8,2.1
		c0.5,0.8,0.8,1.7,1,2.6c0.3,1.1,0.4,2.2,0.4,3.3c0,3.8-1.3,6.8-3.9,8.9C119.7,75.2,116.3,76.3,112.3,76.3z M149.5,75.6l-14-40.7
		h6.5l9.2,28.4c0.5,1.5,0.9,3.1,1.3,4.7c0.3-1.6,0.8-3.1,1.3-4.7l9.1-28.4h6.5l-13.9,40.7H149.5z M181.8,75.6V34.9H207v5.7h-19.2
		v11.2h12.4v5.7h-12.4v12.4h20.5v5.7H181.8z M223.7,75.6V34.9h6v34.9h19.9v5.8H223.7z M272.5,40.7v34.9h-6V40.7h-11.5v-5.8H284v5.8
		L272.5,40.7z M296.5,75.6V34.9h25.2v5.7h-19.2v11.2h12.4v5.7h-12.4v12.4H323v5.7H296.5z"/>
	<g display="inline">
		<path fill="#FF3E00" d="M69.8,27.1C62.8,17,48.7,13.9,38.6,20.4L20.8,31.7c-4.9,3.1-8.2,8-9.2,13.7c-0.8,4.7-0.1,9.6,2.1,13.8
			c-1.5,2.3-2.6,4.9-3.1,7.6c-1,5.8,0.3,11.7,3.7,16.5c7.1,10.2,21.1,13.2,31.2,6.7l17.8-11.3c4.9-3.1,8.2-8,9.2-13.7
			c0.8-4.7,0.1-9.6-2.1-13.8c1.5-2.3,2.6-4.9,3.1-7.6C74.6,37.8,73.3,31.9,69.8,27.1"/>
		<path fill="#FFFFFF" d="M36.9,84.3c-5.7,1.5-11.8-0.8-15.2-5.6c-2-2.9-2.9-6.4-2.2-9.9c0.1-0.6,0.2-1.1,0.4-1.7l0.3-1l0.9,0.7
			c2.1,1.5,4.5,2.7,7,3.5l0.7,0.2l-0.1,0.7c-0.1,0.9,0.2,1.9,0.7,2.6c1,1.5,2.8,2.1,4.6,1.7c0.4-0.1,0.8-0.3,1.1-0.5l17.8-11.3
			c0.9-0.6,1.5-1.5,1.7-2.5c0.2-1-0.1-2.1-0.7-3c-1-1.5-2.8-2.1-4.6-1.7c-0.4,0.1-0.8,0.3-1.1,0.5l-6.8,4.3
			c-1.1,0.7-2.3,1.2-3.6,1.6c-5.7,1.5-11.8-0.8-15.2-5.6c-2-2.9-2.9-6.4-2.2-9.9c0.6-3.4,2.6-6.4,5.5-8.2l17.8-11.3
			c1.1-0.7,2.3-1.2,3.6-1.6c5.7-1.5,11.8,0.8,15.2,5.6c2,2.9,2.9,6.4,2.2,9.9c-0.1,0.6-0.2,1.1-0.4,1.7l-0.3,1l-0.9-0.7
			c-2.1-1.5-4.5-2.7-7-3.5L55.5,40l0.1-0.7c0.1-0.9-0.2-1.9-0.7-2.6c-1-1.5-2.8-2.1-4.6-1.7c-0.4,0.1-0.8,0.3-1.1,0.5L31.3,46.8
			c-0.9,0.6-1.5,1.5-1.7,2.5c-0.2,1,0.1,2.1,0.7,3c1,1.5,2.8,2.1,4.6,1.7c0.4-0.1,0.8-0.3,1.1-0.5l6.8-4.3c1.1-0.7,2.3-1.2,3.6-1.6
			c5.7-1.5,11.8,0.8,15.2,5.6c2,2.9,2.9,6.4,2.2,9.9c-0.6,3.4-2.6,6.4-5.5,8.2L40.5,82.7C39.4,83.4,38.1,83.9,36.9,84.3"/>
	</g>
</g>
<g>
	<path fill="#5468FF" d="M26.4,18h54.6c5.4,0,9.8,4.4,9.8,9.8v54.6c0,5.4-4.4,9.8-9.8,9.8H26.4c-5.4,0-9.8-4.4-9.8-9.8V27.7
		C16.7,22.4,21,18,26.4,18"/>
	<path fill="#FFFFFF" d="M61.5,34.6V32c0-1.8-1.4-3.2-3.2-3.2h-7.5c-1.8,0-3.2,1.4-3.2,3.2v2.6c0,0.3,0.3,0.5,0.6,0.4
		c2.1-0.6,4.3-0.9,6.5-0.9c2.1,0,4.3,0.3,6.3,0.9C61.2,35.1,61.5,34.9,61.5,34.6 M40.9,37.9l-1.3-1.3c-0.6-0.6-1.4-0.9-2.3-0.9
		c-0.9,0-1.7,0.3-2.3,0.9l-1.5,1.5c-0.6,0.6-0.9,1.4-0.9,2.3c0,0.9,0.3,1.7,0.9,2.3l1.3,1.3c0.2,0.2,0.5,0.2,0.7,0
		c0.7-1,1.6-2,2.5-2.9c0.9-0.9,1.9-1.7,2.9-2.5C41.1,38.4,41.1,38.1,40.9,37.9 M54.6,46v11c0,0.3,0.3,0.5,0.6,0.4l9.8-5.1
		c0.2-0.1,0.3-0.4,0.2-0.6c-2-3.6-5.8-6-10.1-6.1C54.8,45.5,54.6,45.7,54.6,46 M54.6,72.5c-8.2,0-14.8-6.6-14.8-14.8
		s6.6-14.8,14.8-14.8c8.2,0,14.8,6.6,14.8,14.8S62.8,72.5,54.6,72.5 M54.6,36.7c-11.6,0-21,9.4-21,21c0,11.6,9.4,20.9,21,20.9
		s21-9.4,21-21S66.2,36.7,54.6,36.7"/>
	<path fill="#5468FF" d="M164.5,76.8c-14.4,0.1-14.4-11.7-14.4-13.5l0-43.9l8.8-1.4v43.6c0,1.1,0,7.8,5.7,7.8L164.5,76.8L164.5,76.8
		z M128.8,69.7c2.7,0,4.7-0.2,6.1-0.4v-9c-0.7-0.2-1.4-0.3-2.1-0.4c-1-0.2-2-0.2-3.1-0.2c-1,0-2,0.1-3,0.2c-1,0.1-1.9,0.4-2.7,0.8
		c-0.8,0.4-1.4,0.9-1.9,1.6c-0.5,0.7-0.7,1.1-0.7,2.2c0,2.1,0.7,3.3,2,4C124.8,69.2,126.6,69.7,128.8,69.7z M128,37.7
		c2.9,0,5.4,0.4,7.3,1.1c2,0.7,3.6,1.7,4.8,3c1.2,1.3,2,3,2.5,4.9c0.5,1.8,0.8,3.9,0.8,6.1v22.6c-1.4,0.3-3.4,0.6-6.1,1
		c-2.7,0.4-5.8,0.6-9.3,0.6c-2.3,0-4.4-0.2-6.2-0.7c-1.9-0.4-3.5-1.1-4.8-2.1c-1.3-1-2.4-2.2-3.1-3.7c-0.7-1.5-1.1-3.7-1.1-5.9
		c0-2.2,0.4-3.5,1.3-5c0.9-1.5,2-2.7,3.4-3.6c1.5-0.9,3.1-1.6,5-2c1.9-0.4,3.9-0.6,6-0.6c1,0,2,0.1,3.1,0.2c1.1,0.1,2.2,0.3,3.4,0.6
		v-1.4c0-1-0.1-2-0.4-2.9c-0.2-0.9-0.7-1.7-1.3-2.4c-0.6-0.7-1.4-1.2-2.4-1.6c-1-0.4-2.3-0.7-3.8-0.7c-2,0-3.9,0.2-5.6,0.5
		c-1.7,0.3-3.1,0.6-4.1,1l-1.1-7.2c1.1-0.4,2.7-0.8,4.9-1.1C123.3,37.9,125.6,37.7,128,37.7L128,37.7z M302,69.4
		c2.7,0,4.7-0.2,6.1-0.4V60c-0.5-0.1-1.2-0.3-2.1-0.4c-1-0.2-2-0.2-3.1-0.2c-1,0-2,0.1-3,0.2c-1,0.1-1.9,0.4-2.7,0.8
		c-0.8,0.4-1.4,0.9-1.9,1.6c-0.5,0.7-0.7,1.1-0.7,2.2c0,2.1,0.7,3.3,2,4C298,69,299.8,69.4,302,69.4z M301.3,37.5
		c2.9,0,5.4,0.4,7.3,1.1c2,0.7,3.6,1.7,4.8,3s2,3,2.5,4.9c0.5,1.8,0.8,3.9,0.8,6.1v22.6c-1.4,0.3-3.4,0.6-6.1,1
		c-2.7,0.4-5.8,0.6-9.3,0.6c-2.3,0-4.4-0.2-6.2-0.7c-1.9-0.4-3.5-1.1-4.8-2.1c-1.3-1-2.4-2.2-3.1-3.7c-0.7-1.5-1.1-3.7-1.1-5.9
		c0-2.2,0.4-3.5,1.3-5c0.9-1.5,2-2.7,3.4-3.6c1.5-0.9,3.1-1.6,5-2c1.9-0.4,3.9-0.6,6-0.6c1,0,2,0.1,3.1,0.2c1.1,0.1,2.2,0.3,3.4,0.6
		v-1.4c0-1-0.1-2-0.4-2.9c-0.2-0.9-0.7-1.7-1.3-2.4c-0.6-0.7-1.4-1.2-2.4-1.6c-1-0.4-2.3-0.7-3.8-0.7c-2,0-3.9,0.2-5.6,0.5
		c-1.7,0.3-3.1,0.6-4.1,1l-1.1-7.2c1.1-0.4,2.7-0.8,4.9-1.1C296.6,37.7,298.8,37.5,301.3,37.5z M274.8,33.3c3,0,5.4-2.4,5.4-5.3
		c0-2.9-2.4-5.3-5.4-5.3c-3,0-5.4,2.4-5.4,5.3C269.5,30.9,271.9,33.3,274.8,33.3z M279.3,76.8h-8.9v-38l8.9-1.4L279.3,76.8
		L279.3,76.8z M263.7,76.8c-14.4,0.1-14.4-11.7-14.4-13.5l0-43.9l8.8-1.4v43.6c0,1.1,0,7.8,5.7,7.8V76.8z M235.1,57.4
		c0-3.8-0.8-7-2.5-9.2c-1.6-2.2-3.9-3.3-6.8-3.3c-2.9,0-5.2,1.1-6.8,3.3c-1.6,2.2-2.4,5.4-2.4,9.2c0,3.8,0.8,6.4,2.4,8.7
		c1.6,2.2,3.9,3.4,6.8,3.4c2.9,0,5.2-1.1,6.8-3.4C234.3,63.8,235.1,61.2,235.1,57.4z M244.1,57.4c0,3-0.4,5.2-1.3,7.7
		c-0.9,2.5-2.1,4.5-3.7,6.3c-1.6,1.7-3.5,3.1-5.8,4c-2.3,0.9-5.7,1.5-7.5,1.5c-1.7,0-5.2-0.5-7.4-1.5c-2.2-1-4.1-2.3-5.7-4
		c-1.6-1.7-2.8-3.8-3.7-6.3c-0.9-2.5-1.4-4.7-1.4-7.7c0-3,0.4-5.8,1.3-8.3c0.9-2.4,2.2-4.5,3.8-6.2c1.6-1.7,3.6-3.1,5.8-4
		c2.2-0.9,4.7-1.4,7.3-1.4c2.7,0,5.1,0.5,7.4,1.4c2.3,0.9,4.2,2.3,5.8,4c1.6,1.7,2.8,3.8,3.7,6.2C243.6,51.5,244.1,54.4,244.1,57.4
		L244.1,57.4z M177.8,57.4c0,3.7,0.8,7.8,2.4,9.5c1.6,1.7,3.7,2.6,6.3,2.6c1.4,0,2.7-0.2,4-0.6c1.2-0.4,2.2-0.8,3-1.4V45.6
		c-0.6-0.1-3.3-0.7-5.8-0.7c-3.2-0.1-5.6,1.2-7.3,3.3C178.7,50.3,177.8,54,177.8,57.4z M202.3,74.7c0,6-1.5,10.4-4.6,13.2
		c-3.1,2.8-7.8,4.2-14.1,4.2c-2.3,0-7.1-0.5-11-1.3l1.4-7c3.2,0.7,7.5,0.9,9.7,0.9c3.5,0,6.1-0.7,7.6-2.2c1.5-1.4,2.3-3.6,2.3-6.4
		v-1.4c-0.9,0.4-2,0.9-3.4,1.3c-1.4,0.4-3.1,0.7-4.9,0.7c-2.4,0-4.6-0.4-6.6-1.1c-2-0.8-3.7-1.9-5.2-3.4c-1.4-1.5-2.5-3.4-3.3-5.6
		s-1.2-6.2-1.2-9.1c0-2.7,0.4-6.2,1.3-8.5c0.9-2.3,2.1-4.3,3.7-5.9c1.6-1.6,3.6-2.9,5.9-3.8c2.3-0.9,5-1.5,8-1.5
		c2.9,0,5.5,0.4,8.1,0.8c2.6,0.4,4.8,0.9,6.5,1.4L202.3,74.7L202.3,74.7z"/>
</g>
<g display="none">
	<path display="inline" fill="#C02428" d="M41.7,41.4c-7.3,0-13.4,5.9-13.4,13.4c0,3.6,1.4,7,3.9,9.5c2.5,2.5,5.9,3.9,9.5,3.9
		c7.3,0,13.4-5.9,13.4-13.4C55,47.3,48.9,41.4,41.7,41.4L41.7,41.4z M20.8,54.6c0-11.3,9.3-20.6,20.6-20.6
		c11.3,0,20.6,9.3,20.6,20.6c0,0.7,0,1.6-0.2,2.3c-0.2,2,1.4,3.6,3.4,3.6c3.4,0,3.9-4.3,3.9-5.9c0-15.2-12.5-27.7-27.7-27.7
		c-15.2,0-27.7,12.5-27.7,27.7c0,15.2,12.5,27.7,27.7,27.7c8.2,0,15.4-3.4,20.4-9.1l5.7,4.8c-6.1,7.3-15.6,11.8-25.9,11.8
		c-9.3,0-18.3-3.7-24.9-10.3S6.5,63.9,6.5,54.6c0-19.3,15.6-35.2,35.2-35.2c19.3,0,34.9,15.9,34.9,35.2c0,7.7-3.6,14.1-11.1,14.1
		c-3.2,0-5.2-1.6-6.4-3.2c-3.6,5.9-10.2,9.8-17.7,9.8c-5.5,0-10.7-2.1-14.6-6C22.9,65.3,20.8,60.1,20.8,54.6L20.8,54.6z M41.7,48.4
		c3.4,0,6.1,2.7,6.1,6.1c0,3.4-2.7,6.1-6.1,6.1c-1.6,0-3.2-0.6-4.3-1.8c-1.1-1.1-1.8-2.7-1.8-4.3C35.5,51.2,38.3,48.4,41.7,48.4
		L41.7,48.4z"/>
	<path display="inline" d="M231.7,40.7c4.3,0,8.3,1.6,11.2,4.7l0.5,0.6v-4.3h8.6v36.8l0,1.8c-0.1,6.2-0.9,9.2-3.1,12.5
		c-3.2,4.8-8.8,7.3-15.1,7.3c-10.8,0-17.8-6.7-18.1-17.7l0-0.7h8.4l0.1,1.3c0.2,2.3,0.5,3.5,1.3,4.9c1.6,2.7,5,4.3,8.4,4.3
		c6.1,0,9.3-3.6,9.5-11.1l0-0.7V75c-3.4,3.9-7,5.4-11.7,5.4c-9.9,0-17.4-8.2-17.4-19.5C214.1,49.1,221.5,40.7,231.7,40.7z
		 M265.8,41.7v21.6c0,6.4,2.3,9.3,7.2,9.3c5,0,7.3-2.8,7.4-8.7l0-0.6V41.7h8.6v21.8c0,5.9-0.9,9.1-3.8,12.3
		c-3.2,3.2-7.2,4.8-12.2,4.8c-4.7,0-9-1.6-12-4.8c-2.6-3-3.7-6-3.8-11.4l0-0.9V41.7H265.8z M157,40.5c4.5,0,7.6,1.4,11.1,4.9
		l0.6,0.6v-4.3h8.6v37.5h-8.6v-3.9c-4.1,3.6-7,5-11.5,5c-10.4,0-17.8-8.4-17.8-20.2C139.3,48.9,146.8,40.5,157,40.5z M123.8,40.5
		c8.1,0,12.4,4.9,12.6,14.6l0,0.8v23.8h-8.6V58.9c0-7.3-1.6-10-5.6-10c-4.8,0-6.9,3.2-7,10.6l0,0.8v19.3h-8.6V58.7
		c0-6.8-1.8-10-5.6-10c-4.8,0-6.9,3.2-7,10.6l0,0.8v19.3h-8.6V41.7h8.6v3.4c3.2-3.6,5.2-4.5,8.8-4.5c4.1,0,7.7,1.8,9.9,5.4
		C115.4,42.6,119.2,40.5,123.8,40.5z M192.9,41.7v37.7h-8.6V41.7H192.9z M313.5,40.5c9,0,13.3,5,13.5,14.9l0,0.8v23.2h-8.6V58.2
		c0-7.3-1.6-9.8-7-9.8c-5.7,0-7.8,3.2-7.9,11.9l0,19h-8.6V41.7h8.4v3.4C306.7,41.7,309.4,40.5,313.5,40.5z M209.3,11v68.1h-8.6V11
		H209.3z M158.5,48.2c-5.9,0-10.4,5.2-10.4,12c0,7.3,4.3,12.3,10.4,12.3c6.3,0,10.6-5,10.6-12.3c0-6.8-4-11.7-10-12L158.5,48.2
		L158.5,48.2z M233.3,48.2c-6.3,0-10.4,5-10.4,12.3s4.1,12,10.4,12c6.1,0,10.4-5,10.4-12.3c0-6.8-3.8-11.7-9.8-12L233.3,48.2z
		 M188.6,20.5c1.5,0,3,0.6,4,1.7s1.7,2.5,1.6,4c0,1.5-0.6,3-1.6,4c-1.1,1.1-2.5,1.7-4,1.7c-3.2,0-5.6-2.5-5.6-5.7c0-1.5,0.6-3,1.6-4
		c0.9-0.9,2.2-1.5,3.5-1.6L188.6,20.5L188.6,20.5z"/>
</g>
</svg>
