<svg xmlns="http://www.w3.org/2000/svg" width="256" height="256" preserveAspectRatio="xMidYMid" xmlns:v="https://vecta.io/nano"><circle fill="#f05537" cx="128" cy="128" r="128"/><path d="M117.475 82.73c19.297-4.288 38.594 3.574 49.315 18.582L81.502 120.61c2.86-18.344 16.677-33.59 35.974-37.88zm49.79 70.756c-6.67 9.768-16.915 16.677-28.588 19.297-19.297 4.288-38.832-3.574-49.553-18.82l99.344-22.394 26.682-5.956c-.238-5.718-.953-11.435-2.144-16.915-10.72-45.98-57.653-74.806-104.586-64.085s-76.235 56.462-65.277 102.68 57.653 74.806 104.586 64.085c27.635-6.194 49.077-24.777 60.035-48.362l-40.5-9.53z" fill="#fff"/></svg>