<svg shape-rendering="geometricPrecision" xmlns="http://www.w3.org/2000/svg" viewBox="0 0 252 82"><path d="M78 10H45c-2.75 0-5-2.25-5-5s2.25-5 5-5h33c2.75 0 5 2.25 5 5s-2.25 5-5 5zm104 0h-74c-2.75 0-5-2.25-5-5s2.25-5 5-5h74c2.75 0 5 2.25 5 5s-2.25 5-5 5zm42 24h-60c-2.75 0-5-2.25-5-5s2.25-5 5-5h60c2.75 0 5 2.25 5 5s-2.25 5-5 5zm23 24h-48c-2.75 0-5-2.25-5-5s2.25-5 5-5h48c2.75 0 5 2.25 5 5s-2.25 5-5 5zM134 34H5c-2.75 0-5-2.25-5-5s2.25-5 5-5h129c2.75 0 5 2.25 5 5s-2.25 5-5 5zm35 24h-31V48h31c2.75 0 5 2.25 5 5s-2.25 5-5 5zm36 24h-67V72h67c2.75 0 5 2.25 5 5s-2.25 5-5 5z" opacity=".06"/></svg>