<svg xmlns="http://www.w3.org/2000/svg" shape-rendering="geometricPrecision" viewBox="0 0 294 154"><path d="M118 82H89c-2.75 0-5-2.25-5-5s2.25-5 5-5h29v10zM55 10H37c-2.75 0-5-2.25-5-5s2.25-5 5-5h18c2.75 0 5 2.25 5 5s-2.25 5-5 5zm62 0H85c-2.75 0-5-2.25-5-5s2.25-5 5-5h32c2.75 0 5 2.25 5 5s-2.25 5-5 5zm124 0h-94c-2.75 0-5-2.25-5-5s2.25-5 5-5h94c2.75 0 5 2.25 5 5s-2.25 5-5 5zm-91 24H60c-2.75 0-5-2.25-5-5s2.25-5 5-5h90c2.75 0 5 2.25 5 5s-2.25 5-5 5zm63 0h-33c-2.75 0-5-2.25-5-5s2.25-5 5-5h33c2.75 0 5 2.25 5 5s-2.25 5-5 5zM93 58H5c-2.75 0-5-2.25-5-5s2.25-5 5-5h88c2.75 0 5 2.25 5 5s-2.25 5-5 5zM59 82H39c-2.75 0-5-2.25-5-5s2.25-5 5-5h20c2.75 0 5 2.25 5 5s-2.25 5-5 5zm59 48H60c-2.75 0-5-2.25-5-5s2.25-5 5-5h58v10zm171-96h-46c-2.75 0-5-2.25-5-5s2.25-5 5-5h46c2.75 0 5 2.25 5 5s-2.25 5-5 5zM93 154H32c-2.75 0-5-2.25-5-5s2.25-5 5-5h61c2.75 0 5 2.25 5 5s-2.25 5-5 5z" opacity=".06"/></svg>