<svg xmlns="http://www.w3.org/2000/svg" xmlns:xlink="http://www.w3.org/1999/xlink" width="601.5" height="374.4" xmlns:v="https://vecta.io/nano"><path d="M-23.9 220c6-12.7 10.5-24.6 11.2-38.8.7-18.7-3-34.4.7-53 4.5-20.9 13.4-47.1 35.9-55.3 6.7-2.2 23.2-5.2 24.6 4.5 1.5 7.5-12.7 14.9-17.9 19.4-10.5 9.7-22.4 19.4-16.4 35.1 3.7 12.7 14.2 20.2 12 34.4-3.7 22.4-31.4 47.1-50.8 56.8" fill="#c0d298"/><g fill="#fff"><use xlink:href="#B"/><path d="M26.1 78.5c-2.4 0-2.4 3.7 0 3.7s2.5-3.7 0-3.7z"/><use xlink:href="#B" x="10.5" y="3"/><use xlink:href="#B" x="26.9" y="-10.5"/><use xlink:href="#B" x="-0.7" y="17.1"/><use xlink:href="#B" x="-17.9" y="22.4"/><use xlink:href="#B" x="-6" y="38.8"/><use xlink:href="#B" x="-20.9" y="46.3"/><use xlink:href="#B" x="-0.7" y="53.7"/><use xlink:href="#B" x="-6.7" y="68.7"/><use xlink:href="#B" x="-18.7" y="75.4"/><use xlink:href="#B" x="4.5" y="78.4"/><use xlink:href="#C"/><use xlink:href="#B" x="-20.2" y="97.1"/><path d="M-9 203.2c-2.4 0-2.4 3.7 0 3.7 2.5 0 2.5-3.7 0-3.7z"/></g><path d="M369.4 379.8c1.3-6.5 1.9-13.1 1.7-19.5-1.5-30.6-24.6-28.4-47.8-29.9-35.9-2.2-14.9-27.6-18.7-50-3.7-26.9-35.9-12.7-50.8-3.7-9 5.2-20.9 20.2-31.4 12.7-8.2-5.2-4.5-21.7-7.5-29.9-7.5-25.4-31.4-24.6-51.5-13.4-23.2 12-32.1 34.4-44.8 56-8.2 13.4-15.7 27.6-25.4 40.3-9.3 12.1-21.9 22.9-28.2 37.4h304.4z" fill="#e4f2e9"/><path d="M281.2 386.4c-4.5-13.4-9.5-29.9-8.5-44.3 1-16.9 14.4-17.4 26.9-9.5-3.5-7-7-19.4-3-27.4 5-9.5 14.4-4 21.4 1 1.5-8 4-32.9 17.4-30.4s0 29.9-2 37.3c5.5-2 25.9-12 23.4 1-1.5 9-14.9 14.9-18.4 23.4 7.5.5 17.9-1 15.4 9.5-2 8.5-13.9 15.9-19.9 21.4-12 10-24.4 21.4-37.8 28.9" fill="#ff6e7d"/><g fill="#afd3c1"><path d="M331.4 284.6c-1.5 15.2-6.1 30.1-11.9 44.2-2.8 7-5.9 14-9.5 20.6-3.5 6.7-7.7 13-11.6 19.5-4.3 7.1-8.4 14.5-10.9 22.5-.3 1.1 1.4 1.5 1.7.5 4.4-14.6 14.2-26.9 21.5-40.1 3.6-6.5 6.6-13.4 9.5-20.2 3-7.2 5.7-14.5 7.9-22 2.4-8.1 4.2-16.4 5-24.9.1-1.2-1.6-1.2-1.7-.1h0z"/><path d="M315.1 315c2.4 4.9 2.8 10.5 5 15.4.2.4.8.6 1.2.3 4.6-3.1 9-6.4 14.2-8.4 1-.4.6-2.1-.5-1.7-5.4 2-9.9 5.4-14.6 8.6l1.2.3c-2.2-5-2.6-10.5-5-15.4-.5-1-2-.2-1.5.9h0zm-9.5 10.4c3.3 6.2 5.9 12.7 6.9 19.7.1.4.7.8 1.1.6 6.1-2.6 12.4-6.4 19.2-6.4 1.1 0 1.1-1.8 0-1.8-7 .1-13.3 3.9-19.7 6.5.4.2.7.4 1.1.6-1.1-7.1-3.7-13.8-7.1-20.1-.5-1-2-.1-1.5.9h0zm-8.5 14.2c2.4 7.2 4.5 14.5 6.5 21.9.1.5.6.7 1.1.6 9.9-1.7 19.6-4.7 28.9-8.5 1-.4.6-2.1-.5-1.7-9.3 3.8-19 6.8-28.9 8.5.4.2.7.4 1.1.6-2-7.4-4.1-14.7-6.5-21.9-.4-1-2.1-.5-1.7.5h0zm-7 17c1.5 4.6 1 9.6 2.1 14.3.5 2.1 1.4 4.1 3.2 5.5 1.6 1.2 3.6 1.3 5.5 1 2.7-.4 5.2-1.1 7.9-1.2 1.1 0 1.1-1.8 0-1.8-2.2 0-4.4.5-6.6.9-1.7.3-3.7.7-5.3-.1-1.9-.9-2.7-2.9-3.1-4.9-.5-2.3-.7-4.7-.9-7-.2-2.4-.4-4.9-1.2-7.2-.3-1.1-2-.6-1.6.5h0zm-158.4 40.9c.3-33.5 20.9-72.2 36.4-101.7 14-26.7 20.4-38.6 45.8-62.4L191 283.7l-28.7 59c8.8-20.5 25.8-39.4 39.3-57.4 12.7-17.7 28.7-40.3 46-53.1.1 16.3-27.5 46.9-37.5 60.8-15 20.7-28.6 43.4-41.7 65.1 38.5-30.7 64.7-87.4 110.2-110-10.2 20.9-29.9 41.4-45 59.1-14.7 19.1-37 35.7-47.8 57.5 20.2-16 40.6-31.3 62.4-44.7 17.2-10.5 23.5-16.2 42-24.7-28 26.8-40.5 48.4-73.8 67.5-25.4 14.4-51.1 19.6-79 27.8"/></g><g fill="#fff"><path d="M170.4 331.5c1.9 1.5 3.5 3.5 5.8 4.6.4.2 1 .1 1.2-.3s.1-1-.3-1.2l-1.5-.9c-.2-.1-.3-.3-.6-.5-.2-.2-.5-.4-.7-.6l-2.6-2.4c-.4-.3-.9-.4-1.2 0-.4.4-.4 1-.1 1.3h0zm12.6-15.8c1.2 1.6 2.7 2.8 4.4 3.7.4.2 1 .1 1.2-.3s.1-1-.3-1.2l-1.1-.6c-.2-.1-.4-.2-.5-.4-.1-.1-.2-.1-.2-.2 0 0-.2-.1-.1-.1.1.1-.1-.1-.1-.1-.3-.3-.7-.6-1-.9l-.5-.5c-.1-.1-.2-.2-.2-.3l-.1-.1c-.2-.2.1.1 0 0-.1-.2-.3-.3-.5-.4s-.5 0-.7.1c-.4.3-.6.9-.3 1.3h0zm10.9-12.2c1.3 1.2 2.7 2.3 4.3 3.1.4.2 1 .1 1.2-.3s.1-1-.3-1.2c-.8-.4-1.5-.8-2.2-1.3-.1-.1-.2-.1-.2-.2-.1 0-.1-.1 0 0l-.1-.1c-.2-.1-.3-.3-.5-.4-.3-.3-.6-.6-.9-.8-.3-.3-.9-.3-1.2 0-.4.3-.4.9-.1 1.2h0zm11.9-15.9a5.51 5.51 0 0 0 1.7 2c.6.5 1.4.8 2.2 1 .4.1 1-.1 1.1-.6s-.1-1-.6-1.1c-.2 0-.4-.1-.5-.2-.1 0-.2-.1-.2-.1s-.1 0-.1-.1c.3.1.1 0 0 0-.3-.1-.6-.3-.9-.5-.1-.1.2.1 0 0 0 0-.1 0-.1-.1l-.6-.6s-.1-.1 0 0 0 0 0 0c-.1-.1-.1-.1-.1-.2-.1-.2-.2-.3-.3-.5-.2-.4-.8-.6-1.2-.3-.5.4-.7.9-.4 1.3h0zm10-16c.8 1.7 2.4 2.9 4 3.7.4.2 1 .1 1.2-.3s.1-1-.3-1.2l-1.1-.6c-.2-.1-.3-.2-.5-.3l-.1-.1c-.1-.1.1.1 0 0s-.2-.1-.3-.2l-1-1c-.1-.1.1.1 0 0s-.1-.2-.2-.2l-.3-.6c-.2-.4-.8-.6-1.2-.3-.3.2-.4.7-.2 1.1h0zm10.1-14.2c.6.9 1.3 1.8 2.1 2.5s1.8 1.3 2.7 1.9c.4.2 1 .1 1.2-.3s.1-.9-.3-1.2-.9-.5-1.3-.8c-.1-.1-.2-.1-.3-.2-.1 0-.1-.1-.2-.1 0 0-.2-.1-.1-.1.1.1-.1 0-.1-.1-.1 0-.1-.1-.2-.1-.1-.1-.2-.2-.3-.2-.4-.3-.7-.7-1-1-.1-.1-.1-.2-.2-.3-.1-.2.1.1 0 0 0-.1-.1-.1-.1-.2-.2-.2-.3-.4-.4-.7-.2-.4-.8-.6-1.2-.3s-.5.8-.3 1.2h0zm9.7-12.3c.4.6.9 1.2 1.4 1.8.2.3.5.5.7.8l.1.1s.1.2 0 .1 0 0 0 0 0 .1.1.1c.1.1.2.3.3.4.3.4.8.6 1.2.3.4-.2.6-.8.3-1.2-.4-.6-.9-1.2-1.4-1.8-.2-.3-.5-.5-.7-.8l-.1-.1s-.1-.2 0-.1 0 0 0 0 0-.1-.1-.1c-.1-.1-.2-.3-.3-.4-.3-.4-.8-.6-1.2-.3-.3.2-.5.8-.3 1.2h0zm-38.1 88.1c1.2 1.6 2.7 2.8 4.4 3.7.4.2 1 .1 1.2-.3s.1-1-.3-1.2l-1.1-.6c-.2-.1-.4-.2-.5-.4-.1-.1-.2-.1-.2-.2 0 0-.2-.1-.1-.1.1.1-.1-.1-.1-.1-.3-.3-.7-.6-1-.9l-.5-.5c-.1-.1-.2-.2-.2-.3l-.1-.1c-.2-.2.1.1 0 0-.1-.2-.3-.3-.5-.4s-.5 0-.7.1c-.3.3-.5.9-.3 1.3h0z"/><path d="M206.3 323.3c1.6 1.6 3.5 2.7 5.4 3.9.4.2 1 .1 1.2-.3s.1-.9-.3-1.2c-.9-.5-1.8-1.1-2.7-1.7-.2-.1-.4-.3-.6-.4-.1-.1-.2-.2-.3-.2-.1-.1.1.1 0 0l-.1-.1c-.4-.3-.8-.7-1.2-1.1-.3-.3-.9-.3-1.2 0-.5.2-.6.8-.2 1.1h0zm11-14.4c1.3 1.7 2.7 3.2 4.4 4.4.4.3 1 .1 1.2-.3.2-.5.1-.9-.3-1.2l-.1-.1c-.1-.1.2.1 0 0-.1-.1-.2-.1-.3-.2-.2-.1-.4-.3-.5-.5-.4-.3-.7-.6-1.1-1l-1-1c-.2-.2-.3-.4-.5-.5-.1-.1-.2-.2-.2-.3-.1-.1 0-.1 0 0 0-.1-.1-.1-.1-.2-.1-.2-.3-.3-.5-.4s-.5 0-.7.1c-.3.3-.6.8-.3 1.2h0zm11.4-12.9l4.9 4.5c.4.3.9.4 1.2 0 .3-.3.4-.9 0-1.2-1.7-1.4-3.3-2.9-4.9-4.5-.3-.3-.9-.3-1.2 0-.3.4-.4.9 0 1.2h0zm9.7-12.3c1.5 1.9 3.4 3.4 5.2 4.9.4.3.9.4 1.2 0 .3-.3.4-.9 0-1.2-1.9-1.5-3.7-3-5.2-4.9-.3-.4-.9-.3-1.2 0-.4.4-.3.8 0 1.2h0zm11.2-8.6c1.2 1.2 2.5 2.4 3.9 3.5.2.1.5.1.7.1.2-.1.4-.2.5-.4.2-.5.1-.9-.3-1.2l-.1-.1s-.2-.1 0 0c-.1-.1-.2-.1-.3-.2-.2-.1-.3-.3-.5-.4-.3-.3-.6-.6-.9-.8-.6-.5-1.1-1.1-1.7-1.7-.3-.3-.9-.3-1.2 0-.4.3-.5.9-.1 1.2h0zm11.7-12.5c1.1.7 2.3 1.2 3.4 1.9.4.3 1 .1 1.2-.3s.1-.9-.3-1.2c-1.1-.7-2.3-1.2-3.4-1.9-.4-.3-1-.1-1.2.3s-.1.9.3 1.2h0zm-58.4 93.9c1.5 1.5 2.8 3.1 4.5 4.5.4.3.9.4 1.2 0 .3-.3.4-.9 0-1.2-1.7-1.3-3-3-4.5-4.5-.3-.3-.9-.3-1.2 0-.3.4-.3.9 0 1.2h0zm14.8-9.8c.9 1.8 2.1 3.6 3.5 5 .3.3.9.3 1.2 0 .3-.4.3-.9 0-1.2l-1-1.1c0-.1-.1-.1-.1-.2-.1-.1.1.1 0 0s-.2-.2-.2-.3c-.2-.2-.3-.4-.4-.6l-1.4-2.4c-.2-.4-.8-.6-1.2-.3-.5.1-.6.6-.4 1.1h0zm13.5-9.8c1.2 2 2.8 3.6 4.2 5.4.3.4.9.3 1.2 0 .3-.4.3-.9 0-1.2l-2.2-2.6c-.7-.8-1.2-1.5-1.8-2.5-.2-.4-.8-.6-1.2-.3-.3.3-.5.8-.2 1.2h0zm14.1-8.8c.5 1.6 2 2.8 3.6 3.2.4.1 1-.1 1.1-.6s-.1-1-.6-1.1c-.2 0-.4-.1-.5-.2s0 0 .1 0c0 0-.1 0-.1-.1-.1 0-.2-.1-.2-.1-.2-.1-.3-.2-.4-.3 0 0-.1 0-.1-.1-.1-.1.2.1.1 0l-.6-.6s-.1-.1 0 0 0 0 0 0 0-.1-.1-.1a.76.76 0 0 1-.2-.4l-.1-.2s.1.2 0 .1v-.1c-.1-.4-.6-.8-1.1-.6-.8.3-1.1.8-.9 1.2h0zm11.5-10.4c.2.8.6 1.5 1.1 2.1s1.2 1 1.9 1.4c.4.2 1 .1 1.2-.3s.1-1-.3-1.2c-.3-.2-.7-.3-1-.6-.1 0-.1-.1-.2-.1s.2.2 0 0c0 0-.1 0-.1-.1l-.3-.3c0-.1-.1-.1-.1-.2-.1-.1.1.2 0 .1 0 0 0-.1-.1-.1a.76.76 0 0 1-.2-.4c0-.1-.1-.1-.1-.2.1.3 0 0 0-.1-.1-.2-.1-.3-.2-.5-.1-.4-.6-.8-1.1-.6-.3.2-.6.6-.5 1.1h0zm8.8-4.5c.5.5 1.1.9 1.6 1.3-.1 0-.1-.1-.2-.1.3.2.5.4.8.7s.9.3 1.2 0 .3-.9 0-1.2c-.5-.5-1.1-.9-1.6-1.3.1 0 .1.1.2.1-.3-.2-.5-.4-.8-.7s-.9-.3-1.2 0-.3.9 0 1.2h0zM161.5 324c.4.4 1 .8 1.5 1.2a9.13 9.13 0 0 0 1.3.8c.2.1.4.2.7.1.2-.1.4-.2.5-.4.2-.4.1-1-.3-1.2-.6-.3-1.2-.7-1.8-1.1.1 0 .1.1.2.1-.3-.2-.6-.5-.8-.7-.3-.3-.9-.3-1.2 0-.5.4-.5.9-.1 1.2h0zm9.3-21.2c1.2 1.2 2.8 2 4.5 2.5.4.1 1-.1 1.1-.6s-.1-1-.6-1.1l-1.1-.3c-.1 0-.2-.1-.3-.1h0s-.1 0-.1-.1c-.2-.1-.4-.2-.5-.3l-1-.6-.1-.1c-.1-.1 0 0 0 0-.1 0-.1-.1-.2-.2-.2-.1-.3-.3-.5-.4-.3-.3-.9-.3-1.2 0-.3.4-.4.9 0 1.3h0zm8.6-17.6c1.2 1.2 2.5 2.1 4.1 2.5.4.1 1-.1 1.1-.6s-.1-1-.6-1.1l-1-.3c.2.1 0 0-.1 0s-.2-.1-.2-.1c-.2-.1-.3-.2-.5-.3-.1-.1-.3-.2-.4-.3-.1 0-.2-.1-.2-.2 0 0 .1.1 0 0l-.1-.1c-.3-.2-.6-.5-.8-.8-.3-.3-.9-.3-1.2 0-.4.4-.5 1-.1 1.3h0zm7.6-14.4c1.3.8 2.8 1.2 4.3 1.6.4.1 1-.1 1.1-.6s-.1-1-.6-1.1l-2.2-.6c-.2-.1-.3-.1-.5-.2-.1 0-.2-.1-.3-.1.2.1-.1 0-.1-.1-.3-.1-.6-.3-.9-.5-.4-.3-1-.1-1.2.3-.1.5 0 1 .4 1.3h0z"/><path d="M195.8 255.7c.9.9 2.1 1.3 3.2 2 .4.3 1 .1 1.2-.3s.1-.9-.3-1.2l-1.6-.9c-.2-.1-.5-.3-.7-.4-.1 0-.1-.1-.2-.1 0 0-.1 0-.1-.1-.1-.1 0 0 .1.1l-.3-.3c-.3-.3-.9-.3-1.2 0-.4.3-.4.9-.1 1.2h0zm-39.2 83.7c1.6 1.6 3.6 2.4 5.6 3.2.4.2 1-.2 1.1-.6.1-.5-.2-.9-.6-1.1-.2-.1-.5-.2-.7-.3-.1 0-.2-.1-.3-.1 0 0-.2-.1-.1 0 .1 0-.1 0-.1 0-.5-.2-.9-.4-1.3-.6s-.8-.5-1.2-.7c-.1-.1-.2-.1-.3-.2 0 0-.1-.1 0 0l-.1-.1c-.2-.2-.4-.4-.6-.5-.3-.3-.9-.3-1.2 0-.5.1-.5.6-.2 1h0zm-2.8 10.2l4.5 3.4c.4.3 1 .1 1.2-.3.2-.5.1-.9-.3-1.2l-4.5-3.4c-.4-.3-1-.1-1.2.3-.3.4-.1.9.3 1.2h0zm18.7 9.4c1.3 1.7 3 3 4.8 4 .4.2 1 .1 1.2-.3s.1-.9-.3-1.2-.9-.5-1.3-.8c-.2-.1-.4-.3-.6-.4l-.1-.1s-.2-.1-.1-.1c.1.1-.1-.1-.1-.1l-.1-.1c-.4-.3-.7-.6-1-.9l-.5-.5c-.1-.1-.1-.2-.2-.2l-.1-.1c-.1-.1.1.1 0 0-.3-.4-.8-.6-1.2-.3-.4.1-.7.7-.4 1.1h0zm11.5-7.6c.8.4 1.4 1.1 2.2 1.5.2.1.4.2.7.1.2-.1.4-.2.5-.4.2-.4.1-1-.3-1.2-.8-.4-1.4-1.1-2.2-1.5-.2-.1-.4-.2-.7-.1-.2.1-.4.2-.5.4-.2.4-.1 1 .3 1.2h0zm-36.5 8.3c1.9 2.6 4.6 4.3 7.4 5.9 1 .6 1.9-1 .9-1.5-2.5-1.4-5.1-2.9-6.8-5.3-.3-.4-.8-.6-1.2-.3-.4.2-.6.8-.3 1.2h0zm16.8 13.1c1.1 1.5 2.4 2.8 4 3.7.4.2 1 .1 1.2-.3s.1-1-.3-1.2-.7-.4-1-.6c-.1-.1-.2-.1-.2-.2-.1-.1.1.1 0 0l-.1-.1c-.2-.1-.3-.3-.5-.4l-.9-.9c-.1-.2-.3-.3-.4-.5-.1-.1-.1-.2-.2-.3s.1.2 0 0c0-.1-.1-.1-.1-.2-.1-.2-.3-.3-.5-.4s-.5 0-.7.1c-.3.3-.6.9-.3 1.3h0zm-19.1.5c.4 1 .9 1.9 1.5 2.8.7.9 1.4 1.6 2.3 2.2.4.3 1 .1 1.2-.3.2-.5.1-.9-.3-1.2-.2-.1.1.1 0 0l-.1-.1c-.1-.1-.2-.1-.3-.2-.2-.1-.3-.3-.5-.4-.2-.2-.3-.3-.4-.5-.1-.1-.1-.2-.2-.3 0 0-.1-.2-.1-.1.1.1-.1-.1-.1-.1-.3-.4-.5-.7-.7-1.1l-.3-.6c0-.1-.1-.2-.1-.3s0-.1-.1-.2c.1.1 0 0 0-.1-.2-.4-.6-.8-1.1-.6s-.9.7-.7 1.1h0z"/></g><path d="M26.2 265.9c-13.4-28.4 7.5-62.7 24.6-82.9 16.4-20.9 43.3-47.1 45.6-75.4 6 34.4 12 68.7-6 103.1-7.4 14.2-19.4 26.9-32.8 35.8-9.7 6-23.2 9.7-30.6 17.9" fill="#828e54"/><path d="M95.8 107.6c1.9 21.9-7 43.2-17.7 61.8-5.7 9.8-12.2 19.2-18.6 28.5L49.1 213c-3.3 4.7-6.8 9.3-9.6 14.3-6 10.5-9.3 22.2-13.1 33.6-.3.8 1 1.1 1.2.3 3.4-10.3 6.5-20.9 11.5-30.6 2.7-5.2 6.1-9.9 9.4-14.6 3.5-4.9 6.9-9.9 10.3-14.9 12.6-18.4 25.6-36.9 33.1-58.1 4-11.4 6.3-23.4 5.2-35.5-.1-.7-1.4-.7-1.3.1h0zm27.4 136.8c-4.9-7.8-7.5-16.6-7.4-25.9.1-9.1 2.3-18 4.7-26.8 5.1-19.1 9.6-38.9 8.8-58.9-.2-5.6-.8-11.2-1.9-16.7-1.1-5.6-3.4-10.9-5.3-16.3-.3-.8-1.5-.4-1.2.3 1.7 4.8 3.6 9.5 4.9 14.4 1.3 5.1 1.8 10.4 2.1 15.7.6 10.1-.1 20.2-1.7 30.1-1.6 10-4 19.9-6.5 29.7-2.3 8.7-4.6 17.6-5 26.6-.4 10.1 2.1 19.8 7.5 28.3.4.8 1.5.2 1-.5h0zm.9-41.5c-.7-6.1 1.4-12.2 4.1-17.6 3-6 6.8-11.6 10.4-17.3 3.4-5.3 6.7-10.5 8.8-16.5 2.5-7.2 3.9-14.9 4.1-22.5.3-8.6-1-17.3-3.8-25.5-.3-.8-1.5-.4-1.2.3 5.1 14.6 5 31 .3 45.7-4 12.6-13.3 22.6-19.2 34.2-3 5.8-5.5 12.4-4.7 19.1.1.8 1.3.9 1.2.1h0z" fill="#c0d298"/><path d="M127.7 103.7c-1.2.8-6.6 2.8-8.3 2.8-2-6.1-10.7-34.5-7.7-34.5 3.5 0 11.7 21.5 16 31.7m28.2 24.7c-1.4.5-7.1 1.3-8.7.9-.6-6.4-2.6-36.1.3-35.4 3.4.8 6.4 23.6 8.4 34.5" fill="#ff6e7d"/><path d="M164 202.9c-1.2-4.7-2.6-8.9-1.4-14 1.8-7.7 5.7-13.6 11.2-19.1 1 7.3 2.6 14.6-.8 21.5-2 4.5-7.9 7.9-9.1 12.2m16.3-2c-.2-5.1 3.3-11.2 6.1-15 4.3-6.1 11.2-7.9 16.7-12.4 0 7.5-5.1 15.9-10.6 20.9-3.5 3.5-8.3 4.1-12 7.1m12.6 7.1c-.8-12.2 12.6-21.1 22.6-24.2 1.4 5.1-6.9 15.6-10.4 18.7-3.5 3-7.7 5.7-12.4 5.9" fill="#264637"/><g fill="#c0d298"><path d="M147.8 316.4c7.5-15.5 9.4-32.5 9.8-49.5.2-9 .2-17.9 1-26.9a240.17 240.17 0 0 1 3.9-26.6c2-9.9 4.6-19.7 7.6-29.4.2-.8-1-1.1-1.2-.3-5.3 16.8-9.2 34.1-11.1 51.7-1 8.9-1.3 17.8-1.4 26.8-.1 8.6-.3 17.2-1.5 25.6-1.3 9.7-3.9 19.1-8.2 27.9-.4.8.7 1.4 1.1.7h0z"/><path d="M159.1 233c8.1-16.7 21.4-30.5 34-43.8.6-.6-.3-1.5-.9-.9-10.1 10.5-20.1 21.3-28.2 33.5-2.2 3.4-4.3 6.9-6.1 10.6-.2.6.9 1.3 1.2.6h0zm-.6 14.7c6.6-6.7 11.4-14.8 18.1-21.4 6.8-6.7 13.8-13.2 20.1-20.3 3.3-3.8 6.4-7.7 9-12.1.4-.7-.7-1.3-1.1-.6-9.6 16.1-25.7 26.8-37 41.4-3.2 4.1-6.3 8.4-10 12.1-.5.6.3 1.5.9.9h0z"/></g><g fill="#264637"><path d="M164.1 317c4.1-3.8 9.2-6.4 13-10.5 4.1-4.3 8.2-8.7 11.8-13.4 6.6-8.5 10.8-18.3 12.9-28.8 1.2-5.8 1.8-11.7 1.8-17.5 0-1.1-1.7-1.1-1.8 0 0 10.4-1.9 20.9-5.7 30.5-4.2 10.5-11.7 18.7-19.3 26.9-4.2 4.5-9.6 7.5-14.1 11.6-.7.7.6 2 1.4 1.2h0z"/><path d="M189.8 291.6c3-8.4 1.2-17.3 1.2-25.9 0-1.1-1.7-1.1-1.8 0-.2 3.9 1 7.6 1.5 11.4.5 4.1-.4 7.8-1.2 11.7-.2 1.1 1.5 1.6 1.7.5.8-3.9 1.7-7.7 1.3-11.7s-1.7-7.9-1.5-11.9h-1.8c0 8.5 1.8 17.3-1.1 25.5-.4 1 1.3 1.5 1.7.4h0zm6-9.3c3.7-3 6.4-7 10.1-9.9 3.6-2.7 7.9-4.3 11.9-6.2l-1.2-1.2c-2.8 3.9-6.9 6.8-10.9 9.3-1.8 1.1-3.7 2.2-5.6 3.2-2 1-4 2.1-5.6 3.7-.8.8.5 2.1 1.2 1.2 1.6-1.7 3.8-2.7 5.8-3.8s4-2.3 5.9-3.5c4-2.5 7.9-5.5 10.6-9.4.6-.8-.5-1.5-1.2-1.2-4.2 2-8.5 3.6-12.2 6.4-3.8 2.9-6.4 7-10.2 9.9-.7 1 .5 2.2 1.4 1.5h0zm5-14c-2.9-6.6-5.7-13.4-6.4-20.6-.1-1.1-1.8-1.1-1.8 0 .2 3.6 2.3 6.5 3.9 9.5.8 1.6 1.5 3.2 1.6 5 .2 1.8.1 3.6.5 5.4.2 1.1 1.9.6 1.7-.5-.4-1.7-.3-3.5-.5-5.2s-.7-3.2-1.4-4.7c-1.5-3.1-3.9-6-4.1-9.5h-1.8c.7 7.6 3.6 14.6 6.6 21.5.6 1 2.2.1 1.7-.9h0z"/><path d="M201.4 266.8c5.3-6.4 6.6-15.1 12.3-21.3l-1.5-.6c-.4 4.3-2.7 8.4-5.2 11.9-1.1 1.6-2.4 3.3-3.8 4.6s-2.8 2.4-3.2 4.3c-.3 1.1 1.4 1.6 1.7.5.5-2 2.3-2.9 3.6-4.4 1.4-1.6 2.7-3.3 3.9-5 2.4-3.6 4.4-7.6 4.8-11.9.1-.8-1-1.2-1.5-.6-2.8 3.1-4.7 6.8-6.4 10.6-1.7 3.7-3.3 7.5-5.9 10.7-.8.8.4 2.1 1.2 1.2h0zm2.3-15.2c.2-4.7-.9-9.4-1.5-14-.5-4.6-1-9.9 1.6-14-.5-.1-1.1-.3-1.6-.4.2 4.2 1.2 8.3 1.5 12.5.1 2 .1 3.9-.4 5.9-.5 1.9-1.1 3.7-1.6 5.7-.2 1.1 1.4 1.6 1.7.5.4-1.9 1.1-3.8 1.6-5.7s.6-3.9.5-5.9c-.3-4.4-1.3-8.6-1.6-13 0-.9-1.1-1.2-1.6-.4-2.7 4.1-2.4 9.5-1.9 14.1.5 4.9 1.8 9.8 1.6 14.8-.1 1 1.6 1 1.7-.1h0zM32.1 177.2c-.4-5.6-2.2-11-2.3-16.6 0-5.6 0-11.3.5-16.9.9-10.7 4.5-20.6 10.1-29.7 3.1-5 6.6-9.6 10.6-13.8.8-.8-.5-2.1-1.2-1.2-7.2 7.6-13.1 16.6-17 26.3a63.68 63.68 0 0 0-3.9 15c-.8 5.9-.8 11.9-.8 17.8 0 3.1.2 6.1.7 9.2.6 3.3 1.3 6.6 1.6 10 .1 1 1.8 1 1.7-.1h0z"/><path d="M30.7 142c3.5-8 10.8-13.2 16.6-19.3l-1.2-1.2c-2.6 3.1-6.3 5-9.3 7.6-3.1 2.6-4.9 6-7.1 9.4-.6 1 .9 1.8 1.5.9 1-1.6 2-3.3 3.1-4.9s2.4-3.1 4-4.3c3-2.5 6.5-4.4 9-7.4.7-.8-.5-2.1-1.2-1.2-5.9 6.3-13.4 11.5-16.9 19.7-.5.8 1 1.7 1.5.7h0zm2.2-12c-.7-4.9.2-9.8-.7-14.7-.8-4.3-2.8-8.3-4.4-12.4-.3-.7-1.6-1-1.7 0-.6 4.5.1 9.1 1.1 13.5.5 2.2 1.1 4.4 1.8 6.5.8 2.4 1.9 4.8 1.9 7.4 0 1.1 1.8 1.1 1.7 0 0-2.3-.8-4.5-1.5-6.6-.8-2.1-1.4-4.3-2-6.5-1.1-4.4-2.1-9.2-1.4-13.8H26c1.6 4.1 3.6 8 4.4 12.4.9 4.8 0 9.8.7 14.7.2 1 1.9.6 1.8-.5h0zm4.9-11.8c6.9-2.9 13.7-6 19.3-11l-1.2-1.2c-2.5 2.3-6.1 2.8-9.2 4-1.5.6-2.9 1.2-4.2 2.2-1.5 1.2-2.7 2.8-4.3 3.8-.9.6-.1 2.1.9 1.5 1.6-1 2.8-2.5 4.2-3.7s3-1.9 4.7-2.5c3.2-1.1 6.6-1.8 9.2-4.1.8-.8-.4-2-1.2-1.2-5.5 4.9-12.3 7.9-19 10.7-1.1.4-.2 1.9.8 1.5h0z"/><path d="M39.5 115.1c.5-8.3 5.5-15.5 5.7-23.9 0-.7-1-1.2-1.5-.6-2.5 3.2-3.8 7.1-4.5 11-.4 1.9-.6 3.9-.7 5.8-.1 1.1-.1 2.2 0 3.3.1 1.3.2 2.6-.5 3.8-.6 1 1 1.9 1.5.9 1.2-2.1.6-4 .6-6.3 0-2 .2-4 .5-6 .7-3.9 1.8-8.1 4.3-11.3l-1.5-.6c-.2 8.3-5.2 15.6-5.7 23.9 0 1.1 1.7 1.1 1.8 0h0zm8.2-11.4c3.2-3.7 7.5-6.5 11.2-9.6 3.6-3 7.5-6.8 8.4-11.6.1-.8-.8-1.5-1.5-.9-3.1 2.9-6.6 5.2-9.7 8.1-1.5 1.4-2.8 2.9-3.9 4.6-1 1.8-1.8 3.7-2.9 5.5-.6 1 .9 1.9 1.5.9 1-1.7 1.8-3.5 2.7-5.2 1.1-1.9 2.4-3.4 4-4.8 3.1-2.7 6.5-5 9.5-7.8l-1.5-.9c-.8 4.7-4.8 8.3-8.4 11.2-3.6 3-7.7 5.6-10.8 9.2-.5.9.7 2.2 1.4 1.3h0z"/></g><path d="M236.7 351.7c6.9-10.6 25.2-19.1 37.8-19.1 12.2 0 15.9 7.7 6.9 16.3-6.5 6.5-15.8 7.3-24.4 7.3-7.7-.4-13.8-1.6-20.3-4.1" fill="#9dbba3"/><g fill="#264637"><path d="M278.1 337.9c-14.5 7.5-30.7 10.9-46.7 13.6l-13.2 2.1c-1.1.2-.6 1.9.5 1.7 16.1-2.6 32.4-4.9 47.8-10.4 4.3-1.6 8.5-3.4 12.6-5.5.9-.5 0-2-1-1.5h0z"/><use xlink:href="#D"/><path d="M268.5 337c-1.2 2.7-3.3 5-4.2 7.9-.1.4.2 1 .6 1.1 3.3.8 6.5 2 9.8 2.8 1.1.3 1.6-1.4.5-1.7-3.3-.8-6.5-2-9.8-2.8.2.4.4.7.6 1.1.8-2.7 2.8-4.9 4-7.5.2-.4.1-.9-.3-1.2-.4-.2-1-.2-1.2.3h0zm-116.8 21.2c25.5-9.8 30.3-39.6 50.9-55.3 9.8-7 24.4-16.3 37.4-13.5 15.2 3.8 17.9 20.6 12.5 32.5-10.8 23.3-29.8 36.3-54.7 41.2-13 2.7-34.1 3.3-45.5-4.9"/></g><g fill="#9dbba3"><path d="M240.3 299.8c-7.8 11.8-17.8 22-28.6 31-5.4 4.5-11 9.1-17 12.7-5.7 3.4-12 5.8-18.3 7.7-7.3 2.2-14.8 3.7-22.2 5.6-1.1.3-.6 2 .5 1.7 13.3-3.4 26.9-5.8 39.1-12.5 6.1-3.3 11.6-7.7 16.9-12.1 5.6-4.6 11-9.4 16.1-14.6 5.6-5.8 10.7-11.9 15.2-18.7.5-.9-1-1.8-1.7-.8h0z"/><path d="M188.2 328.9c-.6 7.2-4.2 13.8-5.4 20.9-.1.5.1.9.6 1.1 5.1 1.6 10.6.7 15.7 2.2 1.1.3 1.5-1.4.5-1.7-5.1-1.5-10.6-.6-15.7-2.2.2.4.4.7.6 1.1 1.2-7.3 4.8-14 5.5-21.4 0-1.1-1.7-1.1-1.8 0h0zm18.4-8.6c0 6.1-2.1 11.9-2.7 17.9 0 .5.4.9.9.9 5.2 0 10.5-.5 15.7-.5 1.1 0 1.1-1.8 0-1.8-5.2 0-10.5.5-15.7.5l.9.9c.6-6 2.7-11.8 2.7-17.9 0-1.2-1.8-1.2-1.8 0h0zm15.7-14.7c0 5.6 0 11.2-.5 16.8 0 .4.3.8.6.8 5.5 1.1 11 .6 16.5.6 1.1 0 1.1-1.8 0-1.8-5.3 0-10.7.5-16-.5.2.3.4.6.6.8.5-5.6.5-11.2.5-16.8.1-1-1.7-1-1.7.1h0zm10.3-7c0 3.4.6 6.7 1.1 10 .1.4.5.6.8.6h10.3c1.1 0 1.1-1.8 0-1.8h-10.3c.3.2.6.4.8.6-.5-3.2-1-6.3-1.1-9.5.2-1-1.6-1-1.6.1h0z"/></g><path d="M42.6 385c-2.2-11.4 5.4-25.5 10.3-35.2 8.7-17.3 17.9-30.3 34.7-40.6 26.6-16.3 55.8-22.2 86.7-23.8 7-.5 14.1 0 21.1-1.6-3.6 20.5-8.7 33.6-15.2 47.1-7.6 16.8-17.3 29.3-31.4 41.7-21.1 18.4-50.9 26.6-78 20.6-9.2-2.2-18.4-4.9-27.1-7.6" fill="#c0d298"/><path d="M157.1 311.2c-13.9 8.9-26.9 18.6-40 28.8-6.8 5.3-13.6 10.5-20.8 15.2-6.9 4.6-14.3 8.7-21.2 13.2-6.7 4.4-13.4 8.8-20.9 11.9-3.8 1.6-7.7 3-11.4 4.7l.9.5c8.7 2.7 17.9 5.4 27.1 7.6 27.1 6 56.9-2.2 78-20.6 14.1-12.5 23.8-24.9 31.4-41.7 6.4-13.4 11.5-26.3 15-46.3-11.9 9.9-25 18.3-38.1 26.7z" fill="#a7b77d"/><g fill="#828e54"><path d="M193.8 285.2c-5.4 2.5-9.8 6.4-14.2 10.3-4.7 4.1-9.7 7.7-15.1 11-5.3 3.3-10.8 6.4-16 10-5.3 3.7-10.3 7.8-15.4 11.7-10.5 8.1-21.2 16-32.3 23.4-5.4 3.6-11 7.1-16.7 10.3-4.9 2.8-9.9 5.2-14.9 7.8l-15.6 8.5c-3.9 2.1-7.8 4.4-11.9 6-1 .4-.6 2.1.5 1.7 3.5-1.4 6.9-3.3 10.2-5.1l13.8-7.6 14.2-7.4c5.8-3.1 11.5-6.5 17-10.1 11.2-7.2 21.9-15 32.5-23.1l15.4-11.8c5-3.9 10.5-7.2 15.9-10.4 5.9-3.5 11.6-7.1 16.9-11.5s10.1-9.3 16.5-12.3c1.1-.4.3-1.9-.8-1.4h0z"/><path d="M164.2 292.4c-.6 6.7-4.2 12.6-6.5 18.7-.2.5.3 1.1.8 1.1 6.6 0 13.3-.5 19.8.5 1.1.2 1.6-1.5.5-1.7-6.7-1.1-13.5-.6-20.3-.6.3.4.6.7.8 1.1 2.3-6.3 5.9-12.3 6.5-19.2.2-1-1.5-1-1.6.1h0zm-20.6 5.5c.3 5-1 10-2.4 14.8-1.5 4.8-3.3 9.5-5.2 14.2-.2.5.3 1.1.8 1.1 8.9.1 17.6 3.2 26.6 2.7 1.1-.1 1.1-1.8 0-1.8-9 .5-17.6-2.7-26.6-2.7.3.4.6.7.8 1.1 1.9-4.8 3.8-9.6 5.3-14.6 1.4-4.8 2.6-9.9 2.3-14.9 0-1.1-1.7-1.1-1.6.1h0zm-27.1 9.7c.3 6.8-.8 13.6-2.2 20.1s-3.3 13-5.9 19.2c-.2.5.3 1.1.8 1.1 6.4 0 12.8.2 19.2.7 6.4.6 12.9 1.5 19 3.6 1.1.4 1.5-1.3.5-1.7-6.1-2.1-12.6-3-19.1-3.6s-13.1-.8-19.6-.8c.3.4.6.7.8 1.1 2.6-6.3 4.5-12.9 5.9-19.6 1.4-6.6 2.5-13.5 2.2-20.2.1-1-1.7-1-1.6.1h0zm-22.3 15.2c.5 13.4-5.9 25.9-7.6 39 0 .4.3.8.6.8 5.3 1.3 10.3 3.5 15.6 4.8 5.6 1.3 11.4 1 16.9 2.8 1.1.3 1.5-1.3.5-1.7-5.5-1.8-11.3-1.5-16.9-2.8-5.3-1.2-10.4-3.4-15.6-4.8.2.3.4.6.6.8 1.7-13.2 8.1-25.6 7.6-39 .1-1-1.7-1-1.7.1h0zm-21.6 13.3c-1.9 6.8-3.9 13.6-6.2 20.3s-4.8 13.5-8.3 19.6c-.3.5 0 1.1.5 1.3 13 5.1 27.1 6.5 40.6 9.8 1.1.3 1.6-1.4.5-1.7-13.5-3.2-27.6-4.7-40.6-9.8.2.4.3.9.5 1.3 3.5-6.2 6-12.9 8.4-19.7 2.3-6.8 4.4-13.7 6.4-20.6.2-1.1-1.5-1.6-1.8-.5h0z"/></g><path d="M43.9 292.5c-11.4-8.1-18.4-28.7-19.5-42.3-.5-6-.5-21.7 5.4-25.5 9.2-6 10.8 11.9 17.9 13.5 3.8-6-4.3-14.6-1.6-22.2 2.7-7 8.7-16.3 15.2-21.1 3.3 4.3 1.1 13 4.9 16.8 5.4 6.5 7.6 1.1 7-4.9 0-3.8-4.9-8.7-3.8-12.5 1.1-3.3 8.7-9.2 11.4-11.4 1.1 2.7 2.7 14.1 6.5 13.6 4.9-.5 2.2-11.9 1.1-14.6 8.1-3.8 34.1-15.2 43.4-10.3 10.3 4.9 9.2 43.4 5.4 52.6-2.2-1.1-15.2-9.2-16.3-2.2-.5 4.9 12.5 4.9 13.5 10.3.5 4.3-7.6 14.6-10.8 14.6-5.4 0-9.8-10.8-16.8-10.3-8.7.5-5.4 4.3 0 8.1 6.5 4.9 12.5 3.8 10.8 12.5-1.6 8.1-7.6 11.4-14.1 8.7-1.1-1.1-16.3-14.1-13-3.3 1.1 4.3 9.8 4.9 11.4 9.8 1.1 3.8-2.7 9.8-4.9 12.5-8.1 10.8-12.5 2.7-22.2-1.1-1.6 6 7.6 7.6 4.9 13C78 300 68.3 299 65 299c-7-.5-16.8-1.1-21.7-5.4" fill="#d6e7dd"/><g fill="#afd3c1"><path d="M122.8 185.2l-33.3 39.6c-10.9 13.3-21.6 26.7-31.8 40.5-5.8 7.7-11.4 15.6-16.8 23.6-.6.9.9 1.8 1.5.9 9.7-14.1 19.9-27.9 30.4-41.4 10.6-13.5 21.5-26.8 32.6-40l18.6-22c.7-.9-.5-2.1-1.2-1.2h0z"/><path d="M46.1 249.2c0 10-.2 20.3 2.2 30 .1.5.6.7 1.1.6 7.8-2.2 16-4.3 24.2-4.3 1.1 0 1.1-1.8 0-1.8-8.3 0-16.6 2.1-24.6 4.4.4.2.7.4 1.1.6-2.4-9.6-2.1-19.8-2.1-29.6-.1-1-1.9-1-1.9.1h0zm15.2-19c1.1 9.9-.6 19.9.5 29.8 0 .4.2.8.6.8 8 1.6 16-1 24.1-1.1 1.1 0 1.1-1.8 0-1.8-7.8 0-15.8 2.7-23.6 1.1.2.3.4.6.6.8-1.1-9.9.5-19.9-.5-29.8-.1-.9-1.8-.9-1.7.2h0zm16.8-9.2c-.5 6.3-1.1 12.6-1.1 19 0 .5.4.8.9.9 6.7.5 13.3-1.6 20-1.1 1.1.1 1.1-1.7 0-1.8-6.7-.5-13.3 1.6-20 1.1l.9.9c0-6.3.6-12.7 1.1-19 0-1.1-1.7-1.1-1.8 0h0zm12.4-16.8c0 6.8.5 13.8-1.6 20.4-.2.5.3 1.1.8 1.1 6.5 0 13.1-1.1 19.2-3.3 1.1-.4.6-2.1-.5-1.7-6 2.1-12.4 3.2-18.7 3.2.3.4.6.7.8 1.1 2.2-6.7 1.7-13.9 1.7-20.8.1-1.1-1.7-1.1-1.7 0h0zm16.3-14.1c0 5.5-1.6 10.8-1.6 16.3 0 .6.6 1 1.1.8 5.7-1.6 11.5-3.3 17.3-4.3 1.1-.2.6-1.9-.5-1.7-5.9 1.1-11.6 2.8-17.3 4.3.4.3.7.6 1.1.8 0-5.5 1.6-10.8 1.6-16.3.1-1-1.7-1-1.7.1h0zm6-2.7c0 2.5.5 5 .5 7.6 0 .5.4.8.9.9 4.6.6 9.4.5 13.8-1.1 1-.4.6-2.1-.5-1.7-4.3 1.6-8.9 1.6-13.3 1.1l.9.9c0-2.5-.5-5-.5-7.6-.1-1.2-1.8-1.2-1.8-.1h0z"/></g><defs><path id="A" d="M-5.7 375c-.7-18.3 2.6-36.2-.6-54.9-3.6-24-7.5-48.4-7-72.8.5-24 6.7-50.8 21.4-69.8 6.5-8.9 14.3-17.4 25.7-20.2 11-2.4 22.3 1.7 24.3 13.5 6.8 40.3-47.5 81.5-15.5 118.6 22.3 25.7 35.1 60.3 12.7 89.9"/><path id="B" d="M12.7 88.2c-2.4 0-2.4 3.7 0 3.7s2.4-3.7 0-3.7z"/><path id="C" d="M9 181.5c-2.4 0-2.4 3.7 0 3.7 2.4.1 2.4-3.7 0-3.7z"/><path id="D" d="M255.5 340.6c-2 2.8-4.5 5.4-6.1 8.5-.3.6.1 1.2.8 1.3 4 .4 7.7 2 11.6 2.8 1.1.2 1.6-1.5.5-1.7-4-.8-7.9-2.4-12-2.9.3.4.5.9.8 1.3 1.6-3.1 4.1-5.7 6.1-8.5.4-.8-1.1-1.7-1.7-.8h0z"/></defs><clipPath id="E"><use xlink:href="#A"/></clipPath><g clip-path="url(#E)"><path d="M-5.7 375c-.7-18.3 2.6-36.2-.6-54.9-3.6-24-7.5-48.4-7-72.8.5-24 6.7-50.8 21.4-69.8 6.5-8.9 14.3-17.4 25.7-20.2 11-2.4 22.3 1.7 24.3 13.5 6.8 40.3-47.5 81.5-15.5 118.6 22.3 25.7 35.1 60.3 12.7 89.9" fill="#5e804e"/></g><defs><path id="F" d="M-5.7 375c-.7-18.3 2.6-36.2-.6-54.9-3.6-24-7.5-48.4-7-72.8.5-24 6.7-50.8 21.4-69.8 6.5-8.9 14.3-17.4 25.7-20.2 11-2.4 22.3 1.7 24.3 13.5 6.8 40.3-47.5 81.5-15.5 118.6 22.3 25.7 35.1 60.3 12.7 89.9"/></defs><clipPath id="G"><use xlink:href="#F"/></clipPath><g clip-path="url(#G)"><path d="M42.6 289.5c-32-37.1 22.3-78.4 15.5-118.6-1-6.1-4.5-10.1-9.2-12.3-.1.8-.4 1.7-1.2 2.4-6.8 6.9-12.2 15.2-16.7 23.9 0 .4 0 .9-.1 1.4C27 201.2 17.2 214 14 229.1c-1.7 8.1-1.9 16.8-2.1 25.1v3.8c.9.7 1.6 1.7 1.7 3.1 1.1 11.8 4 23.3 7.6 34.5 3.4 10.5 7.8 20.8 9.8 31.8 3.1 17 1.6 33.7-2.7 50.1l26.9 1.9c22.5-29.6 9.6-64.2-12.6-89.9z" fill="#486b36"/></g><defs><path id="H" d="M-5.7 375c-.7-18.3 2.6-36.2-.6-54.9-3.6-24-7.5-48.4-7-72.8.5-24 6.7-50.8 21.4-69.8 6.5-8.9 14.3-17.4 25.7-20.2 11-2.4 22.3 1.7 24.3 13.5 6.8 40.3-47.5 81.5-15.5 118.6 22.3 25.7 35.1 60.3 12.7 89.9"/></defs><clipPath id="I"><use xlink:href="#H"/></clipPath><g clip-path="url(#I)"><path d="M39.9 171.9c-7.1 12.5-14.7 24.8-20.1 38.1-5.6 13.7-8.3 28.2-7.8 43 .5 14.7 4.1 29.1 8.8 43 2.4 7.2 5.3 14.3 7.7 21.5 2.3 7 3.7 14.2 4.4 21.6.7 7.6.9 15.5-.4 23-1.4 7.5-4 14.8-5.9 22.2-.5 1.9-.9 3.8-1.3 5.7-.2 1.1 1.5 1.6 1.7.5 1.5-7.6 4.1-14.8 6-22.3.9-3.6 1.6-7.3 2-11 .3-3.8.3-7.6.2-11.4-.2-7.2-1.1-14.4-2.8-21.4-1.8-7.4-4.7-14.4-7.2-21.5-5-13.9-9.4-28.2-10.8-43-1.4-14.9.2-29.9 5.3-44 5.4-15.2 14-29.1 22-43.1.2-1-1.3-1.9-1.8-.9h0z" fill="#e1fff0"/></g><defs><path id="J" d="M-5.7 375c-.7-18.3 2.6-36.2-.6-54.9-3.6-24-7.5-48.4-7-72.8.5-24 6.7-50.8 21.4-69.8 6.5-8.9 14.3-17.4 25.7-20.2 11-2.4 22.3 1.7 24.3 13.5 6.8 40.3-47.5 81.5-15.5 118.6 22.3 25.7 35.1 60.3 12.7 89.9"/></defs><clipPath id="K"><use xlink:href="#J"/></clipPath><g clip-path="url(#K)"><path d="M10.5 281.4c5.7 0 11.3-.9 16.9-2.1 1.1-.2.6-1.9-.5-1.7-5.4 1.2-10.9 2-16.4 2-1.1 0-1.1 1.8 0 1.8h0z" fill="#e1fff0"/></g><defs><path id="L" d="M-5.7 375c-.7-18.3 2.6-36.2-.6-54.9-3.6-24-7.5-48.4-7-72.8.5-24 6.7-50.8 21.4-69.8 6.5-8.9 14.3-17.4 25.7-20.2 11-2.4 22.3 1.7 24.3 13.5 6.8 40.3-47.5 81.5-15.5 118.6 22.3 25.7 35.1 60.3 12.7 89.9"/></defs><clipPath id="M"><use xlink:href="#L"/></clipPath><g clip-path="url(#M)"><path d="M5.4 246.4c5.4 1.2 10.9.4 16.3 1.2 1.1.2 1.6-1.5.5-1.7-5.4-.8-10.9 0-16.3-1.2-1.1-.3-1.6 1.4-.5 1.7h0z" fill="#e1fff0"/></g><defs><path id="N" d="M-5.7 375c-.7-18.3 2.6-36.2-.6-54.9-3.6-24-7.5-48.4-7-72.8.5-24 6.7-50.8 21.4-69.8 6.5-8.9 14.3-17.4 25.7-20.2 11-2.4 22.3 1.7 24.3 13.5 6.8 40.3-47.5 81.5-15.5 118.6 22.3 25.7 35.1 60.3 12.7 89.9"/></defs><clipPath id="O"><use xlink:href="#N"/></clipPath><g clip-path="url(#O)"><path d="M7.7 216.6c5.6 3.8 12.8 3.4 18.9 5.8 1 .4 1.5-1.3.5-1.7-6-2.3-13-1.9-18.5-5.6-1-.6-1.9.9-.9 1.5h0z" fill="#e1fff0"/></g><defs><path id="P" d="M-5.7 375c-.7-18.3 2.6-36.2-.6-54.9-3.6-24-7.5-48.4-7-72.8.5-24 6.7-50.8 21.4-69.8 6.5-8.9 14.3-17.4 25.7-20.2 11-2.4 22.3 1.7 24.3 13.5 6.8 40.3-47.5 81.5-15.5 118.6 22.3 25.7 35.1 60.3 12.7 89.9"/></defs><clipPath id="Q"><use xlink:href="#P"/></clipPath><g clip-path="url(#Q)"><path d="M21.7 186.8c5 4.1 11.3 5.9 16.8 9.1 1 .6 1.9-1 .9-1.5-5.4-3.1-11.6-4.8-16.5-8.8-.8-.7-2.1.5-1.2 1.2h0z" fill="#e1fff0"/></g><path d="M101.3 278.8c.4-14.6 6.9-32.5 16.3-43.9 4.5-5.3 15.9-13.4 23.2-10.6 10.6 4.5 6.1 15.9 2 22.8-9.3 17.1-21.9 30.1-41.5 32.5m-28.9 13.9c-1.2-9.8-12.6-38.6 2.4-43.1 18.7-6.1 6.5 35 1.6 41-1.2 1.2-2.4 2-3.7 2.4m13.5 15.9c6.9-10.6 25.2-19.1 37.8-19.1 12.2 0 15.8 7.7 6.9 16.3-6.5 6.5-15.8 7.3-24.4 7.3-7.7-.4-13.8-1.6-20.3-4.1m-52 17.5c-4.1-8.5-20.7-42.7-2.4-46.3 20.3-4.1 10.2 34.5 6.1 42.7-1.2 1.6-2 3.7-3.3 4.9M46 345.5c4.9-12.2 20.7-19.1 32.5-12.2 8.9 5.3 11 17.1-.8 20.3-9.8 2.4-14.6-7.7-24-8.5-2 0-5.3.4-6.5.4" fill="#9dbba3"/><g fill="#264637"><path d="M1.1 367.2C9.8 359.4 21 355 30.3 348c9.8-7.4 18.2-16.4 27.1-24.9l29.1-28c9.4-9.1 19-18.1 27.6-27.9 9-10.2 16.6-21.4 23.4-33.1.6-1-1-1.9-1.5-.9-6.1 10.6-12.9 20.7-20.7 30-8.3 9.8-17.7 18.6-26.8 27.6l-29.1 28c-8.8 8.6-17.3 17.6-26.9 25.3-5.2 4.2-10.9 7.7-16.7 11.1-5.5 3.2-11.1 6.4-15.9 10.7-.9.8.3 2.1 1.2 1.3h0z"/><path d="M76 261.8c.4 17.4-5.2 34.1-10.1 50.6-.3 1.1 1.4 1.5 1.7.5 5-16.6 10.5-33.5 10.2-51-.1-1.3-1.8-1.3-1.8-.1h0z"/><path d="M127.6 296c-14.5 7.5-30.7 10.9-46.7 13.6l-13.2 2.1c-1.1.2-.6 1.9.5 1.7 16.1-2.6 32.4-4.9 47.8-10.4 4.3-1.6 8.5-3.4 12.6-5.5.9-.6 0-2.1-1-1.5h0zm-92.2-3.4c-.6 14.8.8 30.2-4.1 44.4-1.4 4.1-3.4 8-5.9 11.6-.6.9.9 1.8 1.5.9 9-12.8 9.8-28.7 10-43.8l.3-13.1c0-1.1-1.8-1.1-1.8 0h0zm41.9 51.3c-6.6-4.6-14.8-4.1-22.2-2-8.2 2.3-15.8 6.3-23.7 9.3-3.9 1.4-8 2.7-12.2 2.7-1.1 0-1.1 1.8 0 1.8 7.6-.1 14.9-3.6 21.7-6.5 7.5-3.2 15.4-6.9 23.6-7.2 4.3-.2 8.4.9 12 3.3.9.8 1.7-.8.8-1.4h0zM123.2 238c-.8 5.2-.4 10.4.4 15.5.1.3.5.7.8.6 4.1-.5 8.1-1.2 12-2.5 1.1-.4.6-2-.5-1.7-3.7 1.2-7.6 2-11.6 2.4.3.2.6.4.8.6-.8-4.8-1.2-9.8-.4-14.6.3-1-1.3-1.5-1.5-.3h0z"/><path d="M115 246.5c-1.3 6.1-1.3 12.4-.8 18.5 0 .5.5 1.1 1.1.8 3.3-1.2 6.8-2.4 10.3-2.8 1.1-.1 1.1-1.9 0-1.8-3.7.4-7.3 1.6-10.8 2.9.4.3.7.6 1.1.8-.4-6-.5-12.2.8-18.1.3-.9-1.4-1.4-1.7-.3h0zm-43.8 21.4c1.2 2.8 2.7 5.5 3.1 8.5 0 .4.2.7.5.8s.7.1 1-.2c1.9-2.3 3.4-5 5.7-6.9.4-.3.3-.9 0-1.2-.4-.4-.9-.3-1.2 0-2.3 2-3.8 4.6-5.7 6.9l1.5.6c-.4-3.4-2-6.3-3.4-9.4-.2-.4-.8-.5-1.2-.3-.4.3-.4.8-.3 1.2h0zm-41 33.7c1.6 2.4 3.6 4.7 4.9 7.3.3.6 1.2.5 1.5 0 1.7-2.6 2.9-5.7 3.7-8.7.3-1.1-1.4-1.5-1.7-.5-.8 2.9-1.9 5.8-3.6 8.3h1.5c-1.3-2.6-3.2-4.9-4.9-7.3-.3-.4-.8-.6-1.2-.3-.3.3-.5.8-.2 1.2h0z"/><use xlink:href="#D" x="-150.5" y="-41.9"/><path d="M118 295c-1.2 2.7-3.3 5-4.2 7.9-.1.4.2 1 .6 1.1 3.3.8 6.5 2 9.8 2.8 1.1.3 1.6-1.4.5-1.7-3.3-.8-6.5-2-9.8-2.8.2.4.4.7.6 1.1.8-2.7 2.8-4.9 4-7.5.2-.4.1-.9-.3-1.2-.4-.2-1-.1-1.2.3h0zm-50.7 39.7c-2.3 2.3-5.7 3-7.5 5.9-.2.4-.1 1 .3 1.2 2 1.2 3.4 3 4.6 5 .6 1 2.1.1 1.5-.9-1.3-2.2-3-4.2-5.2-5.6l.3 1.2c.8-1.3 2-2.1 3.2-2.8 1.4-.8 2.8-1.6 3.9-2.7 1-.9-.3-2.1-1.1-1.3h0z"/></g><path d="M221.4 124.4h-7.7c-1.9 0-1.9 2.9 0 2.9h7.7c1.9-.1 1.9-2.9 0-2.9zm20.9-9.7h-6.6c-1.9 0-1.9 2.9 0 2.9h6.6c1.8 0 1.8-2.9 0-2.9zm-1.6 19.7h-6.2c-1.9 0-1.9 2.9 0 2.9h6.2c1.9 0 1.9-2.9 0-2.9zm20.1-9.3h-6.2c-1.9 0-1.9 2.9 0 2.9h6.2c1.8 0 1.8-2.9 0-2.9zm19.6-10.8h-6.6c-1.9 0-1.9 2.9 0 2.9h6.6c1.9 0 1.9-2.9 0-2.9zm8.9 18.5h-8.1c-1.9 0-1.9 2.9 0 2.9h8.1c1.9 0 1.9-2.9 0-2.9zM260 145.9h-5.8c-1.9 0-1.9 2.9 0 2.9h5.8c1.9 0 1.9-2.9 0-2.9z" fill="#99b5a4"/><g fill="#afd3c1"><path d="M287.5 276.4c-2.4 0-2.4 3.7 0 3.7s2.5-3.7 0-3.7z"/><use xlink:href="#B" x="281.3" y="180.2"/><use xlink:href="#B" x="282.8" y="189.2"/><use xlink:href="#C" x="126.3" y="102.5"/><use xlink:href="#B" x="129.1" y="187.9"/><use xlink:href="#C" x="135.3" y="103.5"/><use xlink:href="#B" x="52.3" y="42.3"/><use xlink:href="#C" x="61" y="-60.5"/><path d="M72.9 130c-2.4 0-2.4 3.7 0 3.7 2.5 0 2.5-3.7 0-3.7z"/></g><path d="M157.6 247.6c-4.8 0-4.8 7.5 0 7.5s4.8-7.5 0-7.5zm1.5-16.9c-4.8 0-4.8 7.5 0 7.5s4.8-7.5 0-7.5z" fill="#ff6e7d"/></svg>