<svg xmlns="http://www.w3.org/2000/svg" baseProfile="basic" width="180" height="60" fill="#6f7478"><path d="M61.995 35.3c-.108-2.708-.433-4.983-.758-6.282-.108-.65-.975-.758-1.408-.325-1.84 2.058-4.008 3.25-4.008 3.25 1.84-13.54-6.282-20.905-9.532-23.288-.542-.433-1.3 0-1.3.542-.325 7.582-4.983 12.9-4.983 12.9-1.083-1.625-2.925-2.708-4.008-3.25-.433-.217-1.083 0-1.2.433-1.516 6.173-5.307 9.856-5.307 16.8 0 8.124 7.257 14.73 16.248 14.73 9.207 0 16.464-7.15 16.247-15.5zM45.098 49.156c-4.874-.325-8.34-4.44-7.582-8.774.433-2.925 2.5-4.874 3.466-7.474.108-.108.217-.217.433-.217.433.108 1.2.542 2.058 1.408 0 0 2.6-2.275 3.574-6.282.108-.217.433-.325.542-.108 1.083 1.516 3.574 5.957 3.033 11.915 0 0 1.408-.325 2.5-1.84.108-.217.542-.108.542.108.217.65.433 1.84.433 3.574-.108 4.55-4.116 8.016-9 7.7zm37.328-25.29h3.668L80.27 41H76.3l-5.813-17.133h3.668l3.223 10.195.557 2.104.357 1.67c.086-.72.38-1.977.88-3.773l3.246-10.196zM97.25 41l-.48-1.676h-.188c-.383.6-.926 1.08-1.63 1.412s-1.504.498-2.402.498c-1.54 0-2.7-.412-3.48-1.236s-1.172-2-1.172-3.557v-8.543h3.574v7.652c0 .945.168 1.654.504 2.127s.87.7 1.605.7c1 0 1.723-.334 2.168-1.002s.668-1.775.668-3.322V27.9h3.574V41h-2.74zm10.066 0h-3.574V22.766h3.574V41zm9.07.234c-4.078 0-6.117-2.238-6.117-6.715 0-2.227.555-3.928 1.664-5.104s2.7-1.764 4.77-1.764c1.516 0 2.875.297 4.078.9l-1.055 2.766-1.57-.557a5.05 5.05 0 0 0-1.453-.217c-1.86 0-2.8 1.32-2.8 3.96 0 2.563.93 3.844 2.8 3.844.688 0 1.324-.092 1.9-.275s1.172-.47 1.758-.86v3.06c-.578.367-1.162.62-1.752.762s-1.335.2-2.233.2zm15.34-.234l-.7-1.78h-.094c-.602.758-1.22 1.283-1.857 1.576s-1.467.44-2.5.44c-1.258 0-2.248-.36-2.97-1.078s-1.084-1.742-1.084-3.07c0-1.4.486-2.416 1.46-3.076s2.44-1.025 4.4-1.096l2.273-.07v-.574c0-1.328-.68-1.992-2.04-1.992-1.047 0-2.277.316-3.7.95l-1.184-2.414c1.508-.8 3.18-1.184 5.016-1.184 1.758 0 3.105.383 4.043 1.148s1.406 1.93 1.406 3.492V41h-2.496zm-1.055-6.07l-1.383.047c-1.04.03-1.813.22-2.32.563s-.762.867-.762 1.57c0 1.008.578 1.512 1.734 1.512.828 0 1.5-.238 1.986-.715s.744-1.1.744-1.898v-1.08zM149.996 41h-3.574v-7.652c0-.945-.168-1.654-.504-2.127s-.87-.7-1.605-.7c-1 0-1.723.334-2.168 1.002s-.668 1.775-.668 3.322V41h-3.574V27.898h2.73l.48 1.676h.2a3.78 3.78 0 0 1 1.646-1.436c.7-.325 1.494-.486 2.385-.486 1.523 0 2.68.412 3.47 1.236s1.184 2.014 1.184 3.568V41z"/></svg>