<svg xmlns="http://www.w3.org/2000/svg" xmlns:xlink="http://www.w3.org/1999/xlink" width="318.4" height="208.2" xmlns:v="https://vecta.io/nano"><style><![CDATA[.o{fill:none}.p{stroke-miterlimit:10}.q{stroke-linejoin:round}.r{fill:#f777ba}.s{stroke-width:.75}.t{stroke-width:1.5}.u{fill:#fff}.v{stroke:#fff}.w{stroke-width:.5}.x{stroke:#cc328a}.y{fill:#00276f}.z{stroke:#00276f}.AA{stroke-linecap:round}.AB{stroke:#1a3987}.AC{fill:#18277a}.AD{fill:#ffe1ad}.AE{fill:#e9f1ff}.AF{stroke:#5565aa}.AG{fill:#2e7efa}.AH{fill:#d2def9}.AI{stroke:#91abe5}.AJ{fill:#2a2a68}.AK{fill:#0b0b3a}.AL{fill:#212237}.AM{stroke:#ff9c94}]]></style><g class="AH"><path d="M6.7 50.7h36.2c5.7 0 7.4-.2 13.1 0 .1-3.5-.9-6.8-2.6-8.6-1.4-1.5-3.7-2.2-5.7-1.7-2.4.6-4.1 2.3-5.7 3.5-.6-4.8-2.6-9.2-4.7-10.2-3.7-1.7-7.5 1-9.3 3.5-1.4 2.1-2.2 4.6-2.5 7.1-2.3-2.6-7.5-4.5-9.3-.5-.7 1.6-.7 3.4-.6 5.2-3-.8-6.4-.1-8.9 1.7zm265.9-31.2c-.7-2.8-7.3-7-10.8-4.5-1.1-5.4-2.1-8.7-5.6-11.4s-9.4.8-10.3 8.1c-.9-3-5.7-7-9.6-3.6-3.6 3.1-3.9 8.4-3.6 11.4h39.9zm45.8 37.6c-1.1-2.7-3.1-4.1-5.6-4.4-3.1-.3-6.2 1.4-6.2 1.4s1.2-4.4-.4-7.9c-1.1-2.4-2.8-4.6-5.1-5.2-2.4-.6-5 .6-6.8 2.5s-3 4.4-4 6.9c-.5-1.8-1.3-3.7-2.9-4.4s-3.6.5-4.4 2.2c-.9 1.7-.9 3.7-.8 5.6-1.9-1.1-4.4-1.5-6.3-.3-1.2.7-2.1 2.2-2.3 3.7h44.8z" opacity=".45"/><path d="M96.9,117.6c-10-3.4-18.8-10.2-25.3-18.5C65,90.7,57.7,72.3,58.9,56.9c28.9,8.6,40.7,35.4,42.4,51.7"/></g><g class="o p t v"><path d="M58.9 56.9s4.8 37.3 38.2 57.8"/><path d="M58.9 56.9s19.7 35.3 41.3 56.8"/><path d="M58.9 56.9S88 80 101.6 111.7"/></g><path d="M97 179.1c-11.4 4.3-24 4.4-35.8 1.3-11.7-3.1-31.2-15.2-41-31 27.9-9.5 61.4 3.4 74.4 17.7" class="AH"/><g class="o p q t v"><path d="M20.2 149.4s30.4 32.2 74.9 26.8"/><path d="M20.2 149.4s42.6 19.1 77.1 23.5"/><path d="M20.2 149.4s42.4.3 76.9 20.5"/></g><path d="M107.7 100.7c-9.7-7.2-16.6-17.6-20.3-29s-4.2-34.1 3.7-50.6c22.9 18 30.2 52.8 25.3 71.3" class="AE"/><g class="o p q t v"><path d="M91.1 21.1s-10.3 42.6 18.1 76.5"/><path d="M91.1 21.1s7.1 45.5 22 76.5"/><path d="M91.1 21.1s22.6 35.3 24.4 74.7"/></g><path d="M195.4 95.4c9.8-1.9 18.8-6.9 25.9-13.8 7.2-6.9 16.4-22.9 17.3-37.5-28 4.1-42.4 27.5-46.2 42.3" class="AH"/><g class="o p q t v"><path d="M238.6 44.1s-9.4 33.9-43.1 48.6"/><path d="M238.6 44.1s-23 30.2-45.9 47.2"/><path d="M238.6 44.1s-30.1 17.6-46.9 45.1"/></g><path d="M222.7 174.2c14.3 2.7 29.3.6 42.7-4.9s34.6-22.4 43.6-41.7c-40.2-9.4-72.4 14.6-85.6 32.8" class="AH"/><g class="o p q t v"><path d="M309.1 127.7s-30.9 41.1-84.7 43"/><path d="M309.1 127.7S266.7 156 223.4 164"/><path d="M309.1 127.7s-50.4 7.8-88 36.3"/></g><path d="M182.8 91.6c12.3-5.3 22.4-14.7 29.3-26.1s13.2-35.7 9-55.6c-29.3 13.6-46.1 49.2-45.6 70.4" class="AE"/><g class="o p q t v"><path d="M221.1 9.9s.3 48.6-39.1 78"/><path d="M221.1 9.9s-19.3 47.4-43.4 77"/><path d="M221.1 9.9s-33.4 32.4-45.4 74.4"/></g><path d="M95 160.4c-6.7 1-18 2.6-24.2-1.6-3.5-2.3-4.1-6.6-5.4-10.3-2.3-6.4-7.1-10.2-13.4-11.3-2.5-.4-5.2-1.6-6.4-4-1.8-3.6.4-8.2-1-12-.8-2-2.5-3.5-3.9-5.1-3.4-3.9-4.2-9.7-4.2-9.7s4.1 1.3 8.6-.1c2.9-.9 6.1-1.5 9.2-1 2.4.4 4.2 1.6 5.8 3.5 1.9 2.2 3.4 3.9 6.1 4.9 4.2 1.4 14.5-2 15.6 3.9.3 1.6-.1 3.4.7 4.9 1.4 2.8 4.6 1.4 6.9 2.1 3.4 1.1 7.2 3.6 8.7 6.8 3.5 7.7 3.4 18.3 1.4 26.7" class="AE"/><g class="o p q t v"><path d="M36.9,106.6c11.2,12.1,28.2,16.7,39.2,29.1c3.3,3.7,5.9,8,9,12c3.1,3.9,6.8,7.5,11.4,9"/><path d="M44.6 129.8c5.9.6 14.8.5 23.6-1.2 0 0-2.2-11.4-4-15.7"/><path d="M44.8 126c6.5.5 11.9.1 19.4-.2m-20.3-5.6s5.5.2 10.5-.5m-15.9-6.8c0 .1 1.8.3 5.7.2m8 5.3s-2.6-8.1-4.6-12.7m15.1 19.1s-2.6-12.8-5.1-18.2m0 32.5c.2.1 11.2.8 20.3-1.1m-2.7-3.2s-1.1-13.7-2.9-20.7M84 123c1.3 8.4 1.5 25.1 1.5 25.1s-14.2 1.9-20.1.3m26.1 5.7s.5-18.9-.6-28.8m-24.6 26.9s11.5 1.6 21.1-1.7m6.5 5.1s3.3-14.9.9-28.1"/></g><path d="M186.6 79c3-7.8 7.9-15.6 4.9-24.2-1.7-4.8-6.8-6.8-10.7-9.4-6.7-4.4-9.7-11.1-9.2-19.1.2-3.2-.4-6.7-2.8-8.8-3.6-3.1-9.5-1.5-13.4-4.2-2.1-1.4-3.3-3.8-4.7-5.9-3.3-5-9.7-7.4-9.7-7.4s.3 5.3-2.5 10.4c-1.8 3.3-3.4 7-3.7 10.9-.2 3 .7 5.5 2.4 7.9 2 2.8 3.5 5.1 3.9 8.6.5 5.4-6.3 17.1.1 19.9 1.8.8 3.9.7 5.4 2 2.8 2.3.3 6 .4 8.9.3 4.4 2.1 9.6 5.3 12.2 7.8 6.2 20 8.6 30 8.3" class="AE"/><g class="o p q t v"><path d="M141 .5c10.7 16.6 11.2 38.4 22.3 54.8 3.3 4.9 7.5 9.2 11.1 13.9s6.6 10.1 7.1 16.1"/><path d="M157.5 44.1s-12.4-5.5-16.8-8.7M161 15.1c-1.3 7.9-3.2 14.4-5.6 23.5m-.8-26.1s-1.3 6.7-3.5 12.6m-3.3-21c.1.1-.2 2.2-1.3 7m3.7 11c0 .1-8.5-5.1-13.1-8.7m17.5 23c0-.1-13.9-6.3-19.3-10.7m36.1-3.6c-1.2 4.6-3.5 16.5-10.4 28.3m1.6 3.7s-15.3-4.8-22.7-8.6M180 78.7s-21.7-4.1-32.7-7.9m37.6-23.1s-1.3 14.3-7.8 25.2"/></g><path d="M230.3 147.4c8.6-1.7 18.2-1.6 24.2-9.1 3.3-4.1 2.3-9.8 2.4-14.7.2-8.4 4.5-14.8 11.8-18.8 2.9-1.6 5.8-4 6.2-7.3.7-4.9-3.9-9.3-3.7-14.2.1-2.7 1.6-5 2.7-7.5 2.5-5.9 1.2-12.9 1.2-12.9s-4.5 3.2-10.7 3.5c-4 .2-8.1.9-11.7 2.8-2.8 1.5-4.5 3.7-5.7 6.6-1.4 3.4-2.6 6-5.5 8.2-4.5 3.4-18.7 3.9-17.6 11.2.3 2 1.5 3.9 1.2 5.9-.5 3.8-5.2 3.6-7.6 5.3-3.8 2.7-7.4 7.2-7.9 11.5-1.1 10.4 3.5 22.5 9.4 31.3" class="AE"/><g class="o p q t v"><path d="M274.7 63.2c-8.8 18.8-27.9 31.3-36.2 50.3-2.5 5.7-4 11.8-6.2 17.6s-5.3 11.5-10.3 15.3"/><path d="M274.7,93.3c-7,3.2-18,6.9-29.6,8.8c0,0-2-14-1.6-19.8"/><path d="M272.9 89c-7.8 3.3-14.6 5.2-24 8.1m22.7-15.2s-6.7 2.6-13.1 3.9m16.7-14.6c0 .1-2.1 1.1-6.9 2.7m-7.6 9.5s-.2-10.4.4-16.5m-10.8 28.4s-2.1-15.8-1.2-23.1m13.4 37.4c-.2.2-13.5 5.8-25.5 7.5m2.1-4.9s-4.3-16.2-5-25m-10.7 15.2c1.9 10.2 8.6 29.6 8.6 29.6s18.3-3.9 24.9-8.3m-30 17.7s-8.5-21.6-11.2-33.4m41.5 20.4s-13.5 6.8-26.8 7.1m-5.7 8.6s-10.3-15.8-12.7-31.9"/></g><path d="M195.3 112.2l7.1 15.3c-3.8 1.2-7.3 2.8-11.1 4.2-1.6 2.1 2-2.1 2.1-4.4" class="r"/><path d="M203.5 131l-2.2.7c-.1-.2-.3-.9-.4-1.1-.4.1-1.3.5-1.4.6s-.2.3-.2.6c-.1.4-.4.6-.7.8l-8.6 3c-1.1.4-1.7-.9-.8-1.9l2.7-3c3.5-.8 8.9-3.4 9.6-5 1.3.7 2 5.2 2 5.3z" class="AK"/><path d="M194.4 84c.2 5.6-.4 16.9.4 21.7.5 3 5.9 18 5.9 18l-7.2 3.7s-6.1-9.5-9.6-20.7c-2.3-7.3-2.4-15.2-2.4-21.8m31.5 15.7l12.3 11.6c-3.1 2.6-5.8 5.3-8.7 8.1-.7 2.6 1-2.7.3-4.9" class="r"/><path d="M227.6 114.9l-1.7 1.5c-.2-.2-.6-.7-.7-.8-.3.3-1 .9-1 1.1v.7c0 .4-.1.7-.4 1l-6.9 6c-.9.7-1.9-.2-1.4-1.5l1.4-3.8c3-2.1 7-6.5 7.1-8.2 1.3 0 3.6 4 3.6 4z" class="AK"/><path d="M206.1 73.4s-.4 16.6 1.8 20.8c2.7 5 11.4 12.4 11.4 12.4l-2.4 8.7s-12.3-6.8-18.6-15.1c-4.9-6.2-5.1-26-5.1-26" class="r"/><path d="M205.4 59.5c8.6 6.7 7.9 33.3 7.9 33.3s-9.6 2.5-17.4 2.5-16-1.2-16-1.2c.5-22.9 4.5-28.9 6.8-32.8" class="AC"/><path d="M189.3 23.1s1.9 5.7 1.6 7-4.6 1-5.7.9c-.1-2.9.9-6.9.9-6.9" class="AL"/><g class="r"><path d="M189.9 29.8l.5 3.2s2.3 1.5 4.2.7c2-.8 1.9-1.9 1.9-1.9l-2.4-5.8"/><path d="M186.7 24.2c0 4.1.7 7.3 3.4 7.1 2.8-.2 4.9-2.5 3.9-5.7-1.1-3.4-7.1-3.7-7.3-1.4z"/></g><path d="M190.2 31.5c1.4-.2 3.1-1 3.8-2.8" class="o p q s x"/><path d="M193.6 25.4h0zm-.1 0c0 .1 0 .1 0 0 .1.1.1.1 0 0h0z" fill="#ff855a"/><path d="M190.9 23.9c-2.3.6-3.9.5-5.4 0 .2-1.4 1.1-3.3 3.7-3.4 1.8-1.6 3.9-1.1 4.4-.9 1.5.5 2.5 1.4 3.3 2.8 1.3 2.2 1.6 5.5 1.5 7.4-2 .5-3.7.8-5 .9.1-.1-.8-5.6-2.5-6.8z" class="AL"/><path d="M192.3 26.7c0-.1 0-.4.4-.6.6-.3 1.1.3 1.2.9 0 .4 0 .7-.2 1.1-.3.5-.7.6-1 .2" class="r"/><path d="M188.8 26.4s-.5 1.6-.3 1.9 1.1.1 1.1.1" class="o p q w x"/><path d="M188.8 29.2l2.5-.4s-.1 1.4-1.5 1.5c-1 0-1-1.1-1-1.1z" class="u"/><path d="M187.6 26.2c-.1 0-.1 0 0 0v.6s0 .1.1.1l.1.1h.3c.1 0 .1-.1.2-.1 0 0 0-.1.1-.1 0-.1.1-.1.1-.2v-.5l-.1-.1h-.4l-.1.1c-.3 0-.3 0-.3.1h0z" class="y"/><path d="M188.3 25.5s-.5-.4-.9.2" class="o p q w z AA"/><path d="M190.4 26v.5c0 .1 0 .1.1.1l.1.1h.4s.1 0 .1-.1c0 0 0-.1.1-.1 0-.1.1-.1.1-.2v-.6l-.1-.1h-.4l-.1.1c-.2.3-.3.3-.3.3h0z" class="y"/><path d="M190.2 25.2s.5-.4 1.3.1" class="o p q w z AA"/><g class="r"><path d="M187.8 46.7C180 57.6 164 67.4 164 67.4l-3.3-4.2s12-10 19.1-21.5"/><path d="M162.1 62.1c-1.5 1.3-6.4 4.3-6.3 4.7s1.8-.7 1.9-.3c0 .3-2.5 2.1-2.3 2.5.3.5 2.8-1.5 2.8-1.5s-2.6 2.3-2.3 2.6 2.4-1.4 3.3-1.9c-.9.7-2.2 2-1.9 2.2.3.3 1.7-.8 2.9-1.6-.7.6-1.8 1.6-1.6 1.9.2.2 4-2.2 7.4-4.6"/></g><path d="M158.4 66.4s1.9 0 2.7-.4" class="o p q s x"/><g fill="#ff9357"><path d="M189.5 33c-3.4-.6-6.5 1.8-7.8 3.9-2.7 4.3-4.1 7.6-4.1 7.6l8 4.8 4.6-14.4"/><path d="M189.5 33c1.6.3 2 .9 3.1.5 2-.6 3.6-1.7 3.6-1.7-1.3.1 4.3 1.1 8.7 5.7 1.5 5 1.6 10 2 23.2-10.8 3.5-20.2.6-20.2.6s-1.2-5.8-2.6-10c-2-3.9-1.1-8.4 1.1-12 0-2.2 4.3-6.3 4.3-6.3z"/></g><g class="u"><path d="M196 30.4l-3.7 3.2 2.4 2.5 2.4-3.7z"/><path d="M192.3 33.6l-2.1-1.7-.7 1.1 1 3z"/></g><path d="M183 46.8c-.1-2.6 1.4-6.5 1.4-6.5" stroke="#a52f2d" class="o p s"/><path d="M223.2 199.9h-.5l-52.9-3.7c-3.8-.3-6.6-3.6-6.4-7.3l1.1-15.6c.1-1.2 1-2.1 2.2-2.1.6 0 1.1.2 1.5.6 1.6 1.5 3.5 2.3 5.5 2.5h.6c5.2 0 9.5-4.6 10-10.6.4-6.2-3.6-11.6-9-11.9h-.6c-1.8 0-3.6.6-5.2 1.7-.4.3-.8.4-1.3.4-.6 0-1.2-.3-1.6-.7a2.52 2.52 0 0 1-.6-1.7l1.1-15.6c.3-3.6 3.3-6.4 6.8-6.4h.5l16.1 1.1c.9.1 1.6.6 1.9 1.5.3.8.1 1.8-.6 2.4-1.7 1.6-2.8 3.7-2.9 6-.2 2.6.8 5.1 2.8 7.1s4.8 3.2 7.8 3.5h.9c5.8 0 10.7-4 11-9 .2-2.3-.6-4.5-2.1-6.3-.5-.7-.7-1.6-.3-2.4s1.1-1.3 2-1.3h.2l16.1 1.1c1.8.1 3.5 1 4.7 2.3s1.8 3.2 1.7 5l-3.7 52.9c-.2 3.7-3.2 6.5-6.8 6.5h0z" fill="#83a3fc"/><path d="M174 130.2h.4l16.1 1.1c1.3.1 1.9 1.7.9 2.6-1.8 1.7-3 3.9-3.2 6.5-.4 5.8 4.6 10.9 11.2 11.4h1c6.2 0 11.4-4.2 11.8-9.7.2-2.5-.7-4.9-2.2-6.9-.8-1-.1-2.4 1.1-2.4h.1l16.1 1.1c3.4.2 5.9 3.2 5.7 6.5l-3.7 52.9c-.2 3.2-2.9 5.7-6.1 5.7h-.4l-52.9-3.7c-3.4-.2-5.9-3.2-5.7-6.5l1.1-15.6c.1-.8.8-1.4 1.5-1.4.4 0 .7.1 1 .4 1.6 1.5 3.7 2.5 6 2.7h.7c5.5 0 10.3-4.9 10.7-11.3.5-6.6-3.9-12.3-9.7-12.7h-.7c-2 0-4 .7-5.6 1.8-.3.2-.6.3-.9.3-.8 0-1.5-.7-1.5-1.6l1.1-15.6c.2-3.1 2.9-5.6 6.1-5.6m0-1.5h0c-4 0-7.3 3.1-7.6 7.1l-1.1 15.6c-.1.8.2 1.6.8 2.2s1.4 1 2.2 1c.6 0 1.2-.2 1.7-.6 1.4-1 3.1-1.6 4.8-1.6h.6c5 .4 8.7 5.3 8.3 11.1-.4 5.5-4.4 9.9-9.2 9.9h-.6c-1.9-.1-3.6-.9-5-2.3-.6-.5-1.3-.8-2-.8a2.97 2.97 0 0 0-3 2.8l-1.1 15.6c-.1 2 .5 4 1.8 5.5s3.2 2.5 5.2 2.6l52.9 3.7h.5c4 0 7.3-3.1 7.6-7.1l3.7-52.9c.3-4.2-2.9-7.8-7.1-8.1l-16.1-1.1h-.2c-1.2 0-2.2.7-2.7 1.7s-.4 2.2.4 3.1c1.4 1.7 2.1 3.7 1.9 5.8-.3 4.7-4.8 8.3-10.3 8.3h-.9c-2.8-.2-5.4-1.4-7.3-3.2-1.8-1.8-2.7-4.2-2.6-6.5.1-2.1 1.1-4 2.7-5.5.9-.8 1.2-2 .8-3.2-.4-1.1-1.4-1.9-2.6-2l-16.1-1.1h-.4z" class="u"/><defs><path id="A" d="M211.3 132.8c-1.3-.1-2.1 1.4-1.3 2.4 1.6 1.9 2.4 4.3 2.2 6.9-.4 5.8-6.1 10.1-12.7 9.7-6.6-.5-11.7-5.6-11.2-11.4.2-2.5 1.4-4.8 3.2-6.5.9-.9.4-2.5-.9-2.6l-16.1-1.1c-3.4-.2-6.3 2.3-6.5 5.7l-1.1 15.6c-.1 1.3 1.3 2 2.3 1.3 1.8-1.3 4-2 6.3-1.8 5.8.4 10.1 6.1 9.7 12.7-.5 6.6-5.6 11.7-11.4 11.2-2.3-.2-4.3-1.1-6-2.7-.9-.9-2.4-.3-2.5 1l-1.1 15.6c-.2 3.4 2.3 6.3 5.7 6.5l52.9 3.7c3.4.2 6.3-2.3 6.5-5.7l3.7-52.9c.2-3.4-2.3-6.3-5.7-6.5l-16-1.1z"/><path id="B" d="M146.4 69.4c-.8.1-1.5-.4-1.6-1.2s.4-1.5 1.2-1.6 1.5.4 1.6 1.2c.1.7-.4 1.5-1.2 1.6z"/><path id="C" d="M159.7 67.2c-.8.1-1.5-.4-1.6-1.2s.4-1.5 1.2-1.6 1.5.4 1.6 1.2c.1.7-.4 1.4-1.2 1.6z"/><path id="D" d="M173 64.9c-.8.1-1.5-.4-1.6-1.2s.4-1.5 1.2-1.6 1.5.4 1.6 1.2-.4 1.5-1.2 1.6z"/><path id="E" d="M226.2 56c-.8.1-1.5-.4-1.6-1.2s.4-1.5 1.2-1.6 1.5.4 1.6 1.2c.1.7-.5 1.4-1.2 1.6z"/><path id="F" d="M190 84.5c-.8.1-1.5-.4-1.6-1.2s.4-1.5 1.2-1.6 1.5.4 1.6 1.2a1.46 1.46 0 0 1-1.2 1.6z"/><path id="G" d="M229.9 77.8c-.8.1-1.5-.4-1.6-1.2s.4-1.5 1.2-1.6 1.5.4 1.6 1.2c.1.7-.5 1.5-1.2 1.6z"/><path id="H" d="M61.8 177.4c-.8.2-1.5-.3-1.7-1-.2-.8.3-1.5 1-1.7.8-.2 1.5.3 1.7 1a1.37 1.37 0 0 1-1 1.7z"/><path id="I" d="M74.9 174.1c-.8.2-1.5-.3-1.7-1-.2-.8.3-1.5 1-1.7.8-.2 1.5.3 1.7 1 .2.8-.3 1.5-1 1.7z"/><path id="J" d="M88 170.9c-.8.2-1.5-.3-1.7-1-.2-.8.3-1.5 1-1.7.8-.2 1.5.3 1.7 1s-.3 1.5-1 1.7z"/><path id="K" d="M101 167.6c-.8.2-1.5-.3-1.7-1-.2-.8.3-1.5 1-1.7.8-.2 1.5.3 1.7 1 .3.7-.2 1.5-1 1.7z"/><path id="L" d="M114.1 164.3c-.8.2-1.5-.3-1.7-1-.2-.8.3-1.5 1-1.7.8-.2 1.5.3 1.7 1 .2.8-.2 1.5-1 1.7z"/><path id="M" d="M93.3 192.3c-.8.2-1.5-.3-1.7-1-.2-.8.3-1.5 1-1.7.8-.2 1.5.3 1.7 1 .2.8-.2 1.6-1 1.7z"/></defs><clipPath id="N"><use xlink:href="#A"/></clipPath><g opacity=".2" clip-path="url(#N)" class="o AI"><g stroke-width="11"><circle transform="matrix(.997 -.077953 .077953 .997 -15.8408 17.441)" cx="215.5" cy="211.6" r="30.2"/><circle cx="214.9" cy="210.9" r="19.1"/><circle transform="matrix(.9653 -.261 .261 .9653 -47.7702 63.5843)" cx="215.5" cy="211.6" r="10"/></g></g><path d="M147.9 129.2c-.3 0-.6 0-.9-.1l-16.1-2c-.9-.1-1.6-.7-1.9-1.6s0-1.8.7-2.3c1.9-1.5 3.1-3.6 3.3-5.9.3-2.6-.5-5.2-2.4-7.3s-4.6-3.5-7.6-3.9c-.5-.1-1.1-.1-1.6-.1-5.5 0-10.2 3.6-10.8 8.4-.3 2.3.3 4.6 1.8 6.5.5.7.6 1.6.2 2.3-.4.8-1.1 1.2-2 1.2h-.3l-16.1-2c-1.8-.2-3.4-1.2-4.6-2.6s-1.6-3.2-1.4-5.1l6.6-52.6c.4-3.4 3.4-6 6.8-6 .3 0 .6 0 .9.1l52.6 6.6c1.8.2 3.4 1.2 4.6 2.6s1.6 3.2 1.4 5.1l-2 15.8c-.1 1.1-1.1 2-2.2 2-.6 0-1.2-.3-1.7-.8-1.5-1.7-3.5-2.8-5.6-3.1-.4 0-.7-.1-1.1-.1-5 0-9.3 4.3-10.1 10-.8 6.2 3 11.7 8.3 12.4.4 0 .7.1 1.1.1 1.8 0 3.6-.6 5.2-1.7.4-.3.8-.4 1.3-.4.6 0 1.3.3 1.7.8a2.27 2.27 0 0 1 .5 1.8l-2 15.8c-.2 3.5-3.1 6.1-6.6 6.1z" fill="#ffc7ca"/><path d="M101.9 56.9h.8l52.6 6.6c3.3.4 5.7 3.5 5.3 6.8l-2 15.8c-.1.8-.8 1.3-1.5 1.3-.4 0-.8-.2-1.1-.5-1.6-1.8-3.7-3-6.1-3.3-.4 0-.8-.1-1.2-.1-5.3 0-10 4.5-10.8 10.7-.8 6.6 3.2 12.5 9 13.2.4 0 .8.1 1.2.1 2 0 3.9-.7 5.6-1.8.3-.2.5-.3.8-.3a1.53 1.53 0 0 1 1.5 1.7l-2 15.8c-.4 3.1-3 5.3-6.1 5.3h-.8l-16.1-2c-1.3-.2-1.8-1.8-.8-2.6 2-1.6 3.3-3.8 3.6-6.4.7-5.8-4-11.1-10.6-12-.6-.1-1.2-.1-1.7-.1-5.9 0-10.9 3.8-11.5 9.1-.3 2.5.4 5 1.9 7 .7 1 0 2.4-1.2 2.4h-.2l-16.1-2c-3.3-.4-5.7-3.5-5.3-6.8l6.6-52.6c.5-3 3.1-5.3 6.2-5.3m0-1.5h0c-3.8 0-7.1 2.9-7.5 6.7l-6.6 52.6c-.5 4.2 2.4 8 6.6 8.5l16.1 2h.4c1.1 0 2.1-.6 2.7-1.6a2.91 2.91 0 0 0-.3-3.1c-1.3-1.8-1.9-3.9-1.6-6 .6-4.4 4.9-7.8 10-7.8.5 0 1 0 1.5.1 2.8.4 5.4 1.6 7.1 3.6 1.7 1.9 2.5 4.3 2.2 6.7-.3 2.1-1.3 4-3.1 5.4-.9.8-1.3 2-1 3.1s1.3 2 2.5 2.1l16.1 2c.3 0 .6.1 1 .1 3.8 0 7.1-2.9 7.5-6.7l2-15.8c.1-.9-.1-1.7-.7-2.3s-1.4-1-2.2-1c-.6 0-1.2.2-1.7.5-1.5 1-3.1 1.5-4.7 1.5-.3 0-.7 0-1-.1-5-.6-8.4-5.8-7.7-11.6.7-5.3 4.7-9.4 9.3-9.4.3 0 .7 0 1 .1 2 .2 3.8 1.2 5.2 2.8.6.6 1.4 1 2.2 1 1.5 0 2.8-1.1 3-2.6l2-15.8c.5-4.2-2.4-8-6.6-8.5L103 55.3c-.5.2-.8.1-1.1.1h0z" class="u"/><defs><path id="O" d="M146.9 107.6c-5.8-.7-9.8-6.7-9-13.2.8-6.6 6.2-11.3 12-10.6 2.4.3 4.5 1.5 6.1 3.3.8 1 2.4.5 2.6-.8l2-15.8c.4-3.3-2-6.4-5.3-6.8L102.6 57c-3.3-.4-6.4 2-6.8 5.3l-6.6 52.6c-.4 3.3 2 6.4 5.3 6.8l16.1 2c1.3.2 2.1-1.3 1.4-2.3-1.5-2-2.2-4.5-1.9-7 .7-5.8 6.7-9.8 13.2-9 6.6.8 11.3 6.2 10.6 12-.3 2.5-1.7 4.8-3.6 6.4-1 .8-.5 2.4.8 2.6l16.1 2c3.3.4 6.4-2 6.8-5.3l2-15.8c.2-1.3-1.3-2.1-2.3-1.4-2 1.3-4.4 2-6.8 1.7z"/></defs><clipPath id="P"><use xlink:href="#O"/></clipPath><g opacity=".25" clip-path="url(#P)" stroke-width="11" class="o v"><circle cx="95.6" cy="62.9" r="30.2"/><circle cx="95" cy="62.3" r="20.6"/><circle cx="95.6" cy="62.9" r="10"/></g><path d="M196.1 145.8c-7-.1-12.7-5.2-12.7-11.4 0-2.7 1.1-5.2 3.1-7.3.3-.3.2-.7.1-.8 0-.1-.2-.4-.7-.5l-16.2-.2c-1.8 0-3.5-.8-4.8-2.1s-2-3-2-4.9l.2-15.7c0-.3-.1-.4-.2-.5s-.3-.2-.5-.2-.3.1-.4.2c-1.9 1.6-4.2 2.4-6.7 2.4h-.1C149 104.7 144 99 144 91.9c.1-7 5.2-12.7 11.3-12.7h.1c2.4 0 4.8.9 6.7 2.6.1.1.3.2.5.2a.68.68 0 0 0 .7-.7l.2-15.7c0-3.7 3.1-6.8 6.9-6.8l53.1.6c3.8 0 6.8 3.1 6.8 6.9l-.6 53.1c0 3.7-3.1 6.8-6.9 6.8l-16.3-.2c-.5 0-.6.3-.7.4 0 .1-.2.5.1.8 1.9 2.1 3 4.7 2.9 7.3-.1 6.2-5.8 11.2-12.7 11.2v.1z" fill="#b5c8f7"/><path d="M170.4 59.6l53.1.6c3.4 0 6.1 2.8 6 6.2l-.6 53.1c0 3.4-2.8 6-6.1 6h-.1l-16.2-.2a1.48 1.48 0 0 0-1.1 2.5c1.7 1.9 2.8 4.2 2.7 6.8-.1 5.8-5.4 10.4-12 10.4h-.1c-6.6-.1-12-4.9-11.9-10.7 0-2.6 1.1-4.9 2.9-6.7.9-.9.3-2.5-1-2.5l-16.2-.2c-3.4 0-6.1-2.8-6-6.2l.2-15.7a1.47 1.47 0 0 0-1.5-1.5c-.3 0-.6.1-.9.3-1.7 1.4-3.9 2.3-6.2 2.3h-.1c-5.8-.1-10.5-5.5-10.4-12.1s4.8-11.9 10.6-11.9h.1c2.3 0 4.5.9 6.2 2.4.3.2.6.4.9.4a1.47 1.47 0 0 0 1.5-1.5l.2-15.7c-.1-3.4 2.6-6.1 6-6.1m0-1.5c-4.2 0-7.6 3.4-7.6 7.5l-.2 15.7c-2-1.8-4.5-2.7-7.1-2.8h-.1c-6.6 0-12 6-12.1 13.4-.1 7.5 5.3 13.6 11.9 13.6h.1a10.91 10.91 0 0 0 7.1-2.6l-.2 15.7c0 2 .8 4 2.2 5.4s3.3 2.3 5.4 2.3l16.2.2c-2.1 2.1-3.3 4.9-3.3 7.7-.1 6.6 5.9 12.1 13.4 12.2h.2c7.4 0 13.4-5.3 13.5-11.9 0-2.9-1.1-5.6-3.1-7.8l16.3.2c4.2 0 7.6-3.4 7.6-7.5l.6-53.1c0-4.2-3.3-7.6-7.5-7.7l-53.3-.5z" class="u"/><defs><path id="Q" d="M223.5 60.2l-53.1-.6c-3.4 0-6.1 2.7-6.2 6l-.2 15.7c0 1.3-1.5 1.9-2.4 1.1-1.7-1.5-3.9-2.4-6.2-2.4-5.8-.1-10.6 5.3-10.7 11.9s4.6 12.1 10.4 12.1c2.3 0 4.5-.8 6.3-2.3 1-.8 2.4-.1 2.4 1.2l-.2 15.7c0 3.4 2.7 6.1 6 6.2l16.2.2c1.3 0 2 1.6 1 2.5-1.8 1.8-2.8 4.2-2.9 6.7-.1 5.8 5.3 10.6 11.9 10.7s12.1-4.6 12.1-10.4c0-2.6-1-4.9-2.7-6.8-.9-.9-.2-2.5 1.1-2.5l16.2.2c3.4 0 6.1-2.7 6.2-6l.6-53.1c.3-3.3-2.4-6.1-5.8-6.1z"/></defs><clipPath id="R"><use xlink:href="#Q"/></clipPath><g clip-path="url(#R)" class="u"><use xlink:href="#B"/><use xlink:href="#C"/><use xlink:href="#D"/><path d="M186.3 62.7c-.8.1-1.5-.4-1.6-1.2s.4-1.5 1.2-1.6 1.5.4 1.6 1.2c.1.7-.4 1.5-1.2 1.6zm13.3-2.3c-.8.1-1.5-.4-1.6-1.2s.4-1.5 1.2-1.6 1.5.4 1.6 1.2-.4 1.5-1.2 1.6zm13.3-2.2c-.8.1-1.5-.4-1.6-1.2s.4-1.5 1.2-1.6 1.5.4 1.6 1.2c.1.7-.4 1.5-1.2 1.6z"/><use xlink:href="#E"/><path d="M148.2 80.3c-.8.1-1.5-.4-1.6-1.2s.4-1.5 1.2-1.6 1.5.4 1.6 1.2-.4 1.5-1.2 1.6z"/><circle transform="matrix(.9856 -.1693 .1693 .9856 -10.6529 28.4101)" cx="161.3" cy="76.7" r="1.4"/><path d="M174.8 75.8c-.8.1-1.5-.4-1.6-1.2s.4-1.5 1.2-1.6 1.5.4 1.6 1.2-.4 1.5-1.2 1.6zm13.3-2.2c-.8.1-1.5-.4-1.6-1.2s.4-1.5 1.2-1.6 1.5.4 1.6 1.2c.1.7-.4 1.5-1.2 1.6zm13.3-2.2c-.8.1-1.5-.4-1.6-1.2s.4-1.5 1.2-1.6 1.5.4 1.6 1.2c.1.7-.4 1.4-1.2 1.6zm13.3-2.3c-.8.1-1.5-.4-1.6-1.2s.4-1.5 1.2-1.6 1.5.4 1.6 1.2-.4 1.5-1.2 1.6zm13.3-2.2c-.8.1-1.5-.4-1.6-1.2s.4-1.5 1.2-1.6 1.5.4 1.6 1.2c.1.7-.4 1.4-1.2 1.6zm-77.9 24.4c-.8.1-1.5-.4-1.6-1.2s.4-1.5 1.2-1.6 1.5.4 1.6 1.2c.1.7-.4 1.4-1.2 1.6zm13.3-2.3c-.8.1-1.5-.4-1.6-1.2s.4-1.5 1.2-1.6 1.5.4 1.6 1.2c.1.7-.4 1.5-1.2 1.6zm13.3-2.2c-.8.1-1.5-.4-1.6-1.2s.4-1.5 1.2-1.6 1.5.4 1.6 1.2c.1.7-.5 1.4-1.2 1.6z"/><use xlink:href="#F"/><path d="M203.3 82.3c-.8.1-1.5-.4-1.6-1.2s.4-1.5 1.2-1.6 1.5.4 1.6 1.2c.1.7-.5 1.4-1.2 1.6zm13.3-2.3c-.8.1-1.5-.4-1.6-1.2s.4-1.5 1.2-1.6 1.5.4 1.6 1.2a1.46 1.46 0 0 1-1.2 1.6z"/><use xlink:href="#G"/><path d="M151.9 102.2c-.8.1-1.5-.4-1.6-1.2s.4-1.5 1.2-1.6 1.5.4 1.6 1.2c.1.7-.4 1.4-1.2 1.6zm13.3-2.3c-.8.1-1.5-.4-1.6-1.2s.4-1.5 1.2-1.6 1.5.4 1.6 1.2-.4 1.5-1.2 1.6zm13.3-2.2c-.8.1-1.5-.4-1.6-1.2s.4-1.5 1.2-1.6 1.5.4 1.6 1.2c.1.7-.4 1.4-1.2 1.6zm13.3-2.3c-.8.1-1.5-.4-1.6-1.2s.4-1.5 1.2-1.6 1.5.4 1.6 1.2-.4 1.5-1.2 1.6zm13.3-2.2c-.8.1-1.5-.4-1.6-1.2s.4-1.5 1.2-1.6 1.5.4 1.6 1.2c.1.7-.4 1.5-1.2 1.6zm13.3-2.2c-.8.1-1.5-.4-1.6-1.2s.4-1.5 1.2-1.6 1.5.4 1.6 1.2-.4 1.4-1.2 1.6zm13.3-2.3c-.8.1-1.5-.4-1.6-1.2s.4-1.5 1.2-1.6 1.5.4 1.6 1.2c.1.7-.4 1.5-1.2 1.6zm-77.9 24.4c-.8.1-1.5-.4-1.6-1.2s.4-1.5 1.2-1.6 1.5.4 1.6 1.2c.1.7-.5 1.5-1.2 1.6zm13.3-2.3c-.8.1-1.5-.4-1.6-1.2s.4-1.5 1.2-1.6 1.5.4 1.6 1.2a1.46 1.46 0 0 1-1.2 1.6zm13.2-2.2c-.8.1-1.5-.4-1.6-1.2s.4-1.5 1.2-1.6 1.5.4 1.6 1.2c.2.7-.4 1.5-1.2 1.6zm13.3-2.2c-.8.1-1.5-.4-1.6-1.2s.4-1.5 1.2-1.6 1.5.4 1.6 1.2c.1.7-.4 1.4-1.2 1.6zm13.3-2.3c-.8.1-1.5-.4-1.6-1.2s.4-1.5 1.2-1.6 1.5.4 1.6 1.2c.1.7-.4 1.5-1.2 1.6zm13.3-2.2c-.8.1-1.5-.4-1.6-1.2s.4-1.5 1.2-1.6 1.5.4 1.6 1.2c.1.7-.4 1.4-1.2 1.6zm13.3-2.3c-.8.1-1.5-.4-1.6-1.2s.4-1.5 1.2-1.6 1.5.4 1.6 1.2-.4 1.5-1.2 1.6zM155.6 124c-.8.1-1.5-.4-1.6-1.2s.4-1.5 1.2-1.6 1.5.4 1.6 1.2c.1.7-.4 1.5-1.2 1.6zm13.3-2.2c-.8.1-1.5-.4-1.6-1.2s.4-1.5 1.2-1.6 1.5.4 1.6 1.2c.1.7-.4 1.4-1.2 1.6zm13.3-2.3c-.8.1-1.5-.4-1.6-1.2s.4-1.5 1.2-1.6 1.5.4 1.6 1.2c.1.7-.4 1.5-1.2 1.6zm13.3-2.2c-.8.1-1.5-.4-1.6-1.2s.4-1.5 1.2-1.6 1.5.4 1.6 1.2c.1.7-.4 1.4-1.2 1.6zm13.3-2.3c-.8.1-1.5-.4-1.6-1.2s.4-1.5 1.2-1.6 1.5.4 1.6 1.2-.4 1.5-1.2 1.6zm13.3-2.2c-.8.1-1.5-.4-1.6-1.2s.4-1.5 1.2-1.6 1.5.4 1.6 1.2c.1.7-.4 1.5-1.2 1.6zm13.3-2.3c-.8.1-1.5-.4-1.6-1.2s.4-1.5 1.2-1.6 1.5.4 1.6 1.2-.4 1.5-1.2 1.6zm-78 24.4c-.8.1-1.5-.4-1.6-1.2s.4-1.5 1.2-1.6 1.5.4 1.6 1.2c.1.7-.4 1.5-1.2 1.6zm13.3-2.2c-.8.1-1.5-.4-1.6-1.2s.4-1.5 1.2-1.6 1.5.4 1.6 1.2c.1.7-.4 1.4-1.2 1.6zm13.3-2.3c-.8.1-1.5-.4-1.6-1.2s.4-1.5 1.2-1.6 1.5.4 1.6 1.2-.4 1.5-1.2 1.6zm13.3-2.2c-.8.1-1.5-.4-1.6-1.2s.4-1.5 1.2-1.6 1.5.4 1.6 1.2c.1.7-.4 1.5-1.2 1.6zm13.3-2.3c-.8.1-1.5-.4-1.6-1.2s.4-1.5 1.2-1.6 1.5.4 1.6 1.2-.4 1.5-1.2 1.6zm13.3-2.2c-.8.1-1.5-.4-1.6-1.2s.4-1.5 1.2-1.6 1.5.4 1.6 1.2c.1.7-.4 1.5-1.2 1.6zm13.3-2.2c-.8.1-1.5-.4-1.6-1.2s.4-1.5 1.2-1.6 1.5.4 1.6 1.2c.1.7-.4 1.4-1.2 1.6zm-77.9 24.3c-.8.1-1.5-.4-1.6-1.2s.4-1.5 1.2-1.6 1.5.4 1.6 1.2-.4 1.5-1.2 1.6zm13.3-2.2c-.8.1-1.5-.4-1.6-1.2s.4-1.5 1.2-1.6 1.5.4 1.6 1.2c.1.7-.4 1.5-1.2 1.6zm13.3-2.3c-.8.1-1.5-.4-1.6-1.2s.4-1.5 1.2-1.6 1.5.4 1.6 1.2-.4 1.5-1.2 1.6zm13.3-2.2c-.8.1-1.5-.4-1.6-1.2s.4-1.5 1.2-1.6 1.5.4 1.6 1.2c.1.7-.5 1.5-1.2 1.6zm13.3-2.2c-.8.1-1.5-.4-1.6-1.2s.4-1.5 1.2-1.6 1.5.4 1.6 1.2c.1.7-.5 1.4-1.2 1.6zm13.3-2.3c-.8.1-1.5-.4-1.6-1.2s.4-1.5 1.2-1.6 1.5.4 1.6 1.2c.1.7-.5 1.5-1.2 1.6zm13.3-2.2c-.8.1-1.5-.4-1.6-1.2s.4-1.5 1.2-1.6 1.5.4 1.6 1.2c.1.7-.5 1.4-1.2 1.6z"/></g><path d="M99.1 199.6c-3.6 0-6.6-2.8-6.8-6.5l-3-53c-.1-1.8.5-3.6 1.7-5s2.9-2.2 4.7-2.3l16.2-.9a.65.65 0 0 0 .6-.5c0-.1.1-.5-.2-.8-2-1.9-3.2-4.4-3.4-7.1-.3-6.2 5.1-11.6 12.1-12h.8c6.7 0 12.2 4.7 12.6 10.6.1 2.6-.8 5.3-2.5 7.4-.3.3-.2.6-.1.8 0 .1.2.4.7.4l16.2-.9h.4c3.6 0 6.6 2.8 6.8 6.5l.9 15.9c0 .5.4.7.7.7.1 0 .3 0 .5-.2 1.9-1.9 4.2-2.9 6.8-3.1h.6c6 0 11.1 5.3 11.4 12.1.2 3.4-.8 6.6-2.8 9.2s-4.8 4-7.8 4.2h-.6c-2.3 0-4.6-.8-6.5-2.3a.76.76 0 0 0-.4-.2c-.2 0-.4.1-.5.2s-.2.3-.2.5l.9 15.9c.2 3.8-2.7 7-6.5 7.2l-53 3c-.1.2-.2.2-.3.2z" fill="#9fbfff"/><path d="M121.9 112.5c6.3 0 11.5 4.3 11.8 9.9.1 2.5-.8 4.9-2.4 6.9-.8 1-.1 2.4 1.1 2.4h.1l16.2-.9h.3c3.2 0 5.9 2.5 6.1 5.8l.9 15.9c0 .9.8 1.4 1.5 1.4.4 0 .7-.1 1-.4 1.7-1.7 3.9-2.7 6.3-2.9h.5c5.6 0 10.3 5 10.7 11.4.4 6.6-4 12.3-9.9 12.6h-.5c-2.2 0-4.3-.8-6-2.1-.3-.2-.6-.3-.9-.3-.8 0-1.5.7-1.5 1.6l.9 15.9c.2 3.4-2.4 6.3-5.8 6.4l-53.3 3c-3.2 0-5.9-2.5-6.1-5.8l-3-53c-.2-3.4 2.4-6.3 5.8-6.4l16.2-.9c1.3-.1 1.9-1.7.9-2.5-1.8-1.7-3-4-3.1-6.6-.3-5.8 4.8-10.8 11.4-11.2.3-.2.6-.2.8-.2m0-1.5h-.9c-3.6.2-6.9 1.6-9.3 4-2.5 2.4-3.7 5.6-3.5 8.8.2 2.8 1.4 5.5 3.6 7.6l-16.1.9c-2 .1-3.9 1-5.2 2.5-1.4 1.5-2 3.5-1.9 5.5l3 53c.2 4 3.6 7.2 7.6 7.2h.4l53-3c2-.1 3.9-1 5.2-2.5 1.4-1.5 2-3.5 1.9-5.5l-.9-15.9c2 1.6 4.4 2.5 6.9 2.5h.6c3.3-.2 6.2-1.8 8.4-4.5 2.1-2.7 3.1-6.1 2.9-9.7-.4-7.2-5.8-12.8-12.2-12.8h-.6c-2.7.2-5.2 1.3-7.2 3.3l-.8-15.9c-.2-4-3.6-7.2-7.6-7.2h-.4l-16.2.9c1.9-2.2 2.9-5 2.7-7.9-.4-6.4-6.3-11.3-13.4-11.3h0z" class="u"/><defs><path id="S" d="M164.8 150.5c-2.4.1-4.6 1.2-6.3 2.9-.9.9-2.4.3-2.5-1l-.9-15.9c-.2-3.4-3.1-5.9-6.4-5.8l-16.2.9c-1.3.1-2.1-1.4-1.2-2.4 1.6-1.9 2.5-4.3 2.4-6.9-.3-5.8-6-10.2-12.6-9.9-6.6.4-11.7 5.4-11.4 11.2.1 2.5 1.3 4.8 3.1 6.6.9.9.4 2.5-.9 2.5l-16.2.9c-3.4.2-5.9 3.1-5.8 6.4l3 53c.2 3.4 3.1 5.9 6.4 5.8l53-3c3.4-.2 5.9-3.1 5.8-6.4l-.9-15.9c-.1-1.3 1.4-2 2.4-1.3 1.9 1.5 4.1 2.3 6.6 2.1 5.8-.3 10.2-6 9.9-12.6-.4-6.5-5.4-11.6-11.3-11.2z"/></defs><clipPath id="T"><use xlink:href="#S"/></clipPath><g opacity=".35" clip-path="url(#T)" class="u"><use xlink:href="#H"/><use xlink:href="#I"/><use xlink:href="#J"/><use xlink:href="#K"/><use xlink:href="#L"/><path d="M127.2 161.1c-.8.2-1.5-.3-1.7-1-.2-.8.3-1.5 1-1.7.8-.2 1.5.3 1.7 1a1.37 1.37 0 0 1-1 1.7zm13.1-3.3c-.8.2-1.5-.3-1.7-1-.2-.8.3-1.5 1-1.7.8-.2 1.5.3 1.7 1s-.3 1.5-1 1.7zm-75.8 30.3c-.8.2-1.5-.3-1.7-1-.2-.8.3-1.5 1-1.7.8-.2 1.5.3 1.7 1 .2.8-.3 1.5-1 1.7zm13-3.2c-.8.2-1.5-.3-1.7-1-.2-.8.3-1.5 1-1.7.8-.2 1.5.3 1.7 1 .3.7-.2 1.5-1 1.7zm13.1-3.3c-.8.2-1.5-.3-1.7-1-.2-.8.3-1.5 1-1.7.8-.2 1.5.3 1.7 1 .3.7-.2 1.5-1 1.7zm13.1-3.3c-.8.2-1.5-.3-1.7-1-.2-.8.3-1.5 1-1.7.8-.2 1.5.3 1.7 1 .2.8-.2 1.5-1 1.7zm13.1-3.2c-.8.2-1.5-.3-1.7-1-.2-.8.3-1.5 1-1.7.8-.2 1.5.3 1.7 1a1.37 1.37 0 0 1-1 1.7zm13.1-3.3c-.8.2-1.5-.3-1.7-1-.2-.8.3-1.5 1-1.7.8-.2 1.5.3 1.7 1s-.3 1.5-1 1.7z"/><path d="M143 168.5c-.8.2-1.5-.3-1.7-1-.2-.8.3-1.5 1-1.7.8-.2 1.5.3 1.7 1 .2.8-.3 1.6-1 1.7zm-75.9 30.4c-.8.2-1.5-.3-1.7-1-.2-.8.3-1.5 1-1.7.8-.2 1.5.3 1.7 1 .3.7-.2 1.5-1 1.7zm13.1-3.3c-.8.2-1.5-.3-1.7-1-.2-.8.3-1.5 1-1.7.8-.2 1.5.3 1.7 1 .3.7-.2 1.5-1 1.7z"/><use xlink:href="#M"/><path d="M106.4 189.1c-.8.2-1.5-.3-1.7-1-.2-.8.3-1.5 1-1.7.8-.2 1.5.3 1.7 1a1.37 1.37 0 0 1-1 1.7zm13.1-3.3c-.8.2-1.5-.3-1.7-1-.2-.8.3-1.5 1-1.7.8-.2 1.5.3 1.7 1s-.3 1.5-1 1.7zm13.1-3.2c-.8.2-1.5-.3-1.7-1-.2-.8.3-1.5 1-1.7.8-.2 1.5.3 1.7 1s-.3 1.5-1 1.7z"/><circle cx="145.3" cy="177.9" r="1.4"/><path d="M69.8 209.6c-.8.2-1.5-.3-1.7-1-.2-.8.3-1.5 1-1.7.8-.2 1.5.3 1.7 1 .3.7-.2 1.5-1 1.7zm13.1-3.3c-.8.2-1.5-.3-1.7-1-.2-.8.3-1.5 1-1.7.8-.2 1.5.3 1.7 1 .2.8-.2 1.6-1 1.7zm13.1-3.2c-.8.2-1.5-.3-1.7-1-.2-.8.3-1.5 1-1.7.8-.2 1.5.3 1.7 1a1.37 1.37 0 0 1-1 1.7zm13.1-3.3c-.8.2-1.5-.3-1.7-1-.2-.8.3-1.5 1-1.7.8-.2 1.5.3 1.7 1 .2.8-.3 1.5-1 1.7zm13.1-3.2c-.8.2-1.5-.3-1.7-1-.2-.8.3-1.5 1-1.7.8-.2 1.5.3 1.7 1s-.3 1.5-1 1.7zm13-3.3c-.8.2-1.5-.3-1.7-1-.2-.8.3-1.5 1-1.7s1.5.3 1.7 1c.3.7-.2 1.5-1 1.7z"/><circle cx="148" cy="188.6" r="1.4"/><path d="M72.5 220.4c-.8.2-1.5-.3-1.7-1-.2-.8.3-1.5 1-1.7.8-.2 1.5.3 1.7 1a1.37 1.37 0 0 1-1 1.7zm13.1-3.3c-.8.2-1.5-.3-1.7-1-.2-.8.3-1.5 1-1.7.8-.2 1.5.3 1.7 1a1.37 1.37 0 0 1-1 1.7zm13.1-3.3c-.8.2-1.5-.3-1.7-1-.2-.8.3-1.5 1-1.7.8-.2 1.5.3 1.7 1 .2.8-.3 1.5-1 1.7zm13.1-3.2c-.8.2-1.5-.3-1.7-1-.2-.8.3-1.5 1-1.7.8-.2 1.5.3 1.7 1s-.3 1.5-1 1.7zm13-3.3c-.8.2-1.5-.3-1.7-1-.2-.8.3-1.5 1-1.7.8-.2 1.5.3 1.7 1 .3.7-.2 1.5-1 1.7z"/><circle cx="137.6" cy="202.6" r="1.4"/><path d="M151 200.8c-.8.2-1.5-.3-1.7-1-.2-.8.3-1.5 1-1.7.8-.2 1.5.3 1.7 1a1.37 1.37 0 0 1-1 1.7zm-75.8 30.3c-.8.2-1.5-.3-1.7-1-.2-.8.3-1.5 1-1.7.8-.2 1.5.3 1.7 1a1.37 1.37 0 0 1-1 1.7zm13.1-3.3c-.8.2-1.5-.3-1.7-1-.2-.8.3-1.5 1-1.7.8-.2 1.5.3 1.7 1 .2.8-.3 1.5-1 1.7zm13-3.2c-.8.2-1.5-.3-1.7-1-.2-.8.3-1.5 1-1.7.8-.2 1.5.3 1.7 1 .3.7-.2 1.5-1 1.7zm13.1-3.3c-.8.2-1.5-.3-1.7-1-.2-.8.3-1.5 1-1.7.8-.2 1.5.3 1.7 1 .3.7-.2 1.5-1 1.7zm13.1-3.3c-.8.2-1.5-.3-1.7-1-.2-.8.3-1.5 1-1.7.8-.2 1.5.3 1.7 1 .2.8-.2 1.5-1 1.7zm13.1-3.2c-.8.2-1.5-.3-1.7-1-.2-.8.3-1.5 1-1.7.8-.2 1.5.3 1.7 1a1.37 1.37 0 0 1-1 1.7zm13.1-3.3c-.8.2-1.5-.3-1.7-1-.2-.8.3-1.5 1-1.7.8-.2 1.5.3 1.7 1s-.3 1.5-1 1.7z"/><path d="M77.9 241.8c-.8.2-1.5-.3-1.7-1-.2-.8.3-1.5 1-1.7.8-.2 1.5.3 1.7 1 .2.8-.3 1.5-1 1.7zm13-3.2c-.8.2-1.5-.3-1.7-1-.2-.8.3-1.5 1-1.7.8-.2 1.5.3 1.7 1 .3.7-.2 1.5-1 1.7zm13.1-3.3c-.8.2-1.5-.3-1.7-1-.2-.8.3-1.5 1-1.7.8-.2 1.5.3 1.7 1 .3.7-.2 1.5-1 1.7zm13.1-3.3c-.8.2-1.5-.3-1.7-1-.2-.8.3-1.5 1-1.7.8-.2 1.5.3 1.7 1 .2.8-.2 1.6-1 1.7zm13.1-3.2c-.8.2-1.5-.3-1.7-1-.2-.8.3-1.5 1-1.7s1.5.3 1.7 1a1.37 1.37 0 0 1-1 1.7z"/><circle cx="142.9" cy="224.1" r="1.4"/><path d="M156.4 222.3c-.8.2-1.5-.3-1.7-1-.2-.8.3-1.5 1-1.7.8-.2 1.5.3 1.7 1s-.3 1.5-1 1.7zm-75.9 30.3c-.8.2-1.5-.3-1.7-1-.2-.8.3-1.5 1-1.7.8-.2 1.5.3 1.7 1 .3.7-.2 1.5-1 1.7zm13.1-3.3c-.8.2-1.5-.3-1.7-1-.2-.8.3-1.5 1-1.7.8-.2 1.5.3 1.7 1 .3.7-.2 1.5-1 1.7z"/><circle cx="106.4" cy="244.7" r="1.4"/><path d="M119.8 242.8c-.8.2-1.5-.3-1.7-1-.2-.8.3-1.5 1-1.7.8-.2 1.5.3 1.7 1a1.37 1.37 0 0 1-1 1.7z"/><circle cx="132.5" cy="238.1" r="1.4"/><path d="M146 236.3c-.8.2-1.5-.3-1.7-1-.2-.8.3-1.5 1-1.7.8-.2 1.5.3 1.7 1s-.3 1.5-1 1.7zm13-3.3c-.8.2-1.5-.3-1.7-1-.2-.8.3-1.5 1-1.7.8-.2 1.5.3 1.7 1 .3.7-.2 1.5-1 1.7z"/></g><path d="M27.4 123.4s-.5 21.7-1.8 29.2c-1.5 8.3-13.9 25.2-13.9 25.2l2.9 2.8 4.3 2s10.9-10.4 17-23.4c5.3-11.3 5.5-34.7 5.5-34.7" class="r"/><path d="M24.3 189.6c.1-.5.2-1.2 0-1.4l-4.4-6.5c-4.2-.8-7.9-4.6-7.9-4.6l-3.7 4.1c-.1.2-.1.4.1.5l14.9 9.4c.3.1 1-1.5 1-1.5z" class="y"/><g class="o p q s AB"><path d="M21.1 182.8c-.6.2-1.2.5-1.8.9m2.2 0c-.7.3-1 .5-1.5.8m2 0l-1.4.7"/><path d="M8.8 180.5l15.3 9.6m-13.4-11.6s3.5 2.4 2.5 4.7"/><path d="M23.4 186.9s-1.9.8-2.5 1.3"/></g><path d="M43.4 132.4l1.4 22.4 1.7 31.9 4.2 1 4.7-.8s1.2-19.1 1.2-31.8c0-13.1-.5-31.7-.5-31.7" class="r"/><path d="M63.6 190.4c-.2-.5-.5-1.1-.8-1.2l-7.2-3.1c-4 1.6-9.2.4-9.2.4l-.9 5.5c0 .2.1.3.3.3l17.6-.1c.5-.1.2-1.8.2-1.8z" class="y"/><g class="o p q s AB"><path d="M57.2 186.3c-.4.5-.7 1.1-1 1.7m1.9-1.1c-.4.6-.6.9-.8 1.5m1.6-1.1a9.13 9.13 0 0 0-.8 1.3M45.6 191l18.1-.1"/><path d="M46.1 188.3s4.2.1 4.6 2.6m10.7-2.4s-1.2 1.7-1.4 2.4"/></g><path d="M43.1 60.7c-2.3-.5-4.4 1-5.4 2.6l-.9 1.5c-2.3 3-11.4 2.1-9.6 8 .2.7.6 1.3.7 2 .1.9-.4 1.7-.6 2.6-.8 2.8 1.2 6 4 6.6 1.3.3 2.7.1 3.8.8 1 .6 1.5 1.9 2.2 2.8 2 2.6 5.9 3.2 9 2 1.2-.4 2.3-1.1 2.8-2.3.3-.7.3-1.4.7-2 .7-1.2 2.3-1.4 3.5-2 1.7-1 2.7-3.3 1.9-5.1-.8-1.9-2.5-3.6-2.9-5.7-.2-1.1.1-2.3-.1-3.4-.2-.8-.6-1.6-1.3-2.1-.5-.4-1-.6-1.5-1-1-.8-1.1-2.2-2.1-3s-2.3-1.1-3.4-1.8" class="AD"/><g class="r"><path d="M47.2 74.6c5.8-1.6 14.2-1.3 21-8s9.7-11.8 9.7-11.8l5.2 4.1S76.3 72 70.2 76.4c-8 5.8-13.5 6.7-18.1 7.5"/><path d="M76.5 57l5.4-8.4c.5.1-.6 2.3-.2 2.2.4 0 2.3-3.3 2.8-3.1.6.3-1.5 3.5-1.5 3.5s.6-.6 1-.2c.3.3-.1 1.2-.1 1.2s.6-.6 1-.3c.3.3-.1 1.4-.1 1.4s.5-.3.8 0-1.4 4.1-4.5 9.2"/></g><path d="M81.2 51.7s-.1 1.1 0 1.9c.1 1.2-.2 1.9-.2 1.9" class="o p q s x"/><path d="M82.7 51.6l-.3 1.1c-.1.4-.2.8-.1 1.1 0 0 .1 0 .1-.1.1-.1.3-.2.4-.3.2-.3.5-.6.7-.9.1-.2.3-.2.5-.1.1.1.2.3.1.4h0c-.2.3-.3.7-.5 1-.1.2-.1.3-.2.5s-.1.3-.1.4l-.1-.1h.1c.1 0 .2-.2.3-.3.2-.2.5-.6.7-.9h0c.1-.2.3-.2.5-.1.1.1.2.3.1.4-.2.3-.3.6-.4.9s-.3.6-.3.9v.2a.76.76 0 0 0 .4-.2c.3-.2.5-.5.7-.8-.2.3-.3.6-.6.9-.1.1-.2.3-.5.4-.1 0-.4 0-.4-.2-.1-.1-.1-.3-.1-.4 0-.4.1-.8.2-1.1s.2-.7.4-1l.6.3c-.2.4-.4.7-.7 1-.1.2-.3.3-.6.4-.1.1-.3.1-.5.1-.1 0-.2-.1-.3-.2s-.2-.2-.2-.3c-.1-.4 0-.6.1-.8s.1-.4.2-.6l.5-1.1.6.4c-.3.3-.5.6-.8.9-.2.1-.3.3-.5.4-.1.1-.2.1-.4.1-.1 0-.2 0-.3-.1s-.1-.2-.1-.2c0-.5.2-.9.3-1.2.1-.1.3-.5.5-.8z" fill="#cc328a"/><path d="M41.7 61.1c-.3-.1-.6-.1-.9-.3-.4-.3-.4-.9-.2-1.4.3-.7 1.2-1 1.9-.9 1.7.3 1.4 1.9.4 2.5" class="AD"/><path d="M32.3 102.5s-6.1 6.5-7.3 15.4-1.2 23.3-1.2 23.3 17.6 3.2 33.6-.3c-.6-7.4 0-28-5.6-38.3" class="AJ"/><path d="M27.1 141.6s-.6-22.3 2-29.8c2-5.9 6.5-11.6 6.5-11.6" class="o p s AF"/><g class="AG"><path d="M57.7 73l2.1 9.9s-4.1 1.6-8.3 1.9c-2.3 0-5.7-8.9-4.4-10.6 3.8-1.1 10.6-1.2 10.6-1.2z"/><path d="M31.9 84.1s-.3 11.6.4 18.4c9.8 2.2 19.5 0 19.5 0l.7-10.6c4.9-5 .6-11.5.6-11.5L47 74.2l-6-.3-9.1 10.2z"/><path d="M41 73.9s-5.4-.9-10.6 3.4c-1.2 1-2.6 3-3.8 5.4l8.4 5.5 5-5.5"/></g><path d="M54.7 84.3c-.4-1.6-1.6-4-1.6-5.5m3-5.8l2.4 10.3m-31.2-2l6.1 3.8" class="o p q s AB"/><g class="r"><path d="M47.5 63.1s2.2 5.8.6 7.6c-.9.9-3.9.4-5-.5-.8-.6-2-4.5-1.5-5.2 1.7-2.9 5.9-1.9 5.9-1.9z"/><path d="M41.2 68.1l-.2 5.8c.5 1.4 5.3 2.8 6.1.3l-.5-4.3-5.4-1.8z"/></g><path d="M38.7 67.5c-.2-.5-.2-1.1-.2-1.7 0-.7.1-1.5.3-2.1.4-1.2 1.3-2.2 2.4-2.7s3.3-1 5 0c.9-.1 1.8.2 2.5.8s1 1.6.8 2.4l-5-.6c-.3.9-1 1.7-1.7 2.2-.8.5-1.7 1.2-1.4 2.2.1.4-.3.5-.3 1.4-.9-.1-2.2-1.3-2.4-1.9z" class="AD"/><path d="M42 67.2c-.5-.8-1-.7-1.3-.3-.4.5.2 1.7.5 2 .6.5 1.2.5 1.3-.1" class="r"/><g class="o p q x"><path d="M46.7 71.3c-2.1.1-3.7-1.1-3.7-1.1" class="s"/><path d="M46.3 66s1.4 1.2 1.4 1.6-.9.5-.9.5" class="w"/></g><path d="M47.8 68.5l-2.4.7s.6 1.2 1.9.7c1-.3.5-1.4.5-1.4z" class="u"/><path d="M47.1 65.5v.4c0 .1 0 .1.1.2l.2.2h.3s.1 0 .1-.1l.1-.1v-.3c0-.1 0-.1-.1-.2v-.2l-.2-.2h-.4l-.1.1v.2z" class="y"/><path d="M46.7 65s.3-.6.9-.2" class="o p q w z AA"/><path d="M44.4 66.5v.5l.2.2h.3s.1 0 .1-.1l.1-.1v-.3c0-.1-.1-.2-.1-.2v-.1l-.3-.3h-.3l-.2.2c.2.1.2.2.2.2h0z" class="y"/><path d="M44.9 65.5s-.6-.1-1.1.7" class="o p q w z AA"/><path d="M26.5 82.7c-2.6 5.3-4.2 13 1.3 15.3 5.8 2.5 20.9-16 20.9-16L44 78l-12.5 8" class="r"/><path d="M31.6 86l-3.8 2.9" class="o p q s x"/><path d="M48.7 79.5h0c-.8-.1-1.2-.9-1.1-1.6l1-5.4 2.7.5-1 5.4c-.1.8-.8 1.3-1.6 1.1z" class="AJ"/><path d="M51.8 74.2l-2.2-.5c-1.6-.4-2.5-1.9-2.1-3.5h0c.4-1.6 1.9-2.5 3.5-2.1l2.2.5c.1 0 .2.2.2.3L52.1 74c-.1.2-.2.3-.3.2z" fill="#4376cf"/><path d="M53.4 71.6c-.4 1.6-1.1 2.7-1.6 2.6s-.6-1.5-.3-3.1c.4-1.6 1.1-2.7 1.6-2.6.6.2.7 1.6.3 3.1z" fill="#9cd0ff"/><path d="M58.6 79.1s-4-3.5-6.4-4.9c-.7-.6-.5-2-.3-2.8.5-2 1.2-2.3 1.2-2.3 3.2.2 8.3-1.3 8.3-1.3" class="AJ"/><path d="M58.9 72.9c-.9 3.5-.8 6.6.2 6.8 1 .3 2.5-2.4 3.4-5.9s.8-6.6-.2-6.8-2.6 2.4-3.4 5.9z" fill="#9cd0ff"/><path d="M59.5 73.1c-.7 3-.7 5.5 0 5.7.8.2 2-2.1 2.7-5 .7-3 .7-5.5 0-5.7-.8-.2-2 2-2.7 5z" fill="#4376cf"/><path d="M60.8 74.8c-.7-.2-1.3-.1-1.7 0l.3-1.7c.1-.6.3-1.1.5-1.6.3.3.8.6 1.5.8l-.6 2.5z" class="AJ"/><path d="M60.8 73.4c-.2.7-.2 1.3 0 1.4.2 0 .5-.5.7-1.2s.2-1.3 0-1.4c-.3 0-.6.5-.7 1.2z" class="AD"/><path d="M41.8 79.4l5.7-3.4c1.2-.5 2.6-.3 3.6.1.3.1.6.3.9.6s.4.8.4 1.2c0 .1 0 .2-.1.2-.2.1-.3-.1-.4-.3-.2-.4-.7-.6-1.1-.6.2 0 .3.2.4.5.1.2 0 .5-.3.6.2 0 .4.2.4.5 0 .2-.1.5-.3.5.2.1.2.2.2.4s-.1.3-.2.4c-.4.6-1 1-1.5 1.5-1.7 1.4-5.2 5.4-5.2 5.4m16.5 102.6l-14.1-1-4.6.5.1 17.5c0 .4.4.8.8.8h0c.3 0 .6-.2.7-.5l3.6-7.8 14.7 1.8" class="r"/><path d="M42.4 208.1c.6-.2 1.2-.5 1.4-.9l3.6-8.3c-1.8-4.6-.4-10.5-.4-10.5l-6.2-.5c-.2 0-.4.2-.4.4l.1 19.6c-.1.4 1.8.2 1.9.2z" class="AG"/><g class="o p q s AB"><path d="M47 200.7c-.6-.5-1.3-.9-2-1.2m1.3 2.3c-.7-.5-1-.7-1.7-1m1.3 1.8c-.4-.3-1-.6-1.5-.9m-2.8-13.6l.1 20.1"/><path d="M44.6 188.3s0 4.6-3 5.1m2.9 12.1s-1.9-1.3-2.8-1.6"/></g><path d="M85.4 160.7c.2.4 2.8 19 4.7 32 1.2 8.1 1.3 13.2-10.5 12.3L52 202.9l-.4-14.6 22.3 1.1-2.9-14.5s-5.4-7.2-1.4-15.5" fill="#816fc2"/><g stroke="#4c3f89" class="o p s"><path d="M54 188.4l.6 14.4"/><path d="M81.4 170.3l3.9 22.8a.96.96 0 0 1-1.1 1.1l-32.6-2"/></g><path d="M102.2 187.7l-3 14.1-.1 4.6 18.1-.1c.4 0 .8-.4.8-.8h0c0-.3-.2-.6-.5-.7l-7.8-3.6 3.7-14.7" class="r"/><path d="M118.8 206.1c-.2-.6-.5-1.2-.9-1.4l-8.3-3.6c-4.6 1.8-10.5.4-10.5.4l-1.1 6.2c0 .2.2.4.4.4l20.2-.1c.5.1.2-1.9.2-1.9z" class="AG"/><g class="o p q s AB"><path d="M111.5 201.5c-.5.6-.9 1.3-1.2 2m2.2-1.4c-.5.7-.7 1-1 1.7m1.9-1.2c-.3.4-.6 1-.9 1.5m-14.3 2.7l20.7-.1"/><path d="M98.8 203.8s4.9.1 5.3 3m12.1-2.8s-1.3 1.9-1.6 2.8"/></g><path d="M92.9 156.4l1 4.1c.1.6.7 1 1.3 1h14c3.4 0 7 .1 9 3.1 1.6 2.4 1 6.5-.3 11.2-1.1 4-5.2 22.2-5.2 22.2H98.3l4.1-21.8H85.7s-10.8.1-9.3-10.7" fill="#816fc2"/><g stroke="#4c3f89" class="o p s"><path d="M98.7 195.7h14.4m-25.4-19.5h-2s-10.3 0-10.4-10.7"/><path d="M86.6 159.9S86.9 172 97 172h7.6c.9 0 1.7.9 1.5 1.8l-5 24.1"/><path d="M87.5 164.9c.1.2 4.3-1 4.2-5m-13 6.7s2.2 0 4.2-.6m-14.7.6s2 .1 3.6 0"/></g><path d="M80.5 116.2s5-15.5 14.3-27.9l-6.4-3.9c-10 10.9-16.7 29.1-16.7 29.1" class="r"/><path d="M67.9 142.4s-2.1-19.1 5.8-35.1l9.3 3-2.4 12.2" class="AD"/><path d="M73 109.1l9.1 3.2" stroke="#d19b4b" class="o p s"/><g class="r"><path d="M93.4 90c1.5-2.3 6.9-8.2 6.7-8.7-.3-.5-2.2 1.6-2.3 1.1-.1-.4 2.6-3.8 2.2-4.2-.5-.6-3.2 3-3.2 3s2.7-4.1 2.1-4.5c-.4-.3-2.6 2.8-3.6 3.8.9-1.3 2.2-3.5 1.7-3.8-.4-.3-2 1.8-3.3 3.3.7-1 1.9-2.9 1.5-3.2s-5.6 5.2-9.6 10.8m1 50s9.5 3.6 16.5 4.1c9.1.6 19.8-2.8 19.8-2.8s1.4-7.5-2.3-7.2c-4.5.8-12.3 1.4-18.2.7-3.7-.4-11.4-4.6-11.4-4.6"/><path d="M118.6 132.1c2.7-.4 10.4-2.7 10.7-2.2s-2.4 1.3-2 1.6c.3.3 4.6-.7 4.8-.2.3.7-4.1 1.6-4.1 1.6s4.9-.7 4.9 0c0 .5-3.6 1.2-5 1.6 1.6-.3 4.1-.4 4.2.1 0 .5-2.5 1-4.4 1.5 1.2-.2 3.4-.4 3.5 0 .1.5-5.9 2.2-11.6 3.5m-42.8-19.9l-1.3 6.5s3.7 3.7 7.5.3v-4.4l-6.2-2.4z"/><path d="M83.7 113.5s3.1 6.2 1.2 8.3c-1 1.1-2.5 1.5-3.8.5-1-.7-4.8-5.2-4.2-6.1 2-3.2 6.8-2.7 6.8-2.7z"/><path d="M85 117s1.2 1.1 1.2 1.9c0 .3-1.2.4-1.2.4"/></g><path d="M84.9 120l-2-.3c-.1.7 1.4 2.6 2 .3z" class="u"/><path d="M83.3 116.8c-.1.1-.1.1-.1.2v.3c0 .1.1.1.1.2l.1.1h.4l.1-.1v-.7c0-.1-.2-.1-.3-.1s-.2 0-.3.1h0z" class="y"/><path d="M82.5 116.5c.2-.3.6-.5 1-.6a.9.9 0 0 1 .5.1" class="o p q w z AA"/><path d="M76.2 114c.3-2.2 2.6-2.7 6.8-2 .6.1 1.6-.2 1.8.3.3.7.2 2-.5 2.6-.6.5-1.5.2-2.2.5-1.1.4-.6 1.5-1.2 2.3-1 1.3-.3 3.3-2 4.3-.9.6-2.1.4-3.2.2-.1 0-.3-.1-.4-.1-.4-.3-.2-1.3-.3-1.7-.3-1.4-.5-2.9-.4-4.3.1-1.5 1.1-2.3 1.6-2.1z" class="AK"/><path d="M80.9 117.9c-.2-1.3-1.2-.9-1.5-.4-.5.6.2 2 .6 2.3.7.5 1.4.5 1.5-.1" class="r"/><path d="M82.9 123c-1.4-.4-2.3-1.1-2.3-1.1" class="o p q s x"/><g class="AD"><path d="M75.5 124.2s-5.7 2.4-7.4 11.4c-.8 4 .7 25.4.7 25.4 12.3 2.4 25.5-1.1 25.5-1.1l-2.2-19.2c-1.6-12.1-10-16-10-16l-6.6-.5z"/><path d="M82.1 124.6s4.7.7 7.8 2.2l9.9 4.8-3.5 9.7-12.4-3.9"/></g><path d="M91.9 139.7l-6.9-2m12.6-7.2l-3.3 10m-25.6 18.9s12 1.8 25.4-.9" stroke="#d19b4b" class="o p s"/><path d="M259.2 186.4l3 14.1-.5 4.6-17.5-.1c-.4 0-.8-.4-.8-.8h0c0-.3.2-.6.5-.7l7.8-3.6-3.7-14.7" class="r"/><path d="M242.6 204.8c.2-.6.5-1.2.9-1.4l8.3-3.6c4.6 1.8 10.5.4 10.5.4l.5 6.2c0 .2-.2.4-.4.4l-19.6-.1c-.5.1-.2-1.9-.2-1.9z" class="AC"/><g class="o p s AF"><path d="M250 200.2c.5.6.9 1.3 1.2 2m-2.3-1.4c.5.7.7 1 1 1.7m-1.9-1.2c.3.4.6 1 .9 1.5m13.7 2.8l-20.1-.1"/><path d="M262.4 202.6s-4.6 0-5.1 3m-12.1-2.9s1.3 1.9 1.6 2.8"/></g><path d="M252.9 135.3s-11.2 25-10.6 33.9c.5 8.3 6.8 29.2 6.8 29.2l13.4-2.5s-6.4-25.8-6.1-28.5 8.5-21.1 8.5-21.1 3.2-4.3 2.1-11.8" class="AG"/><g class="o p q s AB"><path d="M260.3 196.3s-6.3-26.1-5.9-28.8c.3-2.7 8.1-20.7 8.1-20.7"/><path d="M262 193.4l-13.5 2.8"/></g><path d="M278.6 179.8l6.3 13.1 1.5 4.4-15.9 7.3c-.4.2-.9 0-1.1-.4h0c-.1-.3-.1-.7.2-.9l5.5-6.6-7.2-13.3" class="r"/><path d="M269 205.1c-.1-.6 0-1.3.2-1.6l6-6.7c4.9-.3 9.7-4 9.7-4l3.1 5.5c.1.2 0 .4-.2.5L270 207c-.4.1-1-1.8-1-1.9z" class="AC"/><g class="o p s AF"><path d="M273.7 197.9c.7.4 1.3.8 1.9 1.3m-2.6-.3c.7.4 1.1.7 1.6 1.1m-2.2-.3l1.5 1"/><path d="M287.4 197.4l-18.2 8.4m16.8-11.1s-4.2 2-3.3 4.8"/><path d="M270.4 202.1s2 1.2 2.6 1.8"/></g><path d="M261.8 136s-4.3 23.7-2.3 32.3c2.3 9.7 12 26.1 12 26.1l12.1-6s-10.4-20-10.4-24.3c0-2.7 2.4-19.3 2.4-19.3s2.4-4.8.1-12" class="AG"/><g class="o p q s AB"><path d="M280.8 189.8s-10.4-19.5-10.4-25.1c0-2.7 1.7-15.3 2.4-19.3s2.2-8.7.1-12M259 160.3l2.4-23.5"/><path d="M268.5 136.8s.8 2 5.3 3.2m-14.3-2.7s-.7 4.9-.3 5.5c.2.3 1.6.6 1.6.6m-9.6-4.2s2.7.1 4.2-1.6m27.1 48.7l-12.3 6"/></g><path d="M256.7 99.8s-5.1 1.5-5.8 11.2c-.7 4 1 26.2 1 26.2 12.3 2.1 25.5-1.7 25.5-1.7l-3.2-19.2c-2.2-13.1-11.3-15.9-11.3-15.9l-6.2-.6z" class="AC"/><g class="r"><path d="M258.8 99.9s-3-5.3-7.7-10.5c-6.1-6.8-15.4-12.5-15.4-12.5s-6.3 4.4-3.4 6.7c3.8 2.6 8.7 7.7 12.3 12.3 2.3 2.9 7 11.7 7 11.7"/><path d="M234.1 84.7c-2.2-1.6-9.3-5.3-9.2-5.9s2.6.7 2.6.2-3.8-2.7-3.5-3.2c.3-.7 4 1.8 4 1.8s-3.9-2.9-3.5-3.5c.3-.4 3.4 1.7 4.7 2.3-1.3-.9-3.3-2.6-2.9-3 .3-.4 2.5 1 4.2 1.9-1-.7-2.8-2.1-2.5-2.5s5.8 2.4 10.9 6m29.2 37.3s-4.6 9.1-9.4 14.1c-6.4 6.6-16.5 11.2-16.5 11.2s-6.1-4.6-3.2-6.8c3.9-2.4 10-7.3 13.9-11.7 2.4-2.8 6.3-11.5 6.3-11.5"/><path d="M240.9 133.6c-2.2 1.6-9.5 5-9.4 5.6s2.6-.6 2.6-.2c0 .5-3.9 2.6-3.7 3.1.3.7 4.1-1.6 4.1-1.6s-4 2.8-3.6 3.3c.3.4 3.5-1.6 4.8-2.2-1.3.8-3.3 2.4-3 2.9.3.4 2.5-.9 4.3-1.8-1 .7-2.8 2-2.6 2.4.3.4 5.8-2.4 11-5.2"/></g><path d="M259 109.1c-1.3 4.3-4.6 11.4-4.6 11.4l9.1 4.8s4.7-5.7 6.5-12.6" class="AC"/><path d="M263.5 125.2s5.1-7.1 6-11m-15.1 6.2s3.4-6.6 4.1-9.8" class="o p s AF"/><path d="M250.7 113.9c-.1-3.6-1.8-11-7-17.9l8.1-6.5s7.1 5.7 9.1 10.7" class="AC"/><path d="M255.1 89.5s-2.1 5.7-.2 7.6c1 1 3.8 1.1 5 .2.9-.7 2.2-5.1 1.7-5.9-2-3-6.5-1.9-6.5-1.9z" class="r"/><path d="M256.2 92.2s-1.1 1.3-1.1 1.8c0 .4 1 .6 1 .6" class="o p q w x"/><path d="M255 94.9l2.6.7s-.7 1.3-2 .8c-1-.4-.6-1.5-.6-1.5z" class="u"/><path d="M255.1 91.4l-.1.1v.2c0 .1-.1.1-.1.2v.3s0 .1.1.1l.1.1h.4c.1 0 .1-.1.1-.1 0-.1.1-.1.1-.2v-.5l-.2-.2h-.3c0-.1-.1 0-.1 0h0z" class="y"/><path d="M256.1 91.1s-.3-.6-1-.2" class="o p q w z AA"/><path d="M258 92.5c-.1 0-.1 0 0 0-.1.1-.1.1-.1.2s-.1.2-.1.3v.3s0 .1.1.1l.1.1h.4c.1 0 .1-.1.1-.1s0-.1.1-.1v-.5s0-.1-.1-.1l-.2-.2h-.2c0-.1 0-.1-.1 0 0-.1 0 0 0 0h0z" class="y"/><path d="M258.1 91.6s.7-.1 1.2.7" class="o p q w z AA"/><path d="M261.7 94.7l1.1 5.7s-4.3 3.2-6.7-.2l-.1-3.7 5.7-1.8z" class="r"/><path d="M263.7 93.7c0-.2.1-.4.2-.6l.6-1.4c.4-.9.1-2.1-.7-2.8-.1-.1-.3-.2-.4-.3-.3-.3-.4-.7-.5-1.1-.1-.3-.3-.6-.6-.8-.7-.4-1.6.1-2.3-.2-.1-.1-.3-.2-.4-.3-1-.7-2.1-.6-3.1-.2-.5.2-.7.4-1.1.7s-1.1.3-1.5.7c-.5.4-.6 1-.6 1.6 0 .2 0 .4.1.6.1.3.4.4.6.5.6.3 1.3.2 1.9.1.6 0 1.4-.5 2-.3s.8 1 1.5 1c.3 0 .6 0 .8.2.2.3.1.7.2 1s.4.5.6.8c.4.5.9.9.7 1.6-.1.5-.7 1.2-.4 1.8.1.3.9.3 1.4-.1.6-.4.7-1.3.9-1.9 0-.1.1-.4.1-.6z" class="AL"/><path d="M261.1 93.8c.5-.9 1.1-.8 1.4-.4.4.5-.2 1.9-.5 2.1-.7.5-1.2.5-1.4 0" class="r"/><g class="o p s"><path d="M256.2 97.9c2.1.1 3.8-.9 3.8-.9" class="q x"/><path d="M250.6 112.6s.1-5.6-.5-7.3m5.4-4.1s1 1.8 3.8 1.7c3.1-.1 4.4-2.2 4.4-2.2" class="AF"/></g><g class="r"><path d="M201.5 71.7c-.3 2.6-2.3 8.8-1.9 9s1.3-2.1 1.6-1.8-.8 3.8-.3 4c.6.2 1.4-3.3 1.4-3.3s-.7 3.9-.1 3.9c.4 0 1.1-2.8 1.5-3.9-.2 1.2-.5 3.1-.1 3.2.4 0 .9-1.6 1.3-3.1-.1.9-.6 2.8-.2 2.9.4 0 1.9-4.2 2.8-9.6"/><path d="M209.2 44.8c1.9 13.9-2.3 30.7-2.3 30.7l-5.8-1.2s2.2-15.1-.3-28.4"/></g><path d="M197.1 32.4c2.7 0 5.6.9 8.1 2.9 3.8 3 4.8 10 4.8 10l-9.1 1.8s-.5-5.9-.5-7.9" fill="#ff9357"/><g class="o"><g class="p"><path d="M200.5 47.1c-.3-2.7-1.1-5.1-1.1-5.1" stroke="#a52f2d" class="s"/><path d="M268.73 28.293l3.02 11.096-11.096 3.02-3.02-11.096zM13.8 157.55l-.7 5.556-5.556-.7.7-5.556z" class="t AI"/></g><circle transform="matrix(.1427 -.9898 .9898 .1427 83.2654 430.2379)" cx="290" cy="167.1" r="4.5" class="t AM"/><g class="p t"><path d="M112.2 12.1a2.3 2.3 0 1 1-4.6 0 2.26 2.26 0 0 1 2.3-2.3c1.2.1 2.3 1.1 2.3 2.3zm187.6 99.8a2.3 2.3 0 1 1-4.6 0 2.26 2.26 0 0 1 2.3-2.3c1.3 0 2.3 1.1 2.3 2.3zm2.3 46.7a2.3 2.3 0 1 1-4.6 0 2.26 2.26 0 0 1 2.3-2.3c1.3.1 2.3 1.1 2.3 2.3z" class="AI"/><path d="M5.3 142.2a2.26 2.26 0 0 1-2.3 2.3 2.26 2.26 0 1 1 0-4.6 2.26 2.26 0 0 1 2.3 2.3z" class="AM"/><path d="M60 20.5l.2 1.5c.1.7.7 1.2 1.4 1.1h1c.7 0 1.3.5 1.4 1.1l.2 1c.1.7.7 1.2 1.4 1.1h1c.7 0 1.3.5 1.4 1.1l.2 1c.1.7.7 1.2 1.4 1.1h1.2m-54.2 90l-.5-1.5a1.42 1.42 0 0 0-1.5-.9l-1 .2c-.7.1-1.3-.3-1.5-.9l-.3-1a1.42 1.42 0 0 0-1.5-.9l-1 .2c-.7.1-1.3-.3-1.5-.9l-.3-1a1.42 1.42 0 0 0-1.5-.9l-1.2.2m244-52.6l1.5-.1c.7-.1 1.2-.6 1.2-1.3l.1-1c0-.7.6-1.2 1.2-1.3l1-.1c.7-.1 1.2-.6 1.2-1.3l.1-1c0-.7.6-1.2 1.2-1.3l1-.1c.7-.1 1.2-.6 1.2-1.3l.1-1.2m37.1 32l-1.5.5a1.42 1.42 0 0 0-.9 1.5l.2 1c.1.7-.3 1.3-.9 1.5l-1 .3a1.42 1.42 0 0 0-.9 1.5l.2 1c.1.7-.3 1.3-.9 1.5l-1 .3a1.42 1.42 0 0 0-.9 1.5l.2 1.2m15.7 54.3l1.3.9c.6.4 1.3.3 1.8-.2l.7-.7c.5-.5 1.2-.6 1.8-.2l.8.6c.6.4 1.3.3 1.8-.2l.7-.7c.5-.5 1.2-.6 1.8-.2l.8.6c.6.4 1.3.3 1.8-.2l.8-.9" class="AI"/><path d="M290.7 100.2l-5.2 3.3m-47.7-71.2l-4.8 3.9m-102.2 5l-6-1.4M17.4 67.3l-4.6-4.1" class="AM"/></g></g></svg>