<svg xmlns="http://www.w3.org/2000/svg" baseProfile="basic" width="180" height="60"><g fill="#fda924"><path d="M155.692 32.713l-16.1 6.6.97 2.33 16.597-6.794c1.068-.485 1.553-1.65 1.165-2.718l-5.338-12.8-2.33.97 5.045 12.423zM135.3 41.06l-8.347-20.382 20.382-8.347 2.33 5.63 2.33-.97-2.523-6.115c-.485-1.068-1.65-1.553-2.718-1.165L125.5 18.446c-1.068.485-1.553 1.65-1.165 2.718l8.735 21.255c.485 1.068 1.65 1.553 2.718 1.165l2.33-.97-.97-2.33-1.843.778zm32.233-1.942l-8.735-21.255c-.485-1.068-1.65-1.553-2.718-1.165l-2.33.97.97 2.33 1.94-.776L165 39.604l-20.382 8.347-2.33-5.63-2.33.97 2.523 6.115c.485 1.068 1.65 1.553 2.718 1.165l21.255-8.735c.97-.487 1.455-1.652 1.067-2.72zm-17.956-17.276l-.776-1.94-13.5 5.532c-.874.388-1.262 1.36-.97 2.232l4.27 10.385 1.94-.776-4.173-10.094 13.2-5.338z"/><path d="M137.252 40.27l2.336-.957.957 2.336-2.336.957zm12.433-22.3l2.336-.957.957 2.336-2.336.957z"/></g><path d="M21.324 40.6l.5 1.397.5-1.397 7.753-20.955h.908l-8.6 23.2h-1.048l-8.66-23.2h.908L21.328 40.6zm14.11 2.234h-.838v-23.2h.838v23.2zm7.055-.838h11.874v.838H41.58v-23.2h.908v22.352zm16.624.838h-.838v-23.2h.838v23.2zm20.046-5.518c0-.978-.2-1.816-.698-2.515s-1.187-1.257-2.165-1.816-2.515-1.048-4.47-1.607c-2.026-.56-3.492-1.118-4.54-1.676-.978-.56-1.746-1.257-2.165-1.956s-.698-1.676-.698-2.724c0-1.676.698-3.073 2.165-4.12s3.283-1.537 5.588-1.537c1.467 0 2.794.28 3.98.838s2.095 1.397 2.724 2.445.978 2.235.978 3.562h-.838c0-1.746-.63-3.143-1.886-4.26s-2.934-1.676-4.96-1.676-3.702.42-4.96 1.327-1.886 2.026-1.886 3.423.56 2.515 1.607 3.353 2.864 1.607 5.378 2.235 4.33 1.397 5.518 2.235c1.467 1.118 2.235 2.584 2.235 4.4a5.2 5.2 0 0 1-.978 3.073c-.628.908-1.607 1.607-2.794 2.095s-2.584.698-4.05.698c-1.676 0-3.213-.28-4.54-.838S65.328 40.938 64.7 39.9c-.698-1.048-.978-2.235-.978-3.632h.838c0 1.886.698 3.353 2.165 4.4 1.397 1.048 3.283 1.607 5.588 1.607 2.026 0 3.702-.5 5.03-1.397 1.185-.906 1.814-2.093 1.814-3.56zm11.106-4.05l8.102-13.62h1.048l-8.73 14.4v8.8h-.838v-8.8l-8.73-14.4h1.118l8.032 13.62zm22.84 2.655H101.8l-2.584 6.915h-.908l8.66-23.2h1.048l8.66 23.2h-.908l-2.655-6.915zm-11.036-.838h10.687l-5.378-14.4-5.3 14.4z" fill="#3d3d3d" stroke="#3d3d3d" stroke-width=".5" stroke-miterlimit="10"/></svg>