<svg xmlns="http://www.w3.org/2000/svg" xmlns:xlink="http://www.w3.org/1999/xlink" width="616.5" height="287" xmlns:v="https://vecta.io/nano"><style><![CDATA[.N{fill:#e1e1e1}.O{fill:#ff4f5b}.P{fill:#1a2e35}.Q{fill:#fafafa}.R{fill-rule:evenodd}]]></style><path d="M44.3 92V56.1C64 56.1 80.1 72.3 80.1 92s-16.2 35.8-35.8 35.8c-19.3 0-35.4-15.7-35.8-35l35.8-.8z" class="N"/><path d="M35.6 82.3l-35.8.8C-.2 73.8 3.4 64 10 57.3c6.5-6.7 15.8-10.6 25.1-10.8l.5 35.8z" fill="#f5f5f5"/><path d="M583.3 17.1c2.7.3 5.4 1.1 7.9 2.1l5.8-4.9 10 7.6-3.1 6.9a26.33 26.33 0 0 1 4.1 7.1l7.5.7 1.7 12.4-7.1 2.7c-.3 2.7-1.1 5.4-2.1 7.9l4.9 5.8-7.6 10-6.9-3.1a26.33 26.33 0 0 1-7.1 4.1l-.7 7.5-12.4 1.7-2.7-7.1c-2.7-.3-5.4-1.1-7.9-2.1l-5.8 4.9-10-7.6 3.1-6.9a26.33 26.33 0 0 1-4.1-7.1l-7.5-.7-1.7-12.4 7.1-2.7c.3-2.7 1.1-5.4 2.1-7.9l-4.9-5.8 7.6-10 6.9 3.1a26.33 26.33 0 0 1 7.1-4.1l.7-7.5 12.4-1.7 2.7 7.1zm-3.8 17.1c-8.5.3-14.6 8.3-12.6 16.6 1.5 6.2 7.2 10.5 13.5 10.3 8.5-.3 14.6-8.3 12.6-16.6-1.4-6.1-7.1-10.5-13.5-10.3z" class="N R"/><path d="M558.6 356.7H71a8.71 8.71 0 0 1-8.7-8.7V9.1A8.71 8.71 0 0 1 71 .4h487.6a8.71 8.71 0 0 1 8.7 8.7V348a8.71 8.71 0 0 1-8.7 8.7z" class="Q"/><path d="M550.3 284.9h-89.9a7.17 7.17 0 0 1-7.2-7.2v-189a7.17 7.17 0 0 1 7.2-7.2h89.9a7.17 7.17 0 0 1 7.2 7.2v189c0 3.9-3.2 7.2-7.2 7.2zm-90-202.5c-3.4 0-6.2 2.8-6.2 6.2v189c0 3.4 2.8 6.2 6.2 6.2h89.9c3.4 0 6.2-2.8 6.2-6.2v-189c0-3.4-2.8-6.2-6.2-6.2h-89.9z" class="N"/><path d="M99.3 357H71.7c-5.3 0-9.6-4.3-9.6-9.6V10.5c0-5.3 4.3-9.6 9.6-9.6h27.6c5.3 0 9.6 4.3 9.6 9.6v336.9c.1 5.3-4.2 9.6-9.6 9.6z" class="O"/><path d="M106.5 154.4h-36c-1.5 0-2.8 1.3-2.8 2.8v28.4c0 1.5 1.3 2.8 2.8 2.8h39c1.7 0 3-1.4 2.8-3.1l3.5-31.1-9.3.2z" class="Q"/><path d="M504.1 34.1s.1-.1.2-.1c.2-.1.4-.3.6-.5.4-.5.8-1.5.8-2.8.1-.6.1-1.4.4-2.1.2-.7.8-1.6 1.7-1.9s1.9-.3 2.8.4c.8.7 1.1 1.7 1.3 2.7.1.4.1.9.1 1.3 0 .5 0 .8.1 1.2.3.7.8 1.3 1.3 1.8l.5.4h-.7c-2.8 0-5.2-.1-6.8-.2-.9-.2-1.6-.2-2.3-.2l2.7-.1 6.5-.2-.1.4c-.6-.5-1.2-1.1-1.5-2-.2-.4-.2-.9-.2-1.3s0-.8-.1-1.3c-.1-.9-.5-1.8-1.1-2.3s-1.6-.5-2.3-.3c-.7.3-1.2.9-1.4 1.6-.3.7-.3 1.4-.4 2s-.1 1.2-.3 1.7-.4.9-.7 1.2-.5.4-.7.5c-.2 0-.3.1-.4.1.1-.1 0 0 0 0z" class="P"/><g class="R"><circle cx="511.3" cy="27.9" r="2" class="O"/><path d="M507.5 35.3h2.7s0 1.4-1.5 1.4c-1.5-.1-1.2-1.4-1.2-1.4z" class="P"/><path d="M540.6 42.2h-11.9a4.48 4.48 0 0 1-4.5-4.5V25.8a4.48 4.48 0 0 1 4.5-4.5h11.9a4.48 4.48 0 0 1 4.5 4.5v11.9a4.48 4.48 0 0 1-4.5 4.5z" class="O"/></g><path d="M301.4 203c-9 0-13-7.1-16.8-13.9-3.2-5.6-6.5-11.5-11.9-11.5-6 0-9 2.3-12.4 4.9-3.7 2.9-8 6.1-16.3 6.1-9.1 0-12.9-8.6-16.9-17.6-3.1-7-6.6-14.9-11.8-14.9s-8.7 7.9-11.8 14.9c-4 9.1-7.8 17.6-16.9 17.6-8.6 0-12.8-4.6-16.6-8.6-3.4-3.7-6.4-6.9-12.2-6.9v-.9c6.2 0 9.2 3.3 12.8 7.1 3.6 3.9 7.7 8.3 15.9 8.3 8.6 0 12.2-8.3 16.1-17.1 3.2-7.2 6.8-15.4 12.6-15.4s9.4 8.2 12.6 15.4c3.9 8.8 7.6 17.1 16.1 17.1 8 0 12.1-3.2 15.8-5.9 3.6-2.7 6.6-5.1 13-5.1 5.9 0 9.3 6 12.6 11.9 3.8 6.6 7.6 13.5 16.1 13.5 8.4 0 12.3-6.4 16.1-12.6 3.5-5.7 6.7-11.1 12.7-11.1 6.1 0 9.2 3.4 12.8 7.4s7.7 8.6 16 8.6c8.6 0 12.3-8.9 16.2-18.2 3.2-7.7 6.8-16.5 12.6-16.5 5.9 0 9.3 6.7 12.6 13.2 3.7 7.3 7.6 14.9 16.1 14.9 8.2 0 12.3-4.4 16-8.3 3.6-3.8 6.6-7.1 12.8-7.1v.9c-5.8 0-8.7 3.2-12.2 6.9-3.7 4-8 8.6-16.6 8.6-9 0-13-7.8-16.9-15.3-3.2-6.3-6.5-12.8-11.9-12.8-5.2 0-8.7 8.5-11.8 15.9-4 9.7-7.8 18.8-16.9 18.8-8.6 0-12.9-4.7-16.6-8.9-3.4-3.8-6.4-7.1-12.1-7.1-5.5 0-8.6 5.2-11.9 10.7-4.1 6.4-8.1 13-17 13z" class="O"/><g class="N"><path d="M158.8 214.8l.2-.3c.2.3.5.4.8.4.4 0 .7-.3.7-.8v-2.2h-1.3v-.3h1.7v2.5c0 .8-.4 1.1-1 1.1-.5.1-.9 0-1.1-.4z"/><use xlink:href="#B"/><path d="M167.4 213.8v1.6h-.4v-1.5c0-.6-.3-.9-.8-.9-.6 0-.9.4-.9 1v1.4h-.4v-2.7h.3v.5c.2-.3.6-.5 1-.5.7-.1 1.2.3 1.2 1.1zm30.4-1.7v1.4h1.9v.3h-1.9v1.5h-.4v-3.6h2.5v.3h-2.1zm5.1 2h-2.3c0 .6.5.9 1.1.9.3 0 .6-.1.8-.4l.2.2c-.2.3-.6.4-1 .4-.8 0-1.4-.6-1.4-1.4s.6-1.4 1.3-1.4c.8 0 1.3.6 1.3 1.4v.3zm-2.3-.3h1.9c0-.5-.4-.9-1-.9-.5 0-.8.4-.9.9zm5.7.2c0 .8-.6 1.4-1.3 1.4a1.1 1.1 0 0 1-1-.6v.5h-.3v-3.8h.4v1.6c.2-.3.6-.5 1-.5.7 0 1.2.6 1.2 1.4zm-.3 0a1 1 0 1 0-2 0 .94.94 0 0 0 1 1c.5 0 1-.4 1-1zm35.1-2.3v3.6h-.4v-2.9l-1.4 2.4h-.2l-1.4-2.4v2.8h-.4v-3.6h.3l1.6 2.7 1.5-2.7h.4zm3.1 2v1.7h-.3v-.4c-.2.3-.5.4-.9.4-.6 0-1-.3-1-.8 0-.4.3-.8 1-.8h.9v-.2c0-.5-.3-.7-.8-.7-.3 0-.7.1-.9.3l-.2-.2c.3-.2.7-.4 1.1-.4.7 0 1.1.4 1.1 1.1zm-.4.8v-.4h-.8c-.5 0-.7.2-.7.5s.3.5.7.5.7-.2.8-.6zm2.7-1.9v.4h-.1c-.6 0-.9.4-.9 1v1.4h-.4v-2.7h.3v.5c.3-.4.6-.6 1.1-.6zm31.2 1.8h-2l-.4 1h-.4l1.6-3.6h.4l1.6 3.6h-.4l-.4-1zm-.2-.3l-.9-1.9-.9 1.9h1.8zm4.2-.1c0 .8-.6 1.4-1.3 1.4-.4 0-.8-.2-1-.5v1.5h-.4v-3.7h.3v.5a1.1 1.1 0 0 1 1-.6c.9 0 1.4.6 1.4 1.4zm-.3 0a1 1 0 1 0-2 0 1 1 0 1 0 2 0zm2.4-1.4v.4h-.1c-.6 0-.9.4-.9 1v1.4h-.4v-2.7h.3v.5c.3-.4.7-.6 1.1-.6zm37.1-.9v3.6h-.4v-2.9l-1.4 2.4h-.2l-1.4-2.4v2.8h-.4v-3.6h.3l1.6 2.7 1.5-2.7h.4z"/><use xlink:href="#B" x="160.1"/><path d="M327.2 212.6l-1.3 3c-.2.5-.5.7-.9.7-.3 0-.5-.1-.7-.2l.2-.3c.1.1.3.2.5.2s.4-.1.6-.4l.1-.3-1.2-2.7h.4l1 2.3 1-2.3h.3zm27.4 2.2l.2-.3c.2.3.5.4.8.4.4 0 .7-.3.7-.8v-2.2H355v-.3h1.7v2.5c0 .8-.4 1.1-1 1.1-.5.1-.8 0-1.1-.4z"/><use xlink:href="#C"/><path d="M363.6 213.8v1.6h-.4v-1.5c0-.6-.3-.9-.8-.9-.6 0-.9.4-.9 1v1.4h-.4v-2.7h.3v.5c.2-.3.6-.5 1-.5.8-.1 1.2.3 1.2 1.1zm30.9 1l.2-.3c.2.3.5.4.8.4.4 0 .7-.3.7-.8v-2.2h-1.3v-.3h1.7v2.5c0 .8-.4 1.1-1 1.1-.5.1-.8 0-1.1-.4z"/><use xlink:href="#C" x="39.9"/><path d="M401.1 211.5h.4v3.8h-.4v-3.8zm34.4 2.9h-2l-.4 1h-.4l1.6-3.6h.4l1.6 3.6h-.4l-.4-1zm-.2-.3l-.9-1.9-.9 1.9h1.8z"/><use xlink:href="#C" x="79"/><path d="M442.7 212.6v2.4c0 .9-.5 1.3-1.3 1.3-.5 0-1-.1-1.3-.4l.2-.3c.3.2.6.4 1.1.4.7 0 1-.3 1-1v-.3c-.2.3-.6.5-1 .5-.8 0-1.3-.5-1.3-1.3s.6-1.3 1.3-1.3c.4 0 .8.2 1.1.5v-.5h.2zm-.4 1.3a.94.94 0 1 0-2 0 .94.94 0 1 0 2 0z"/><use xlink:href="#D"/><path d="M137.8 200.3v2.5h-.3v-2.2h-.5v-.2h.8z"/><use xlink:href="#E"/><path d="M138.8 192.9v.2h-1.7v-.1l1-1c.3-.3.3-.4.3-.6 0-.3-.2-.5-.6-.5-.3 0-.5.1-.7.3l-.1-.2c.2-.2.5-.4.9-.4.5 0 .8.3.8.7 0 .2-.1.4-.4.8l-.8.8h1.3z"/><use xlink:href="#E" x="0.7" y="-9.6"/><path d="M138.8 182.5c0 .4-.3.7-.9.7-.4 0-.7-.1-.9-.3l.1-.2c.2.2.4.3.8.3s.6-.2.6-.5-.2-.5-.7-.5h-.2v-.2l.7-.9H137v-.2h1.6v.2l-.7.9c.6 0 .9.3.9.7z"/><use xlink:href="#D" x="-0.9" y="-31.2"/><path d="M139.2 173h-.5v.6h-.3v-.6H137v-.2l1.3-1.6h.3l-1.3 1.6h1.1v-.6h.2v.6h.5v.2z"/><path d="M139.4 172.4c0-.8.4-1.2 1-1.2s1 .5 1 1.2c0 .8-.4 1.3-1 1.3-.5-.1-1-.5-1-1.3zm1.8 0c0-.7-.3-1-.7-1s-.7.4-.7 1c0 .7.3 1 .7 1s.7-.4.7-1zm-2.4-8.7c0 .4-.3.7-.9.7-.4 0-.7-.1-.9-.3l.1-.2c.2.2.4.3.8.3s.6-.2.6-.5-.2-.5-.8-.5h-.5l.1-1.2h1.3v.2h-1.1l-.1.8h.3c.8-.1 1.1.2 1.1.7zm.3-.5c0-.8.4-1.2 1-1.2s1 .5 1 1.2c0 .8-.4 1.3-1 1.3-.6-.1-1-.6-1-1.3zm1.7 0c0-.7-.3-1-.7-1s-.7.4-.7 1c0 .7.3 1 .7 1s.7-.4.7-1zM139 154c0 .5-.4.8-.8.8-.7 0-1-.5-1-1.2 0-.8.5-1.3 1.1-1.3.2 0 .4 0 .6.1l-.1.2c-.1-.1-.3-.1-.5-.1-.5 0-.9.3-.9 1v.2c.1-.3.4-.4.8-.4s.8.3.8.7zm-.3 0c0-.3-.2-.5-.6-.5s-.6.2-.6.5.2.5.6.5c.4.1.6-.1.6-.5z"/><use xlink:href="#E" x="0.9" y="-48"/></g><path d="M151.8 154.1h294.3v.3H151.8zm0 9.6h294.3v.3H151.8zm0 9.6h294.3v.3H151.8zm0 9.6h294.3v.3H151.8zm0 9.6h294.3v.3H151.8zm0 9.6h294.3v.3H151.8z" opacity=".62" class="N"/><path d="M218 156.2c0-1.6-1.3-2.9-2.9-2.9s-2.9 1.3-2.9 2.9 1.3 2.9 2.9 2.9 2.9-1.3 2.9-2.9z" class="O"/><path d="M304.1 202.3c0-1.6-1.3-2.9-2.9-2.9s-2.9 1.3-2.9 2.9 1.3 2.9 2.9 2.9 2.9-1.3 2.9-2.9z" fill="#375a64"/><g class="Q"><path d="M92.5 76.9c-.1 0-.2 0-.3-.1l-6.7-6.1-6.7 6.1c-.2.1-.4.1-.5 0-.1-.2-.1-.4 0-.5l7-6.3c.1-.1.4-.1.5 0l7 6.3c.2.1.2.4 0 .5-.1.1-.2.1-.3.1z"/><path d="M90.6 82.3H80.5c-.2 0-.4-.2-.4-.4v-7c0-.2.2-.4.4-.4s.4.2.4.4v6.7h9.4v-6.7c0-.2.2-.4.4-.4s.4.2.4.4v7c-.1.2-.3.4-.5.4zm1.2 43.6H78.6c-.2 0-.4-.2-.4-.4v-8.4c0-1 .8-1.9 1.9-1.9h3.4c.9 0 1.6.5 2 1.3l.6 1.4h4.2a1.97 1.97 0 0 1 1.9 1.9v5.7c0 .3-.2.4-.4.4zm-12.8-.7h12.5v-5.3a1.11 1.11 0 0 0-1.1-1.1H86c-.2 0-.3-.1-.3-.2L85 117c-.2-.5-.7-.8-1.3-.8h-3.4a1.11 1.11 0 0 0-1.1 1.1v7.9zm2.5 155.4c-.2 0-.4-.1-.6-.2-.3-.2-.5-.6-.4-1l.6-3.5c0-.1 0-.2-.1-.2l-2.5-2.5c-.3-.3-.4-.7-.2-1 .1-.4.4-.6.8-.7l3.5-.6c.1 0 .1-.1.2-.1l1.6-3.2c.3-.7 1.4-.7 1.8 0l1.6 3.2c0 .1.1.1.2.1l3.5.6c.4.1.7.3.8.7s0 .7-.2 1l-2.5 2.5c-.1.1-.1.1-.1.2l.6 3.5c.1.4-.1.7-.4 1-.3.2-.7.3-1 .1l-3.2-1.6h-.2l-3.2 1.6c-.3.1-.4.1-.6.1zm3.7-2.5a.9.9 0 0 1 .5.1l3.2 1.6c.1.1.2 0 .3 0 0 0 .1-.1.1-.2l-.6-3.5c0-.3.1-.6.3-.9l2.5-2.5c.1-.1.1-.2.1-.3l-.2-.2-3.5-.6c-.3 0-.6-.2-.7-.5l-1.6-3.2c-.1-.1-.2-.1-.2-.1s-.2 0-.2.1l-1.6 3.2c-.1.3-.4.5-.7.5l-3.5.6c-.1 0-.2.1-.2.2 0 0 0 .2.1.3l2.5 2.5c.2.2.3.5.3.9l-.6 3.5c0 .1.1.2.1.2s.1.1.3 0l3.2-1.6c-.2-.1 0-.1.1-.1zm7.4-50.2H77.8c-.2 0-.4-.2-.4-.4v-9.3c0-.2.2-.4.4-.4h14.8c.2 0 .4.2.4.4v9.3c0 .2-.1.4-.4.4zm-14.4-.8h14.1v-8.6H78.2v8.6z"/><path d="M85.4 225.3c-.1 0-.2 0-.2-.1l-7.6-6.7c-.2-.1-.2-.4 0-.5.1-.2.4-.2.5 0l7.3 6.5 7-6.5c.2-.1.4-.1.5 0 .1.2.1.4 0 .5l-7.2 6.7c-.1 0-.2.1-.3.1z"/><path d="M78 227.5c-.1 0-.2 0-.3-.1s-.1-.4 0-.5l4.5-4.5c.1-.1.4-.1.5 0s.1.4 0 .5l-4.5 4.5c0 .1-.1.1-.2.1zm14.7.3c-.1 0-.2 0-.3-.1l-4.8-4.8c-.1-.1-.1-.4 0-.5s.4-.1.5 0l4.8 4.8c.1.1.1.4 0 .5 0 .1-.1.1-.2.1z"/></g><g class="O"><path d="M84.4 167.9h2.2v2.2h-2.2zm4.2 0h2.2v2.2h-2.2zm-8.3 0h2.2v2.2h-2.2zm8.3 3.5h2.2v2.2h-2.2zm-4.2 0h2.2v2.2h-2.2zm-4.1 0h2.2v2.2h-2.2zm13 5.9H77.8c-.2 0-.4-.2-.4-.4v-12.8c0-.2.2-.4.4-.4h15.6c.2 0 .4.2.4.4v12.8c-.1.2-.3.4-.5.4zm-15.2-.8h14.8v-12H78.1v12z"/><path d="M82 166c-.2 0-.4-.2-.4-.4v-4.1c0-.2.2-.4.4-.4s.4.2.4.4v4.1c-.1.3-.2.4-.4.4zm6.7 0c-.2 0-.4-.2-.4-.4v-4.1c0-.2.2-.4.4-.4s.4.2.4.4v4.1c0 .3-.2.4-.4.4zm106.9 135.7h5v16.7h-5zm-41.6-2.4h5v19.1h-5zm10.4-4h5v23.1h-5zm10.4 1.3h5v21.8h-5zm10.4-7.4h5v29.2h-5zm20.9.2h5v29.1h-5zm10.4 9.5h5v19.5h-5zm10.4-8.3h5v27.8h-5zm10.4-6.2h5v34.1h-5zm10.4 6.1h5v27.9h-5z"/></g><path d="M263.1 339.1H140.5a10.07 10.07 0 0 1-10.1-10.1v-73.3a10.07 10.07 0 0 1 10.1-10.1h122.6a10.07 10.07 0 0 1 10.1 10.1V329a10.07 10.07 0 0 1-10.1 10.1zm-122.6-92.5c-5 0-9.1 4.1-9.1 9.1V329c0 5 4.1 9.1 9.1 9.1h122.6c5 0 9.1-4.1 9.1-9.1v-73.3c0-5-4.1-9.1-9.1-9.1H140.5zm69.8 23.4c0 .1-14.2.3-31.7.3s-31.7-.1-31.7-.3c0-.1 14.2-.3 31.7-.3l31.7.3z" class="N"/><path d="M339.1 313.6c-1.3.7-2.6 1.3-4.1 1.7-1.4.4-2.9.6-4.4.6s-3-.2-4.4-.6-2.8-1-4.1-1.7-2.5-1.6-3.5-2.7c-1-1-1.9-2.2-2.7-3.5-.7-1.3-1.3-2.6-1.7-4.1-.4-1.4-.6-2.9-.6-4.4s.2-3 .6-4.4 1-2.8 1.7-4.1 1.6-2.5 2.7-3.5c1-1 2.2-1.9 3.5-2.7 1.3-.7 2.6-1.3 4.1-1.7 1.4-.4 2.9-.6 4.4-.6v-3.3c-1.8 0-3.6.2-5.2.7-1.7.5-3.4 1.1-4.9 2s-2.9 2-4.2 3.2c-1.2 1.2-2.3 2.7-3.2 4.2s-1.6 3.1-2 4.9c-.4 1.7-.7 3.4-.7 5.2s.2 3.6.7 5.2c.5 1.7 1.1 3.4 2 4.9s2 2.9 3.2 4.2c1.2 1.2 2.7 2.3 4.2 3.2a17.44 17.44 0 0 0 4.9 2c1.7.4 3.4.7 5.2.7s3.6-.2 5.2-.7c1.7-.5 3.4-1.1 4.9-2s2.9-1.9 4.2-3.2l-2.4-2.4c-1 1.2-2.2 2.1-3.4 2.9z" class="O"/><path d="M350.2 293.7c-.5-1.7-1.1-3.4-2-4.9s-2-2.9-3.2-4.2c-1.2-1.2-2.7-2.3-4.2-3.2s-3.1-1.6-4.9-2c-1.7-.4-3.4-.7-5.2-.7v3.3c1.5 0 3 .2 4.4.6s2.8 1 4.1 1.7 2.5 1.6 3.5 2.7c1 1 1.9 2.2 2.7 3.5.7 1.3 1.3 2.6 1.7 4.1.4 1.4.6 2.9.6 4.4s-.2 3-.6 4.4-1 2.8-1.7 4.1-1.6 2.5-2.7 3.5l2.4 2.4c1.2-1.2 2.3-2.7 3.2-4.2a17.44 17.44 0 0 0 2-4.9c.4-1.7.7-3.4.7-5.2-.1-2-.4-3.8-.8-5.4z" class="N"/><path d="M327.4 301.1c0 1.1-.9 1.8-2 1.8-1.6 0-2.4-1.1-2.4-2.9 0-2 1.1-3 2.7-3 .5 0 1 .1 1.4.3l-.2.5c-.3-.2-.7-.3-1.1-.3-1.3 0-2.1.8-2.1 2.4v.5c.3-.6 1-1 1.8-1 1.1-.1 1.9.6 1.9 1.7zm-.6 0c0-.8-.6-1.3-1.5-1.3s-1.5.6-1.5 1.3c0 .6.5 1.3 1.5 1.3.9-.1 1.5-.5 1.5-1.3zm5.2 0c0 1-.7 1.8-2.1 1.8-.8 0-1.6-.3-2.1-.8l.3-.5c.4.4 1 .7 1.8.7 1 0 1.5-.5 1.5-1.2 0-.8-.5-1.2-2-1.2h-1.2l.3-2.9h3.2v.5H329l-.2 1.9h.8c1.8 0 2.4.6 2.4 1.7zm.6-2.6c0-1 .5-1.6 1.3-1.6s1.3.6 1.3 1.6-.5 1.6-1.3 1.6-1.3-.6-1.3-1.6zm2.2 0c0-.8-.4-1.2-.9-1.2-.6 0-.9.5-.9 1.2 0 .8.4 1.2.9 1.2.6 0 .9-.4.9-1.2zm2.7-1.5h.5l-4 5.8h-.5l4-5.8zm-1.3 4.3c0-1 .5-1.6 1.3-1.6s1.3.6 1.3 1.6-.5 1.6-1.3 1.6c-.8-.1-1.3-.7-1.3-1.6zm2.2 0c0-.8-.4-1.2-.9-1.2s-.9.5-.9 1.2c0 .8.4 1.2.9 1.2.6 0 .9-.5.9-1.2z" class="P"/><path d="M409.2 298.9c0 1.8-.2 3.6-.7 5.2-.5 1.7-1.1 3.4-2 4.9s-2 2.9-3.2 4.2c-1.2 1.2-2.7 2.3-4.2 3.2s-3.1 1.6-4.9 2c-1.7.4-3.4.7-5.2.7s-3.6-.2-5.2-.7c-1.7-.5-3.4-1.1-4.9-2s-2.9-2-4.2-3.2c-1.2-1.2-2.3-2.7-3.2-4.2s-1.6-3.1-2-4.9c-.3-1.2-.5-2.5-.6-3.8h3.4c.1 1 .3 2 .5 3 .4 1.4 1 2.8 1.7 4.1.8 1.3 1.6 2.5 2.7 3.5 1 1 2.2 1.9 3.5 2.7 1.3.7 2.6 1.3 4.1 1.7 1.4.4 2.9.6 4.4.6s3-.2 4.4-.6 2.8-1 4.1-1.7c1.3-.8 2.5-1.6 3.5-2.7 1-1 1.9-2.2 2.7-3.5.7-1.3 1.3-2.6 1.7-4.1.4-1.4.6-2.9.6-4.4s-.2-3-.6-4.4-1-2.8-1.7-4.1c-.8-1.3-1.6-2.5-2.7-3.5-1-1-2.2-1.9-3.5-2.7-1.3-.7-2.6-1.3-4.1-1.7-1.4-.4-2.9-.6-4.4-.6v-3.3c1.8 0 3.6.2 5.2.7 1.7.5 3.4 1.1 4.9 2s2.9 2 4.2 3.2c1.2 1.2 2.3 2.7 3.2 4.2s1.6 3.1 2 4.9l.5 5.3z" class="N"/><path d="M384.4 296.6v.4l-2.4 5.4h-.7l2.4-5.3h-3v1.1h-.6v-1.6h4.3zm4.6 4.2c0 1-.7 1.8-2.1 1.8-.8 0-1.6-.3-2.1-.8l.3-.5c.4.4 1 .7 1.8.7 1 0 1.5-.5 1.5-1.2 0-.8-.5-1.2-2-1.2h-1.2l.3-2.9h3.2v.5H386l-.2 1.9h.8c1.7-.1 2.4.6 2.4 1.7zm.6-2.6c0-1 .5-1.6 1.3-1.6s1.3.6 1.3 1.6-.5 1.6-1.3 1.6-1.3-.7-1.3-1.6zm2.2 0c0-.8-.4-1.2-.9-1.2-.6 0-.9.5-.9 1.2 0 .8.4 1.2.9 1.2s.9-.5.9-1.2zm2.6-1.6h.5l-4 5.8h-.5l4-5.8zm-1.3 4.3c0-1 .5-1.6 1.3-1.6s1.3.6 1.3 1.6-.5 1.6-1.3 1.6c-.7 0-1.3-.6-1.3-1.6zm2.3 0c0-.8-.4-1.2-.9-1.2s-.9.5-.9 1.2c0 .8.4 1.2.9 1.2s.9-.4.9-1.2z" class="P"/><path d="M405.8 298.9c0 1.5-.2 3-.6 4.4s-1 2.8-1.7 4.1c-.8 1.3-1.6 2.5-2.7 3.5-1 1-2.2 1.9-3.5 2.7-1.3.7-2.6 1.3-4.1 1.7-1.4.4-2.9.6-4.4.6s-3-.2-4.4-.6-2.8-1-4.1-1.7c-1.3-.8-2.5-1.6-3.5-2.7-1-1-1.9-2.2-2.7-3.5-.7-1.3-1.3-2.6-1.7-4.1-.3-1-.4-2-.5-3h0c0-.5-.1-.9-.1-1.4 0-1.5.2-3 .6-4.4s1-2.8 1.7-4.1 1.6-2.5 2.7-3.5c1-1 2.2-1.9 3.5-2.7 1.3-.7 2.6-1.3 4.1-1.7 1.4-.4 2.9-.6 4.4-.6v-3.3c-1.8 0-3.6.2-5.2.7-1.7.5-3.4 1.1-4.9 2s-2.9 2-4.2 3.2c-1.2 1.2-2.3 2.7-3.2 4.2a17.44 17.44 0 0 0-2 4.9c-.4 1.7-.7 3.4-.7 5.2 0 .5 0 .9.1 1.4h0c.1 1.3.3 2.6.6 3.8.5 1.7 1.1 3.4 2 4.9s2 2.9 3.2 4.2c1.2 1.2 2.7 2.3 4.2 3.2s3.1 1.6 4.9 2c1.7.4 3.4.7 5.2.7s3.6-.2 5.2-.7c1.7-.5 3.4-1.1 4.9-2s2.9-2 4.2-3.2c1.2-1.2 2.3-2.7 3.2-4.2s1.6-3.1 2-4.9c.4-1.7.7-3.4.7-5.2h-3.2z" class="O"/><g class="N"><path d="M425.1 337.9H294.4a8.75 8.75 0 0 1-8.8-8.8v-73.4a8.75 8.75 0 0 1 8.8-8.8h130.7a8.75 8.75 0 0 1 8.8 8.8v73.4c0 4.8-3.9 8.8-8.8 8.8zm-130.7-90c-4.3 0-7.8 3.5-7.8 7.8v73.4c0 4.3 3.5 7.8 7.8 7.8h130.7c4.3 0 7.8-3.5 7.8-7.8v-73.4c0-4.3-3.5-7.8-7.8-7.8H294.4zm66.7 19.6c0 .1-13.7.3-30.5.3-16.9 0-30.5-.1-30.5-.3 0-.1 13.7-.3 30.5-.3l30.5.3z"/><use xlink:href="#F"/></g><path d="M469.2 167.5h0c-1.1 0-2.1-.9-2.1-2.1v-25.2c0-1.1.9-2.1 2.1-2.1h0c1.1 0 2.1.9 2.1 2.1v25.2c-.1 1.2-1 2.1-2.1 2.1z" class="O"/><g class="P"><path d="M467.9 169.2v3.5h-.4v-3.2h-.8v-.3h1.2z"/><use xlink:href="#G"/></g><use xlink:href="#H" class="N"/><path d="M477.5 167.5h0c-1.1 0-2.1-.9-2.1-2.1v-33.1c0-1.1.9-2.1 2.1-2.1h0c1.1 0 2.1.9 2.1 2.1v33.1c0 1.2-1 2.1-2.1 2.1z" class="O"/><g class="P"><path d="M477 172.3v.3h-2.4v-.3l1.4-1.4c.4-.4.5-.6.5-.9 0-.4-.3-.6-.8-.6-.4 0-.7.1-.9.4l-.3-.2c.3-.3.7-.5 1.2-.5.7 0 1.2.4 1.2.9 0 .3-.1.6-.6 1.1l-1.2 1.2h1.9z"/><use xlink:href="#G" x="8.7"/></g><use xlink:href="#I" class="N"/><path d="M485.8 167.5h0c-1.1 0-2.1-.9-2.1-2.1v-19.2c0-1.1.9-2.1 2.1-2.1h0c1.1 0 2.1.9 2.1 2.1v19.2c0 1.2-.9 2.1-2.1 2.1z" class="O"/><g class="P"><path d="M485.3 171.7c0 .6-.4 1-1.3 1-.5 0-1-.2-1.3-.4l.2-.3c.2.2.6.4 1.1.4.6 0 .9-.3.9-.7s-.3-.7-.9-.7h-.2v-.3l1-1.2H483v-.3h2.2v.3l-1 1.2c.7 0 1.1.4 1.1 1z"/><use xlink:href="#G" x="17.1"/></g><use xlink:href="#I" x="8.3" class="N"/><path d="M494.1 167.5h0c-1.1 0-2.1-.9-2.1-2.1v-33.1c0-1.1.9-2.1 2.1-2.1h0c1.1 0 2.1.9 2.1 2.1v33.1c0 1.2-.9 2.1-2.1 2.1z" class="O"/><g class="P"><path d="M494.1 171.7h-.7v.9h-.4v-.9h-2v-.3l1.8-2.3h.4l-1.8 2.2h1.5v-.8h.3v.8h.7v.4z"/><use xlink:href="#G" x="25.8"/></g><use xlink:href="#F" x="33.3" class="N"/><path d="M502.5 167.5h0c-1.1 0-2.1-.9-2.1-2.1v-26.8c0-1.1.9-2.1 2.1-2.1h0c1.1 0 2.1.9 2.1 2.1v26.8c-.1 1.2-1 2.1-2.1 2.1z" class="O"/><g class="P"><path d="M502.3 171.6c0 .6-.4 1.1-1.3 1.1-.5 0-1-.2-1.2-.4l.2-.3c.2.2.6.4 1.1.4.6 0 .9-.3.9-.7s-.3-.7-1.2-.7h-.8l.2-1.7h1.9v.3h-1.6l-.1 1.1h.4c1.1-.1 1.5.3 1.5.9z"/><use xlink:href="#G" x="34"/></g><use xlink:href="#H" x="33.3" class="N"/><path d="M510.8 167.4h0c-1.1 0-2.1-.9-2.1-1.9v-19.2c0-1.3.9-2.3 2.1-2.3h0c1.1 0 2.1.9 2.1 2.1v19.2c0 1.1-1 2.1-2.1 2.1z" class="O"/><g class="P"><path d="M510.5 171.6c0 .6-.5 1.1-1.2 1.1-.9 0-1.4-.6-1.4-1.7 0-1.2.6-1.8 1.6-1.8.3 0 .6.1.8.2l-.1.3c-.2-.1-.4-.2-.7-.2-.7 0-1.2.5-1.2 1.4v.3c.2-.4.6-.6 1.1-.6.6 0 1.1.4 1.1 1zm-.3 0c0-.5-.3-.7-.9-.7-.5 0-.9.3-.9.8 0 .4.3.7.9.7.5 0 .9-.3.9-.8z"/><use xlink:href="#G" x="42.2"/></g><use xlink:href="#H" x="41.6" class="N"/><path d="M519.1 167.5h0c-1.1 0-2.1-.9-2.1-2.1v-35.1c0-1.1.9-2.1 2.1-2.1h0c1.1 0 2.1.9 2.1 2.1v35.1c0 1.2-1 2.1-2.1 2.1z" class="O"/><g class="P"><path d="M518.7 169.2v.3l-1.5 3.2h-.4l1.4-3.2h-1.8v.6h-.4v-1h2.7z"/><use xlink:href="#G" x="50.3"/></g><use xlink:href="#I" x="41.6" class="N"/><path d="M527.4 167.5h0c-1.1 0-2.1-.9-2.1-2.1v-15.3c0-1.1.9-2.1 2.1-2.1h0c1.1 0 2.1.9 2.1 2.1v15.3c0 1.2-.9 2.1-2.1 2.1z" class="O"/><g class="P"><path d="M527 171.7c0 .6-.5 1-1.3 1s-1.3-.4-1.3-1c0-.4.2-.7.7-.9-.4-.1-.5-.4-.5-.8 0-.6.5-.9 1.2-.9s1.2.4 1.2.9c0 .4-.2.6-.6.8.4.2.6.5.6.9zm-.4 0c0-.4-.4-.7-1-.7s-1 .3-1 .7.4.7 1 .7c.7 0 1-.3 1-.7zm-.9-1c.5 0 .9-.2.9-.6s-.3-.6-.9-.6c-.5 0-.9.2-.9.6s.3.6.9.6z"/><use xlink:href="#G" x="58.8"/></g><use xlink:href="#I" x="49.9" class="N"/><path d="M535.7 167.4h0c-1.1 0-2.1-.9-2.1-1.9v-5.4c0-1.3.9-2.3 2.1-2.3h0c1.1 0 2.1.9 2.1 2.1v5.4c0 1.1-.9 2.1-2.1 2.1z" class="O"/><g class="P"><path d="M535.1 170.9c0 1.2-.6 1.8-1.6 1.8-.3 0-.6-.1-.8-.2l.1-.3c.2.1.4.2.7.2.7 0 1.2-.5 1.2-1.4v-.3c-.2.4-.6.6-1.1.6-.7 0-1.2-.4-1.2-1s.5-1.1 1.2-1.1c1-.1 1.5.6 1.5 1.7zm-.5-.7c0-.4-.3-.7-.9-.7-.5 0-.8.3-.8.8s.3.7.9.7c.5 0 .8-.4.8-.8z"/><use xlink:href="#G" x="66.9"/></g><use xlink:href="#F" x="74.9" class="N"/><path d="M544.1 167.4h0c-1.1 0-2.1-.9-2.1-1.9v-19.2c0-1.3.9-2.3 2.1-2.3h0c1.1 0 2.1.9 2.1 2.1v19.2c-.1 1.1-1 2.1-2.1 2.1z" class="O"/><g class="P"><path d="M541.1 169.2v3.5h-.4v-3.2h-.8v-.3h1.2z"/><use xlink:href="#G" x="73.2"/><use xlink:href="#G" x="76.5"/></g><g class="N"><path d="M527.3 104.6c0 .1-13.5.3-30.3.3-16.7 0-30.3-.1-30.3-.3 0-.1 13.5-.3 30.3-.3l30.3.3z"/><use xlink:href="#J"/><use xlink:href="#J" y="13.6"/><use xlink:href="#J" y="27.3"/><path d="M546.1 236.9c0 .1-17.8.3-39.7.3s-39.7-.1-39.7-.3 17.8-.3 39.7-.3l39.7.3z"/><use xlink:href="#J" y="54.5"/></g><g class="O"><path d="M543 296.9c7.4 0 13.4 6 13.4 13.4v11.1c0 7.4-6 13.4-13.4 13.4h-74.7c-7.4 0-13.4-6-13.4-13.4v-11.1c0-7.4 6-13.4 13.4-13.4H543m0-1h-74.7c-7.9 0-14.4 6.4-14.4 14.4v11.1c0 7.9 6.4 14.4 14.4 14.4H543c7.9 0 14.4-6.4 14.4-14.4v-11.1c0-8-6.5-14.4-14.4-14.4h0zm-6.3 21.1c0 .1-13.9.3-31.1.3s-31.1-.1-31.1-.3c0-.1 13.9-.3 31.1-.3l31.1.3z"/><use xlink:href="#K"/><use xlink:href="#L"/></g><g opacity=".8" fill="#fff"><use xlink:href="#K"/><use xlink:href="#L"/></g><path d="M491 30s.2-.1.5-.1.7.2 1.1.6.6 1.1.4 1.8-.9 1.4-1.8 1.4-1.7-.6-1.9-1.3c-.3-.7-.1-1.4.3-1.9.3-.4.8-.6 1.1-.7.2.1.3.2.3.2 0 .1-.7.1-1.2.8-.2.4-.4.9-.1 1.5.2.5.8 1 1.5.9.7 0 1.2-.5 1.4-1s0-1.1-.2-1.5c-.7-.7-1.4-.6-1.4-.7zm.5-2.3s-.2-.3-.4-.9l.1.1-1.6.3.1-.1c0 .3 0 .6-.1 1v.1h-.1c-.3.1-.6.3-.9.5l-.1.1h-.1c-.3-.1-.6-.3-.9-.4l.2-.1c-.3.4-.6.9-1 1.3v-.3c.2.2.4.5.6.8l.1.1v.1c-.1.3-.2.6-.2 1v.1h-.1c-.3.1-.6.2-.9.4l.1-.2c.1.5.2 1.1.2 1.6l-.2-.2c.3 0 .6.1 1 .1h.1l.1.1c.1.3.3.6.5.9l.1.1-.1.1c-.1.3-.3.6-.4.9l-.1-.3 1.3 1h-.3c.2-.2.5-.4.8-.6l.1-.1.1.1 1 .3.2.2v.2l.1.2.2.5-.3-.2 1.6-.2-.2.2c0-.3.1-.7.1-1v-.2l.1-.1c.3-.1.6-.3.9-.5l.1-.1.1.1c.3.1.6.3.9.4l-.3.1 1-1.3v.3c-.2-.3-.4-.5-.6-.8l-.1-.1.1-.1.3-1v-.1h.1l.9-.3-.1.2-.2-1.6.2.2c-.3 0-.7-.1-1-.1h-.1v-.1c-.1-.3-.3-.6-.5-.9l-.1-.1v-.1c.2-.3.3-.6.4-.9v.2l-1.3-1h.1c-.3.2-.6.4-.8.6h0c-.4-.4-.8-.4-.8-.5h.3c.2 0 .4.1.8.2h-.1c.2-.2.5-.4.7-.7l.1-.1.1.1 1.3 1 .1.1-.1.1c-.1.3-.3.6-.4.9v-.2l.6 1-.2-.1c.3 0 .6 0 1 .1h.2v.2c.1.5.2 1.1.2 1.6v.2l-.2.1c-.3.1-.6.2-.9.4l.1-.2c0 .4-.1.7-.3 1.1v-.2c.2.2.4.5.6.8l.1.1-.1.2-1 1.3-.1.2-.2-.1c-.3-.1-.6-.3-.9-.4h.3l-1 .6.2-.2c0 .3-.1.7-.1 1v.2h-.2c-.5.1-1.1.1-1.6.2h-.2l-.1-.2-.2-.5-.1-.2v-.2l.2.2c-.4 0-.8-.2-1.1-.3h.3c-.3.2-.5.4-.8.6l-.2.1-.2-.1-1.3-1-.2-.1.1-.2c.1-.3.3-.6.4-.9v.3l-.6-1 .2.2c-.3 0-.7-.1-1-.1h-.2v-.2l-.2-1.6v-.2l.2-.1.9-.3-.1.2.3-1.1v.2c-.2-.3-.4-.5-.6-.8l-.1-.1.1-.1 1-1.3.1-.1.1.1c.3.1.6.3.9.4h-.2c.3-.2.6-.4 1-.5l-.1.1c0-.4.1-.7.1-1v-.1h.1l1.6-.2h.1v.1c.5.2.5.5.5.5zm67.1 329h.3c.2 0 .5 0 .8-.1.7-.1 1.8-.3 3.1-1s2.7-1.9 3.6-3.9c.5-1 .8-2.1.8-3.4l-.1-337.9c0-1.4 0-2.8-.5-4-.4-1.3-1.2-2.5-2.2-3.4s-2.2-1.7-3.5-2c-1.3-.4-2.7-.3-4.1-.3H71c-1.8 0-3.6.6-5 1.6-1.5 1-2.5 2.6-3.1 4.3s-.3 3.5-.4 5.4v334.9l.1 2.3c.1.8.3 1.5.6 2.2.6 1.4 1.6 2.6 2.8 3.5s2.7 1.4 4.2 1.5 3.1 0 4.7 0h233.6l250.1.3-488.3.2c-1.6-.1-3.2-.7-4.5-1.6s-2.4-2.2-3-3.7c-.3-.7-.6-1.5-.6-2.3-.1-.8-.1-1.6-.1-2.4V9.3c0-.9.1-1.9.4-2.8.5-1.8 1.7-3.5 3.2-4.6S69.1.2 71 .2h485.8c1.4 0 2.8-.1 4.2.4 1.4.4 2.6 1.1 3.7 2.1 1 1 1.8 2.2 2.3 3.6.5 1.3.5 2.8.5 4.2l-.1 337.9c0 1.3-.4 2.4-.8 3.4-.9 2-2.4 3.2-3.7 3.9s-2.4.9-3.1 1h-1.2z" class="P"/><path d="M433.8 124.5h-79.1c-5.3 0-9.6-4.3-9.6-9.6V87.7c0-5.3 4.3-9.6 9.6-9.6h79.1c5.3 0 9.6 4.3 9.6 9.6V115c-.1 5.2-4.4 9.5-9.6 9.5z" class="N"/><g class="P"><path d="M371.9 100.4v8.5h-.9v-7.8h-2v-.8h2.9zm7.9 6c0 1.5-1 2.6-3.1 2.6-1.2 0-2.4-.4-3.1-1.1l.4-.7c.5.6 1.5 1 2.6 1 1.5 0 2.2-.7 2.2-1.7 0-1.1-.7-1.8-2.9-1.8h-1.8l.4-4.3h4.7v.8h-3.9l-.3 2.7h1.1c2.7 0 3.7 1 3.7 2.5z"/><use xlink:href="#M"/><use xlink:href="#M" x="8.1"/><path d="M404.3 106.7h-1.7v2.2h-.9v-2.2h-4.8v-.7l4.5-5.7h1l-4.4 5.5h3.7v-2h.9v2h1.7v.9z"/><use xlink:href="#N"/><use xlink:href="#M" x="31.1"/><path d="M402.7 91.6c0 .1-9.5.3-21.2.3s-21.2-.1-21.2-.3 9.5-.3 21.2-.3l21.2.3z"/></g><path d="M326.6 124.8h-79.1c-5.3 0-9.6-4.3-9.6-9.6V87.9c0-5.3 4.3-9.6 9.6-9.6h79.1c5.3 0 9.6 4.3 9.6 9.6v27.3c0 5.3-4.3 9.6-9.6 9.6z" class="N"/><g class="P"><path d="M260.9 111.4v1.4h-.6v-1.4c-1.2-.1-2.3-.5-2.9-1.1l.4-.7c.6.5 1.5 1 2.6 1v-3.2c-1.3-.3-2.7-.7-2.7-2.4 0-1.2.8-2.2 2.7-2.3v-1.4h.6v1.4c.9 0 1.8.3 2.5.8l-.3.7c-.7-.4-1.5-.7-2.2-.7v3.2c1.4.3 2.8.7 2.8 2.4-.1 1.2-.9 2.2-2.9 2.3zm-.6-4.8v-3.1c-1.3.1-1.8.8-1.8 1.5 0 1 .8 1.3 1.8 1.6zm2.6 2.5c0-1-.9-1.3-1.9-1.6v3.1c1.3-.1 1.9-.7 1.9-1.5z"/><use xlink:href="#N" x="-136.9" y="2.5"/><path d="M280.7 108.9c0 1.4-1 2.5-3.1 2.5-1.2 0-2.4-.4-3.1-1.1l.4-.7c.5.6 1.5 1 2.6 1 1.4 0 2.2-.7 2.2-1.7s-.7-1.7-2.3-1.7h-.6v-.6l2.4-3h-4.4v-.8h5.5v.6l-2.4 3c1.9.2 2.8 1.1 2.8 2.5zm7-.1c0 1.5-1 2.6-3.1 2.6-1.2 0-2.4-.4-3.1-1.1l.4-.7c.5.6 1.5 1 2.6 1 1.5 0 2.2-.7 2.2-1.7 0-1.1-.7-1.8-2.9-1.8H282l.4-4.3h4.7v.8h-3.9l-.3 2.7h1.1c2.7 0 3.7 1 3.7 2.5z"/><use xlink:href="#O"/><path d="M298 110.7c0 .2 0 .4-.2.7l-.5 1.7h-.6l.4-1.8c-.3-.1-.4-.3-.4-.6 0-.4.3-.7.6-.7.5.1.7.4.7.7z"/><use xlink:href="#O" x="10.4"/><path d="M307.3 107.1c0-2.7 1.4-4.3 3.4-4.3s3.4 1.6 3.4 4.3-1.4 4.3-3.4 4.3-3.4-1.6-3.4-4.3zm5.9 0c0-2.3-1-3.5-2.5-3.5s-2.5 1.3-2.5 3.5c0 2.3 1 3.5 2.5 3.5 1.4 0 2.5-1.2 2.5-3.5zm-18.8-14.3c0 .1-8.6.3-19.2.3S256 93 256 92.8c0-.1 8.6-.3 19.2-.3l19.2.3z"/></g><path d="M219 124.8h-79.1c-5.3 0-9.6-4.3-9.6-9.6V87.9c0-5.3 4.3-9.6 9.6-9.6H219c5.3 0 9.6 4.3 9.6 9.6v27.3c0 5.3-4.3 9.6-9.6 9.6z" class="O"/><g fill="#fff"><path d="M152.6 111.4v1.4h-.6v-1.4c-1.2-.1-2.3-.5-2.9-1.1l.4-.7c.6.5 1.5 1 2.6 1v-3.2c-1.3-.3-2.7-.7-2.7-2.4 0-1.2.8-2.2 2.7-2.3v-1.4h.6v1.4c.9 0 1.8.3 2.5.8l-.3.7c-.7-.4-1.5-.7-2.2-.7v3.2c1.4.3 2.8.7 2.8 2.4-.1 1.2-1 2.2-2.9 2.3zm-.6-4.8v-3.1c-1.3.1-1.8.8-1.8 1.5-.1 1 .8 1.3 1.8 1.6zm2.5 2.5c0-1-.9-1.3-1.9-1.6v3.1c1.3-.1 1.9-.7 1.9-1.5z"/><use xlink:href="#N" x="-245.3" y="2.5"/><path d="M169.1 102.8v8.5h-.9v-7.8h-2v-.8h2.9zm2 4.3c0-2.7 1.4-4.3 3.4-4.3s3.4 1.6 3.4 4.3-1.4 4.3-3.4 4.3c-1.9 0-3.4-1.6-3.4-4.3zm6 0c0-2.3-1-3.5-2.5-3.5s-2.5 1.3-2.5 3.5c0 2.3 1 3.5 2.5 3.5 1.4 0 2.5-1.2 2.5-3.5zm2.1 0c0-2.7 1.4-4.3 3.4-4.3s3.4 1.6 3.4 4.3-1.4 4.3-3.4 4.3c-1.9 0-3.4-1.6-3.4-4.3zm5.9 0c0-2.3-1-3.5-2.5-3.5s-2.5 1.3-2.5 3.5c0 2.3 1 3.5 2.5 3.5s2.5-1.2 2.5-3.5zm3.4 3.6c0 .2 0 .4-.2.7l-.5 1.7h-.6l.4-1.8c-.3-.1-.4-.3-.4-.6 0-.4.3-.7.6-.7.4.1.7.4.7.7zm7.4-3.7c0 2.9-1.6 4.4-3.9 4.4-.8 0-1.5-.1-2-.5l.4-.7c.4.3 1 .4 1.7.4 1.8 0 3-1.2 3-3.5v-.7c-.4.9-1.4 1.5-2.6 1.5-1.7 0-2.9-1-2.9-2.6s1.3-2.6 2.9-2.6c2.2 0 3.4 1.6 3.4 4.3zm-1.2-1.7c0-.9-.8-1.8-2.3-1.8-1.2 0-2.1.7-2.1 1.9 0 1.1.8 1.8 2.1 1.8 1.4 0 2.3-.8 2.3-1.9z"/><use xlink:href="#O" x="-91.6"/><path d="M183 92.8c0 .1-7.9.3-17.7.3s-17.7-.1-17.7-.3c0-.1 7.9-.3 17.7-.3l17.7.3zM85.5 40.4h0c-4.7 0-8.6-3.8-8.6-8.6h0c0-4.7 3.8-8.6 8.6-8.6h0c4.7 0 8.6 3.8 8.6 8.6h0c0 4.7-3.8 8.6-8.6 8.6z"/></g><defs ><path id="B" d="M163.9 213.7v1.7h-.3v-.4c-.2.3-.5.4-.9.4-.6 0-1-.3-1-.8 0-.4.3-.8 1-.8h.9v-.2c0-.5-.3-.7-.8-.7-.3 0-.7.1-.9.3l-.2-.3c.3-.2.7-.4 1.1-.4.7.1 1.1.5 1.1 1.2zm-.4.8v-.4h-.8c-.5 0-.7.2-.7.5s.3.5.7.5.7-.2.8-.6z"/><path id="C" d="M360.2 212.6v2.7h-.3v-.5c-.2.3-.5.5-1 .5-.7 0-1.1-.4-1.1-1.2v-1.6h.4v1.5c0 .6.3.9.8.9.6 0 .9-.4.9-1v-1.4h.3z"/><path id="D" d="M140 213.2c0-.8.4-1.2 1-1.2s1 .5 1 1.2c0 .8-.4 1.3-1 1.3-.6-.1-1-.5-1-1.3zm1.7 0c0-.7-.3-1-.7-1s-.7.4-.7 1c0 .7.3 1 .7 1s.7-.4.7-1z"/><path id="E" d="M138.4 201.5c0-.8.4-1.2 1-1.2s1 .5 1 1.2c0 .8-.4 1.3-1 1.3s-1-.5-1-1.3zm1.7 0c0-.7-.3-1-.7-1s-.7.4-.7 1c0 .7.3 1 .7 1 .4.1.7-.3.7-1z"/><path id="F" d="M469.2 167.4h0c-1.1 0-2.1-.9-2.1-2.1v-39.1c0-1.1.9-2.1 2.1-2.1h0c1.1 0 2.1.9 2.1 2.1v39.1c-.1 1.1-1 2.1-2.1 2.1z"/><path id="G" d="M468.7 170.9c0-1.1.6-1.8 1.4-1.8s1.4.7 1.4 1.8-.6 1.8-1.4 1.8-1.4-.7-1.4-1.8zm2.4 0c0-.9-.4-1.4-1-1.4s-1 .5-1 1.4.4 1.4 1 1.4c.6.1 1-.5 1-1.4z"/><path id="H" d="M477.5 167.4h0c-1.1 0-2.1-.9-2.1-2.1v-39.1c0-1.1.9-2.1 2.1-2.1h0c1.1 0 2.1.9 2.1 2.1v39.1c0 1.1-1 2.1-2.1 2.1z"/><path id="I" d="M485.8 167.4h0c-1.1 0-2.1-.9-2.1-2.1v-39.1c0-1.1.9-2.1 2.1-2.1h0c1.1 0 2.1.9 2.1 2.1v39.1c0 1.1-.9 2.1-2.1 2.1z"/><path id="J" d="M546.1 196c0 .1-17.8.3-39.7.3s-39.7-.1-39.7-.3c0-.1 17.8-.3 39.7-.3l39.7.3z"/><path id="K" d="M244.8 44.7c7.7-6 14.5-13.5 23.3-17.7 15.2-7.2 33.1-3.6 49.3.9s33.3 9.6 49.5 5.1c15-4.3 26.9-17.4 30.3-32.6H118.9c3.7 30.8 26.9 56.2 57.7 61.5l1.9.3c23.3 3.5 47.8-3 66.3-17.5z"/><path id="L" d="M433.7 29c7.8 7.1 19.3 9 29.8 7.8 7.1-.8 14.3-3.1 19.4-8 5.8-5.6 8.2-14.3 6.6-22.3-.4-2.1-1.1-4.1-2-6.1h-58c-6.4 8.4-3.6 21.5 4.2 28.6z"/><path id="M" d="M380.9 104.7c0-2.7 1.4-4.3 3.4-4.3s3.4 1.6 3.4 4.3-1.4 4.3-3.4 4.3-3.4-1.6-3.4-4.3zm5.9 0c0-2.3-1-3.5-2.5-3.5s-2.5 1.3-2.5 3.5c0 2.3 1 3.5 2.5 3.5s2.5-1.3 2.5-3.5z"/><path id="N" d="M410.9 108.1v.8h-6v-.6l3.6-3.5c1-1 1.1-1.5 1.1-2.1 0-1-.7-1.6-2-1.6-1 0-1.8.3-2.3 1l-.6-.5c.7-.8 1.7-1.2 3-1.2 1.7 0 2.8.9 2.8 2.3 0 .8-.3 1.5-1.4 2.7l-2.9 2.9h4.7z"/><path id="O" d="M288.8 107.1c0-2.7 1.4-4.3 3.4-4.3s3.4 1.6 3.4 4.3-1.4 4.3-3.4 4.3-3.4-1.6-3.4-4.3zm5.9 0c0-2.3-1-3.5-2.5-3.5s-2.5 1.3-2.5 3.5c0 2.3 1 3.5 2.5 3.5s2.5-1.2 2.5-3.5z"/></defs></svg>