<svg xmlns="http://www.w3.org/2000/svg" baseProfile="basic" width="180" height="60"><path fill="#3f3f3f" d="M83.26 33.82v4.372c0 .772-.257 1.286-.514 1.543s-.772.514-1.286.514-1.03-.257-1.286-.514-.514-1.03-.514-1.543v-7.46c0-.514-.257-.772-.514-1.03s-.772-.514-1.286-.514c-1.03 0-1.8.257-2.058 1.03s-.514 1.8-.514 3.343v4.63c0 .772-.257 1.286-.514 1.543s-.772.514-1.286.514-1.03-.257-1.286-.514c0-.514-.257-1.03-.257-1.543v-9.516c0-.514.257-1.03.514-1.543s.772-.514 1.03-.514c.514 0 .772.257 1.03.514s.514.772.514 1.286v.257c.772-.772 1.286-1.286 2.058-1.543s1.286-.514 2.315-.514c.772 0 1.543.257 2.058.514s1.03.772 1.543 1.543c.514-.772 1.286-1.286 1.8-1.543s1.286-.514 2.058-.514c1.03 0 1.8.257 2.315.514.772.257 1.03.772 1.543 1.543.257.514.514 1.543.514 2.83v6.687c0 .772-.257 1.286-.514 1.543s-.772.514-1.286.514-1.03-.257-1.286-.514-.514-.772-.514-1.543v-7.46c0-.514-.257-.772-.514-1.03s-.772-.514-1.286-.514-.772.257-1.286.514c-.46.202-.827.57-1.03 1.03-.26.516-.26 1.545-.26 3.088zm12.602-8.744c-.514 0-.772-.257-1.286-.514-.257-.257-.514-.772-.514-1.286s.257-.772.514-1.286c.257-.257.772-.514 1.286-.514s.772.257 1.03.514.514.772.514 1.286-.257 1.03-.514 1.286c-.257.514-.515.514-1.03.514zm1.8 3.6v9.516c0 .772-.257 1.286-.514 1.543s-.772.514-1.286.514-.772-.257-1.286-.514-.257-.772-.257-1.543v-9.516c0-.772.257-1.03.514-1.543.257-.257.772-.514 1.286-.514s.772.257 1.286.514c0 .257.257.772.257 1.543zm6.43-.257v.514c.514-.772 1.286-1.286 1.8-1.8.772-.257 1.543-.514 2.315-.514s1.543.257 2.315.514 1.286 1.03 1.543 1.543.257.772.514 1.286v8.23c0 .772-.257 1.286-.514 1.543s-.772.514-1.286.514-.772-.257-1.286-.514c-.257-.257-.514-.772-.514-1.543v-5.658c0-1.03-.257-2.058-.514-2.572s-1.03-.772-1.8-.772c-.514 0-1.03.257-1.543.514s-.772.772-1.03 1.543c-.257.514-.257 1.543-.257 2.83v4.115c0 .772-.257 1.286-.514 1.543s-.772.514-1.286.514-.772-.257-1.286-.514-.514-.772-.514-1.543v-9.516c0-.514.257-1.03.514-1.543a1.95 1.95 0 0 1 1.029-.514c.257 0 .514 0 .772.257s.514.257.514.514c.77.516 1.027.773 1.027 1.03zm21.347 5.915H119c0 .772.257 1.543.514 2.058a3.1 3.1 0 0 0 1.286 1.286c.514.257 1.03.514 1.543.514s.772 0 1.03-.257a1.96 1.96 0 0 0 1.029-.514c.257-.257.514-.514.772-.514l1.03-1.03c.257-.257.514-.257.772-.257s.514 0 .772.257.257.514.257.772 0 .772-.257 1.03c-.257.514-.514.772-1.03 1.286-.514.257-1.03.772-1.8 1.03s-1.543.257-2.572.257c-2.058 0-3.858-.514-4.887-1.8-1.286-1.286-1.8-2.83-1.8-4.887 0-1.03.257-1.8.514-2.83.257-.772.772-1.543 1.286-2.058a5.6 5.6 0 0 1 2.058-1.286c.772-.257 1.8-.514 2.83-.514 1.286 0 2.315.257 3.343.772s1.543 1.286 2.058 2.058a4.96 4.96 0 0 1 .772 2.572c0 .772-.257 1.286-.772 1.543-.773.255-1.544.512-2.316.512zm-6.687-2.057h5.915a3.93 3.93 0 0 0-1.029-2.572c-.514-.514-1.286-.772-2.058-.772s-1.543.257-2.058.772c.002 0-.77 2.572-.77 2.572zm15.43 3.086v2.83c0 .772-.257 1.286-.514 1.543s-.772.514-1.286.514-.772-.257-1.286-.514-.514-.772-.514-1.543v-9.26c0-1.543.514-2.315 1.543-2.315.514 0 1.03.257 1.286.514s.257.772.514 1.543c.514-.772.772-1.286 1.286-1.543s1.03-.514 1.8-.514 1.286.257 2.058.514 1.03.772 1.03 1.286-.257.772-.514 1.03-.514.514-1.03.514c0 0-.514 0-.772-.257-.514-.257-.772-.257-1.286-.257s-.772 0-1.286.257c-.257.257-.514.514-.772 1.03s-.257 1.03-.257 1.8v2.83zm9.774-6.687l2.572 7.46 2.83-7.973c.257-.514.514-1.03.772-1.286s.514-.514 1.03-.514.772.257 1.03.514.514.514.514 1.03v.514c0 .257 0 .257-.257.514 0 .257-.257.257-.257.514l-3.086 8.23c0 .257-.257.514-.257.772-.257.257-.257.772-.514.772-.257.257-.514.514-.772.514-.257.257-.514.257-1.03.257s-.772 0-1.03-.257-.514-.514-.514-.772c-.257-.257-.257-.772-.772-1.543l-3.086-7.716c0-.257-.257-.514-.257-.514 0-.257-.257-.514-.257-.514v-.514c0-.257 0-.514.257-.772s.257-.514.514-.514c.257-.257.514-.257.772-.257.514 0 1.03.257 1.03.514.255.257.513.772.77 1.543zm19.29 9.774c-.772.514-1.543 1.03-2.315 1.286s-1.543.514-2.572.514c-.772 0-1.543-.257-2.315-.514s-1.03-.772-1.543-1.286c-.257-.514-.514-1.286-.514-1.8 0-1.03.257-1.8.772-2.315s1.286-1.03 2.315-1.286c.257 0 .772-.257 1.543-.257s1.543-.257 2.058-.514 1.286-.257 2.058-.514c0-.772-.257-1.543-.514-2.058s-1.03-.514-2.058-.514c-.772 0-1.543 0-1.8.257-.46.202-.827.57-1.03 1.03-.257.514-.514.772-.772 1.03 0 .257-.514.257-.772.257s-.772 0-1.03-.257-.514-.514-.514-1.03.257-1.03.514-1.8c.514-.514 1.03-1.03 2.058-1.286a11.39 11.39 0 0 1 3.343-.514c1.543 0 2.572.257 3.343.514s1.543.772 1.8 1.543c.34.994.513 2.036.514 3.086v3.858c0 .514 0 1.286.257 2.058s.257 1.03.257 1.286c-.153.78-.763 1.39-1.543 1.543a1.96 1.96 0 0 1-1.029-.514c.001-.774-.256-1.288-.513-1.802h0zM163 33.563c-.514.257-1.286.257-2.058.514-1.03.257-1.543.257-2.058.514-.78.153-1.39.763-1.543 1.543 0 .514.257 1.03.514 1.286s.772.514 1.543.514 1.286-.257 1.8-.514 1.03-.772 1.286-1.03c.257-.514.514-1.286.514-2.572.002.001.002-.256.002-.256z"/><path fill="#b8b8b8" d="M20.312 46.994c-4.96-7.577.413-19.7 11.847-27.138s24.658-7.44 29.618 0c.964 1.378 1.515 3.03 1.653 4.684.69-3.72.276-7.3-1.653-10.194-5.373-8.265-19.975-8.265-32.648 0-12.536 8.128-18.46 21.5-13.087 29.755 1.378 2.066 3.444 3.72 5.786 4.684-.55-.55-1.102-1.102-1.516-1.79z"/><path fill="#f7c435" d="M61.777 14.208C57.644 7.87 48 6.356 38.083 9.8c5.097-.69 9.643.69 11.847 3.995 3.72 5.648-.276 14.878-8.954 20.526s-18.597 5.648-22.317 0c-1.653-2.617-1.79-5.924-.413-9.367-4.408 6.75-5.5 14.05-2.066 19.148 5.373 8.265 19.975 8.265 32.648 0 12.536-8.266 18.322-21.63 12.95-29.894z"/></svg>