<?xml version="1.0" encoding="utf-8"?>
<!-- Generator: Adobe Illustrator 23.1.0, SVG Export Plug-In . SVG Version: 6.00 Build 0)  -->
<!DOCTYPE svg PUBLIC "-//W3C//DTD SVG 1.1//EN" "http://www.w3.org/Graphics/SVG/1.1/DTD/svg11.dtd" [
	<!ENTITY ns_extend "http://ns.adobe.com/Extensibility/1.0/">
	<!ENTITY ns_ai "http://ns.adobe.com/AdobeIllustrator/10.0/">
	<!ENTITY ns_graphs "http://ns.adobe.com/Graphs/1.0/">
	<!ENTITY ns_vars "http://ns.adobe.com/Variables/1.0/">
	<!ENTITY ns_imrep "http://ns.adobe.com/ImageReplacement/1.0/">
	<!ENTITY ns_sfw "http://ns.adobe.com/SaveForWeb/1.0/">
	<!ENTITY ns_custom "http://ns.adobe.com/GenericCustomNamespace/1.0/">
	<!ENTITY ns_adobe_xpath "http://ns.adobe.com/XPath/1.0/">
]>
<svg version="1.1" id="Layer_1" xmlns:x="&ns_extend;" xmlns:i="&ns_ai;" xmlns:graph="&ns_graphs;"
	 xmlns="http://www.w3.org/2000/svg" xmlns:xlink="http://www.w3.org/1999/xlink" x="0px" y="0px" width="601.5px" height="374.4px"
	 viewBox="0 0 601.5 374.4" style="enable-background:new 0 0 601.5 374.4;" xml:space="preserve">
<style type="text/css">
	.st0{fill:#C0D298;}
	.st1{fill:#FFFFFF;}
	.st2{fill:#E4F2E9;}
	.st3{fill:#FF6E7D;}
	.st4{fill:#AFD3C1;}
	.st5{fill:#828E54;}
	.st6{fill:#264637;}
	.st7{fill:#9DBBA3;}
	.st8{fill:#A7B77D;}
	.st9{fill:#D6E7DD;}
	.st10{clip-path:url(#SVGID_2_);}
	.st11{fill:#5E804E;}
	.st12{clip-path:url(#SVGID_4_);}
	.st13{fill:#486B36;}
	.st14{clip-path:url(#SVGID_6_);}
	.st15{fill:#E1FFF0;}
	.st16{clip-path:url(#SVGID_8_);}
	.st17{clip-path:url(#SVGID_10_);}
	.st18{clip-path:url(#SVGID_12_);}
	.st19{clip-path:url(#SVGID_14_);}
	.st20{fill:#99B5A4;}
</style>
<metadata>
	<sfw  xmlns="&ns_sfw;">
		<slices></slices>
		<sliceSourceBounds  bottomLeftOrigin="true" height="326.8" width="395.7" x="-24.6" y="-23.1"></sliceSourceBounds>
		<optimizationSettings>
			<targetSettings  fileFormat="JPEGFormat" targetSettingsID="0">
				
					<JPEGFormat  blurAmount="0" embedICCProfile="false" matteColor="#FFFFFF" noMatteColor="false" optimized="true" progressive="true" quality="97">
					</JPEGFormat>
			</targetSettings>
		</optimizationSettings>
	</sfw>
</metadata>
<g id="BACKGROUND">
</g>
<g id="OBJECTS">
	<g>
		<g>
			<g>
				<path class="st0" d="M-23.9,220c6-12.7,10.5-24.6,11.2-38.8c0.7-18.7-3-34.4,0.7-53c4.5-20.9,13.4-47.1,35.9-55.3
					c6.7-2.2,23.2-5.2,24.6,4.5c1.5,7.5-12.7,14.9-17.9,19.4c-10.5,9.7-22.4,19.4-16.4,35.1c3.7,12.7,14.2,20.2,12,34.4
					c-3.7,22.4-31.4,47.1-50.8,56.8"/>
			</g>
			<path class="st1" d="M12.7,88.2c-2.4,0-2.4,3.7,0,3.7S15.1,88.2,12.7,88.2z"/>
			<path class="st1" d="M26.1,78.5c-2.4,0-2.4,3.7,0,3.7S28.6,78.5,26.1,78.5z"/>
			<path class="st1" d="M23.2,91.2c-2.4,0-2.4,3.7,0,3.7S25.6,91.2,23.2,91.2z"/>
			<path class="st1" d="M39.6,77.7c-2.4,0-2.4,3.7,0,3.7S42,77.7,39.6,77.7z"/>
			<path class="st1" d="M12,105.3c-2.4,0-2.4,3.7,0,3.7S14.4,105.3,12,105.3z"/>
			<path class="st1" d="M-5.2,110.6c-2.4,0-2.4,3.7,0,3.7S-2.8,110.6-5.2,110.6z"/>
			<path class="st1" d="M6.7,127c-2.4,0-2.4,3.7,0,3.7S9.1,127,6.7,127z"/>
			<path class="st1" d="M-8.2,134.5c-2.4,0-2.4,3.7,0,3.7S-5.8,134.5-8.2,134.5z"/>
			<path class="st1" d="M12,141.9c-2.4,0-2.4,3.7,0,3.7S14.4,141.9,12,141.9z"/>
			<path class="st1" d="M6,156.9c-2.4,0-2.4,3.7,0,3.7C8.4,160.6,8.4,156.9,6,156.9z"/>
			<path class="st1" d="M-6,163.6c-2.4,0-2.4,3.7,0,3.7S-3.6,163.6-6,163.6z"/>
			<path class="st1" d="M17.2,166.6c-2.4,0-2.4,3.7,0,3.7S19.6,166.6,17.2,166.6z"/>
			<path class="st1" d="M9,181.5c-2.4,0-2.4,3.7,0,3.7C11.4,185.3,11.4,181.5,9,181.5z"/>
			<path class="st1" d="M-7.5,185.3c-2.4,0-2.4,3.7,0,3.7S-5.1,185.3-7.5,185.3z"/>
			<path class="st1" d="M-9,203.2c-2.4,0-2.4,3.7,0,3.7C-6.5,206.9-6.5,203.2-9,203.2z"/>
		</g>
		<g>
			<path class="st2" d="M369.4,379.8c1.3-6.5,1.9-13.1,1.7-19.5c-1.5-30.6-24.6-28.4-47.8-29.9c-35.9-2.2-14.9-27.6-18.7-50
				c-3.7-26.9-35.9-12.7-50.8-3.7c-9,5.2-20.9,20.2-31.4,12.7c-8.2-5.2-4.5-21.7-7.5-29.9c-7.5-25.4-31.4-24.6-51.5-13.4
				c-23.2,12-32.1,34.4-44.8,56c-8.2,13.4-15.7,27.6-25.4,40.3c-9.3,12.1-21.9,22.9-28.2,37.4H369.4z"/>
		</g>
		<g>
			<g>
				<path class="st3" d="M281.2,386.4c-4.5-13.4-9.5-29.9-8.5-44.3c1-16.9,14.4-17.4,26.9-9.5c-3.5-7-7-19.4-3-27.4
					c5-9.5,14.4-4,21.4,1c1.5-8,4-32.9,17.4-30.4s0,29.9-2,37.3c5.5-2,25.9-12,23.4,1c-1.5,9-14.9,14.9-18.4,23.4
					c7.5,0.5,17.9-1,15.4,9.5c-2,8.5-13.9,15.9-19.9,21.4c-12,10-24.4,21.4-37.8,28.9"/>
			</g>
			<g>
				<g>
					<path class="st4" d="M331.4,284.6c-1.5,15.2-6.1,30.1-11.9,44.2c-2.8,7-5.9,14-9.5,20.6c-3.5,6.7-7.7,13-11.6,19.5
						c-4.3,7.1-8.4,14.5-10.9,22.5c-0.3,1.1,1.4,1.5,1.7,0.5c4.4-14.6,14.2-26.9,21.5-40.1c3.6-6.5,6.6-13.4,9.5-20.2
						c3-7.2,5.7-14.5,7.9-22c2.4-8.1,4.2-16.4,5-24.9C333.2,283.5,331.5,283.5,331.4,284.6L331.4,284.6z"/>
				</g>
			</g>
			<g>
				<g>
					<path class="st4" d="M315.1,315c2.4,4.9,2.8,10.5,5,15.4c0.2,0.4,0.8,0.6,1.2,0.3c4.6-3.1,9-6.4,14.2-8.4
						c1-0.4,0.6-2.1-0.5-1.7c-5.4,2-9.9,5.4-14.6,8.6c0.4,0.1,0.8,0.2,1.2,0.3c-2.2-5-2.6-10.5-5-15.4
						C316.1,313.1,314.6,313.9,315.1,315L315.1,315z"/>
				</g>
			</g>
			<g>
				<g>
					<path class="st4" d="M305.6,325.4c3.3,6.2,5.9,12.7,6.9,19.7c0.1,0.4,0.7,0.8,1.1,0.6c6.1-2.6,12.4-6.4,19.2-6.4
						c1.1,0,1.1-1.8,0-1.8c-7,0.1-13.3,3.9-19.7,6.5c0.4,0.2,0.7,0.4,1.1,0.6c-1.1-7.1-3.7-13.8-7.1-20.1
						C306.6,323.5,305.1,324.4,305.6,325.4L305.6,325.4z"/>
				</g>
			</g>
			<g>
				<g>
					<path class="st4" d="M297.1,339.6c2.4,7.2,4.5,14.5,6.5,21.9c0.1,0.5,0.6,0.7,1.1,0.6c9.9-1.7,19.6-4.7,28.9-8.5
						c1-0.4,0.6-2.1-0.5-1.7c-9.3,3.8-19,6.8-28.9,8.5c0.4,0.2,0.7,0.4,1.1,0.6c-2-7.4-4.1-14.7-6.5-21.9
						C298.4,338.1,296.7,338.6,297.1,339.6L297.1,339.6z"/>
				</g>
			</g>
			<g>
				<g>
					<path class="st4" d="M290.1,356.6c1.5,4.6,1,9.6,2.1,14.3c0.5,2.1,1.4,4.1,3.2,5.5c1.6,1.2,3.6,1.3,5.5,1
						c2.7-0.4,5.2-1.1,7.9-1.2c1.1,0,1.1-1.8,0-1.8c-2.2,0-4.4,0.5-6.6,0.9c-1.7,0.3-3.7,0.7-5.3-0.1c-1.9-0.9-2.7-2.9-3.1-4.9
						c-0.5-2.3-0.7-4.7-0.9-7c-0.2-2.4-0.4-4.9-1.2-7.2C291.4,355,289.7,355.5,290.1,356.6L290.1,356.6z"/>
				</g>
			</g>
		</g>
		<g>
			<g>
				<path class="st4" d="M131.7,397.5c0.3-33.5,20.9-72.2,36.4-101.7c14-26.7,20.4-38.6,45.8-62.4c-8.8,19.4-14.2,32.2-22.9,50.3
					c-9.7,20-18.7,39.7-28.7,59c8.8-20.5,25.8-39.4,39.3-57.4c12.7-17.7,28.7-40.3,46-53.1c0.1,16.3-27.5,46.9-37.5,60.8
					c-15,20.7-28.6,43.4-41.7,65.1c38.5-30.7,64.7-87.4,110.2-110c-10.2,20.9-29.9,41.4-45,59.1c-14.7,19.1-37,35.7-47.8,57.5
					c20.2-16,40.6-31.3,62.4-44.7c17.2-10.5,23.5-16.2,42-24.7c-28,26.8-40.5,48.4-73.8,67.5c-25.4,14.4-51.1,19.6-79,27.8"/>
			</g>
			<g>
				<g>
					<path class="st1" d="M170.4,331.5c1.9,1.5,3.5,3.5,5.8,4.6c0.4,0.2,1,0.1,1.2-0.3s0.1-1-0.3-1.2c-0.5-0.3-1.1-0.6-1.5-0.9
						c-0.2-0.1-0.3-0.3-0.6-0.5c-0.2-0.2-0.5-0.4-0.7-0.6c-0.9-0.8-1.7-1.6-2.6-2.4c-0.4-0.3-0.9-0.4-1.2,0
						C170.1,330.6,170.1,331.2,170.4,331.5L170.4,331.5z"/>
				</g>
			</g>
			<g>
				<g>
					<path class="st1" d="M183,315.7c1.2,1.6,2.7,2.8,4.4,3.7c0.4,0.2,1,0.1,1.2-0.3s0.1-1-0.3-1.2c-0.4-0.2-0.7-0.4-1.1-0.6
						c-0.2-0.1-0.4-0.2-0.5-0.4c-0.1-0.1-0.2-0.1-0.2-0.2c0,0-0.2-0.1-0.1-0.1c0.1,0.1-0.1-0.1-0.1-0.1c-0.3-0.3-0.7-0.6-1-0.9
						c-0.2-0.2-0.3-0.3-0.5-0.5c-0.1-0.1-0.2-0.2-0.2-0.3l-0.1-0.1c-0.2-0.2,0.1,0.1,0,0c-0.1-0.2-0.3-0.3-0.5-0.4s-0.5,0-0.7,0.1
						C182.9,314.7,182.7,315.3,183,315.7L183,315.7z"/>
				</g>
			</g>
			<g>
				<g>
					<path class="st1" d="M193.9,303.5c1.3,1.2,2.7,2.3,4.3,3.1c0.4,0.2,1,0.1,1.2-0.3s0.1-1-0.3-1.2c-0.8-0.4-1.5-0.8-2.2-1.3
						c-0.1-0.1-0.2-0.1-0.2-0.2c-0.1,0-0.1-0.1,0,0l-0.1-0.1c-0.2-0.1-0.3-0.3-0.5-0.4c-0.3-0.3-0.6-0.6-0.9-0.8
						c-0.3-0.3-0.9-0.3-1.2,0C193.6,302.6,193.6,303.2,193.9,303.5L193.9,303.5z"/>
				</g>
			</g>
			<g>
				<g>
					<path class="st1" d="M205.8,287.6c0.4,0.8,1,1.5,1.7,2c0.6,0.5,1.4,0.8,2.2,1c0.4,0.1,1-0.1,1.1-0.6s-0.1-1-0.6-1.1
						c-0.2,0-0.4-0.1-0.5-0.2c-0.1,0-0.2-0.1-0.2-0.1s-0.1,0-0.1-0.1c0.3,0.1,0.1,0,0,0c-0.3-0.1-0.6-0.3-0.9-0.5
						c-0.1-0.1,0.2,0.1,0,0c0,0-0.1,0-0.1-0.1c-0.1-0.1-0.1-0.1-0.2-0.2c-0.1-0.1-0.3-0.3-0.4-0.4c0,0-0.1-0.1,0,0s0,0,0,0
						c-0.1-0.1-0.1-0.1-0.1-0.2c-0.1-0.2-0.2-0.3-0.3-0.5c-0.2-0.4-0.8-0.6-1.2-0.3C205.7,286.7,205.5,287.2,205.8,287.6
						L205.8,287.6z"/>
				</g>
			</g>
			<g>
				<g>
					<path class="st1" d="M215.8,271.6c0.8,1.7,2.4,2.9,4,3.7c0.4,0.2,1,0.1,1.2-0.3s0.1-1-0.3-1.2c-0.4-0.2-0.7-0.4-1.1-0.6
						c-0.2-0.1-0.3-0.2-0.5-0.3l-0.1-0.1c-0.1-0.1,0.1,0.1,0,0c-0.1-0.1-0.2-0.1-0.3-0.2c-0.3-0.3-0.6-0.6-0.9-0.9l-0.1-0.1
						c-0.1-0.1,0.1,0.1,0,0s-0.1-0.2-0.2-0.2c-0.1-0.2-0.2-0.4-0.3-0.6c-0.2-0.4-0.8-0.6-1.2-0.3
						C215.7,270.7,215.6,271.2,215.8,271.6L215.8,271.6z"/>
				</g>
			</g>
			<g>
				<g>
					<path class="st1" d="M225.9,257.4c0.6,0.9,1.3,1.8,2.1,2.5s1.8,1.3,2.7,1.9c0.4,0.2,1,0.1,1.2-0.3c0.2-0.4,0.1-0.9-0.3-1.2
						c-0.4-0.3-0.9-0.5-1.3-0.8c-0.1-0.1-0.2-0.1-0.3-0.2c-0.1,0-0.1-0.1-0.2-0.1c0,0-0.2-0.1-0.1-0.1c0.1,0.1-0.1,0-0.1-0.1
						c-0.1,0-0.1-0.1-0.2-0.1c-0.1-0.1-0.2-0.2-0.3-0.2c-0.4-0.3-0.7-0.7-1-1c-0.1-0.1-0.1-0.2-0.2-0.3c-0.1-0.2,0.1,0.1,0,0
						c0-0.1-0.1-0.1-0.1-0.2c-0.2-0.2-0.3-0.4-0.4-0.7c-0.2-0.4-0.8-0.6-1.2-0.3C225.8,256.5,225.7,257,225.9,257.4L225.9,257.4z"/>
				</g>
			</g>
			<g>
				<g>
					<path class="st1" d="M235.6,245.1c0.4,0.6,0.9,1.2,1.4,1.8c0.2,0.3,0.5,0.5,0.7,0.8l0.1,0.1c0,0,0.1,0.2,0,0.1
						c-0.1-0.1,0,0,0,0s0,0.1,0.1,0.1c0.1,0.1,0.2,0.3,0.3,0.4c0.3,0.4,0.8,0.6,1.2,0.3c0.4-0.2,0.6-0.8,0.3-1.2
						c-0.4-0.6-0.9-1.2-1.4-1.8c-0.2-0.3-0.5-0.5-0.7-0.8l-0.1-0.1c0,0-0.1-0.2,0-0.1c0.1,0.1,0,0,0,0s0-0.1-0.1-0.1
						c-0.1-0.1-0.2-0.3-0.3-0.4c-0.3-0.4-0.8-0.6-1.2-0.3C235.6,244.1,235.4,244.7,235.6,245.1L235.6,245.1z"/>
				</g>
			</g>
			<g>
				<g>
					<path class="st1" d="M197.5,333.2c1.2,1.6,2.7,2.8,4.4,3.7c0.4,0.2,1,0.1,1.2-0.3s0.1-1-0.3-1.2c-0.4-0.2-0.7-0.4-1.1-0.6
						c-0.2-0.1-0.4-0.2-0.5-0.4c-0.1-0.1-0.2-0.1-0.2-0.2c0,0-0.2-0.1-0.1-0.1c0.1,0.1-0.1-0.1-0.1-0.1c-0.3-0.3-0.7-0.6-1-0.9
						c-0.2-0.2-0.3-0.3-0.5-0.5c-0.1-0.1-0.2-0.2-0.2-0.3l-0.1-0.1c-0.2-0.2,0.1,0.1,0,0c-0.1-0.2-0.3-0.3-0.5-0.4s-0.5,0-0.7,0.1
						C197.5,332.2,197.3,332.8,197.5,333.2L197.5,333.2z"/>
				</g>
			</g>
			<g>
				<g>
					<path class="st1" d="M206.3,323.3c1.6,1.6,3.5,2.7,5.4,3.9c0.4,0.2,1,0.1,1.2-0.3s0.1-0.9-0.3-1.2c-0.9-0.5-1.8-1.1-2.7-1.7
						c-0.2-0.1-0.4-0.3-0.6-0.4c-0.1-0.1-0.2-0.2-0.3-0.2c-0.1-0.1,0.1,0.1,0,0l-0.1-0.1c-0.4-0.3-0.8-0.7-1.2-1.1
						c-0.3-0.3-0.9-0.3-1.2,0C206,322.4,205.9,323,206.3,323.3L206.3,323.3z"/>
				</g>
			</g>
			<g>
				<g>
					<path class="st1" d="M217.3,308.9c1.3,1.7,2.7,3.2,4.4,4.4c0.4,0.3,1,0.1,1.2-0.3c0.2-0.5,0.1-0.9-0.3-1.2l-0.1-0.1
						c-0.1-0.1,0.2,0.1,0,0c-0.1-0.1-0.2-0.1-0.3-0.2c-0.2-0.1-0.4-0.3-0.5-0.5c-0.4-0.3-0.7-0.6-1.1-1c-0.3-0.3-0.7-0.7-1-1
						c-0.2-0.2-0.3-0.4-0.5-0.5c-0.1-0.1-0.2-0.2-0.2-0.3c-0.1-0.1,0-0.1,0,0c0-0.1-0.1-0.1-0.1-0.2c-0.1-0.2-0.3-0.3-0.5-0.4
						s-0.5,0-0.7,0.1C217.3,308,217,308.5,217.3,308.9L217.3,308.9z"/>
				</g>
			</g>
			<g>
				<g>
					<path class="st1" d="M228.7,296c1.6,1.6,3.1,3.1,4.9,4.5c0.4,0.3,0.9,0.4,1.2,0c0.3-0.3,0.4-0.9,0-1.2
						c-1.7-1.4-3.3-2.9-4.9-4.5c-0.3-0.3-0.9-0.3-1.2,0C228.4,295.2,228.3,295.7,228.7,296L228.7,296z"/>
				</g>
			</g>
			<g>
				<g>
					<path class="st1" d="M238.4,283.7c1.5,1.9,3.4,3.4,5.2,4.9c0.4,0.3,0.9,0.4,1.2,0c0.3-0.3,0.4-0.9,0-1.2
						c-1.9-1.5-3.7-3-5.2-4.9c-0.3-0.4-0.9-0.3-1.2,0C238,282.9,238.1,283.3,238.4,283.7L238.4,283.7z"/>
				</g>
			</g>
			<g>
				<g>
					<path class="st1" d="M249.6,275.1c1.2,1.2,2.5,2.4,3.9,3.5c0.2,0.1,0.5,0.1,0.7,0.1c0.2-0.1,0.4-0.2,0.5-0.4
						c0.2-0.5,0.1-0.9-0.3-1.2l-0.1-0.1c0,0-0.2-0.1,0,0c-0.1-0.1-0.2-0.1-0.3-0.2c-0.2-0.1-0.3-0.3-0.5-0.4
						c-0.3-0.3-0.6-0.6-0.9-0.8c-0.6-0.5-1.1-1.1-1.7-1.7c-0.3-0.3-0.9-0.3-1.2,0C249.3,274.2,249.2,274.8,249.6,275.1L249.6,275.1z
						"/>
				</g>
			</g>
			<g>
				<g>
					<path class="st1" d="M261.3,262.6c1.1,0.7,2.3,1.2,3.4,1.9c0.4,0.3,1,0.1,1.2-0.3c0.2-0.4,0.1-0.9-0.3-1.2
						c-1.1-0.7-2.3-1.2-3.4-1.9c-0.4-0.3-1-0.1-1.2,0.3C260.8,261.8,260.9,262.3,261.3,262.6L261.3,262.6z"/>
				</g>
			</g>
			<g>
				<g>
					<path class="st1" d="M202.9,356.5c1.5,1.5,2.8,3.1,4.5,4.5c0.4,0.3,0.9,0.4,1.2,0c0.3-0.3,0.4-0.9,0-1.2c-1.7-1.3-3-3-4.5-4.5
						c-0.3-0.3-0.9-0.3-1.2,0C202.6,355.7,202.6,356.2,202.9,356.5L202.9,356.5z"/>
				</g>
			</g>
			<g>
				<g>
					<path class="st1" d="M217.7,346.7c0.9,1.8,2.1,3.6,3.5,5c0.3,0.3,0.9,0.3,1.2,0c0.3-0.4,0.3-0.9,0-1.2c-0.4-0.4-0.7-0.7-1-1.1
						c0-0.1-0.1-0.1-0.1-0.2c-0.1-0.1,0.1,0.1,0,0s-0.2-0.2-0.2-0.3c-0.2-0.2-0.3-0.4-0.4-0.6c-0.5-0.8-1-1.6-1.4-2.4
						c-0.2-0.4-0.8-0.6-1.2-0.3C217.6,345.7,217.5,346.2,217.7,346.7L217.7,346.7z"/>
				</g>
			</g>
			<g>
				<g>
					<path class="st1" d="M231.2,336.9c1.2,2,2.8,3.6,4.2,5.4c0.3,0.4,0.9,0.3,1.2,0c0.3-0.4,0.3-0.9,0-1.2
						c-0.7-0.9-1.4-1.7-2.2-2.6c-0.7-0.8-1.2-1.5-1.8-2.5c-0.2-0.4-0.8-0.6-1.2-0.3C231.1,336,230.9,336.5,231.2,336.9L231.2,336.9z
						"/>
				</g>
			</g>
			<g>
				<g>
					<path class="st1" d="M245.3,328.1c0.5,1.6,2,2.8,3.6,3.2c0.4,0.1,1-0.1,1.1-0.6s-0.1-1-0.6-1.1c-0.2,0-0.4-0.1-0.5-0.2
						s0,0,0.1,0c0,0-0.1,0-0.1-0.1c-0.1,0-0.2-0.1-0.2-0.1c-0.2-0.1-0.3-0.2-0.4-0.3c0,0-0.1,0-0.1-0.1c-0.1-0.1,0.2,0.1,0.1,0
						c-0.1-0.1-0.1-0.1-0.2-0.2c-0.1-0.1-0.2-0.2-0.3-0.3l-0.1-0.1c0,0-0.1-0.1,0,0s0,0,0,0s0-0.1-0.1-0.1c-0.1-0.1-0.2-0.3-0.2-0.4
						l-0.1-0.2c0,0,0.1,0.2,0,0.1v-0.1c-0.1-0.4-0.6-0.8-1.1-0.6C245.4,327.2,245.1,327.7,245.3,328.1L245.3,328.1z"/>
				</g>
			</g>
			<g>
				<g>
					<path class="st1" d="M256.8,317.7c0.2,0.8,0.6,1.5,1.1,2.1s1.2,1,1.9,1.4c0.4,0.2,1,0.1,1.2-0.3s0.1-1-0.3-1.2
						c-0.3-0.2-0.7-0.3-1-0.6c-0.1,0-0.1-0.1-0.2-0.1s0.2,0.2,0,0c0,0-0.1,0-0.1-0.1c-0.1-0.1-0.2-0.2-0.3-0.3
						c0-0.1-0.1-0.1-0.1-0.2c-0.1-0.1,0.1,0.2,0,0.1c0,0,0-0.1-0.1-0.1c-0.1-0.1-0.2-0.3-0.2-0.4s-0.1-0.1-0.1-0.2
						c0.1,0.3,0,0,0-0.1c-0.1-0.2-0.1-0.3-0.2-0.5c-0.1-0.4-0.6-0.8-1.1-0.6C257,316.8,256.7,317.2,256.8,317.7L256.8,317.7z"/>
				</g>
			</g>
			<g>
				<g>
					<path class="st1" d="M265.6,313.2c0.5,0.5,1.1,0.9,1.6,1.3c-0.1,0-0.1-0.1-0.2-0.1c0.3,0.2,0.5,0.4,0.8,0.7
						c0.3,0.3,0.9,0.3,1.2,0c0.3-0.3,0.3-0.9,0-1.2c-0.5-0.5-1.1-0.9-1.6-1.3c0.1,0,0.1,0.1,0.2,0.1c-0.3-0.2-0.5-0.4-0.8-0.7
						c-0.3-0.3-0.9-0.3-1.2,0S265.3,312.9,265.6,313.2L265.6,313.2z"/>
				</g>
			</g>
			<g>
				<g>
					<path class="st1" d="M161.5,324c0.4,0.4,1,0.8,1.5,1.2c0.4,0.3,0.9,0.6,1.3,0.8c0.2,0.1,0.4,0.2,0.7,0.1
						c0.2-0.1,0.4-0.2,0.5-0.4c0.2-0.4,0.1-1-0.3-1.2c-0.6-0.3-1.2-0.7-1.8-1.1c0.1,0,0.1,0.1,0.2,0.1c-0.3-0.2-0.6-0.5-0.8-0.7
						c-0.3-0.3-0.9-0.3-1.2,0C161.1,323.2,161.1,323.7,161.5,324L161.5,324z"/>
				</g>
			</g>
			<g>
				<g>
					<path class="st1" d="M170.8,302.8c1.2,1.2,2.8,2,4.5,2.5c0.4,0.1,1-0.1,1.1-0.6s-0.1-1-0.6-1.1c-0.4-0.1-0.7-0.2-1.1-0.3
						c-0.1,0-0.2-0.1-0.3-0.1c0.1,0,0.1,0,0,0c0,0-0.1,0-0.1-0.1c-0.2-0.1-0.4-0.2-0.5-0.3c-0.3-0.2-0.7-0.4-1-0.6l-0.1-0.1
						c-0.1-0.1,0,0,0,0c-0.1,0-0.1-0.1-0.2-0.2c-0.2-0.1-0.3-0.3-0.5-0.4c-0.3-0.3-0.9-0.3-1.2,0
						C170.5,301.9,170.4,302.4,170.8,302.8L170.8,302.8z"/>
				</g>
			</g>
			<g>
				<g>
					<path class="st1" d="M179.4,285.2c1.2,1.2,2.5,2.1,4.1,2.5c0.4,0.1,1-0.1,1.1-0.6s-0.1-1-0.6-1.1c-0.3-0.1-0.7-0.2-1-0.3
						c0.2,0.1,0,0-0.1,0s-0.2-0.1-0.2-0.1c-0.2-0.1-0.3-0.2-0.5-0.3c-0.1-0.1-0.3-0.2-0.4-0.3c-0.1,0-0.2-0.1-0.2-0.2
						c0,0,0.1,0.1,0,0l-0.1-0.1c-0.3-0.2-0.6-0.5-0.8-0.8c-0.3-0.3-0.9-0.3-1.2,0C179.1,284.3,179,284.9,179.4,285.2L179.4,285.2z"
						/>
				</g>
			</g>
			<g>
				<g>
					<path class="st1" d="M187,270.8c1.3,0.8,2.8,1.2,4.3,1.6c0.4,0.1,1-0.1,1.1-0.6s-0.1-1-0.6-1.1c-0.7-0.2-1.5-0.4-2.2-0.6
						c-0.2-0.1-0.3-0.1-0.5-0.2c-0.1,0-0.2-0.1-0.3-0.1c0.2,0.1-0.1,0-0.1-0.1c-0.3-0.1-0.6-0.3-0.9-0.5c-0.4-0.3-1-0.1-1.2,0.3
						C186.5,270,186.6,270.5,187,270.8L187,270.8z"/>
				</g>
			</g>
			<g>
				<g>
					<path class="st1" d="M195.8,255.7c0.9,0.9,2.1,1.3,3.2,2c0.4,0.3,1,0.1,1.2-0.3s0.1-0.9-0.3-1.2c-0.5-0.3-1.1-0.6-1.6-0.9
						c-0.2-0.1-0.5-0.3-0.7-0.4c-0.1,0-0.1-0.1-0.2-0.1c0,0-0.1,0-0.1-0.1c-0.1-0.1,0,0,0.1,0.1c-0.1-0.1-0.2-0.2-0.3-0.3
						c-0.3-0.3-0.9-0.3-1.2,0C195.5,254.8,195.5,255.4,195.8,255.7L195.8,255.7z"/>
				</g>
			</g>
			<g>
				<g>
					<path class="st1" d="M156.6,339.4c1.6,1.6,3.6,2.4,5.6,3.2c0.4,0.2,1-0.2,1.1-0.6c0.1-0.5-0.2-0.9-0.6-1.1
						c-0.2-0.1-0.5-0.2-0.7-0.3c-0.1,0-0.2-0.1-0.3-0.1c0,0-0.2-0.1-0.1,0c0.1,0-0.1,0-0.1,0c-0.5-0.2-0.9-0.4-1.3-0.6
						c-0.4-0.2-0.8-0.5-1.2-0.7c-0.1-0.1-0.2-0.1-0.3-0.2c0,0-0.1-0.1,0,0l-0.1-0.1c-0.2-0.2-0.4-0.4-0.6-0.5
						c-0.3-0.3-0.9-0.3-1.2,0C156.3,338.5,156.3,339,156.6,339.4L156.6,339.4z"/>
				</g>
			</g>
			<g>
				<g>
					<path class="st1" d="M153.8,349.6c1.5,1.1,3,2.2,4.5,3.4c0.4,0.3,1,0.1,1.2-0.3c0.2-0.5,0.1-0.9-0.3-1.2
						c-1.5-1.1-3-2.2-4.5-3.4c-0.4-0.3-1-0.1-1.2,0.3C153.2,348.8,153.4,349.3,153.8,349.6L153.8,349.6z"/>
				</g>
			</g>
			<g>
				<g>
					<path class="st1" d="M172.5,359c1.3,1.7,3,3,4.8,4c0.4,0.2,1,0.1,1.2-0.3s0.1-0.9-0.3-1.2c-0.4-0.3-0.9-0.5-1.3-0.8
						c-0.2-0.1-0.4-0.3-0.6-0.4l-0.1-0.1c0,0-0.2-0.1-0.1-0.1c0.1,0.1-0.1-0.1-0.1-0.1l-0.1-0.1c-0.4-0.3-0.7-0.6-1-0.9
						c-0.2-0.2-0.3-0.3-0.5-0.5c-0.1-0.1-0.1-0.2-0.2-0.2l-0.1-0.1c-0.1-0.1,0.1,0.1,0,0c-0.3-0.4-0.8-0.6-1.2-0.3
						C172.5,358,172.2,358.6,172.5,359L172.5,359z"/>
				</g>
			</g>
			<g>
				<g>
					<path class="st1" d="M184,351.4c0.8,0.4,1.4,1.1,2.2,1.5c0.2,0.1,0.4,0.2,0.7,0.1c0.2-0.1,0.4-0.2,0.5-0.4
						c0.2-0.4,0.1-1-0.3-1.2c-0.8-0.4-1.4-1.1-2.2-1.5c-0.2-0.1-0.4-0.2-0.7-0.1c-0.2,0.1-0.4,0.2-0.5,0.4
						C183.5,350.6,183.6,351.2,184,351.4L184,351.4z"/>
				</g>
			</g>
			<g>
				<g>
					<path class="st1" d="M147.5,359.7c1.9,2.6,4.6,4.3,7.4,5.9c1,0.6,1.9-1,0.9-1.5c-2.5-1.4-5.1-2.9-6.8-5.3
						c-0.3-0.4-0.8-0.6-1.2-0.3C147.4,358.7,147.2,359.3,147.5,359.7L147.5,359.7z"/>
				</g>
			</g>
			<g>
				<g>
					<path class="st1" d="M164.3,372.8c1.1,1.5,2.4,2.8,4,3.7c0.4,0.2,1,0.1,1.2-0.3s0.1-1-0.3-1.2c-0.4-0.2-0.7-0.4-1-0.6
						c-0.1-0.1-0.2-0.1-0.2-0.2c-0.1-0.1,0.1,0.1,0,0l-0.1-0.1c-0.2-0.1-0.3-0.3-0.5-0.4c-0.3-0.3-0.6-0.6-0.9-0.9
						c-0.1-0.2-0.3-0.3-0.4-0.5c-0.1-0.1-0.1-0.2-0.2-0.3c-0.1-0.1,0.1,0.2,0,0c0-0.1-0.1-0.1-0.1-0.2c-0.1-0.2-0.3-0.3-0.5-0.4
						s-0.5,0-0.7,0.1C164.3,371.8,164,372.4,164.3,372.8L164.3,372.8z"/>
				</g>
			</g>
			<g>
				<g>
					<path class="st1" d="M145.2,373.3c0.4,1,0.9,1.9,1.5,2.8c0.7,0.9,1.4,1.6,2.3,2.2c0.4,0.3,1,0.1,1.2-0.3
						c0.2-0.5,0.1-0.9-0.3-1.2c-0.2-0.1,0.1,0.1,0,0l-0.1-0.1c-0.1-0.1-0.2-0.1-0.3-0.2c-0.2-0.1-0.3-0.3-0.5-0.4
						c-0.2-0.2-0.3-0.3-0.4-0.5c-0.1-0.1-0.1-0.2-0.2-0.3c0,0-0.1-0.2-0.1-0.1c0.1,0.1-0.1-0.1-0.1-0.1c-0.3-0.4-0.5-0.7-0.7-1.1
						c-0.1-0.2-0.2-0.4-0.3-0.6c0-0.1-0.1-0.2-0.1-0.3c0-0.1,0-0.1-0.1-0.2c0.1,0.1,0,0,0-0.1c-0.2-0.4-0.6-0.8-1.1-0.6
						C145.4,372.4,145,372.9,145.2,373.3L145.2,373.3z"/>
				</g>
			</g>
		</g>
		<g>
			<g>
				<path class="st5" d="M26.2,265.9c-13.4-28.4,7.5-62.7,24.6-82.9c16.4-20.9,43.3-47.1,45.6-75.4c6,34.4,12,68.7-6,103.1
					C83,224.9,71,237.6,57.6,246.5c-9.7,6-23.2,9.7-30.6,17.9"/>
			</g>
			<g>
				<g>
					<path class="st0" d="M95.8,107.6c1.9,21.9-7,43.2-17.7,61.8c-5.7,9.8-12.2,19.2-18.6,28.5c-3.5,5-6.9,10.1-10.4,15.1
						c-3.3,4.7-6.8,9.3-9.6,14.3c-6,10.5-9.3,22.2-13.1,33.6c-0.3,0.8,1,1.1,1.2,0.3c3.4-10.3,6.5-20.9,11.5-30.6
						c2.7-5.2,6.1-9.9,9.4-14.6c3.5-4.9,6.9-9.9,10.3-14.9c12.6-18.4,25.6-36.9,33.1-58.1c4-11.4,6.3-23.4,5.2-35.5
						C97,106.8,95.7,106.8,95.8,107.6L95.8,107.6z"/>
				</g>
			</g>
		</g>
		<g>
			<g>
				<g>
					<g>
						<path class="st0" d="M123.2,244.4c-4.9-7.8-7.5-16.6-7.4-25.9c0.1-9.1,2.3-18,4.7-26.8c5.1-19.1,9.6-38.9,8.8-58.9
							c-0.2-5.6-0.8-11.2-1.9-16.7c-1.1-5.6-3.4-10.9-5.3-16.3c-0.3-0.8-1.5-0.4-1.2,0.3c1.7,4.8,3.6,9.5,4.9,14.4
							c1.3,5.1,1.8,10.4,2.1,15.7c0.6,10.1-0.1,20.2-1.7,30.1c-1.6,10-4,19.9-6.5,29.7c-2.3,8.7-4.6,17.6-5,26.6
							c-0.4,10.1,2.1,19.8,7.5,28.3C122.6,245.7,123.7,245.1,123.2,244.4L123.2,244.4z"/>
					</g>
				</g>
				<g>
					<g>
						<path class="st0" d="M124.1,202.9c-0.7-6.1,1.4-12.2,4.1-17.6c3-6,6.8-11.6,10.4-17.3c3.4-5.3,6.7-10.5,8.8-16.5
							c2.5-7.2,3.9-14.9,4.1-22.5c0.3-8.6-1-17.3-3.8-25.5c-0.3-0.8-1.5-0.4-1.2,0.3c5.1,14.6,5,31,0.3,45.7
							c-4,12.6-13.3,22.6-19.2,34.2c-3,5.8-5.5,12.4-4.7,19.1C123,203.6,124.2,203.7,124.1,202.9L124.1,202.9z"/>
					</g>
				</g>
				<g>
					<path class="st3" d="M127.7,103.7c-1.2,0.8-6.6,2.8-8.3,2.8c-2-6.1-10.7-34.5-7.7-34.5C115.2,72,123.4,93.5,127.7,103.7"/>
				</g>
				<g>
					<path class="st3" d="M155.9,128.4c-1.4,0.5-7.1,1.3-8.7,0.9c-0.6-6.4-2.6-36.1,0.3-35.4C150.9,94.7,153.9,117.5,155.9,128.4"/>
				</g>
			</g>
			<g>
				<g>
					<path class="st6" d="M164,202.9c-1.2-4.7-2.6-8.9-1.4-14c1.8-7.7,5.7-13.6,11.2-19.1c1,7.3,2.6,14.6-0.8,21.5
						c-2,4.5-7.9,7.9-9.1,12.2"/>
				</g>
				<g>
					<path class="st6" d="M180.2,201.5c-0.2-5.1,3.3-11.2,6.1-15c4.3-6.1,11.2-7.9,16.7-12.4c0,7.5-5.1,15.9-10.6,20.9
						c-3.5,3.5-8.3,4.1-12,7.1"/>
				</g>
				<g>
					<path class="st6" d="M193,209.2c-0.8-12.2,12.6-21.1,22.6-24.2c1.4,5.1-6.9,15.6-10.4,18.7c-3.5,3-7.7,5.7-12.4,5.9"/>
				</g>
				<g>
					<g>
						<path class="st0" d="M147.8,316.4c7.5-15.5,9.4-32.5,9.8-49.5c0.2-9,0.2-17.9,1-26.9c0.8-8.9,2.1-17.8,3.9-26.6
							c2-9.9,4.6-19.7,7.6-29.4c0.2-0.8-1-1.1-1.2-0.3c-5.3,16.8-9.2,34.1-11.1,51.7c-1,8.9-1.3,17.8-1.4,26.8
							c-0.1,8.6-0.3,17.2-1.5,25.6c-1.3,9.7-3.9,19.1-8.2,27.9C146.3,316.5,147.4,317.1,147.8,316.4L147.8,316.4z"/>
					</g>
				</g>
				<g>
					<g>
						<path class="st0" d="M159.1,233c8.1-16.7,21.4-30.5,34-43.8c0.6-0.6-0.3-1.5-0.9-0.9c-10.1,10.5-20.1,21.3-28.2,33.5
							c-2.2,3.4-4.3,6.9-6.1,10.6C157.7,233,158.8,233.7,159.1,233L159.1,233z"/>
					</g>
				</g>
				<g>
					<g>
						<path class="st0" d="M158.5,247.7c6.6-6.7,11.4-14.8,18.1-21.4c6.8-6.7,13.8-13.2,20.1-20.3c3.3-3.8,6.4-7.7,9-12.1
							c0.4-0.7-0.7-1.3-1.1-0.6c-9.6,16.1-25.7,26.8-37,41.4c-3.2,4.1-6.3,8.4-10,12.1C157.1,247.4,157.9,248.3,158.5,247.7
							L158.5,247.7z"/>
					</g>
				</g>
			</g>
			<g>
				<g>
					<g>
						<path class="st6" d="M164.1,317c4.1-3.8,9.2-6.4,13-10.5c4.1-4.3,8.2-8.7,11.8-13.4c6.6-8.5,10.8-18.3,12.9-28.8
							c1.2-5.8,1.8-11.7,1.8-17.5c0-1.1-1.7-1.1-1.8,0c0,10.4-1.9,20.9-5.7,30.5c-4.2,10.5-11.7,18.7-19.3,26.9
							c-4.2,4.5-9.6,7.5-14.1,11.6C162,316.5,163.3,317.8,164.1,317L164.1,317z"/>
					</g>
				</g>
				<g>
					<g>
						<path class="st6" d="M189.8,291.6c3-8.4,1.2-17.3,1.2-25.9c0-1.1-1.7-1.1-1.8,0c-0.2,3.9,1,7.6,1.5,11.4
							c0.5,4.1-0.4,7.8-1.2,11.7c-0.2,1.1,1.5,1.6,1.7,0.5c0.8-3.9,1.7-7.7,1.3-11.7s-1.7-7.9-1.5-11.9c-0.6,0-1.2,0-1.8,0
							c0,8.5,1.8,17.3-1.1,25.5C187.7,292.2,189.4,292.7,189.8,291.6L189.8,291.6z"/>
					</g>
				</g>
				<g>
					<g>
						<path class="st6" d="M195.8,282.3c3.7-3,6.4-7,10.1-9.9c3.6-2.7,7.9-4.3,11.9-6.2c-0.4-0.4-0.8-0.8-1.2-1.2
							c-2.8,3.9-6.9,6.8-10.9,9.3c-1.8,1.1-3.7,2.2-5.6,3.2c-2,1-4,2.1-5.6,3.7c-0.8,0.8,0.5,2.1,1.2,1.2c1.6-1.7,3.8-2.7,5.8-3.8
							c2-1.1,4-2.3,5.9-3.5c4-2.5,7.9-5.5,10.6-9.4c0.6-0.8-0.5-1.5-1.2-1.2c-4.2,2-8.5,3.6-12.2,6.4c-3.8,2.9-6.4,7-10.2,9.9
							C193.7,281.8,194.9,283,195.8,282.3L195.8,282.3z"/>
					</g>
				</g>
				<g>
					<g>
						<path class="st6" d="M200.8,268.3c-2.9-6.6-5.7-13.4-6.4-20.6c-0.1-1.1-1.8-1.1-1.8,0c0.2,3.6,2.3,6.5,3.9,9.5
							c0.8,1.6,1.5,3.2,1.6,5c0.2,1.8,0.1,3.6,0.5,5.4c0.2,1.1,1.9,0.6,1.7-0.5c-0.4-1.7-0.3-3.5-0.5-5.2s-0.7-3.2-1.4-4.7
							c-1.5-3.1-3.9-6-4.1-9.5c-0.6,0-1.2,0-1.8,0c0.7,7.6,3.6,14.6,6.6,21.5C199.7,270.2,201.3,269.3,200.8,268.3L200.8,268.3z"/>
					</g>
				</g>
				<g>
					<g>
						<path class="st6" d="M201.4,266.8c5.3-6.4,6.6-15.1,12.3-21.3c-0.5-0.2-1-0.4-1.5-0.6c-0.4,4.3-2.7,8.4-5.2,11.9
							c-1.1,1.6-2.4,3.3-3.8,4.6c-1.4,1.3-2.8,2.4-3.2,4.3c-0.3,1.1,1.4,1.6,1.7,0.5c0.5-2,2.3-2.9,3.6-4.4c1.4-1.6,2.7-3.3,3.9-5
							c2.4-3.6,4.4-7.6,4.8-11.9c0.1-0.8-1-1.2-1.5-0.6c-2.8,3.1-4.7,6.8-6.4,10.6c-1.7,3.7-3.3,7.5-5.9,10.7
							C199.4,266.4,200.6,267.7,201.4,266.8L201.4,266.8z"/>
					</g>
				</g>
				<g>
					<g>
						<path class="st6" d="M203.7,251.6c0.2-4.7-0.9-9.4-1.5-14c-0.5-4.6-1-9.9,1.6-14c-0.5-0.1-1.1-0.3-1.6-0.4
							c0.2,4.2,1.2,8.3,1.5,12.5c0.1,2,0.1,3.9-0.4,5.9c-0.5,1.9-1.1,3.7-1.6,5.7c-0.2,1.1,1.4,1.6,1.7,0.5c0.4-1.9,1.1-3.8,1.6-5.7
							s0.6-3.9,0.5-5.9c-0.3-4.4-1.3-8.6-1.6-13c0-0.9-1.1-1.2-1.6-0.4c-2.7,4.1-2.4,9.5-1.9,14.1c0.5,4.9,1.8,9.8,1.6,14.8
							C201.9,252.7,203.6,252.7,203.7,251.6L203.7,251.6z"/>
					</g>
				</g>
			</g>
			<g>
				<g>
					<g>
						<path class="st6" d="M32.1,177.2c-0.4-5.6-2.2-11-2.3-16.6c0-5.6,0-11.3,0.5-16.9c0.9-10.7,4.5-20.6,10.1-29.7
							c3.1-5,6.6-9.6,10.6-13.8c0.8-0.8-0.5-2.1-1.2-1.2c-7.2,7.6-13.1,16.6-17,26.3c-1.9,4.8-3.2,9.8-3.9,15
							c-0.8,5.9-0.8,11.9-0.8,17.8c0,3.1,0.2,6.1,0.7,9.2c0.6,3.3,1.3,6.6,1.6,10C30.5,178.3,32.2,178.3,32.1,177.2L32.1,177.2z"/>
					</g>
				</g>
				<g>
					<g>
						<path class="st6" d="M30.7,142c3.5-8,10.8-13.2,16.6-19.3c-0.4-0.4-0.8-0.8-1.2-1.2c-2.6,3.1-6.3,5-9.3,7.6
							c-3.1,2.6-4.9,6-7.1,9.4c-0.6,1,0.9,1.8,1.5,0.9c1-1.6,2-3.3,3.1-4.9s2.4-3.1,4-4.3c3-2.5,6.5-4.4,9-7.4
							c0.7-0.8-0.5-2.1-1.2-1.2c-5.9,6.3-13.4,11.5-16.9,19.7C28.7,142.1,30.2,143,30.7,142L30.7,142z"/>
					</g>
				</g>
				<g>
					<g>
						<path class="st6" d="M32.9,130c-0.7-4.9,0.2-9.8-0.7-14.7c-0.8-4.3-2.8-8.3-4.4-12.4c-0.3-0.7-1.6-1-1.7,0
							c-0.6,4.5,0.1,9.1,1.1,13.5c0.5,2.2,1.1,4.4,1.8,6.5c0.8,2.4,1.9,4.8,1.9,7.4c0,1.1,1.8,1.1,1.7,0c0-2.3-0.8-4.5-1.5-6.6
							c-0.8-2.1-1.4-4.3-2-6.5c-1.1-4.4-2.1-9.2-1.4-13.8c-0.6,0-1.1,0-1.7,0c1.6,4.1,3.6,8,4.4,12.4c0.9,4.8,0,9.8,0.7,14.7
							C31.3,131.5,33,131.1,32.9,130L32.9,130z"/>
					</g>
				</g>
				<g>
					<g>
						<path class="st6" d="M37.8,118.2c6.9-2.9,13.7-6,19.3-11c-0.4-0.4-0.8-0.8-1.2-1.2c-2.5,2.3-6.1,2.8-9.2,4
							c-1.5,0.6-2.9,1.2-4.2,2.2c-1.5,1.2-2.7,2.8-4.3,3.8c-0.9,0.6-0.1,2.1,0.9,1.5c1.6-1,2.8-2.5,4.2-3.7s3-1.9,4.7-2.5
							c3.2-1.1,6.6-1.8,9.2-4.1c0.8-0.8-0.4-2-1.2-1.2c-5.5,4.9-12.3,7.9-19,10.7C35.9,117.1,36.8,118.6,37.8,118.2L37.8,118.2z"/>
					</g>
				</g>
				<g>
					<g>
						<path class="st6" d="M39.5,115.1c0.5-8.3,5.5-15.5,5.7-23.9c0-0.7-1-1.2-1.5-0.6c-2.5,3.2-3.8,7.1-4.5,11
							c-0.4,1.9-0.6,3.9-0.7,5.8c-0.1,1.1-0.1,2.2,0,3.3c0.1,1.3,0.2,2.6-0.5,3.8c-0.6,1,1,1.9,1.5,0.9c1.2-2.1,0.6-4,0.6-6.3
							c0-2,0.2-4,0.5-6c0.7-3.9,1.8-8.1,4.3-11.3c-0.5-0.2-1-0.4-1.5-0.6c-0.2,8.3-5.2,15.6-5.7,23.9
							C37.7,116.2,39.4,116.2,39.5,115.1L39.5,115.1z"/>
					</g>
				</g>
				<g>
					<g>
						<path class="st6" d="M47.7,103.7c3.2-3.7,7.5-6.5,11.2-9.6c3.6-3,7.5-6.8,8.4-11.6c0.1-0.8-0.8-1.5-1.5-0.9
							c-3.1,2.9-6.6,5.2-9.7,8.1c-1.5,1.4-2.8,2.9-3.9,4.6c-1,1.8-1.8,3.7-2.9,5.5c-0.6,1,0.9,1.9,1.5,0.9c1-1.7,1.8-3.5,2.7-5.2
							c1.1-1.9,2.4-3.4,4-4.8c3.1-2.7,6.5-5,9.5-7.8c-0.5-0.3-1-0.6-1.5-0.9c-0.8,4.7-4.8,8.3-8.4,11.2c-3.6,3-7.7,5.6-10.8,9.2
							C45.8,103.3,47,104.6,47.7,103.7L47.7,103.7z"/>
					</g>
				</g>
			</g>
			<g>
				<path class="st7" d="M236.7,351.7c6.9-10.6,25.2-19.1,37.8-19.1c12.2,0,15.9,7.7,6.9,16.3c-6.5,6.5-15.8,7.3-24.4,7.3
					c-7.7-0.4-13.8-1.6-20.3-4.1"/>
			</g>
			<g>
				<g>
					<path class="st6" d="M278.1,337.9c-14.5,7.5-30.7,10.9-46.7,13.6c-4.4,0.7-8.8,1.4-13.2,2.1c-1.1,0.2-0.6,1.9,0.5,1.7
						c16.1-2.6,32.4-4.9,47.8-10.4c4.3-1.6,8.5-3.4,12.6-5.5C280,338.9,279.1,337.4,278.1,337.9L278.1,337.9z"/>
				</g>
			</g>
			<g>
				<g>
					<path class="st6" d="M255.5,340.6c-2,2.8-4.5,5.4-6.1,8.5c-0.3,0.6,0.1,1.2,0.8,1.3c4,0.4,7.7,2,11.6,2.8
						c1.1,0.2,1.6-1.5,0.5-1.7c-4-0.8-7.9-2.4-12-2.9c0.3,0.4,0.5,0.9,0.8,1.3c1.6-3.1,4.1-5.7,6.1-8.5
						C257.6,340.6,256.1,339.7,255.5,340.6L255.5,340.6z"/>
				</g>
			</g>
			<g>
				<g>
					<path class="st6" d="M268.5,337c-1.2,2.7-3.3,5-4.2,7.9c-0.1,0.4,0.2,1,0.6,1.1c3.3,0.8,6.5,2,9.8,2.8c1.1,0.3,1.6-1.4,0.5-1.7
						c-3.3-0.8-6.5-2-9.8-2.8c0.2,0.4,0.4,0.7,0.6,1.1c0.8-2.7,2.8-4.9,4-7.5c0.2-0.4,0.1-0.9-0.3-1.2
						C269.3,336.5,268.7,336.5,268.5,337L268.5,337z"/>
				</g>
			</g>
			<g>
				<g>
					<path class="st6" d="M151.7,358.2c25.5-9.8,30.3-39.6,50.9-55.3c9.8-7,24.4-16.3,37.4-13.5c15.2,3.8,17.9,20.6,12.5,32.5
						c-10.8,23.3-29.8,36.3-54.7,41.2c-13,2.7-34.1,3.3-45.5-4.9"/>
				</g>
				<g>
					<g>
						<path class="st7" d="M240.3,299.8c-7.8,11.8-17.8,22-28.6,31c-5.4,4.5-11,9.1-17,12.7c-5.7,3.4-12,5.8-18.3,7.7
							c-7.3,2.2-14.8,3.7-22.2,5.6c-1.1,0.3-0.6,2,0.5,1.7c13.3-3.4,26.9-5.8,39.1-12.5c6.1-3.3,11.6-7.7,16.9-12.1
							c5.6-4.6,11-9.4,16.1-14.6c5.6-5.8,10.7-11.9,15.2-18.7C242.5,299.7,241,298.8,240.3,299.8L240.3,299.8z"/>
					</g>
				</g>
				<g>
					<g>
						<path class="st7" d="M188.2,328.9c-0.6,7.2-4.2,13.8-5.4,20.9c-0.1,0.5,0.1,0.9,0.6,1.1c5.1,1.6,10.6,0.7,15.7,2.2
							c1.1,0.3,1.5-1.4,0.5-1.7c-5.1-1.5-10.6-0.6-15.7-2.2c0.2,0.4,0.4,0.7,0.6,1.1c1.2-7.3,4.8-14,5.5-21.4
							C190,327.8,188.3,327.8,188.2,328.9L188.2,328.9z"/>
					</g>
				</g>
				<g>
					<g>
						<path class="st7" d="M206.6,320.3c0,6.1-2.1,11.9-2.7,17.9c0,0.5,0.4,0.9,0.9,0.9c5.2,0,10.5-0.5,15.7-0.5
							c1.1,0,1.1-1.8,0-1.8c-5.2,0-10.5,0.5-15.7,0.5c0.3,0.3,0.6,0.6,0.9,0.9c0.6-6,2.7-11.8,2.7-17.9
							C208.4,319.1,206.6,319.1,206.6,320.3L206.6,320.3z"/>
					</g>
				</g>
				<g>
					<g>
						<path class="st7" d="M222.3,305.6c0,5.6,0,11.2-0.5,16.8c0,0.4,0.3,0.8,0.6,0.8c5.5,1.1,11,0.6,16.5,0.6c1.1,0,1.1-1.8,0-1.8
							c-5.3,0-10.7,0.5-16-0.5c0.2,0.3,0.4,0.6,0.6,0.8c0.5-5.6,0.5-11.2,0.5-16.8C224.1,304.5,222.3,304.5,222.3,305.6L222.3,305.6
							z"/>
					</g>
				</g>
				<g>
					<g>
						<path class="st7" d="M232.6,298.6c0,3.4,0.6,6.7,1.1,10c0.1,0.4,0.5,0.6,0.8,0.6c3.4,0,6.9,0,10.3,0c1.1,0,1.1-1.8,0-1.8
							c-3.4,0-6.9,0-10.3,0c0.3,0.2,0.6,0.4,0.8,0.6c-0.5-3.2-1-6.3-1.1-9.5C234.4,297.5,232.6,297.5,232.6,298.6L232.6,298.6z"/>
					</g>
				</g>
			</g>
			<g>
				<g>
					<g>
						<path class="st0" d="M42.6,385c-2.2-11.4,5.4-25.5,10.3-35.2c8.7-17.3,17.9-30.3,34.7-40.6c26.6-16.3,55.8-22.2,86.7-23.8
							c7-0.5,14.1,0,21.1-1.6c-3.6,20.5-8.7,33.6-15.2,47.1c-7.6,16.8-17.3,29.3-31.4,41.7c-21.1,18.4-50.9,26.6-78,20.6
							c-9.2-2.2-18.4-4.9-27.1-7.6"/>
					</g>
					<g>
						<path class="st8" d="M157.1,311.2c-13.9,8.9-26.9,18.6-40,28.8c-6.8,5.3-13.6,10.5-20.8,15.2c-6.9,4.6-14.3,8.7-21.2,13.2
							c-6.7,4.4-13.4,8.8-20.9,11.9c-3.8,1.6-7.7,3-11.4,4.7l0.9,0.5c8.7,2.7,17.9,5.4,27.1,7.6c27.1,6,56.9-2.2,78-20.6
							c14.1-12.5,23.8-24.9,31.4-41.7c6.4-13.4,11.5-26.3,15-46.3C183.3,294.4,170.2,302.8,157.1,311.2z"/>
					</g>
					<g>
						<g>
							<g>
								<g>
									<path class="st5" d="M193.8,285.2c-5.4,2.5-9.8,6.4-14.2,10.3c-4.7,4.1-9.7,7.7-15.1,11c-5.3,3.3-10.8,6.4-16,10
										c-5.3,3.7-10.3,7.8-15.4,11.7c-10.5,8.1-21.2,16-32.3,23.4c-5.4,3.6-11,7.1-16.7,10.3c-4.9,2.8-9.9,5.2-14.9,7.8
										c-5.2,2.8-10.4,5.7-15.6,8.5c-3.9,2.1-7.8,4.4-11.9,6c-1,0.4-0.6,2.1,0.5,1.7c3.5-1.4,6.9-3.3,10.2-5.1
										c4.6-2.5,9.2-5.1,13.8-7.6c4.7-2.5,9.5-4.8,14.2-7.4c5.8-3.1,11.5-6.5,17-10.1c11.2-7.2,21.9-15,32.5-23.1
										c5.1-3.9,10.3-7.8,15.4-11.8c5-3.9,10.5-7.2,15.9-10.4c5.9-3.5,11.6-7.1,16.9-11.5c5.3-4.4,10.1-9.3,16.5-12.3
										C195.7,286.2,194.9,284.7,193.8,285.2L193.8,285.2z"/>
								</g>
							</g>
							<g>
								<g>
									<path class="st5" d="M164.2,292.4c-0.6,6.7-4.2,12.6-6.5,18.7c-0.2,0.5,0.3,1.1,0.8,1.1c6.6,0,13.3-0.5,19.8,0.5
										c1.1,0.2,1.6-1.5,0.5-1.7c-6.7-1.1-13.5-0.6-20.3-0.6c0.3,0.4,0.6,0.7,0.8,1.1c2.3-6.3,5.9-12.3,6.5-19.2
										C166,291.3,164.3,291.3,164.2,292.4L164.2,292.4z"/>
								</g>
							</g>
							<g>
								<g>
									<path class="st5" d="M143.6,297.9c0.3,5-1,10-2.4,14.8c-1.5,4.8-3.3,9.5-5.2,14.2c-0.2,0.5,0.3,1.1,0.8,1.1
										c8.9,0.1,17.6,3.2,26.6,2.7c1.1-0.1,1.1-1.8,0-1.8c-9,0.5-17.6-2.7-26.6-2.7c0.3,0.4,0.6,0.7,0.8,1.1
										c1.9-4.8,3.8-9.6,5.3-14.6c1.4-4.8,2.6-9.9,2.3-14.9C145.2,296.7,143.5,296.7,143.6,297.9L143.6,297.9z"/>
								</g>
							</g>
							<g>
								<g>
									<path class="st5" d="M116.5,307.6c0.3,6.8-0.8,13.6-2.2,20.1c-1.4,6.5-3.3,13-5.9,19.2c-0.2,0.5,0.3,1.1,0.8,1.1
										c6.4,0,12.8,0.2,19.2,0.7c6.4,0.6,12.9,1.5,19,3.6c1.1,0.4,1.5-1.3,0.5-1.7c-6.1-2.1-12.6-3-19.1-3.6
										c-6.5-0.6-13.1-0.8-19.6-0.8c0.3,0.4,0.6,0.7,0.8,1.1c2.6-6.3,4.5-12.9,5.9-19.6c1.4-6.6,2.5-13.5,2.2-20.2
										C118.2,306.5,116.4,306.5,116.5,307.6L116.5,307.6z"/>
								</g>
							</g>
							<g>
								<g>
									<path class="st5" d="M94.2,322.8c0.5,13.4-5.9,25.9-7.6,39c0,0.4,0.3,0.8,0.6,0.8c5.3,1.3,10.3,3.5,15.6,4.8
										c5.6,1.3,11.4,1,16.9,2.8c1.1,0.3,1.5-1.3,0.5-1.7c-5.5-1.8-11.3-1.5-16.9-2.8c-5.3-1.2-10.4-3.4-15.6-4.8
										c0.2,0.3,0.4,0.6,0.6,0.8c1.7-13.2,8.1-25.6,7.6-39C96,321.7,94.2,321.7,94.2,322.8L94.2,322.8z"/>
								</g>
							</g>
							<g>
								<g>
									<path class="st5" d="M72.6,336.1c-1.9,6.8-3.9,13.6-6.2,20.3c-2.3,6.7-4.8,13.5-8.3,19.6c-0.3,0.5,0,1.1,0.5,1.3
										c13,5.1,27.1,6.5,40.6,9.8c1.1,0.3,1.6-1.4,0.5-1.7c-13.5-3.2-27.6-4.7-40.6-9.8c0.2,0.4,0.3,0.9,0.5,1.3
										c3.5-6.2,6-12.9,8.4-19.7c2.3-6.8,4.4-13.7,6.4-20.6C74.6,335.5,72.9,335,72.6,336.1L72.6,336.1z"/>
								</g>
							</g>
						</g>
					</g>
				</g>
			</g>
			<g>
				<g>
					<path class="st9" d="M43.9,292.5c-11.4-8.1-18.4-28.7-19.5-42.3c-0.5-6-0.5-21.7,5.4-25.5c9.2-6,10.8,11.9,17.9,13.5
						c3.8-6-4.3-14.6-1.6-22.2c2.7-7,8.7-16.3,15.2-21.1c3.3,4.3,1.1,13,4.9,16.8c5.4,6.5,7.6,1.1,7-4.9c0-3.8-4.9-8.7-3.8-12.5
						c1.1-3.3,8.7-9.2,11.4-11.4c1.1,2.7,2.7,14.1,6.5,13.6c4.9-0.5,2.2-11.9,1.1-14.6c8.1-3.8,34.1-15.2,43.4-10.3
						c10.3,4.9,9.2,43.4,5.4,52.6c-2.2-1.1-15.2-9.2-16.3-2.2c-0.5,4.9,12.5,4.9,13.5,10.3c0.5,4.3-7.6,14.6-10.8,14.6
						c-5.4,0-9.8-10.8-16.8-10.3c-8.7,0.5-5.4,4.3,0,8.1c6.5,4.9,12.5,3.8,10.8,12.5c-1.6,8.1-7.6,11.4-14.1,8.7
						c-1.1-1.1-16.3-14.1-13-3.3c1.1,4.3,9.8,4.9,11.4,9.8c1.1,3.8-2.7,9.8-4.9,12.5c-8.1,10.8-12.5,2.7-22.2-1.1
						c-1.6,6,7.6,7.6,4.9,13C78,300,68.3,299,65,299c-7-0.5-16.8-1.1-21.7-5.4"/>
				</g>
				<g>
					<g>
						<path class="st4" d="M122.8,185.2c-11.2,13.1-22.3,26.3-33.3,39.6c-10.9,13.3-21.6,26.7-31.8,40.5
							c-5.8,7.7-11.4,15.6-16.8,23.6c-0.6,0.9,0.9,1.8,1.5,0.9c9.7-14.1,19.9-27.9,30.4-41.4c10.6-13.5,21.5-26.8,32.6-40
							c6.2-7.4,12.4-14.7,18.6-22C124.7,185.5,123.5,184.3,122.8,185.2L122.8,185.2z"/>
					</g>
				</g>
				<g>
					<g>
						<path class="st4" d="M46.1,249.2c0,10-0.2,20.3,2.2,30c0.1,0.5,0.6,0.7,1.1,0.6c7.8-2.2,16-4.3,24.2-4.3c1.1,0,1.1-1.8,0-1.8
							c-8.3,0-16.6,2.1-24.6,4.4c0.4,0.2,0.7,0.4,1.1,0.6c-2.4-9.6-2.1-19.8-2.1-29.6C47.9,248.1,46.1,248.1,46.1,249.2L46.1,249.2z
							"/>
					</g>
				</g>
				<g>
					<g>
						<path class="st4" d="M61.3,230.2c1.1,9.9-0.6,19.9,0.5,29.8c0,0.4,0.2,0.8,0.6,0.8c8,1.6,16-1,24.1-1.1c1.1,0,1.1-1.8,0-1.8
							c-7.8,0-15.8,2.7-23.6,1.1c0.2,0.3,0.4,0.6,0.6,0.8c-1.1-9.9,0.5-19.9-0.5-29.8C62.9,229.1,61.2,229.1,61.3,230.2L61.3,230.2z
							"/>
					</g>
				</g>
				<g>
					<g>
						<path class="st4" d="M78.1,221c-0.5,6.3-1.1,12.6-1.1,19c0,0.5,0.4,0.8,0.9,0.9c6.7,0.5,13.3-1.6,20-1.1
							c1.1,0.1,1.1-1.7,0-1.8c-6.7-0.5-13.3,1.6-20,1.1c0.3,0.3,0.6,0.6,0.9,0.9c0-6.3,0.6-12.7,1.1-19
							C79.9,219.9,78.2,219.9,78.1,221L78.1,221z"/>
					</g>
				</g>
				<g>
					<g>
						<path class="st4" d="M90.5,204.2c0,6.8,0.5,13.8-1.6,20.4c-0.2,0.5,0.3,1.1,0.8,1.1c6.5,0,13.1-1.1,19.2-3.3
							c1.1-0.4,0.6-2.1-0.5-1.7c-6,2.1-12.4,3.2-18.7,3.2c0.3,0.4,0.6,0.7,0.8,1.1c2.2-6.7,1.7-13.9,1.7-20.8
							C92.3,203.1,90.5,203.1,90.5,204.2L90.5,204.2z"/>
					</g>
				</g>
				<g>
					<g>
						<path class="st4" d="M106.8,190.1c0,5.5-1.6,10.8-1.6,16.3c0,0.6,0.6,1,1.1,0.8c5.7-1.6,11.5-3.3,17.3-4.3
							c1.1-0.2,0.6-1.9-0.5-1.7c-5.9,1.1-11.6,2.8-17.3,4.3c0.4,0.3,0.7,0.6,1.1,0.8c0-5.5,1.6-10.8,1.6-16.3
							C108.6,189,106.8,189,106.8,190.1L106.8,190.1z"/>
					</g>
				</g>
				<g>
					<g>
						<path class="st4" d="M112.8,187.4c0,2.5,0.5,5,0.5,7.6c0,0.5,0.4,0.8,0.9,0.9c4.6,0.6,9.4,0.5,13.8-1.1c1-0.4,0.6-2.1-0.5-1.7
							c-4.3,1.6-8.9,1.6-13.3,1.1c0.3,0.3,0.6,0.6,0.9,0.9c0-2.5-0.5-5-0.5-7.6C114.5,186.3,112.8,186.3,112.8,187.4L112.8,187.4z"
							/>
					</g>
				</g>
			</g>
			<g>
				<g>
					<defs>
						<path id="SVGID_1_" d="M-5.7,375c-0.7-18.3,2.6-36.2-0.6-54.9c-3.6-24-7.5-48.4-7-72.8c0.5-24,6.7-50.8,21.4-69.8
							c6.5-8.9,14.3-17.4,25.7-20.2c11-2.4,22.3,1.7,24.3,13.5c6.8,40.3-47.5,81.5-15.5,118.6c22.3,25.7,35.1,60.3,12.7,89.9"/>
					</defs>
					<clipPath id="SVGID_2_">
						<use xlink:href="#SVGID_1_"  style="overflow:visible;"/>
					</clipPath>
					<g class="st10">
						<path class="st11" d="M-5.7,375c-0.7-18.3,2.6-36.2-0.6-54.9c-3.6-24-7.5-48.4-7-72.8c0.5-24,6.7-50.8,21.4-69.8
							c6.5-8.9,14.3-17.4,25.7-20.2c11-2.4,22.3,1.7,24.3,13.5c6.8,40.3-47.5,81.5-15.5,118.6c22.3,25.7,35.1,60.3,12.7,89.9"/>
					</g>
				</g>
				<g>
					<defs>
						<path id="SVGID_3_" d="M-5.7,375c-0.7-18.3,2.6-36.2-0.6-54.9c-3.6-24-7.5-48.4-7-72.8c0.5-24,6.7-50.8,21.4-69.8
							c6.5-8.9,14.3-17.4,25.7-20.2c11-2.4,22.3,1.7,24.3,13.5c6.8,40.3-47.5,81.5-15.5,118.6c22.3,25.7,35.1,60.3,12.7,89.9"/>
					</defs>
					<clipPath id="SVGID_4_">
						<use xlink:href="#SVGID_3_"  style="overflow:visible;"/>
					</clipPath>
					<g class="st12">
						<path class="st13" d="M42.6,289.5c-32-37.1,22.3-78.4,15.5-118.6c-1-6.1-4.5-10.1-9.2-12.3c-0.1,0.8-0.4,1.7-1.2,2.4
							c-6.8,6.9-12.2,15.2-16.7,23.9c0,0.4,0,0.9-0.1,1.4C27,201.2,17.2,214,14,229.1c-1.7,8.1-1.9,16.8-2.1,25.1c0,1.3,0,2.6,0,3.8
							c0.9,0.7,1.6,1.7,1.7,3.1c1.1,11.8,4,23.3,7.6,34.5c3.4,10.5,7.8,20.8,9.8,31.8c3.1,17,1.6,33.7-2.7,50.1l26.9,1.9
							C77.7,349.8,64.8,315.2,42.6,289.5z"/>
					</g>
				</g>
				<g>
					<defs>
						<path id="SVGID_5_" d="M-5.7,375c-0.7-18.3,2.6-36.2-0.6-54.9c-3.6-24-7.5-48.4-7-72.8c0.5-24,6.7-50.8,21.4-69.8
							c6.5-8.9,14.3-17.4,25.7-20.2c11-2.4,22.3,1.7,24.3,13.5c6.8,40.3-47.5,81.5-15.5,118.6c22.3,25.7,35.1,60.3,12.7,89.9"/>
					</defs>
					<clipPath id="SVGID_6_">
						<use xlink:href="#SVGID_5_"  style="overflow:visible;"/>
					</clipPath>
					<g class="st14">
						<g>
							<path class="st15" d="M39.9,171.9c-7.1,12.5-14.7,24.8-20.1,38.1c-5.6,13.7-8.3,28.2-7.8,43c0.5,14.7,4.1,29.1,8.8,43
								c2.4,7.2,5.3,14.3,7.7,21.5c2.3,7,3.7,14.2,4.4,21.6c0.7,7.6,0.9,15.5-0.4,23c-1.4,7.5-4,14.8-5.9,22.2
								c-0.5,1.9-0.9,3.8-1.3,5.7c-0.2,1.1,1.5,1.6,1.7,0.5c1.5-7.6,4.1-14.8,6-22.3c0.9-3.6,1.6-7.3,2-11c0.3-3.8,0.3-7.6,0.2-11.4
								c-0.2-7.2-1.1-14.4-2.8-21.4c-1.8-7.4-4.7-14.4-7.2-21.5c-5-13.9-9.4-28.2-10.8-43c-1.4-14.9,0.2-29.9,5.3-44
								c5.4-15.2,14-29.1,22-43.1C41.9,171.8,40.4,170.9,39.9,171.9L39.9,171.9z"/>
						</g>
					</g>
				</g>
				<g>
					<defs>
						<path id="SVGID_7_" d="M-5.7,375c-0.7-18.3,2.6-36.2-0.6-54.9c-3.6-24-7.5-48.4-7-72.8c0.5-24,6.7-50.8,21.4-69.8
							c6.5-8.9,14.3-17.4,25.7-20.2c11-2.4,22.3,1.7,24.3,13.5c6.8,40.3-47.5,81.5-15.5,118.6c22.3,25.7,35.1,60.3,12.7,89.9"/>
					</defs>
					<clipPath id="SVGID_8_">
						<use xlink:href="#SVGID_7_"  style="overflow:visible;"/>
					</clipPath>
					<g class="st16">
						<g>
							<path class="st15" d="M10.5,281.4c5.7,0,11.3-0.9,16.9-2.1c1.1-0.2,0.6-1.9-0.5-1.7c-5.4,1.2-10.9,2-16.4,2
								C9.4,279.6,9.4,281.4,10.5,281.4L10.5,281.4z"/>
						</g>
					</g>
				</g>
				<g>
					<defs>
						<path id="SVGID_9_" d="M-5.7,375c-0.7-18.3,2.6-36.2-0.6-54.9c-3.6-24-7.5-48.4-7-72.8c0.5-24,6.7-50.8,21.4-69.8
							c6.5-8.9,14.3-17.4,25.7-20.2c11-2.4,22.3,1.7,24.3,13.5c6.8,40.3-47.5,81.5-15.5,118.6c22.3,25.7,35.1,60.3,12.7,89.9"/>
					</defs>
					<clipPath id="SVGID_10_">
						<use xlink:href="#SVGID_9_"  style="overflow:visible;"/>
					</clipPath>
					<g class="st17">
						<g>
							<path class="st15" d="M5.4,246.4c5.4,1.2,10.9,0.4,16.3,1.2c1.1,0.2,1.6-1.5,0.5-1.7c-5.4-0.8-10.9,0-16.3-1.2
								C4.8,244.4,4.3,246.1,5.4,246.4L5.4,246.4z"/>
						</g>
					</g>
				</g>
				<g>
					<defs>
						<path id="SVGID_11_" d="M-5.7,375c-0.7-18.3,2.6-36.2-0.6-54.9c-3.6-24-7.5-48.4-7-72.8c0.5-24,6.7-50.8,21.4-69.8
							c6.5-8.9,14.3-17.4,25.7-20.2c11-2.4,22.3,1.7,24.3,13.5c6.8,40.3-47.5,81.5-15.5,118.6c22.3,25.7,35.1,60.3,12.7,89.9"/>
					</defs>
					<clipPath id="SVGID_12_">
						<use xlink:href="#SVGID_11_"  style="overflow:visible;"/>
					</clipPath>
					<g class="st18">
						<g>
							<path class="st15" d="M7.7,216.6c5.6,3.8,12.8,3.4,18.9,5.8c1,0.4,1.5-1.3,0.5-1.7c-6-2.3-13-1.9-18.5-5.6
								C7.6,214.5,6.7,216,7.7,216.6L7.7,216.6z"/>
						</g>
					</g>
				</g>
				<g>
					<defs>
						<path id="SVGID_13_" d="M-5.7,375c-0.7-18.3,2.6-36.2-0.6-54.9c-3.6-24-7.5-48.4-7-72.8c0.5-24,6.7-50.8,21.4-69.8
							c6.5-8.9,14.3-17.4,25.7-20.2c11-2.4,22.3,1.7,24.3,13.5c6.8,40.3-47.5,81.5-15.5,118.6c22.3,25.7,35.1,60.3,12.7,89.9"/>
					</defs>
					<clipPath id="SVGID_14_">
						<use xlink:href="#SVGID_13_"  style="overflow:visible;"/>
					</clipPath>
					<g class="st19">
						<g>
							<path class="st15" d="M21.7,186.8c5,4.1,11.3,5.9,16.8,9.1c1,0.6,1.9-1,0.9-1.5c-5.4-3.1-11.6-4.8-16.5-8.8
								C22.1,184.9,20.8,186.1,21.7,186.8L21.7,186.8z"/>
						</g>
					</g>
				</g>
			</g>
			<g>
				<g>
					<path class="st7" d="M101.3,278.8c0.4-14.6,6.9-32.5,16.3-43.9c4.5-5.3,15.9-13.4,23.2-10.6c10.6,4.5,6.1,15.9,2,22.8
						c-9.3,17.1-21.9,30.1-41.5,32.5"/>
				</g>
				<g>
					<path class="st7" d="M72.4,293.5c-1.2-9.8-12.6-38.6,2.4-43.1c18.7-6.1,6.5,35,1.6,41c-1.2,1.2-2.4,2-3.7,2.4"/>
				</g>
				<g>
					<path class="st7" d="M86.2,309.7c6.9-10.6,25.2-19.1,37.8-19.1c12.2,0,15.8,7.7,6.9,16.3c-6.5,6.5-15.8,7.3-24.4,7.3
						c-7.7-0.4-13.8-1.6-20.3-4.1"/>
				</g>
				<g>
					<path class="st7" d="M34.2,327.6c-4.1-8.5-20.7-42.7-2.4-46.3c20.3-4.1,10.2,34.5,6.1,42.7c-1.2,1.6-2,3.7-3.3,4.9"/>
				</g>
				<g>
					<path class="st7" d="M46,345.5c4.9-12.2,20.7-19.1,32.5-12.2c8.9,5.3,11,17.1-0.8,20.3c-9.8,2.4-14.6-7.7-24-8.5
						c-2,0-5.3,0.4-6.5,0.4"/>
				</g>
				<g>
					<g>
						<path class="st6" d="M1.1,367.2C9.8,359.4,21,355,30.3,348c9.8-7.4,18.2-16.4,27.1-24.9c9.7-9.3,19.4-18.6,29.1-28
							c9.4-9.1,19-18.1,27.6-27.9c9-10.2,16.6-21.4,23.4-33.1c0.6-1-1-1.9-1.5-0.9c-6.1,10.6-12.9,20.7-20.7,30
							c-8.3,9.8-17.7,18.6-26.8,27.6c-9.6,9.4-19.4,18.6-29.1,28c-8.8,8.6-17.3,17.6-26.9,25.3c-5.2,4.2-10.9,7.7-16.7,11.1
							c-5.5,3.2-11.1,6.4-15.9,10.7C-1,366.7,0.2,368,1.1,367.2L1.1,367.2z"/>
					</g>
				</g>
				<g>
					<g>
						<path class="st6" d="M76,261.8c0.4,17.4-5.2,34.1-10.1,50.6c-0.3,1.1,1.4,1.5,1.7,0.5c5-16.6,10.5-33.5,10.2-51
							C77.7,260.6,76,260.6,76,261.8L76,261.8z"/>
					</g>
				</g>
				<g>
					<g>
						<path class="st6" d="M127.6,296c-14.5,7.5-30.7,10.9-46.7,13.6c-4.4,0.7-8.8,1.4-13.2,2.1c-1.1,0.2-0.6,1.9,0.5,1.7
							c16.1-2.6,32.4-4.9,47.8-10.4c4.3-1.6,8.5-3.4,12.6-5.5C129.5,296.9,128.6,295.4,127.6,296L127.6,296z"/>
					</g>
				</g>
				<g>
					<g>
						<path class="st6" d="M35.4,292.6c-0.6,14.8,0.8,30.2-4.1,44.4c-1.4,4.1-3.4,8-5.9,11.6c-0.6,0.9,0.9,1.8,1.5,0.9
							c9-12.8,9.8-28.7,10-43.8c0.1-4.4,0.1-8.7,0.3-13.1C37.2,291.5,35.4,291.5,35.4,292.6L35.4,292.6z"/>
					</g>
				</g>
				<g>
					<g>
						<path class="st6" d="M77.3,343.9c-6.6-4.6-14.8-4.1-22.2-2c-8.2,2.3-15.8,6.3-23.7,9.3c-3.9,1.4-8,2.7-12.2,2.7
							c-1.1,0-1.1,1.8,0,1.8c7.6-0.1,14.9-3.6,21.7-6.5c7.5-3.2,15.4-6.9,23.6-7.2c4.3-0.2,8.4,0.9,12,3.3
							C77.4,346.1,78.2,344.5,77.3,343.9L77.3,343.9z"/>
					</g>
				</g>
				<g>
					<g>
						<path class="st6" d="M123.2,238c-0.8,5.2-0.4,10.4,0.4,15.5c0.1,0.3,0.5,0.7,0.8,0.6c4.1-0.5,8.1-1.2,12-2.5
							c1.1-0.4,0.6-2-0.5-1.7c-3.7,1.2-7.6,2-11.6,2.4c0.3,0.2,0.6,0.4,0.8,0.6c-0.8-4.8-1.2-9.8-0.4-14.6
							C125,237.3,123.4,236.8,123.2,238L123.2,238z"/>
					</g>
				</g>
				<g>
					<g>
						<path class="st6" d="M115,246.5c-1.3,6.1-1.3,12.4-0.8,18.5c0,0.5,0.5,1.1,1.1,0.8c3.3-1.2,6.8-2.4,10.3-2.8
							c1.1-0.1,1.1-1.9,0-1.8c-3.7,0.4-7.3,1.6-10.8,2.9c0.4,0.3,0.7,0.6,1.1,0.8c-0.4-6-0.5-12.2,0.8-18.1
							C117,245.9,115.3,245.4,115,246.5L115,246.5z"/>
					</g>
				</g>
				<g>
					<g>
						<path class="st6" d="M71.2,267.9c1.2,2.8,2.7,5.5,3.1,8.5c0,0.4,0.2,0.7,0.5,0.8c0.3,0.1,0.7,0.1,1-0.2c1.9-2.3,3.4-5,5.7-6.9
							c0.4-0.3,0.3-0.9,0-1.2c-0.4-0.4-0.9-0.3-1.2,0c-2.3,2-3.8,4.6-5.7,6.9c0.5,0.2,1,0.4,1.5,0.6c-0.4-3.4-2-6.3-3.4-9.4
							c-0.2-0.4-0.8-0.5-1.2-0.3C71.1,267,71.1,267.5,71.2,267.9L71.2,267.9z"/>
					</g>
				</g>
				<g>
					<g>
						<path class="st6" d="M30.2,301.6c1.6,2.4,3.6,4.7,4.9,7.3c0.3,0.6,1.2,0.5,1.5,0c1.7-2.6,2.9-5.7,3.7-8.7
							c0.3-1.1-1.4-1.5-1.7-0.5c-0.8,2.9-1.9,5.8-3.6,8.3c0.5,0,1,0,1.5,0c-1.3-2.6-3.2-4.9-4.9-7.3c-0.3-0.4-0.8-0.6-1.2-0.3
							C30.1,300.7,29.9,301.2,30.2,301.6L30.2,301.6z"/>
					</g>
				</g>
				<g>
					<g>
						<path class="st6" d="M105,298.7c-2,2.8-4.5,5.4-6.1,8.5c-0.3,0.6,0.1,1.2,0.8,1.3c4,0.4,7.7,2,11.6,2.8
							c1.1,0.2,1.6-1.5,0.5-1.7c-4-0.8-7.9-2.4-12-2.9c0.3,0.4,0.5,0.9,0.8,1.3c1.6-3.1,4.1-5.7,6.1-8.5
							C107.1,298.7,105.6,297.8,105,298.7L105,298.7z"/>
					</g>
				</g>
				<g>
					<g>
						<path class="st6" d="M118,295c-1.2,2.7-3.3,5-4.2,7.9c-0.1,0.4,0.2,1,0.6,1.1c3.3,0.8,6.5,2,9.8,2.8c1.1,0.3,1.6-1.4,0.5-1.7
							c-3.3-0.8-6.5-2-9.8-2.8c0.2,0.4,0.4,0.7,0.6,1.1c0.8-2.7,2.8-4.9,4-7.5c0.2-0.4,0.1-0.9-0.3-1.2
							C118.8,294.5,118.2,294.6,118,295L118,295z"/>
					</g>
				</g>
				<g>
					<g>
						<path class="st6" d="M67.3,334.7c-2.3,2.3-5.7,3-7.5,5.9c-0.2,0.4-0.1,1,0.3,1.2c2,1.2,3.4,3,4.6,5c0.6,1,2.1,0.1,1.5-0.9
							c-1.3-2.2-3-4.2-5.2-5.6c0.1,0.4,0.2,0.8,0.3,1.2c0.8-1.3,2-2.1,3.2-2.8c1.4-0.8,2.8-1.6,3.9-2.7
							C69.4,335.1,68.1,333.9,67.3,334.7L67.3,334.7z"/>
					</g>
				</g>
			</g>
		</g>
		<g>
			<path class="st20" d="M221.4,124.4h-7.7c-1.9,0-1.9,2.9,0,2.9h7.7C223.3,127.2,223.3,124.4,221.4,124.4z"/>
			<path class="st20" d="M242.3,114.7h-6.6c-1.9,0-1.9,2.9,0,2.9h6.6C244.1,117.6,244.1,114.7,242.3,114.7z"/>
			<path class="st20" d="M240.7,134.4h-6.2c-1.9,0-1.9,2.9,0,2.9h6.2C242.6,137.3,242.6,134.4,240.7,134.4z"/>
			<path class="st20" d="M260.8,125.1h-6.2c-1.9,0-1.9,2.9,0,2.9h6.2C262.6,128,262.6,125.1,260.8,125.1z"/>
			<path class="st20" d="M280.4,114.3h-6.6c-1.9,0-1.9,2.9,0,2.9h6.6C282.3,117.2,282.3,114.3,280.4,114.3z"/>
			<path class="st20" d="M289.3,132.8h-8.1c-1.9,0-1.9,2.9,0,2.9h8.1C291.2,135.7,291.2,132.8,289.3,132.8z"/>
			<path class="st20" d="M260,145.9h-5.8c-1.9,0-1.9,2.9,0,2.9h5.8C261.9,148.8,261.9,145.9,260,145.9z"/>
		</g>
		<path class="st4" d="M287.5,276.4c-2.4,0-2.4,3.7,0,3.7S290,276.4,287.5,276.4z"/>
		<path class="st4" d="M294,268.4c-2.4,0-2.4,3.7,0,3.7C296.4,272.1,296.4,268.4,294,268.4z"/>
		<path class="st4" d="M295.5,277.4c-2.4,0-2.4,3.7,0,3.7S297.9,277.4,295.5,277.4z"/>
		<path class="st4" d="M135.3,284c-2.4,0-2.4,3.7,0,3.7C137.7,287.8,137.7,284,135.3,284z"/>
		<path class="st4" d="M141.8,276.1c-2.4,0-2.4,3.7,0,3.7C144.2,279.8,144.2,276.1,141.8,276.1z"/>
		<path class="st4" d="M144.3,285c-2.4,0-2.4,3.7,0,3.7C146.7,288.8,146.7,285,144.3,285z"/>
		<path class="st4" d="M65,130.5c-2.4,0-2.4,3.7,0,3.7S67.4,130.5,65,130.5z"/>
		<path class="st4" d="M70,121c-2.4,0-2.4,3.7,0,3.7C72.4,124.8,72.4,121,70,121z"/>
		<path class="st4" d="M72.9,130c-2.4,0-2.4,3.7,0,3.7C75.4,133.7,75.4,130,72.9,130z"/>
		<path class="st3" d="M157.6,247.6c-4.8,0-4.8,7.5,0,7.5S162.4,247.6,157.6,247.6z"/>
		<path class="st3" d="M159.1,230.7c-4.8,0-4.8,7.5,0,7.5S163.9,230.7,159.1,230.7z"/>
	</g>
</g>
</svg>
