<svg xmlns="http://www.w3.org/2000/svg" baseProfile="basic" width="180" height="60"><path d="M73.512 41.164a6.14 6.14 0 0 1-2.077-1.662c-.554-.692-.692-1.385-.692-2.354 0-1.385.554-2.493 1.662-3.324s2.63-1.385 4.43-1.662l4.57-.692v-.83c0-2.077-1.246-3.185-3.6-3.185-.97 0-1.662.138-2.216.554s-.97.83-1.246 1.385c-.138.138-.138.277-.277.415s-.277.138-.415.138h-1.246c-.138 0-.277 0-.415-.138s-.138-.277-.138-.415c0-.415.277-.97.692-1.662.415-.554 1.108-1.108 2.077-1.662s2.077-.692 3.324-.692c2.216 0 3.877.554 4.847 1.523.97 1.108 1.523 2.354 1.523 4.016v9.97c0 .138 0 .415-.138.554s-.277.138-.554.138H82.24c-.138 0-.415 0-.554-.138s-.138-.277-.138-.554v-1.385c-.415.692-1.108 1.246-1.94 1.662s-1.94.692-3.324.692c-1.1 0-1.94-.277-2.772-.692zm6.647-2.908c.83-.83 1.246-2.077 1.246-3.877v-.83l-3.6.554c-1.523.138-2.63.554-3.324.97s-1.108 1.108-1.108 1.8c0 .83.277 1.523.97 1.94s1.523.692 2.354.692a4.13 4.13 0 0 0 3.463-1.246zm9.28 9.14c-.97-.554-1.8-1.246-2.216-1.94s-.692-1.385-.692-1.94c0-.138.138-.277.277-.415s.277-.138.554-.138h1.385c.138 0 .277 0 .415.138s.277.277.277.554c.554 1.662 1.8 2.493 3.877 2.493 1.523 0 2.63-.277 3.324-.97s1.108-1.8 1.108-3.462V39.64c-1.246 1.523-2.77 2.216-4.985 2.216s-3.74-.692-4.847-2.077-1.662-3.185-1.662-5.262v-1.662c0-2.077.692-3.877 1.662-5.262 1.108-1.385 2.63-2.077 4.847-2.077 2.077 0 3.74.83 4.985 2.354v-1.52c0-.138 0-.415.138-.554s.277-.277.554-.277h1.246c.138 0 .415.138.554.277s.138.277.138.554v14.817c0 4.708-2.354 7.063-7.063 7.063-1.522-.003-2.907-.28-3.876-.833zm7.2-9.556c.692-.97 1.108-2.077 1.108-3.324V32.44c0-1.246-.415-2.354-1.108-3.324s-1.8-1.385-3.185-1.385c-1.523 0-2.493.415-3.185 1.385s-.97 2.077-1.108 3.6v1.662c0 1.523.415 2.63 1.108 3.6s1.662 1.385 3.185 1.385c1.385-.137 2.493-.552 3.185-1.522zm7.062-15.37c-.138-.138-.138-.277-.138-.554v-1.523c0-.138 0-.415.138-.554s.277-.277.554-.277h1.8c.138 0 .415.138.554.277s.277.277.277.554v1.523c0 .138-.138.415-.277.554s-.277.138-.554.138h-1.8c-.277.14-.554.001-.554-.138zm.138 18.833c-.138-.138-.138-.277-.138-.554v-14.4c0-.138 0-.415.138-.554s.277-.138.554-.138h1.385c.138 0 .415 0 .554.138s.138.277.138.554v14.4c0 .138 0 .415-.138.554s-.277.138-.554.138h-1.385c-.277 0-.415 0-.554-.14zm9.962-.553l-5.678-14.125v-.277c0-.138 0-.277.138-.415s.277-.138.415-.138h1.385c.277 0 .554.138.692.554l4.708 12.186 4.708-12.186a.3.3 0 0 1 .277-.277c.138-.138.277-.138.415-.138h1.385c.138 0 .277 0 .415.138s.138.277.138.415v.277L117.12 40.89c-.277.554-.554.692-1.108.692h-1.246c-.274-.14-.7-.278-.966-.83zm11.642-.832c-1.246-1.246-1.94-3.047-2.077-5.262v-1.938c.138-2.216.83-3.877 2.077-5.262 1.246-1.246 2.908-1.94 4.985-1.94 2.216 0 4.016.692 5.262 2.077s1.8 3.324 1.8 5.816v.554c0 .138 0 .415-.138.554s-.277.138-.554.138h-10.525v.277c0 1.385.415 2.493 1.246 3.324.692.97 1.8 1.385 3.047 1.385.97 0 1.8-.138 2.354-.554l1.385-1.108c.138-.277.277-.415.415-.415s.277-.138.554-.138h1.385c.138 0 .277 0 .415.138s.138.277.138.415c0 .415-.277.97-.83 1.662s-1.385 1.108-2.354 1.662a9.08 9.08 0 0 1-3.462.692c-2.214-.14-3.875-.832-5.122-2.078zm9.28-7.478h0c0-1.523-.415-2.63-1.108-3.6s-1.8-1.385-3.047-1.385c-1.385 0-2.354.415-3.047 1.385-.692.83-1.108 2.077-1.108 3.462v.138h8.3zm6.23 7.478c-1.246-1.246-1.94-3.047-2.077-5.262v-1.938c.138-2.216.83-3.877 2.077-5.262 1.246-1.246 2.908-1.94 4.985-1.94 2.216 0 4.016.692 5.262 2.077s1.8 3.324 1.8 5.816v.554c0 .138 0 .415-.138.554s-.277.138-.554.138h-10.525v.277c0 1.385.415 2.493 1.246 3.324.692.97 1.8 1.385 3.047 1.385.97 0 1.8-.138 2.354-.554l1.385-1.108c.138-.277.277-.415.415-.415s.277-.138.554-.138h1.385c.138 0 .277 0 .415.138s.138.277.138.415c0 .415-.277.97-.83 1.662s-1.385 1.108-2.354 1.662a9.08 9.08 0 0 1-3.462.692c-2.214-.14-3.875-.832-5.122-2.078zm9.278-7.478h0c0-1.523-.415-2.63-1.108-3.6s-1.8-1.385-3.047-1.385c-1.385 0-2.354.415-3.047 1.385-.692.83-1.108 2.077-1.108 3.462v.138h8.3z" fill="#b3b3b3"/><path d="M48.17 24.947l.97 4.154 1.938 10.386 2.355-.553-2.908-14.54zm4.293-.83l.693 3.185 5.262-.97-.693-3.324zm-3.046 15.648l-1.94-9.416-4.154.83 1.938 9.416zm9.14-5.816l-1.107-5.54-4.155.83 1.94 9zm4.71-19.802L34.46 9.853c-4.43-.554-7.893 3.74-6.232 7.893L38.89 44.888c1.662 4.154 7.063 4.985 9.832 1.523l4.154-5.262-8.3 1.523c-.692 0-1.108-.415-1.108-.97l-1.94-10.248h-.277c-.692 0-1.108-.415-1.108-.97l-1.246-4.708c0-.692.415-1.108.97-1.108l1.94-.415c-.83-.415-1.385-1.385-1.662-2.354-.277-.83 0-1.8.554-2.63s1.385-1.246 2.354-1.385c2.908-.554 4.57 1.8 5.816 3.6h0v-.138l.14-.276c.554-2.077 1.246-4.708 4.016-5.262 1.94-.277 3.74.97 4.016 2.77.138.97-.138 2.077-.692 2.77l2.077-.415c.554 0 .97.277 1.246.97l.97 5.124c0 .692-.415 1.108-.97 1.108h-.277l.692 3.74 6.647-8.447c2.9-3.326.972-8.588-3.46-9.28zm-8.17 4.846c0-.415-.277-.83-.692-1.108-.277-.138-.554-.277-.83-.277h-.277c-1.662.277-2.216 2.216-2.63 4.154h0c0 .138-.138.415-.138.554.97-.277 2.908-.83 4.016-2.077.415-.276.692-.692.553-1.246zm-13.986 7.34l.692 3.323.277-.138 5.124-.97-.692-3.324zm2.492-6.647h-.415c-.415 0-.692.277-.97.554s-.277.692-.277 1.108c.138.415.277.97.97 1.108h0c1.523.692 3.462.554 4.57.415-.138-.138-.138-.277-.277-.415l-.415-.415c-.97-1.1-1.94-2.355-3.186-2.355z" fill="#e67e22"/></svg>