<?xml version="1.0" encoding="utf-8"?>
<!-- Generator: Adobe Illustrator 23.1.0, SVG Export Plug-In . SVG Version: 6.00 Build 0)  -->
<!DOCTYPE svg PUBLIC "-//W3C//DTD SVG 1.1//EN" "http://www.w3.org/Graphics/SVG/1.1/DTD/svg11.dtd" [
	<!ENTITY ns_extend "http://ns.adobe.com/Extensibility/1.0/">
	<!ENTITY ns_ai "http://ns.adobe.com/AdobeIllustrator/10.0/">
	<!ENTITY ns_graphs "http://ns.adobe.com/Graphs/1.0/">
	<!ENTITY ns_vars "http://ns.adobe.com/Variables/1.0/">
	<!ENTITY ns_imrep "http://ns.adobe.com/ImageReplacement/1.0/">
	<!ENTITY ns_sfw "http://ns.adobe.com/SaveForWeb/1.0/">
	<!ENTITY ns_custom "http://ns.adobe.com/GenericCustomNamespace/1.0/">
	<!ENTITY ns_adobe_xpath "http://ns.adobe.com/XPath/1.0/">
]>
<svg version="1.1" id="Layer_1" xmlns:x="&ns_extend;" xmlns:i="&ns_ai;" xmlns:graph="&ns_graphs;"
	 xmlns="http://www.w3.org/2000/svg" xmlns:xlink="http://www.w3.org/1999/xlink" x="0px" y="0px" width="616.5px" height="287px"
	 viewBox="0 0 616.5 287" style="enable-background:new 0 0 616.5 287;" xml:space="preserve">
<style type="text/css">
	.st0{fill:#E1E1E1;}
	.st1{fill:#F5F5F5;}
	.st2{fill-rule:evenodd;clip-rule:evenodd;fill:#E1E1E1;}
	.st3{fill:#FAFAFA;}
	.st4{fill:#FF4F5B;}
	.st5{fill:#1A2E35;}
	.st6{fill-rule:evenodd;clip-rule:evenodd;fill:#FF4F5B;}
	.st7{fill-rule:evenodd;clip-rule:evenodd;fill:#1A2E35;}
	.st8{opacity:0.62;}
	.st9{fill:#375A64;}
	.st10{fill:none;}
	.st11{opacity:0.8;}
	.st12{fill:#FFFFFF;}
</style>
<metadata>
	<sfw  xmlns="&ns_sfw;">
		<slices></slices>
		<sliceSourceBounds  bottomLeftOrigin="true" height="356.8" width="617.5" x="199.9" y="-357.3"></sliceSourceBounds>
	</sfw>
</metadata>
<g>
	<g>
		<path class="st0" d="M44.3,92V56.1C64,56.1,80.1,72.3,80.1,92c0,19.7-16.2,35.8-35.8,35.8c-19.3,0-35.4-15.7-35.8-35L44.3,92z"/>
	</g>
	<g>
		<path class="st1" d="M35.6,82.3l-35.8,0.8c0-9.3,3.6-19.1,10.2-25.8c6.5-6.7,15.8-10.6,25.1-10.8L35.6,82.3z"/>
	</g>
</g>
<g>
	<g>
		<g>
			<g>
				<g>
					<g>
						<g>
							<g>
								<path class="st2" d="M583.3,17.1c2.7,0.3,5.4,1.1,7.9,2.1l5.8-4.9l10,7.6l-3.1,6.9c1.7,2.1,3.1,4.5,4.1,7.1l7.5,0.7
									l1.7,12.4l-7.1,2.7c-0.3,2.7-1.1,5.4-2.1,7.9l4.9,5.8l-7.6,10l-6.9-3.1c-2.1,1.7-4.5,3.1-7.1,4.1l-0.7,7.5l-12.4,1.7
									l-2.7-7.1c-2.7-0.3-5.4-1.1-7.9-2.1l-5.8,4.9l-10-7.6l3.1-6.9c-1.7-2.1-3.1-4.5-4.1-7.1l-7.5-0.7l-1.7-12.4l7.1-2.7
									c0.3-2.7,1.1-5.4,2.1-7.9l-4.9-5.8l7.6-10l6.9,3.1c2.1-1.7,4.5-3.1,7.1-4.1l0.7-7.5l12.4-1.7L583.3,17.1L583.3,17.1z
									 M579.5,34.2c-8.5,0.3-14.6,8.3-12.6,16.6c1.5,6.2,7.2,10.5,13.5,10.3c8.5-0.3,14.6-8.3,12.6-16.6
									C591.6,38.4,585.9,34,579.5,34.2z"/>
							</g>
						</g>
					</g>
				</g>
			</g>
		</g>
	</g>
</g>
<g>
	<g>
		<path class="st3" d="M558.6,356.7H71c-4.8,0-8.7-3.9-8.7-8.7V9.1c0-4.8,3.9-8.7,8.7-8.7h487.6c4.8,0,8.7,3.9,8.7,8.7V348
			C567.3,352.8,563.4,356.7,558.6,356.7z"/>
	</g>
	<g>
		<path class="st0" d="M550.3,284.9h-89.9c-4,0-7.2-3.2-7.2-7.2v-189c0-4,3.2-7.2,7.2-7.2h89.9c4,0,7.2,3.2,7.2,7.2v189
			C557.5,281.6,554.3,284.9,550.3,284.9z M460.3,82.4c-3.4,0-6.2,2.8-6.2,6.2v189c0,3.4,2.8,6.2,6.2,6.2h89.9c3.4,0,6.2-2.8,6.2-6.2
			v-189c0-3.4-2.8-6.2-6.2-6.2H460.3z"/>
	</g>
	<g>
		<path class="st4" d="M99.3,357H71.7c-5.3,0-9.6-4.3-9.6-9.6V10.5c0-5.3,4.3-9.6,9.6-9.6h27.6c5.3,0,9.6,4.3,9.6,9.6v336.9
			C109,352.7,104.7,357,99.3,357z"/>
	</g>
	<g>
		<path class="st3" d="M106.5,154.4h-36c-1.5,0-2.8,1.3-2.8,2.8v28.4c0,1.5,1.3,2.8,2.8,2.8h39c1.7,0,3-1.4,2.8-3.1l3.5-31.1
			L106.5,154.4z"/>
	</g>
	<g>
		<g>
			<g>
				<path class="st5" d="M504.1,34.1c0,0,0.1-0.1,0.2-0.1c0.2-0.1,0.4-0.3,0.6-0.5c0.4-0.5,0.8-1.5,0.8-2.8c0.1-0.6,0.1-1.4,0.4-2.1
					c0.2-0.7,0.8-1.6,1.7-1.9c0.9-0.3,1.9-0.3,2.8,0.4c0.8,0.7,1.1,1.7,1.3,2.7c0.1,0.4,0.1,0.9,0.1,1.3c0,0.5,0,0.8,0.1,1.2
					c0.3,0.7,0.8,1.3,1.3,1.8l0.5,0.4l-0.7,0c-2.8,0-5.2-0.1-6.8-0.2C505.5,34.1,504.8,34.1,504.1,34.1c0.7,0,1.5,0,2.7-0.1
					c1.7-0.1,3.9-0.2,6.5-0.2l-0.1,0.4c-0.6-0.5-1.2-1.1-1.5-2c-0.2-0.4-0.2-0.9-0.2-1.3c0-0.4,0-0.8-0.1-1.3
					c-0.1-0.9-0.5-1.8-1.1-2.3c-0.6-0.5-1.6-0.5-2.3-0.3c-0.7,0.3-1.2,0.9-1.4,1.6c-0.3,0.7-0.3,1.4-0.4,2c-0.1,0.6-0.1,1.2-0.3,1.7
					c-0.2,0.5-0.4,0.9-0.7,1.2c-0.3,0.3-0.5,0.4-0.7,0.5C504.3,34,504.2,34.1,504.1,34.1C504.2,34,504.1,34.1,504.1,34.1z"/>
			</g>
		</g>
		<g>
			<circle class="st6" cx="511.3" cy="27.9" r="2"/>
		</g>
		<g>
			<path class="st7" d="M507.5,35.3h2.7c0,0,0,1.4-1.5,1.4C507.2,36.6,507.5,35.3,507.5,35.3z"/>
		</g>
	</g>
	<g>
		<path class="st6" d="M540.6,42.2h-11.9c-2.5,0-4.5-2-4.5-4.5V25.8c0-2.5,2-4.5,4.5-4.5h11.9c2.5,0,4.5,2,4.5,4.5v11.9
			C545.1,40.2,543.1,42.2,540.6,42.2z"/>
	</g>
	<g>
		<g>
			<g>
				<path class="st4" d="M301.4,203c-9,0-13-7.1-16.8-13.9c-3.2-5.6-6.5-11.5-11.9-11.5c-6,0-9,2.3-12.4,4.9
					c-3.7,2.9-8,6.1-16.3,6.1c-9.1,0-12.9-8.6-16.9-17.6c-3.1-7-6.6-14.9-11.8-14.9c-5.2,0-8.7,7.9-11.8,14.9
					c-4,9.1-7.8,17.6-16.9,17.6c-8.6,0-12.8-4.6-16.6-8.6c-3.4-3.7-6.4-6.9-12.2-6.9v-0.9c6.2,0,9.2,3.3,12.8,7.1
					c3.6,3.9,7.7,8.3,15.9,8.3c8.6,0,12.2-8.3,16.1-17.1c3.2-7.2,6.8-15.4,12.6-15.4c5.8,0,9.4,8.2,12.6,15.4
					c3.9,8.8,7.6,17.1,16.1,17.1c8,0,12.1-3.2,15.8-5.9c3.6-2.7,6.6-5.1,13-5.1c5.9,0,9.3,6,12.6,11.9c3.8,6.6,7.6,13.5,16.1,13.5
					c8.4,0,12.3-6.4,16.1-12.6c3.5-5.7,6.7-11.1,12.7-11.1c6.1,0,9.2,3.4,12.8,7.4c3.6,4,7.7,8.6,16,8.6c8.6,0,12.3-8.9,16.2-18.2
					c3.2-7.7,6.8-16.5,12.6-16.5c5.9,0,9.3,6.7,12.6,13.2c3.7,7.3,7.6,14.9,16.1,14.9c8.2,0,12.3-4.4,16-8.3
					c3.6-3.8,6.6-7.1,12.8-7.1v0.9c-5.8,0-8.7,3.2-12.2,6.9c-3.7,4-8,8.6-16.6,8.6c-9,0-13-7.8-16.9-15.3
					c-3.2-6.3-6.5-12.8-11.9-12.8c-5.2,0-8.7,8.5-11.8,15.9c-4,9.7-7.8,18.8-16.9,18.8c-8.6,0-12.9-4.7-16.6-8.9
					c-3.4-3.8-6.4-7.1-12.1-7.1c-5.5,0-8.6,5.2-11.9,10.7C314.3,196.4,310.3,203,301.4,203z"/>
			</g>
			<g>
				<path class="st0" d="M158.8,214.8l0.2-0.3c0.2,0.3,0.5,0.4,0.8,0.4c0.4,0,0.7-0.3,0.7-0.8v-2.2h-1.3v-0.3h1.7v2.5
					c0,0.8-0.4,1.1-1,1.1C159.4,215.3,159,215.2,158.8,214.8z"/>
				<path class="st0" d="M163.9,213.7v1.7h-0.3v-0.4c-0.2,0.3-0.5,0.4-0.9,0.4c-0.6,0-1-0.3-1-0.8c0-0.4,0.3-0.8,1-0.8h0.9v-0.2
					c0-0.5-0.3-0.7-0.8-0.7c-0.3,0-0.7,0.1-0.9,0.3l-0.2-0.3c0.3-0.2,0.7-0.4,1.1-0.4C163.5,212.6,163.9,213,163.9,213.7z
					 M163.5,214.5v-0.4h-0.8c-0.5,0-0.7,0.2-0.7,0.5c0,0.3,0.3,0.5,0.7,0.5C163.1,215.1,163.4,214.9,163.5,214.5z"/>
				<path class="st0" d="M167.4,213.8v1.6H167v-1.5c0-0.6-0.3-0.9-0.8-0.9c-0.6,0-0.9,0.4-0.9,1v1.4h-0.4v-2.7h0.3v0.5
					c0.2-0.3,0.6-0.5,1-0.5C166.9,212.6,167.4,213,167.4,213.8z"/>
			</g>
			<g>
				<path class="st0" d="M197.8,212.1v1.4h1.9v0.3h-1.9v1.5h-0.4v-3.6h2.5v0.3H197.8z"/>
				<path class="st0" d="M202.9,214.1h-2.3c0,0.6,0.5,0.9,1.1,0.9c0.3,0,0.6-0.1,0.8-0.4l0.2,0.2c-0.2,0.3-0.6,0.4-1,0.4
					c-0.8,0-1.4-0.6-1.4-1.4c0-0.8,0.6-1.4,1.3-1.4c0.8,0,1.3,0.6,1.3,1.4C202.9,214,202.9,214,202.9,214.1z M200.6,213.8h1.9
					c0-0.5-0.4-0.9-1-0.9C201,212.9,200.7,213.3,200.6,213.8z"/>
				<path class="st0" d="M206.3,214c0,0.8-0.6,1.4-1.3,1.4c-0.4,0-0.8-0.2-1-0.6v0.5h-0.3v-3.8h0.4v1.6c0.2-0.3,0.6-0.5,1-0.5
					C205.8,212.6,206.3,213.2,206.3,214z M206,214c0-0.6-0.4-1-1-1c-0.6,0-1,0.4-1,1c0,0.6,0.4,1,1,1C205.5,215,206,214.6,206,214z"
					/>
			</g>
			<g>
				<path class="st0" d="M241.1,211.7v3.6h-0.4v-2.9l-1.4,2.4h-0.2l-1.4-2.4v2.8h-0.4v-3.6h0.3l1.6,2.7l1.5-2.7H241.1z"/>
				<path class="st0" d="M244.2,213.7v1.7h-0.3v-0.4c-0.2,0.3-0.5,0.4-0.9,0.4c-0.6,0-1-0.3-1-0.8c0-0.4,0.3-0.8,1-0.8h0.9v-0.2
					c0-0.5-0.3-0.7-0.8-0.7c-0.3,0-0.7,0.1-0.9,0.3L242,213c0.3-0.2,0.7-0.4,1.1-0.4C243.8,212.6,244.2,213,244.2,213.7z
					 M243.8,214.5v-0.4H243c-0.5,0-0.7,0.2-0.7,0.5c0,0.3,0.3,0.5,0.7,0.5C243.4,215.1,243.7,214.9,243.8,214.5z"/>
				<path class="st0" d="M246.5,212.6v0.4c0,0-0.1,0-0.1,0c-0.6,0-0.9,0.4-0.9,1v1.4h-0.4v-2.7h0.3v0.5
					C245.7,212.8,246,212.6,246.5,212.6z"/>
			</g>
			<g>
				<path class="st0" d="M277.7,214.4h-2l-0.4,1h-0.4l1.6-3.6h0.4l1.6,3.6h-0.4L277.7,214.4z M277.5,214.1l-0.9-1.9l-0.9,1.9H277.5z
					"/>
				<path class="st0" d="M281.7,214c0,0.8-0.6,1.4-1.3,1.4c-0.4,0-0.8-0.2-1-0.5v1.5H279v-3.7h0.3v0.5c0.2-0.4,0.6-0.6,1-0.6
					C281.2,212.6,281.7,213.2,281.7,214z M281.4,214c0-0.6-0.4-1-1-1c-0.6,0-1,0.4-1,1c0,0.6,0.4,1,1,1
					C281,215,281.4,214.6,281.4,214z"/>
				<path class="st0" d="M283.8,212.6v0.4c0,0-0.1,0-0.1,0c-0.6,0-0.9,0.4-0.9,1v1.4h-0.4v-2.7h0.3v0.5
					C283,212.8,283.4,212.6,283.8,212.6z"/>
			</g>
			<g>
				<path class="st0" d="M320.9,211.7v3.6h-0.4v-2.9l-1.4,2.4h-0.2l-1.4-2.4v2.8h-0.4v-3.6h0.3l1.6,2.7l1.5-2.7H320.9z"/>
				<path class="st0" d="M324,213.7v1.7h-0.3v-0.4c-0.2,0.3-0.5,0.4-0.9,0.4c-0.6,0-1-0.3-1-0.8c0-0.4,0.3-0.8,1-0.8h0.9v-0.2
					c0-0.5-0.3-0.7-0.8-0.7c-0.3,0-0.7,0.1-0.9,0.3l-0.2-0.3c0.3-0.2,0.7-0.4,1.1-0.4C323.6,212.6,324,213,324,213.7z M323.6,214.5
					v-0.4h-0.8c-0.5,0-0.7,0.2-0.7,0.5c0,0.3,0.3,0.5,0.7,0.5C323.2,215.1,323.5,214.9,323.6,214.5z"/>
				<path class="st0" d="M327.2,212.6l-1.3,3c-0.2,0.5-0.5,0.7-0.9,0.7c-0.3,0-0.5-0.1-0.7-0.2l0.2-0.3c0.1,0.1,0.3,0.2,0.5,0.2
					c0.2,0,0.4-0.1,0.6-0.4l0.1-0.3l-1.2-2.7h0.4l1,2.3l1-2.3H327.2z"/>
			</g>
			<g>
				<path class="st0" d="M354.6,214.8l0.2-0.3c0.2,0.3,0.5,0.4,0.8,0.4c0.4,0,0.7-0.3,0.7-0.8v-2.2H355v-0.3h1.7v2.5
					c0,0.8-0.4,1.1-1,1.1C355.2,215.3,354.9,215.2,354.6,214.8z"/>
				<path class="st0" d="M360.2,212.6v2.7h-0.3v-0.5c-0.2,0.3-0.5,0.5-1,0.5c-0.7,0-1.1-0.4-1.1-1.2v-1.6h0.4v1.5
					c0,0.6,0.3,0.9,0.8,0.9c0.6,0,0.9-0.4,0.9-1v-1.4H360.2z"/>
				<path class="st0" d="M363.6,213.8v1.6h-0.4v-1.5c0-0.6-0.3-0.9-0.8-0.9c-0.6,0-0.9,0.4-0.9,1v1.4h-0.4v-2.7h0.3v0.5
					c0.2-0.3,0.6-0.5,1-0.5C363.2,212.6,363.6,213,363.6,213.8z"/>
			</g>
			<g>
				<path class="st0" d="M394.5,214.8l0.2-0.3c0.2,0.3,0.5,0.4,0.8,0.4c0.4,0,0.7-0.3,0.7-0.8v-2.2h-1.3v-0.3h1.7v2.5
					c0,0.8-0.4,1.1-1,1.1C395.1,215.3,394.8,215.2,394.5,214.8z"/>
				<path class="st0" d="M400.1,212.6v2.7h-0.3v-0.5c-0.2,0.3-0.5,0.5-1,0.5c-0.7,0-1.1-0.4-1.1-1.2v-1.6h0.4v1.5
					c0,0.6,0.3,0.9,0.8,0.9c0.6,0,0.9-0.4,0.9-1v-1.4H400.1z"/>
				<path class="st0" d="M401.1,211.5h0.4v3.8h-0.4V211.5z"/>
			</g>
			<g>
				<path class="st0" d="M435.5,214.4h-2l-0.4,1h-0.4l1.6-3.6h0.4l1.6,3.6h-0.4L435.5,214.4z M435.3,214.1l-0.9-1.9l-0.9,1.9H435.3z
					"/>
				<path class="st0" d="M439.2,212.6v2.7h-0.3v-0.5c-0.2,0.3-0.5,0.5-1,0.5c-0.7,0-1.1-0.4-1.1-1.2v-1.6h0.4v1.5
					c0,0.6,0.3,0.9,0.8,0.9c0.6,0,0.9-0.4,0.9-1v-1.4H439.2z"/>
				<path class="st0" d="M442.7,212.6v2.4c0,0.9-0.5,1.3-1.3,1.3c-0.5,0-1-0.1-1.3-0.4l0.2-0.3c0.3,0.2,0.6,0.4,1.1,0.4
					c0.7,0,1-0.3,1-1v-0.3c-0.2,0.3-0.6,0.5-1,0.5c-0.8,0-1.3-0.5-1.3-1.3c0-0.8,0.6-1.3,1.3-1.3c0.4,0,0.8,0.2,1.1,0.5v-0.5H442.7z
					 M442.3,213.9c0-0.6-0.4-1-1-1c-0.6,0-1,0.4-1,1c0,0.6,0.4,1,1,1C441.9,214.9,442.3,214.5,442.3,213.9z"/>
			</g>
			<g>
				<path class="st0" d="M140,213.2c0-0.8,0.4-1.2,1-1.2c0.6,0,1,0.5,1,1.2c0,0.8-0.4,1.3-1,1.3C140.4,214.4,140,214,140,213.2z
					 M141.7,213.2c0-0.7-0.3-1-0.7-1c-0.4,0-0.7,0.4-0.7,1c0,0.7,0.3,1,0.7,1C141.4,214.2,141.7,213.8,141.7,213.2z"/>
			</g>
			<g>
				<path class="st0" d="M137.8,200.3v2.5h-0.3v-2.2H137v-0.2H137.8z"/>
				<path class="st0" d="M138.4,201.5c0-0.8,0.4-1.2,1-1.2c0.6,0,1,0.5,1,1.2c0,0.8-0.4,1.3-1,1.3
					C138.8,202.8,138.4,202.3,138.4,201.5z M140.1,201.5c0-0.7-0.3-1-0.7-1c-0.4,0-0.7,0.4-0.7,1c0,0.7,0.3,1,0.7,1
					C139.8,202.6,140.1,202.2,140.1,201.5z"/>
			</g>
			<g>
				<path class="st0" d="M138.8,192.9v0.2h-1.7V193l1-1c0.3-0.3,0.3-0.4,0.3-0.6c0-0.3-0.2-0.5-0.6-0.5c-0.3,0-0.5,0.1-0.7,0.3
					L137,191c0.2-0.2,0.5-0.4,0.9-0.4c0.5,0,0.8,0.3,0.8,0.7c0,0.2-0.1,0.4-0.4,0.8l-0.8,0.8H138.8z"/>
				<path class="st0" d="M139.1,191.9c0-0.8,0.4-1.2,1-1.2c0.6,0,1,0.5,1,1.2c0,0.8-0.4,1.3-1,1.3
					C139.5,193.2,139.1,192.7,139.1,191.9z M140.8,191.9c0-0.7-0.3-1-0.7-1c-0.4,0-0.7,0.4-0.7,1c0,0.7,0.3,1,0.7,1
					C140.5,193,140.8,192.6,140.8,191.9z"/>
			</g>
			<g>
				<path class="st0" d="M138.8,182.5c0,0.4-0.3,0.7-0.9,0.7c-0.4,0-0.7-0.1-0.9-0.3l0.1-0.2c0.2,0.2,0.4,0.3,0.8,0.3
					c0.4,0,0.6-0.2,0.6-0.5c0-0.3-0.2-0.5-0.7-0.5h-0.2v-0.2l0.7-0.9h-1.3v-0.2h1.6v0.2l-0.7,0.9
					C138.5,181.8,138.8,182.1,138.8,182.5z"/>
				<path class="st0" d="M139.1,182c0-0.8,0.4-1.2,1-1.2c0.6,0,1,0.5,1,1.2c0,0.8-0.4,1.3-1,1.3C139.5,183.2,139.1,182.8,139.1,182z
					 M140.8,182c0-0.7-0.3-1-0.7-1c-0.4,0-0.7,0.4-0.7,1c0,0.7,0.3,1,0.7,1C140.5,183,140.8,182.6,140.8,182z"/>
			</g>
			<g>
				<path class="st0" d="M139.2,173h-0.5v0.6h-0.3V173h-1.4v-0.2l1.3-1.6h0.3l-1.3,1.6h1.1v-0.6h0.2v0.6h0.5V173z"/>
				<path class="st0" d="M139.4,172.4c0-0.8,0.4-1.2,1-1.2c0.6,0,1,0.5,1,1.2c0,0.8-0.4,1.3-1,1.3
					C139.9,173.6,139.4,173.2,139.4,172.4z M141.2,172.4c0-0.7-0.3-1-0.7-1c-0.4,0-0.7,0.4-0.7,1c0,0.7,0.3,1,0.7,1
					C140.9,173.4,141.2,173,141.2,172.4z"/>
			</g>
			<g>
				<path class="st0" d="M138.8,163.7c0,0.4-0.3,0.7-0.9,0.7c-0.4,0-0.7-0.1-0.9-0.3l0.1-0.2c0.2,0.2,0.4,0.3,0.8,0.3
					c0.4,0,0.6-0.2,0.6-0.5c0-0.3-0.2-0.5-0.8-0.5h-0.5l0.1-1.2h1.3v0.2h-1.1l-0.1,0.8h0.3C138.5,162.9,138.8,163.2,138.8,163.7z"/>
				<path class="st0" d="M139.1,163.2c0-0.8,0.4-1.2,1-1.2c0.6,0,1,0.5,1,1.2c0,0.8-0.4,1.3-1,1.3
					C139.5,164.4,139.1,163.9,139.1,163.2z M140.8,163.2c0-0.7-0.3-1-0.7-1c-0.4,0-0.7,0.4-0.7,1c0,0.7,0.3,1,0.7,1
					C140.5,164.2,140.8,163.8,140.8,163.2z"/>
			</g>
			<g>
				<path class="st0" d="M139,154c0,0.5-0.4,0.8-0.8,0.8c-0.7,0-1-0.5-1-1.2c0-0.8,0.5-1.3,1.1-1.3c0.2,0,0.4,0,0.6,0.1l-0.1,0.2
					c-0.1-0.1-0.3-0.1-0.5-0.1c-0.5,0-0.9,0.3-0.9,1c0,0.1,0,0.1,0,0.2c0.1-0.3,0.4-0.4,0.8-0.4C138.6,153.3,139,153.6,139,154z
					 M138.7,154c0-0.3-0.2-0.5-0.6-0.5c-0.4,0-0.6,0.2-0.6,0.5c0,0.3,0.2,0.5,0.6,0.5C138.5,154.6,138.7,154.4,138.7,154z"/>
				<path class="st0" d="M139.3,153.5c0-0.8,0.4-1.2,1-1.2c0.6,0,1,0.5,1,1.2c0,0.8-0.4,1.3-1,1.3
					C139.7,154.8,139.3,154.3,139.3,153.5z M141,153.5c0-0.7-0.3-1-0.7-1c-0.4,0-0.7,0.4-0.7,1c0,0.7,0.3,1,0.7,1
					C140.7,154.6,141,154.2,141,153.5z"/>
			</g>
			<g class="st8">
				<g>
					<rect x="151.8" y="154.1" class="st0" width="294.3" height="0.3"/>
				</g>
				<g>
					<rect x="151.8" y="163.7" class="st0" width="294.3" height="0.3"/>
				</g>
				<g>
					<rect x="151.8" y="173.3" class="st0" width="294.3" height="0.3"/>
				</g>
				<g>
					<rect x="151.8" y="182.9" class="st0" width="294.3" height="0.3"/>
				</g>
				<g>
					<rect x="151.8" y="192.5" class="st0" width="294.3" height="0.3"/>
				</g>
				<g>
					<rect x="151.8" y="202.1" class="st0" width="294.3" height="0.3"/>
				</g>
			</g>
		</g>
		<g>
			<path class="st4" d="M218,156.2c0-1.6-1.3-2.9-2.9-2.9s-2.9,1.3-2.9,2.9c0,1.6,1.3,2.9,2.9,2.9S218,157.8,218,156.2z"/>
		</g>
		<g>
			<path class="st9" d="M304.1,202.3c0-1.6-1.3-2.9-2.9-2.9c-1.6,0-2.9,1.3-2.9,2.9c0,1.6,1.3,2.9,2.9,2.9
				C302.8,205.2,304.1,203.9,304.1,202.3z"/>
		</g>
	</g>
	<g>
		<g>
			<g>
				<g>
					<path class="st3" d="M92.5,76.9c-0.1,0-0.2,0-0.3-0.1l-6.7-6.1l-6.7,6.1c-0.2,0.1-0.4,0.1-0.5,0c-0.1-0.2-0.1-0.4,0-0.5l7-6.3
						c0.1-0.1,0.4-0.1,0.5,0l7,6.3c0.2,0.1,0.2,0.4,0,0.5C92.7,76.9,92.6,76.9,92.5,76.9z"/>
				</g>
				<g>
					<g>
						<path class="st3" d="M90.6,82.3H80.5c-0.2,0-0.4-0.2-0.4-0.4v-7c0-0.2,0.2-0.4,0.4-0.4s0.4,0.2,0.4,0.4v6.7h9.4v-6.7
							c0-0.2,0.2-0.4,0.4-0.4s0.4,0.2,0.4,0.4v7C91,82.1,90.8,82.3,90.6,82.3z"/>
					</g>
				</g>
			</g>
		</g>
		<g>
			<path class="st3" d="M91.8,125.9H78.6c-0.2,0-0.4-0.2-0.4-0.4v-8.4c0-1,0.8-1.9,1.9-1.9h3.4c0.9,0,1.6,0.5,2,1.3l0.6,1.4h4.2
				c1,0,1.9,0.9,1.9,1.9v5.7C92.2,125.8,92,125.9,91.8,125.9z M79,125.2h12.5v-5.3c0-0.6-0.5-1.1-1.1-1.1h-4.4
				c-0.2,0-0.3-0.1-0.3-0.2l-0.7-1.6c-0.2-0.5-0.7-0.8-1.3-0.8h-3.4c-0.6,0-1.1,0.5-1.1,1.1V125.2z"/>
		</g>
		<g>
			<path class="st3" d="M81.5,280.6c-0.2,0-0.4-0.1-0.6-0.2c-0.3-0.2-0.5-0.6-0.4-1l0.6-3.5c0-0.1,0-0.2-0.1-0.2l-2.5-2.5
				c-0.3-0.3-0.4-0.7-0.2-1c0.1-0.4,0.4-0.6,0.8-0.7l3.5-0.6c0.1,0,0.1-0.1,0.2-0.1l1.6-3.2c0.3-0.7,1.4-0.7,1.8,0l1.6,3.2
				c0,0.1,0.1,0.1,0.2,0.1l3.5,0.6c0.4,0.1,0.7,0.3,0.8,0.7c0.1,0.4,0,0.7-0.2,1l-2.5,2.5c-0.1,0.1-0.1,0.1-0.1,0.2l0.6,3.5
				c0.1,0.4-0.1,0.7-0.4,1c-0.3,0.2-0.7,0.3-1,0.1l-3.2-1.6c-0.1,0-0.2,0-0.2,0l-3.2,1.6C81.8,280.6,81.7,280.6,81.5,280.6z
				 M85.2,278.1c0.2,0,0.3,0,0.5,0.1l3.2,1.6c0.1,0.1,0.2,0,0.3,0c0,0,0.1-0.1,0.1-0.2l-0.6-3.5c0-0.3,0.1-0.6,0.3-0.9l2.5-2.5
				c0.1-0.1,0.1-0.2,0.1-0.3c0,0-0.1-0.1-0.2-0.2l-3.5-0.6c-0.3,0-0.6-0.2-0.7-0.5l-1.6-3.2l0,0c-0.1-0.1-0.2-0.1-0.2-0.1
				c0,0-0.2,0-0.2,0.1l-1.6,3.2c-0.1,0.3-0.4,0.5-0.7,0.5l-3.5,0.6c-0.1,0-0.2,0.1-0.2,0.2c0,0,0,0.2,0.1,0.3l2.5,2.5
				c0.2,0.2,0.3,0.5,0.3,0.9l-0.6,3.5c0,0.1,0.1,0.2,0.1,0.2c0,0,0.1,0.1,0.3,0l3.2-1.6C84.9,278.1,85.1,278.1,85.2,278.1z"/>
		</g>
		<g>
			<g>
				<path class="st3" d="M92.6,227.9H77.8c-0.2,0-0.4-0.2-0.4-0.4v-9.3c0-0.2,0.2-0.4,0.4-0.4h14.8c0.2,0,0.4,0.2,0.4,0.4v9.3
					C93,227.7,92.9,227.9,92.6,227.9z M78.2,227.1h14.1v-8.6H78.2V227.1z"/>
			</g>
			<g>
				<path class="st3" d="M85.4,225.3c-0.1,0-0.2,0-0.2-0.1l-7.6-6.7c-0.2-0.1-0.2-0.4,0-0.5c0.1-0.2,0.4-0.2,0.5,0l7.3,6.5l7-6.5
					c0.2-0.1,0.4-0.1,0.5,0c0.1,0.2,0.1,0.4,0,0.5l-7.2,6.7C85.6,225.2,85.5,225.3,85.4,225.3z"/>
			</g>
			<g>
				<g>
					<path class="st3" d="M78,227.5c-0.1,0-0.2,0-0.3-0.1c-0.1-0.1-0.1-0.4,0-0.5l4.5-4.5c0.1-0.1,0.4-0.1,0.5,0s0.1,0.4,0,0.5
						l-4.5,4.5C78.2,227.5,78.1,227.5,78,227.5z"/>
				</g>
				<g>
					<path class="st3" d="M92.7,227.8c-0.1,0-0.2,0-0.3-0.1l-4.8-4.8c-0.1-0.1-0.1-0.4,0-0.5s0.4-0.1,0.5,0l4.8,4.8
						c0.1,0.1,0.1,0.4,0,0.5C92.9,227.8,92.8,227.8,92.7,227.8z"/>
				</g>
			</g>
		</g>
	</g>
	<g>
		<g>
			<g>
				<rect x="84.4" y="167.9" class="st4" width="2.2" height="2.2"/>
			</g>
			<g>
				<rect x="88.6" y="167.9" class="st4" width="2.2" height="2.2"/>
			</g>
			<g>
				<rect x="80.3" y="167.9" class="st4" width="2.2" height="2.2"/>
			</g>
			<g>
				<rect x="88.6" y="171.4" class="st4" width="2.2" height="2.2"/>
			</g>
			<g>
				<rect x="84.4" y="171.4" class="st4" width="2.2" height="2.2"/>
			</g>
			<g>
				<rect x="80.3" y="171.4" class="st4" width="2.2" height="2.2"/>
			</g>
		</g>
		<g>
			<path class="st4" d="M93.3,177.3H77.8c-0.2,0-0.4-0.2-0.4-0.4v-12.8c0-0.2,0.2-0.4,0.4-0.4h15.6c0.2,0,0.4,0.2,0.4,0.4v12.8
				C93.7,177.1,93.5,177.3,93.3,177.3z M78.1,176.5h14.8v-12H78.1V176.5z"/>
		</g>
		<g>
			<path class="st4" d="M82,166c-0.2,0-0.4-0.2-0.4-0.4v-4.1c0-0.2,0.2-0.4,0.4-0.4s0.4,0.2,0.4,0.4v4.1C82.3,165.9,82.2,166,82,166
				z"/>
		</g>
		<g>
			<path class="st4" d="M88.7,166c-0.2,0-0.4-0.2-0.4-0.4v-4.1c0-0.2,0.2-0.4,0.4-0.4c0.2,0,0.4,0.2,0.4,0.4v4.1
				C89.1,165.9,88.9,166,88.7,166z"/>
		</g>
	</g>
	<g>
		<g>
			<g>
				<g>
					<g>
						<rect x="195.6" y="301.7" class="st4" width="5" height="16.7"/>
					</g>
					<g>
						<rect x="154" y="299.3" class="st4" width="5" height="19.1"/>
					</g>
					<g>
						<rect x="164.4" y="295.3" class="st4" width="5" height="23.1"/>
					</g>
					<g>
						<rect x="174.8" y="296.6" class="st4" width="5" height="21.8"/>
					</g>
					<g>
						<rect x="185.2" y="289.2" class="st4" width="5" height="29.2"/>
					</g>
					<g>
						<rect x="206.1" y="289.4" class="st4" width="5" height="29.1"/>
					</g>
					<g>
						<rect x="216.5" y="298.9" class="st4" width="5" height="19.5"/>
					</g>
					<g>
						<rect x="226.9" y="290.6" class="st4" width="5" height="27.8"/>
					</g>
					<g>
						<rect x="237.3" y="284.4" class="st4" width="5" height="34.1"/>
					</g>
					<g>
						<rect x="247.7" y="290.5" class="st4" width="5" height="27.9"/>
					</g>
				</g>
			</g>
		</g>
		<g>
			<path class="st0" d="M263.1,339.1H140.5c-5.6,0-10.1-4.5-10.1-10.1v-73.3c0-5.6,4.5-10.1,10.1-10.1h122.6
				c5.6,0,10.1,4.5,10.1,10.1V329C273.2,334.6,268.7,339.1,263.1,339.1z M140.5,246.6c-5,0-9.1,4.1-9.1,9.1V329c0,5,4.1,9.1,9.1,9.1
				h122.6c5,0,9.1-4.1,9.1-9.1v-73.3c0-5-4.1-9.1-9.1-9.1H140.5z"/>
		</g>
		<g>
			<g>
				<path class="st0" d="M210.3,270c0,0.1-14.2,0.3-31.7,0.3c-17.5,0-31.7-0.1-31.7-0.3c0-0.1,14.2-0.3,31.7-0.3
					C196.1,269.7,210.3,269.8,210.3,270z"/>
			</g>
		</g>
	</g>
	<g>
		<g>
			<g>
				<g>
					<g>
						<g>
							<g>
								<g>
									<path class="st10" d="M322.1,284.3c-1.3,0.7-2.5,1.6-3.5,2.7c-1,1-1.9,2.2-2.7,3.5c-0.7,1.3-1.3,2.6-1.7,4.1
										c-0.4,1.4-0.6,2.9-0.6,4.4c0,1.5,0.2,3,0.6,4.4c0.4,1.4,1,2.8,1.7,4.1c0.7,1.3,1.6,2.5,2.7,3.5c1,1,2.2,1.9,3.5,2.7
										c1.3,0.7,2.6,1.3,4.1,1.7c1.4,0.4,2.9,0.6,4.4,0.6c1.5,0,3-0.2,4.4-0.6c1.4-0.4,2.8-1,4.1-1.7c1.3-0.7,2.4-1.6,3.5-2.7
										c0,0,0,0,0,0c1-1,1.9-2.2,2.7-3.5c0.7-1.3,1.3-2.6,1.7-4.1c0.4-1.4,0.6-2.9,0.6-4.4c0-1.5-0.2-3-0.6-4.4
										c-0.4-1.4-1-2.8-1.7-4.1c-0.7-1.3-1.6-2.5-2.7-3.5c-1-1-2.2-1.9-3.5-2.7c-1.3-0.7-2.6-1.3-4.1-1.7
										c-1.4-0.4-2.9-0.6-4.4-0.6c-1.5,0-3,0.2-4.4,0.6C324.8,283,323.4,283.5,322.1,284.3z"/>
								</g>
								<g>
									<path class="st4" d="M339.1,313.6c-1.3,0.7-2.6,1.3-4.1,1.7c-1.4,0.4-2.9,0.6-4.4,0.6c-1.5,0-3-0.2-4.4-0.6
										c-1.4-0.4-2.8-1-4.1-1.7c-1.3-0.7-2.5-1.6-3.5-2.7c-1-1-1.9-2.2-2.7-3.5c-0.7-1.3-1.3-2.6-1.7-4.1
										c-0.4-1.4-0.6-2.9-0.6-4.4c0-1.5,0.2-3,0.6-4.4c0.4-1.4,1-2.8,1.7-4.1c0.7-1.3,1.6-2.5,2.7-3.5c1-1,2.2-1.9,3.5-2.7
										c1.3-0.7,2.6-1.3,4.1-1.7c1.4-0.4,2.9-0.6,4.4-0.6v-3.3c-1.8,0-3.6,0.2-5.2,0.7c-1.7,0.5-3.4,1.1-4.9,2
										c-1.5,0.9-2.9,2-4.2,3.2c-1.2,1.2-2.3,2.7-3.2,4.2c-0.9,1.5-1.6,3.1-2,4.9c-0.4,1.7-0.7,3.4-0.7,5.2c0,1.8,0.2,3.6,0.7,5.2
										c0.5,1.7,1.1,3.4,2,4.9c0.9,1.5,2,2.9,3.2,4.2c1.2,1.2,2.7,2.3,4.2,3.2c1.5,0.9,3.2,1.6,4.9,2c1.7,0.4,3.4,0.7,5.2,0.7
										c1.8,0,3.6-0.2,5.2-0.7c1.7-0.5,3.4-1.1,4.9-2c1.5-0.9,2.9-1.9,4.2-3.2l-2.4-2.4C341.5,311.9,340.3,312.8,339.1,313.6z"/>
								</g>
								<g>
									<path class="st0" d="M350.2,293.7c-0.5-1.7-1.1-3.4-2-4.9c-0.9-1.5-2-2.9-3.2-4.2c-1.2-1.2-2.7-2.3-4.2-3.2
										c-1.5-0.9-3.1-1.6-4.9-2c-1.7-0.4-3.4-0.7-5.2-0.7v3.3c1.5,0,3,0.2,4.4,0.6c1.4,0.4,2.8,1,4.1,1.7c1.3,0.7,2.5,1.6,3.5,2.7
										c1,1,1.9,2.2,2.7,3.5c0.7,1.3,1.3,2.6,1.7,4.1c0.4,1.4,0.6,2.9,0.6,4.4c0,1.5-0.2,3-0.6,4.4c-0.4,1.4-1,2.8-1.7,4.1
										c-0.7,1.3-1.6,2.5-2.7,3.5c0,0,0,0,0,0l2.4,2.4c0,0,0,0,0,0c1.2-1.2,2.3-2.7,3.2-4.2c0.9-1.5,1.6-3.2,2-4.9
										c0.4-1.7,0.7-3.4,0.7-5.2C350.9,297.1,350.6,295.3,350.2,293.7z"/>
								</g>
							</g>
							<g>
								<path class="st5" d="M327.4,301.1c0,1.1-0.9,1.8-2,1.8c-1.6,0-2.4-1.1-2.4-2.9c0-2,1.1-3,2.7-3c0.5,0,1,0.1,1.4,0.3
									l-0.2,0.5c-0.3-0.2-0.7-0.3-1.1-0.3c-1.3,0-2.1,0.8-2.1,2.4c0,0.1,0,0.3,0,0.5c0.3-0.6,1-1,1.8-1
									C326.6,299.3,327.4,300,327.4,301.1z M326.8,301.1c0-0.8-0.6-1.3-1.5-1.3c-0.9,0-1.5,0.6-1.5,1.3c0,0.6,0.5,1.3,1.5,1.3
									C326.2,302.3,326.8,301.9,326.8,301.1z"/>
								<path class="st5" d="M332,301.1c0,1-0.7,1.8-2.1,1.8c-0.8,0-1.6-0.3-2.1-0.8l0.3-0.5c0.4,0.4,1,0.7,1.8,0.7
									c1,0,1.5-0.5,1.5-1.2c0-0.8-0.5-1.2-2-1.2h-1.2l0.3-2.9h3.2v0.5H329l-0.2,1.9h0.8C331.4,299.4,332,300,332,301.1z"/>
								<path class="st5" d="M332.6,298.5c0-1,0.5-1.6,1.3-1.6c0.8,0,1.3,0.6,1.3,1.6c0,1-0.5,1.6-1.3,1.6
									C333.1,300.1,332.6,299.5,332.6,298.5z M334.8,298.5c0-0.8-0.4-1.2-0.9-1.2c-0.6,0-0.9,0.5-0.9,1.2c0,0.8,0.4,1.2,0.9,1.2
									C334.5,299.7,334.8,299.3,334.8,298.5z M337.5,297h0.5l-4,5.8h-0.5L337.5,297z M336.2,301.3c0-1,0.5-1.6,1.3-1.6
									c0.8,0,1.3,0.6,1.3,1.6c0,1-0.5,1.6-1.3,1.6C336.7,302.8,336.2,302.2,336.2,301.3z M338.4,301.3c0-0.8-0.4-1.2-0.9-1.2
									c-0.5,0-0.9,0.5-0.9,1.2c0,0.8,0.4,1.2,0.9,1.2C338.1,302.5,338.4,302,338.4,301.3z"/>
							</g>
						</g>
					</g>
					<g>
						<g>
							<g>
								<g>
									<path class="st0" d="M409.2,298.9c0,1.8-0.2,3.6-0.7,5.2c-0.5,1.7-1.1,3.4-2,4.9c-0.9,1.5-2,2.9-3.2,4.2
										c-1.2,1.2-2.7,2.3-4.2,3.2c-1.5,0.9-3.1,1.6-4.9,2c-1.7,0.4-3.4,0.7-5.2,0.7c-1.8,0-3.6-0.2-5.2-0.7
										c-1.7-0.5-3.4-1.1-4.9-2c-1.5-0.9-2.9-2-4.2-3.2c-1.2-1.2-2.3-2.7-3.2-4.2c-0.9-1.5-1.6-3.1-2-4.9
										c-0.3-1.2-0.5-2.5-0.6-3.8h3.4c0.1,1,0.3,2,0.5,3c0.4,1.4,1,2.8,1.7,4.1c0.8,1.3,1.6,2.5,2.7,3.5c1,1,2.2,1.9,3.5,2.7
										c1.3,0.7,2.6,1.3,4.1,1.7c1.4,0.4,2.9,0.6,4.4,0.6c1.5,0,3-0.2,4.4-0.6c1.4-0.4,2.8-1,4.1-1.7c1.3-0.8,2.5-1.6,3.5-2.7
										c1-1,1.9-2.2,2.7-3.5c0.7-1.3,1.3-2.6,1.7-4.1c0.4-1.4,0.6-2.9,0.6-4.4c0-1.5-0.2-3-0.6-4.4c-0.4-1.4-1-2.8-1.7-4.1
										c-0.8-1.3-1.6-2.5-2.7-3.5c-1-1-2.2-1.9-3.5-2.7c-1.3-0.7-2.6-1.3-4.1-1.7c-1.4-0.4-2.9-0.6-4.4-0.6v-3.3
										c1.8,0,3.6,0.2,5.2,0.7c1.7,0.5,3.4,1.1,4.9,2c1.5,0.9,2.9,2,4.2,3.2c1.2,1.2,2.3,2.7,3.2,4.2c0.9,1.5,1.6,3.1,2,4.9
										C408.9,295.3,409.2,297.1,409.2,298.9z"/>
								</g>
								<g>
									<path class="st5" d="M384.4,296.6v0.4l-2.4,5.4h-0.7l2.4-5.3h-3v1.1h-0.6v-1.6H384.4z"/>
									<path class="st5" d="M389,300.8c0,1-0.7,1.8-2.1,1.8c-0.8,0-1.6-0.3-2.1-0.8l0.3-0.5c0.4,0.4,1,0.7,1.8,0.7
										c1,0,1.5-0.5,1.5-1.2c0-0.8-0.5-1.2-2-1.2h-1.2l0.3-2.9h3.2v0.5H386l-0.2,1.9h0.8C388.3,299,389,299.7,389,300.8z"/>
									<path class="st5" d="M389.6,298.2c0-1,0.5-1.6,1.3-1.6c0.8,0,1.3,0.6,1.3,1.6c0,1-0.5,1.6-1.3,1.6
										C390.1,299.8,389.6,299.1,389.6,298.2z M391.8,298.2c0-0.8-0.4-1.2-0.9-1.2c-0.6,0-0.9,0.5-0.9,1.2c0,0.8,0.4,1.2,0.9,1.2
										C391.4,299.4,391.8,298.9,391.8,298.2z M394.4,296.6h0.5l-4,5.8h-0.5L394.4,296.6z M393.1,300.9c0-1,0.5-1.6,1.3-1.6
										c0.8,0,1.3,0.6,1.3,1.6c0,1-0.5,1.6-1.3,1.6C393.7,302.5,393.1,301.9,393.1,300.9z M395.4,300.9c0-0.8-0.4-1.2-0.9-1.2
										c-0.5,0-0.9,0.5-0.9,1.2c0,0.8,0.4,1.2,0.9,1.2C395,302.1,395.4,301.7,395.4,300.9z"/>
								</g>
							</g>
							<g>
								<path class="st4" d="M405.8,298.9c0,1.5-0.2,3-0.6,4.4c-0.4,1.4-1,2.8-1.7,4.1c-0.8,1.3-1.6,2.5-2.7,3.5
									c-1,1-2.2,1.9-3.5,2.7c-1.3,0.7-2.6,1.3-4.1,1.7c-1.4,0.4-2.9,0.6-4.4,0.6c-1.5,0-3-0.2-4.4-0.6c-1.4-0.4-2.8-1-4.1-1.7
									c-1.3-0.8-2.5-1.6-3.5-2.7c-1-1-1.9-2.2-2.7-3.5c-0.7-1.3-1.3-2.6-1.7-4.1c-0.3-1-0.4-2-0.5-3h0c0-0.5-0.1-0.9-0.1-1.4
									c0-1.5,0.2-3,0.6-4.4c0.4-1.4,1-2.8,1.7-4.1c0.7-1.3,1.6-2.5,2.7-3.5c1-1,2.2-1.9,3.5-2.7c1.3-0.7,2.6-1.3,4.1-1.7
									c1.4-0.4,2.9-0.6,4.4-0.6v-3.3c-1.8,0-3.6,0.2-5.2,0.7c-1.7,0.5-3.4,1.1-4.9,2c-1.5,0.9-2.9,2-4.2,3.2
									c-1.2,1.2-2.3,2.7-3.2,4.2c-0.9,1.5-1.6,3.2-2,4.9c-0.4,1.7-0.7,3.4-0.7,5.2c0,0.5,0,0.9,0.1,1.4h0c0.1,1.3,0.3,2.6,0.6,3.8
									c0.5,1.7,1.1,3.4,2,4.9c0.9,1.5,2,2.9,3.2,4.2c1.2,1.2,2.7,2.3,4.2,3.2c1.5,0.9,3.1,1.6,4.9,2c1.7,0.4,3.4,0.7,5.2,0.7
									c1.8,0,3.6-0.2,5.2-0.7c1.7-0.5,3.4-1.1,4.9-2c1.5-0.9,2.9-2,4.2-3.2c1.2-1.2,2.3-2.7,3.2-4.2c0.9-1.5,1.6-3.1,2-4.9
									c0.4-1.7,0.7-3.4,0.7-5.2H405.8z"/>
							</g>
						</g>
					</g>
				</g>
			</g>
		</g>
		<g>
			<path class="st0" d="M425.1,337.9H294.4c-4.9,0-8.8-3.9-8.8-8.8v-73.4c0-4.9,3.9-8.8,8.8-8.8h130.7c4.9,0,8.8,3.9,8.8,8.8v73.4
				C433.9,333.9,430,337.9,425.1,337.9z M294.4,247.9c-4.3,0-7.8,3.5-7.8,7.8v73.4c0,4.3,3.5,7.8,7.8,7.8h130.7
				c4.3,0,7.8-3.5,7.8-7.8v-73.4c0-4.3-3.5-7.8-7.8-7.8H294.4z"/>
		</g>
		<g>
			<g>
				<path class="st0" d="M361.1,267.5c0,0.1-13.7,0.3-30.5,0.3c-16.9,0-30.5-0.1-30.5-0.3c0-0.1,13.7-0.3,30.5-0.3
					C347.5,267.2,361.1,267.3,361.1,267.5z"/>
			</g>
		</g>
	</g>
	<g>
		<g>
			<g>
				<g>
					<g>
						<g>
							<path class="st0" d="M469.2,167.4L469.2,167.4c-1.1,0-2.1-0.9-2.1-2.1v-39.1c0-1.1,0.9-2.1,2.1-2.1l0,0
								c1.1,0,2.1,0.9,2.1,2.1v39.1C471.2,166.4,470.3,167.4,469.2,167.4z"/>
						</g>
					</g>
					<g>
						<g>
							<path class="st4" d="M469.2,167.5L469.2,167.5c-1.1,0-2.1-0.9-2.1-2.1v-25.2c0-1.1,0.9-2.1,2.1-2.1l0,0
								c1.1,0,2.1,0.9,2.1,2.1v25.2C471.2,166.6,470.3,167.5,469.2,167.5z"/>
						</g>
					</g>
				</g>
				<g>
					<g>
						<path class="st5" d="M467.9,169.2v3.5h-0.4v-3.2h-0.8v-0.3H467.9z"/>
					</g>
					<g>
						<path class="st5" d="M468.7,170.9c0-1.1,0.6-1.8,1.4-1.8s1.4,0.7,1.4,1.8c0,1.1-0.6,1.8-1.4,1.8S468.7,172,468.7,170.9z
							 M471.1,170.9c0-0.9-0.4-1.4-1-1.4c-0.6,0-1,0.5-1,1.4c0,0.9,0.4,1.4,1,1.4C470.7,172.4,471.1,171.8,471.1,170.9z"/>
					</g>
				</g>
			</g>
			<g>
				<g>
					<g>
						<g>
							<path class="st0" d="M477.5,167.4L477.5,167.4c-1.1,0-2.1-0.9-2.1-2.1v-39.1c0-1.1,0.9-2.1,2.1-2.1l0,0
								c1.1,0,2.1,0.9,2.1,2.1v39.1C479.6,166.4,478.6,167.4,477.5,167.4z"/>
						</g>
					</g>
					<g>
						<g>
							<path class="st4" d="M477.5,167.5L477.5,167.5c-1.1,0-2.1-0.9-2.1-2.1v-33.1c0-1.1,0.9-2.1,2.1-2.1l0,0
								c1.1,0,2.1,0.9,2.1,2.1v33.1C479.6,166.6,478.6,167.5,477.5,167.5z"/>
						</g>
					</g>
				</g>
				<g>
					<g>
						<path class="st5" d="M477,172.3v0.3h-2.4v-0.3l1.4-1.4c0.4-0.4,0.5-0.6,0.5-0.9c0-0.4-0.3-0.6-0.8-0.6c-0.4,0-0.7,0.1-0.9,0.4
							l-0.3-0.2c0.3-0.3,0.7-0.5,1.2-0.5c0.7,0,1.2,0.4,1.2,0.9c0,0.3-0.1,0.6-0.6,1.1l-1.2,1.2H477z"/>
					</g>
					<g>
						<path class="st5" d="M477.4,170.9c0-1.1,0.6-1.8,1.4-1.8c0.8,0,1.4,0.7,1.4,1.8c0,1.1-0.6,1.8-1.4,1.8
							C478,172.7,477.4,172,477.4,170.9z M479.8,170.9c0-0.9-0.4-1.4-1-1.4c-0.6,0-1,0.5-1,1.4c0,0.9,0.4,1.4,1,1.4
							C479.4,172.4,479.8,171.8,479.8,170.9z"/>
					</g>
				</g>
			</g>
			<g>
				<g>
					<g>
						<g>
							<path class="st0" d="M485.8,167.4L485.8,167.4c-1.1,0-2.1-0.9-2.1-2.1v-39.1c0-1.1,0.9-2.1,2.1-2.1l0,0
								c1.1,0,2.1,0.9,2.1,2.1v39.1C487.9,166.4,487,167.4,485.8,167.4z"/>
						</g>
					</g>
					<g>
						<g>
							<path class="st4" d="M485.8,167.5L485.8,167.5c-1.1,0-2.1-0.9-2.1-2.1v-19.2c0-1.1,0.9-2.1,2.1-2.1l0,0
								c1.1,0,2.1,0.9,2.1,2.1v19.2C487.9,166.6,487,167.5,485.8,167.5z"/>
						</g>
					</g>
				</g>
				<g>
					<g>
						<path class="st5" d="M485.3,171.7c0,0.6-0.4,1-1.3,1c-0.5,0-1-0.2-1.3-0.4l0.2-0.3c0.2,0.2,0.6,0.4,1.1,0.4
							c0.6,0,0.9-0.3,0.9-0.7c0-0.4-0.3-0.7-0.9-0.7h-0.2v-0.3l1-1.2h-1.8v-0.3h2.2v0.3l-1,1.2C484.9,170.7,485.3,171.1,485.3,171.7
							z"/>
					</g>
					<g>
						<path class="st5" d="M485.8,170.9c0-1.1,0.6-1.8,1.4-1.8s1.4,0.7,1.4,1.8c0,1.1-0.6,1.8-1.4,1.8S485.8,172,485.8,170.9z
							 M488.2,170.9c0-0.9-0.4-1.4-1-1.4c-0.6,0-1,0.5-1,1.4c0,0.9,0.4,1.4,1,1.4C487.8,172.4,488.2,171.8,488.2,170.9z"/>
					</g>
				</g>
			</g>
			<g>
				<g>
					<g>
						<g>
							<path class="st0" d="M494.1,167.4L494.1,167.4c-1.1,0-2.1-0.9-2.1-2.1v-39.1c0-1.1,0.9-2.1,2.1-2.1l0,0
								c1.1,0,2.1,0.9,2.1,2.1v39.1C496.2,166.4,495.3,167.4,494.1,167.4z"/>
						</g>
					</g>
					<g>
						<g>
							<path class="st4" d="M494.1,167.5L494.1,167.5c-1.1,0-2.1-0.9-2.1-2.1v-33.1c0-1.1,0.9-2.1,2.1-2.1l0,0
								c1.1,0,2.1,0.9,2.1,2.1v33.1C496.2,166.6,495.3,167.5,494.1,167.5z"/>
						</g>
					</g>
				</g>
				<g>
					<g>
						<path class="st5" d="M494.1,171.7h-0.7v0.9h-0.4v-0.9h-2v-0.3l1.8-2.3h0.4l-1.8,2.2h1.5v-0.8h0.3v0.8h0.7V171.7z"/>
					</g>
					<g>
						<path class="st5" d="M494.5,170.9c0-1.1,0.6-1.8,1.4-1.8s1.4,0.7,1.4,1.8c0,1.1-0.6,1.8-1.4,1.8S494.5,172,494.5,170.9z
							 M496.9,170.9c0-0.9-0.4-1.4-1-1.4c-0.6,0-1,0.5-1,1.4c0,0.9,0.4,1.4,1,1.4C496.5,172.4,496.9,171.8,496.9,170.9z"/>
					</g>
				</g>
			</g>
			<g>
				<g>
					<g>
						<g>
							<path class="st0" d="M502.5,167.4L502.5,167.4c-1.1,0-2.1-0.9-2.1-2.1v-39.1c0-1.1,0.9-2.1,2.1-2.1l0,0
								c1.1,0,2.1,0.9,2.1,2.1v39.1C504.5,166.4,503.6,167.4,502.5,167.4z"/>
						</g>
					</g>
					<g>
						<g>
							<path class="st4" d="M502.5,167.5L502.5,167.5c-1.1,0-2.1-0.9-2.1-2.1v-26.8c0-1.1,0.9-2.1,2.1-2.1l0,0
								c1.1,0,2.1,0.9,2.1,2.1v26.8C504.5,166.6,503.6,167.5,502.5,167.5z"/>
						</g>
					</g>
				</g>
				<g>
					<g>
						<path class="st5" d="M502.3,171.6c0,0.6-0.4,1.1-1.3,1.1c-0.5,0-1-0.2-1.2-0.4l0.2-0.3c0.2,0.2,0.6,0.4,1.1,0.4
							c0.6,0,0.9-0.3,0.9-0.7c0-0.4-0.3-0.7-1.2-0.7H500l0.2-1.7h1.9v0.3h-1.6l-0.1,1.1h0.4C501.9,170.6,502.3,171,502.3,171.6z"/>
					</g>
					<g>
						<path class="st5" d="M502.7,170.9c0-1.1,0.6-1.8,1.4-1.8s1.4,0.7,1.4,1.8c0,1.1-0.6,1.8-1.4,1.8S502.7,172,502.7,170.9z
							 M505.1,170.9c0-0.9-0.4-1.4-1-1.4c-0.6,0-1,0.5-1,1.4c0,0.9,0.4,1.4,1,1.4C504.7,172.4,505.1,171.8,505.1,170.9z"/>
					</g>
				</g>
			</g>
			<g>
				<g>
					<g>
						<g>
							<path class="st0" d="M510.8,167.4L510.8,167.4c-1.1,0-2.1-0.9-2.1-2.1v-39.1c0-1.1,0.9-2.1,2.1-2.1l0,0
								c1.1,0,2.1,0.9,2.1,2.1v39.1C512.9,166.4,511.9,167.4,510.8,167.4z"/>
						</g>
					</g>
					<g>
						<g>
							<path class="st4" d="M510.8,167.4L510.8,167.4c-1.1,0-2.1-0.9-2.1-1.9v-19.2c0-1.3,0.9-2.3,2.1-2.3l0,0
								c1.1,0,2.1,0.9,2.1,2.1v19.2C512.9,166.4,511.9,167.4,510.8,167.4z"/>
						</g>
					</g>
				</g>
				<g>
					<g>
						<path class="st5" d="M510.5,171.6c0,0.6-0.5,1.1-1.2,1.1c-0.9,0-1.4-0.6-1.4-1.7c0-1.2,0.6-1.8,1.6-1.8c0.3,0,0.6,0.1,0.8,0.2
							l-0.1,0.3c-0.2-0.1-0.4-0.2-0.7-0.2c-0.7,0-1.2,0.5-1.2,1.4c0,0.1,0,0.2,0,0.3c0.2-0.4,0.6-0.6,1.1-0.6
							C510,170.6,510.5,171,510.5,171.6z M510.2,171.6c0-0.5-0.3-0.7-0.9-0.7c-0.5,0-0.9,0.3-0.9,0.8c0,0.4,0.3,0.7,0.9,0.7
							C509.8,172.4,510.2,172.1,510.2,171.6z"/>
					</g>
					<g>
						<path class="st5" d="M510.9,170.9c0-1.1,0.6-1.8,1.4-1.8c0.8,0,1.4,0.7,1.4,1.8c0,1.1-0.6,1.8-1.4,1.8
							C511.5,172.7,510.9,172,510.9,170.9z M513.3,170.9c0-0.9-0.4-1.4-1-1.4c-0.6,0-1,0.5-1,1.4c0,0.9,0.4,1.4,1,1.4
							C512.9,172.4,513.3,171.8,513.3,170.9z"/>
					</g>
				</g>
			</g>
			<g>
				<g>
					<g>
						<g>
							<path class="st0" d="M519.1,167.4L519.1,167.4c-1.1,0-2.1-0.9-2.1-2.1v-39.1c0-1.1,0.9-2.1,2.1-2.1l0,0
								c1.1,0,2.1,0.9,2.1,2.1v39.1C521.2,166.4,520.2,167.4,519.1,167.4z"/>
						</g>
					</g>
					<g>
						<g>
							<path class="st4" d="M519.1,167.5L519.1,167.5c-1.1,0-2.1-0.9-2.1-2.1v-35.1c0-1.1,0.9-2.1,2.1-2.1l0,0
								c1.1,0,2.1,0.9,2.1,2.1v35.1C521.2,166.6,520.2,167.5,519.1,167.5z"/>
						</g>
					</g>
				</g>
				<g>
					<g>
						<path class="st5" d="M518.7,169.2v0.3l-1.5,3.2h-0.4l1.4-3.2h-1.8v0.6h-0.4v-1H518.7z"/>
					</g>
					<g>
						<path class="st5" d="M519,170.9c0-1.1,0.6-1.8,1.4-1.8c0.8,0,1.4,0.7,1.4,1.8c0,1.1-0.6,1.8-1.4,1.8
							C519.6,172.7,519,172,519,170.9z M521.4,170.9c0-0.9-0.4-1.4-1-1.4c-0.6,0-1,0.5-1,1.4c0,0.9,0.4,1.4,1,1.4
							C521,172.4,521.4,171.8,521.4,170.9z"/>
					</g>
				</g>
			</g>
			<g>
				<g>
					<g>
						<g>
							<path class="st0" d="M527.4,167.4L527.4,167.4c-1.1,0-2.1-0.9-2.1-2.1v-39.1c0-1.1,0.9-2.1,2.1-2.1l0,0
								c1.1,0,2.1,0.9,2.1,2.1v39.1C529.5,166.4,528.6,167.4,527.4,167.4z"/>
						</g>
					</g>
					<g>
						<g>
							<path class="st4" d="M527.4,167.5L527.4,167.5c-1.1,0-2.1-0.9-2.1-2.1v-15.3c0-1.1,0.9-2.1,2.1-2.1l0,0
								c1.1,0,2.1,0.9,2.1,2.1v15.3C529.5,166.6,528.6,167.5,527.4,167.5z"/>
						</g>
					</g>
				</g>
				<g>
					<g>
						<path class="st5" d="M527,171.7c0,0.6-0.5,1-1.3,1c-0.8,0-1.3-0.4-1.3-1c0-0.4,0.2-0.7,0.7-0.9c-0.4-0.1-0.5-0.4-0.5-0.8
							c0-0.6,0.5-0.9,1.2-0.9s1.2,0.4,1.2,0.9c0,0.4-0.2,0.6-0.6,0.8C526.8,171,527,171.3,527,171.7z M526.6,171.7
							c0-0.4-0.4-0.7-1-0.7c-0.6,0-1,0.3-1,0.7c0,0.4,0.4,0.7,1,0.7C526.3,172.4,526.6,172.1,526.6,171.7z M525.7,170.7
							c0.5,0,0.9-0.2,0.9-0.6c0-0.4-0.3-0.6-0.9-0.6c-0.5,0-0.9,0.2-0.9,0.6C524.8,170.5,525.1,170.7,525.7,170.7z"/>
					</g>
					<g>
						<path class="st5" d="M527.5,170.9c0-1.1,0.6-1.8,1.4-1.8c0.8,0,1.4,0.7,1.4,1.8c0,1.1-0.6,1.8-1.4,1.8
							C528.1,172.7,527.5,172,527.5,170.9z M529.9,170.9c0-0.9-0.4-1.4-1-1.4c-0.6,0-1,0.5-1,1.4c0,0.9,0.4,1.4,1,1.4
							C529.5,172.4,529.9,171.8,529.9,170.9z"/>
					</g>
				</g>
			</g>
			<g>
				<g>
					<g>
						<g>
							<path class="st0" d="M535.7,167.4L535.7,167.4c-1.1,0-2.1-0.9-2.1-2.1v-39.1c0-1.1,0.9-2.1,2.1-2.1l0,0
								c1.1,0,2.1,0.9,2.1,2.1v39.1C537.8,166.4,536.9,167.4,535.7,167.4z"/>
						</g>
					</g>
					<g>
						<g>
							<path class="st4" d="M535.7,167.4L535.7,167.4c-1.1,0-2.1-0.9-2.1-1.9v-5.4c0-1.3,0.9-2.3,2.1-2.3l0,0c1.1,0,2.1,0.9,2.1,2.1
								v5.4C537.8,166.4,536.9,167.4,535.7,167.4z"/>
						</g>
					</g>
				</g>
				<g>
					<g>
						<path class="st5" d="M535.1,170.9c0,1.2-0.6,1.8-1.6,1.8c-0.3,0-0.6-0.1-0.8-0.2l0.1-0.3c0.2,0.1,0.4,0.2,0.7,0.2
							c0.7,0,1.2-0.5,1.2-1.4c0-0.1,0-0.2,0-0.3c-0.2,0.4-0.6,0.6-1.1,0.6c-0.7,0-1.2-0.4-1.2-1c0-0.6,0.5-1.1,1.2-1.1
							C534.6,169.1,535.1,169.8,535.1,170.9z M534.6,170.2c0-0.4-0.3-0.7-0.9-0.7c-0.5,0-0.8,0.3-0.8,0.8c0,0.5,0.3,0.7,0.9,0.7
							C534.3,171,534.6,170.6,534.6,170.2z"/>
					</g>
					<g>
						<path class="st5" d="M535.6,170.9c0-1.1,0.6-1.8,1.4-1.8s1.4,0.7,1.4,1.8c0,1.1-0.6,1.8-1.4,1.8S535.6,172,535.6,170.9z
							 M538,170.9c0-0.9-0.4-1.4-1-1.4c-0.6,0-1,0.5-1,1.4c0,0.9,0.4,1.4,1,1.4C537.6,172.4,538,171.8,538,170.9z"/>
					</g>
				</g>
			</g>
			<g>
				<g>
					<g>
						<g>
							<path class="st0" d="M544.1,167.4L544.1,167.4c-1.1,0-2.1-0.9-2.1-2.1v-39.1c0-1.1,0.9-2.1,2.1-2.1l0,0
								c1.1,0,2.1,0.9,2.1,2.1v39.1C546.1,166.4,545.2,167.4,544.1,167.4z"/>
						</g>
					</g>
					<g>
						<g>
							<path class="st4" d="M544.1,167.4L544.1,167.4c-1.1,0-2.1-0.9-2.1-1.9v-19.2c0-1.3,0.9-2.3,2.1-2.3l0,0
								c1.1,0,2.1,0.9,2.1,2.1v19.2C546.1,166.4,545.2,167.4,544.1,167.4z"/>
						</g>
					</g>
				</g>
				<g>
					<g>
						<path class="st5" d="M541.1,169.2v3.5h-0.4v-3.2h-0.8v-0.3H541.1z"/>
					</g>
					<g>
						<path class="st5" d="M541.9,170.9c0-1.1,0.6-1.8,1.4-1.8c0.8,0,1.4,0.7,1.4,1.8c0,1.1-0.6,1.8-1.4,1.8
							C542.5,172.7,541.9,172,541.9,170.9z M544.3,170.9c0-0.9-0.4-1.4-1-1.4c-0.6,0-1,0.5-1,1.4c0,0.9,0.4,1.4,1,1.4
							C543.9,172.4,544.3,171.8,544.3,170.9z"/>
					</g>
					<g>
						<path class="st5" d="M545.2,170.9c0-1.1,0.6-1.8,1.4-1.8c0.8,0,1.4,0.7,1.4,1.8c0,1.1-0.6,1.8-1.4,1.8
							C545.8,172.7,545.2,172,545.2,170.9z M547.6,170.9c0-0.9-0.4-1.4-1-1.4c-0.6,0-1,0.5-1,1.4c0,0.9,0.4,1.4,1,1.4
							C547.2,172.4,547.6,171.8,547.6,170.9z"/>
					</g>
				</g>
			</g>
		</g>
	</g>
	<g>
		<g>
			<path class="st0" d="M527.3,104.6c0,0.1-13.5,0.3-30.3,0.3c-16.7,0-30.3-0.1-30.3-0.3c0-0.1,13.5-0.3,30.3-0.3
				C513.8,104.4,527.3,104.5,527.3,104.6z"/>
		</g>
	</g>
	<g>
		<g>
			<path class="st0" d="M546.1,196c0,0.1-17.8,0.3-39.7,0.3c-21.9,0-39.7-0.1-39.7-0.3c0-0.1,17.8-0.3,39.7-0.3
				C528.4,195.7,546.1,195.9,546.1,196z"/>
		</g>
	</g>
	<g>
		<g>
			<path class="st0" d="M546.1,209.6c0,0.1-17.8,0.3-39.7,0.3c-21.9,0-39.7-0.1-39.7-0.3c0-0.1,17.8-0.3,39.7-0.3
				C528.4,209.4,546.1,209.5,546.1,209.6z"/>
		</g>
	</g>
	<g>
		<g>
			<path class="st0" d="M546.1,223.3c0,0.1-17.8,0.3-39.7,0.3c-21.9,0-39.7-0.1-39.7-0.3c0-0.1,17.8-0.3,39.7-0.3
				C528.4,223,546.1,223.1,546.1,223.3z"/>
		</g>
	</g>
	<g>
		<g>
			<path class="st0" d="M546.1,236.9c0,0.1-17.8,0.3-39.7,0.3c-21.9,0-39.7-0.1-39.7-0.3s17.8-0.3,39.7-0.3
				C528.4,236.6,546.1,236.7,546.1,236.9z"/>
		</g>
	</g>
	<g>
		<g>
			<path class="st0" d="M546.1,250.5c0,0.1-17.8,0.3-39.7,0.3c-21.9,0-39.7-0.1-39.7-0.3c0-0.1,17.8-0.3,39.7-0.3
				C528.4,250.3,546.1,250.4,546.1,250.5z"/>
		</g>
	</g>
	<g>
		<path class="st4" d="M543,296.9c7.4,0,13.4,6,13.4,13.4v11.1c0,7.4-6,13.4-13.4,13.4h-74.7c-7.4,0-13.4-6-13.4-13.4v-11.1
			c0-7.4,6-13.4,13.4-13.4H543 M543,295.9h-74.7c-7.9,0-14.4,6.4-14.4,14.4v11.1c0,7.9,6.4,14.4,14.4,14.4H543
			c7.9,0,14.4-6.4,14.4-14.4v-11.1C557.4,302.3,550.9,295.9,543,295.9L543,295.9z"/>
	</g>
	<g>
		<g>
			<path class="st4" d="M536.7,317c0,0.1-13.9,0.3-31.1,0.3c-17.2,0-31.1-0.1-31.1-0.3c0-0.1,13.9-0.3,31.1-0.3
				C522.8,316.7,536.7,316.8,536.7,317z"/>
		</g>
	</g>
	<g>
		<g>
			<path class="st4" d="M244.8,44.7c7.7-6,14.5-13.5,23.3-17.7c15.2-7.2,33.1-3.6,49.3,0.9s33.3,9.6,49.5,5.1
				c15-4.3,26.9-17.4,30.3-32.6H118.9c3.7,30.8,26.9,56.2,57.7,61.5c0.6,0.1,1.3,0.2,1.9,0.3C201.8,65.7,226.3,59.2,244.8,44.7z"/>
		</g>
		<g>
			<path class="st4" d="M433.7,29c7.8,7.1,19.3,9,29.8,7.8c7.1-0.8,14.3-3.1,19.4-8c5.8-5.6,8.2-14.3,6.6-22.3
				c-0.4-2.1-1.1-4.1-2-6.1h-58C423.1,8.8,425.9,21.9,433.7,29z"/>
		</g>
	</g>
	<g class="st11">
		<g>
			<path class="st12" d="M244.8,44.7c7.7-6,14.5-13.5,23.3-17.7c15.2-7.2,33.1-3.6,49.3,0.9s33.3,9.6,49.5,5.1
				c15-4.3,26.9-17.4,30.3-32.6H118.9c3.7,30.8,26.9,56.2,57.7,61.5c0.6,0.1,1.3,0.2,1.9,0.3C201.8,65.7,226.3,59.2,244.8,44.7z"/>
		</g>
		<g>
			<path class="st12" d="M433.7,29c7.8,7.1,19.3,9,29.8,7.8c7.1-0.8,14.3-3.1,19.4-8c5.8-5.6,8.2-14.3,6.6-22.3
				c-0.4-2.1-1.1-4.1-2-6.1h-58C423.1,8.8,425.9,21.9,433.7,29z"/>
		</g>
	</g>
	<g>
		<g>
			<g>
				<g>
					<g>
						<g>
							<g>
								<g>
									<g>
										<g>
											<path class="st10" d="M491.5,27.7c0.4,0,0.7,0.1,1,0.3l0.8-0.6l1.3,1l-0.4,0.9c0.2,0.3,0.4,0.6,0.5,0.9l1,0.1l0.2,1.6
												l-0.9,0.3c0,0.4-0.1,0.7-0.3,1l0.6,0.8l-1,1.3l-0.9-0.4c-0.3,0.2-0.6,0.4-0.9,0.5l-0.1,1l-1.6,0.2l-0.3-0.9
												c-0.4,0-0.7-0.1-1-0.3l-0.8,0.6l-1.3-1l0.4-0.9c-0.2-0.3-0.4-0.6-0.5-0.9l-1-0.1l-0.2-1.6l0.9-0.3c0-0.4,0.1-0.7,0.3-1
												l-0.6-0.8l1-1.3l0.9,0.4c0.3-0.2,0.6-0.4,0.9-0.5l0.1-1l1.6-0.2L491.5,27.7L491.5,27.7z M491,30c-1.1,0-1.9,1.1-1.7,2.2
												c0.2,0.8,0.9,1.4,1.8,1.3c1.1,0,1.9-1.1,1.7-2.2C492.6,30.5,491.9,30,491,30z"/>
										</g>
										<g>
											<g>
												<path class="st5" d="M491,30c0,0,0.2-0.1,0.5-0.1c0.3,0,0.7,0.2,1.1,0.6c0.4,0.4,0.6,1.1,0.4,1.8
													c-0.2,0.7-0.9,1.4-1.8,1.4c-0.9,0-1.7-0.6-1.9-1.3c-0.3-0.7-0.1-1.4,0.3-1.9c0.3-0.4,0.8-0.6,1.1-0.7
													C490.9,29.9,491,30,491,30c0,0.1-0.7,0.1-1.2,0.8c-0.2,0.4-0.4,0.9-0.1,1.5c0.2,0.5,0.8,1,1.5,0.9c0.7,0,1.2-0.5,1.4-1
													c0.2-0.5,0-1.1-0.2-1.5C491.7,30,491,30.1,491,30z"/>
											</g>
										</g>
										<g>
											<g>
												<path class="st5" d="M491.5,27.7c0,0-0.2-0.3-0.4-0.9l0.1,0.1c-0.5,0.1-1,0.2-1.6,0.3l0.1-0.1c0,0.3,0,0.6-0.1,1l0,0.1
													l-0.1,0c-0.3,0.1-0.6,0.3-0.9,0.5l-0.1,0.1l-0.1,0c-0.3-0.1-0.6-0.3-0.9-0.4l0.2-0.1c-0.3,0.4-0.6,0.9-1,1.3l0-0.3
													c0.2,0.2,0.4,0.5,0.6,0.8l0.1,0.1l0,0.1c-0.1,0.3-0.2,0.6-0.2,1l0,0.1l-0.1,0c-0.3,0.1-0.6,0.2-0.9,0.4l0.1-0.2
													c0.1,0.5,0.2,1.1,0.2,1.6l-0.2-0.2c0.3,0,0.6,0.1,1,0.1l0.1,0l0.1,0.1c0.1,0.3,0.3,0.6,0.5,0.9l0.1,0.1l-0.1,0.1
													c-0.1,0.3-0.3,0.6-0.4,0.9l-0.1-0.3c0.4,0.3,0.9,0.7,1.3,1l-0.3,0c0.2-0.2,0.5-0.4,0.8-0.6l0.1-0.1l0.1,0.1
													c0.3,0.1,0.6,0.2,1,0.3h0l0.2,0.2l0,0l0,0l0,0l0,0l0,0l0,0l0,0.1l0,0.1l0.1,0.2l0.2,0.5l-0.3-0.2
													c0.6-0.1,1.1-0.1,1.6-0.2l-0.2,0.2c0-0.3,0.1-0.7,0.1-1l0-0.2l0.1-0.1c0.3-0.1,0.6-0.3,0.9-0.5l0.1-0.1l0.1,0.1
													c0.3,0.1,0.6,0.3,0.9,0.4l-0.3,0.1c0.3-0.4,0.7-0.9,1-1.3l0,0.3c-0.2-0.3-0.4-0.5-0.6-0.8l-0.1-0.1l0.1-0.1
													c0.1-0.3,0.2-0.6,0.3-1l0-0.1l0.1,0c0.3-0.1,0.6-0.2,0.9-0.3l-0.1,0.2c-0.1-0.6-0.1-1.1-0.2-1.6l0.2,0.2
													c-0.3,0-0.7-0.1-1-0.1l-0.1,0l0-0.1c-0.1-0.3-0.3-0.6-0.5-0.9l-0.1-0.1l0-0.1c0.2-0.3,0.3-0.6,0.4-0.9l0,0.2
													c-0.5-0.4-0.9-0.7-1.3-1l0.1,0c-0.3,0.2-0.6,0.4-0.8,0.6l0,0l0,0C491.9,27.8,491.5,27.8,491.5,27.7c0,0,0.1,0,0.3,0
													c0.2,0,0.4,0.1,0.8,0.2l-0.1,0c0.2-0.2,0.5-0.4,0.7-0.7l0.1-0.1l0.1,0.1c0.4,0.3,0.8,0.6,1.3,1l0.1,0.1l-0.1,0.1
													c-0.1,0.3-0.3,0.6-0.4,0.9l0-0.2c0.2,0.3,0.4,0.6,0.6,1l-0.2-0.1c0.3,0,0.6,0,1,0.1l0.2,0l0,0.2
													c0.1,0.5,0.2,1.1,0.2,1.6l0,0.2l-0.2,0.1c-0.3,0.1-0.6,0.2-0.9,0.4l0.1-0.2c0,0.4-0.1,0.7-0.3,1.1l0-0.2
													c0.2,0.2,0.4,0.5,0.6,0.8l0.1,0.1l-0.1,0.2c-0.3,0.4-0.7,0.9-1,1.3l-0.1,0.2l-0.2-0.1c-0.3-0.1-0.6-0.3-0.9-0.4l0.3,0
													c-0.3,0.2-0.6,0.4-1,0.6l0.2-0.2c0,0.3-0.1,0.7-0.1,1l0,0.2l-0.2,0c-0.5,0.1-1.1,0.1-1.6,0.2l-0.2,0l-0.1-0.2l-0.2-0.5
													l-0.1-0.2l0-0.1l0-0.1l0,0l0,0l0,0l0,0l0,0l0,0l0.2,0.2h0l0,0c-0.4,0-0.8-0.2-1.1-0.3l0.3,0c-0.3,0.2-0.5,0.4-0.8,0.6
													l-0.2,0.1l-0.2-0.1c-0.4-0.3-0.9-0.7-1.3-1l-0.2-0.1l0.1-0.2c0.1-0.3,0.3-0.6,0.4-0.9l0,0.3c-0.2-0.3-0.4-0.7-0.6-1
													l0.2,0.2c-0.3,0-0.7-0.1-1-0.1l-0.2,0l0-0.2c-0.1-0.6-0.1-1.1-0.2-1.6l0-0.2l0.2-0.1c0.3-0.1,0.6-0.2,0.9-0.3l-0.1,0.2
													c0.1-0.4,0.2-0.8,0.3-1.1l0,0.2c-0.2-0.3-0.4-0.5-0.6-0.8l-0.1-0.1l0.1-0.1c0.4-0.5,0.7-0.9,1-1.3l0.1-0.1l0.1,0.1
													c0.3,0.1,0.6,0.3,0.9,0.4l-0.2,0c0.3-0.2,0.6-0.4,1-0.5l-0.1,0.1c0-0.4,0.1-0.7,0.1-1l0-0.1l0.1,0
													c0.6-0.1,1.2-0.1,1.6-0.2l0.1,0l0,0.1C491.5,27.4,491.5,27.7,491.5,27.7z"/>
											</g>
										</g>
									</g>
								</g>
							</g>
						</g>
					</g>
				</g>
			</g>
		</g>
	</g>
	<g>
		<g>
			<path class="st5" d="M558.6,356.7c0,0,0.1,0,0.3,0c0.2,0,0.5,0,0.8-0.1c0.7-0.1,1.8-0.3,3.1-1c1.3-0.7,2.7-1.9,3.6-3.9
				c0.5-1,0.8-2.1,0.8-3.4c0-1.2,0-2.6,0-4c0-11.4,0-28.1,0-49.7c0-43.2,0-105.7-0.1-183c0-19.3,0-39.5,0-60.6c0-10.5,0-21.3,0-32.3
				c0-2.7,0-5.5,0-8.3c0-1.4,0-2.8-0.5-4c-0.4-1.3-1.2-2.5-2.2-3.4c-1-0.9-2.2-1.7-3.5-2c-1.3-0.4-2.7-0.3-4.1-0.3
				c-2.8,0-5.6,0-8.5,0c-45.4,0-93.9,0-145,0c-102.1,0-214.4,0-332.3,0c-1.8,0-3.6,0.6-5,1.6c-1.5,1-2.5,2.6-3.1,4.3
				c-0.6,1.7-0.3,3.5-0.4,5.4v5.5c0,7.3,0,14.6,0,21.9c0,14.6,0,29,0,43.4c0,28.7,0,57,0,84.8c0,55.6,0,109.2,0,160.3
				c0,6.4,0,12.7,0,19c0,0.8,0,1.6,0.1,2.3c0.1,0.8,0.3,1.5,0.6,2.2c0.6,1.4,1.6,2.6,2.8,3.5c1.2,0.9,2.7,1.4,4.2,1.5
				c1.5,0.1,3.1,0,4.7,0c12.4,0,24.7,0,36.8,0c24.2,0,47.7,0,70.4,0c45.4,0,87.7,0,126.4,0C463,356.6,557.1,356.7,558.6,356.7
				c-1.4,0-95.6,0.1-250,0.2c-38.6,0-80.9,0-126.4,0c-22.7,0-46.2,0-70.4,0c-12.1,0-24.4,0-36.8,0c-1.6,0-3.1,0-4.7,0
				c-1.6-0.1-3.2-0.7-4.5-1.6c-1.3-0.9-2.4-2.2-3-3.7c-0.3-0.7-0.6-1.5-0.6-2.3c-0.1-0.8-0.1-1.6-0.1-2.4c0-6.3,0-12.6,0-19
				c0-51.1,0-104.7,0-160.3c0-27.8,0-56.1,0-84.8c0-14.4,0-28.8,0-43.4c0-7.3,0-14.6,0-21.9l0-5.5V9.3c0-0.9,0.1-1.9,0.4-2.8
				C63,4.7,64.2,3,65.7,1.9c1.5-1.1,3.4-1.7,5.3-1.7c117.9,0,230.1,0,332.3,0c51.1,0,99.6,0,145,0c2.8,0,5.7,0,8.5,0
				c1.4,0,2.8-0.1,4.2,0.4c1.4,0.4,2.6,1.1,3.7,2.1c1,1,1.8,2.2,2.3,3.6c0.5,1.3,0.5,2.8,0.5,4.2c0,2.8,0,5.5,0,8.3
				c0,11,0,21.7,0,32.3c0,21.1,0,41.3,0,60.6c0,77.2-0.1,139.8-0.1,183c0,21.6,0,38.4,0,49.7c0,1.4,0,2.8,0,4c0,1.3-0.4,2.4-0.8,3.4
				c-0.9,2-2.4,3.2-3.7,3.9c-1.3,0.7-2.4,0.9-3.1,1C558.9,356.7,558.6,356.7,558.6,356.7z"/>
		</g>
	</g>
	<g>
		<g>
			<path class="st0" d="M433.8,124.5h-79.1c-5.3,0-9.6-4.3-9.6-9.6V87.7c0-5.3,4.3-9.6,9.6-9.6h79.1c5.3,0,9.6,4.3,9.6,9.6V115
				C443.3,120.2,439,124.5,433.8,124.5z"/>
		</g>
		<g>
			<g>
				<g>
					<path class="st5" d="M371.9,100.4v8.5h-0.9v-7.8h-2v-0.8H371.9z"/>
					<path class="st5" d="M379.8,106.4c0,1.5-1,2.6-3.1,2.6c-1.2,0-2.4-0.4-3.1-1.1l0.4-0.7c0.5,0.6,1.5,1,2.6,1
						c1.5,0,2.2-0.7,2.2-1.7c0-1.1-0.7-1.8-2.9-1.8h-1.8l0.4-4.3h4.7v0.8h-3.9l-0.3,2.7h1.1C378.8,103.9,379.8,104.9,379.8,106.4z"
						/>
					<path class="st5" d="M380.9,104.7c0-2.7,1.4-4.3,3.4-4.3c2,0,3.4,1.6,3.4,4.3c0,2.7-1.4,4.3-3.4,4.3
						C382.3,109,380.9,107.4,380.9,104.7z M386.8,104.7c0-2.3-1-3.5-2.5-3.5c-1.5,0-2.5,1.3-2.5,3.5c0,2.3,1,3.5,2.5,3.5
						C385.8,108.2,386.8,106.9,386.8,104.7z"/>
					<path class="st5" d="M389,104.7c0-2.7,1.4-4.3,3.4-4.3c2,0,3.4,1.6,3.4,4.3c0,2.7-1.4,4.3-3.4,4.3
						C390.4,109,389,107.4,389,104.7z M394.9,104.7c0-2.3-1-3.5-2.5-3.5c-1.5,0-2.5,1.3-2.5,3.5c0,2.3,1,3.5,2.5,3.5
						C393.9,108.2,394.9,106.9,394.9,104.7z"/>
					<path class="st5" d="M404.3,106.7h-1.7v2.2h-0.9v-2.2h-4.8V106l4.5-5.7h1l-4.4,5.5h3.7v-2h0.9v2h1.7V106.7z"/>
					<path class="st5" d="M410.9,108.1v0.8h-6v-0.6l3.6-3.5c1-1,1.1-1.5,1.1-2.1c0-1-0.7-1.6-2-1.6c-1,0-1.8,0.3-2.3,1l-0.6-0.5
						c0.7-0.8,1.7-1.2,3-1.2c1.7,0,2.8,0.9,2.8,2.3c0,0.8-0.3,1.5-1.4,2.7l-2.9,2.9H410.9z"/>
					<path class="st5" d="M412,104.7c0-2.7,1.4-4.3,3.4-4.3c2,0,3.4,1.6,3.4,4.3c0,2.7-1.4,4.3-3.4,4.3
						C413.4,109,412,107.4,412,104.7z M417.9,104.7c0-2.3-1-3.5-2.5-3.5c-1.5,0-2.5,1.3-2.5,3.5c0,2.3,1,3.5,2.5,3.5
						C416.9,108.2,417.9,106.9,417.9,104.7z"/>
				</g>
			</g>
		</g>
		<g>
			<g>
				<path class="st5" d="M402.7,91.6c0,0.1-9.5,0.3-21.2,0.3c-11.7,0-21.2-0.1-21.2-0.3s9.5-0.3,21.2-0.3
					C393.2,91.3,402.7,91.4,402.7,91.6z"/>
			</g>
		</g>
	</g>
	<g>
		<g>
			<g>
				<path class="st0" d="M326.6,124.8h-79.1c-5.3,0-9.6-4.3-9.6-9.6V87.9c0-5.3,4.3-9.6,9.6-9.6h79.1c5.3,0,9.6,4.3,9.6,9.6v27.3
					C336.2,120.5,331.9,124.8,326.6,124.8z"/>
			</g>
			<g>
				<g>
					<g>
						<path class="st5" d="M260.9,111.4v1.4h-0.6v-1.4c-1.2-0.1-2.3-0.5-2.9-1.1l0.4-0.7c0.6,0.5,1.5,1,2.6,1v-3.2
							c-1.3-0.3-2.7-0.7-2.7-2.4c0-1.2,0.8-2.2,2.7-2.3v-1.4h0.6v1.4c0.9,0,1.8,0.3,2.5,0.8l-0.3,0.7c-0.7-0.4-1.5-0.7-2.2-0.7v3.2
							c1.4,0.3,2.8,0.7,2.8,2.4C263.7,110.3,262.9,111.3,260.9,111.4z M260.3,106.6v-3.1c-1.3,0.1-1.8,0.8-1.8,1.5
							C258.5,106,259.3,106.3,260.3,106.6z M262.9,109.1c0-1-0.9-1.3-1.9-1.6v3.1C262.3,110.5,262.9,109.9,262.9,109.1z"/>
						<path class="st5" d="M274,110.6v0.8h-6v-0.6l3.6-3.5c1-1,1.1-1.5,1.1-2.1c0-1-0.7-1.6-2-1.6c-1,0-1.8,0.3-2.3,1l-0.6-0.5
							c0.7-0.8,1.7-1.2,3-1.2c1.7,0,2.8,0.9,2.8,2.3c0,0.8-0.3,1.5-1.4,2.7l-2.9,2.9H274z"/>
						<path class="st5" d="M280.7,108.9c0,1.4-1,2.5-3.1,2.5c-1.2,0-2.4-0.4-3.1-1.1l0.4-0.7c0.5,0.6,1.5,1,2.6,1
							c1.4,0,2.2-0.7,2.2-1.7c0-1-0.7-1.7-2.3-1.7h-0.6v-0.6l2.4-3h-4.4v-0.8h5.5v0.6l-2.4,3C279.8,106.6,280.7,107.5,280.7,108.9z"
							/>
						<path class="st5" d="M287.7,108.8c0,1.5-1,2.6-3.1,2.6c-1.2,0-2.4-0.4-3.1-1.1l0.4-0.7c0.5,0.6,1.5,1,2.6,1
							c1.5,0,2.2-0.7,2.2-1.7c0-1.1-0.7-1.8-2.9-1.8h-1.8l0.4-4.3h4.7v0.8h-3.9l-0.3,2.7h1.1C286.7,106.3,287.7,107.3,287.7,108.8z"
							/>
						<path class="st5" d="M288.8,107.1c0-2.7,1.4-4.3,3.4-4.3c2,0,3.4,1.6,3.4,4.3s-1.4,4.3-3.4,4.3
							C290.2,111.4,288.8,109.8,288.8,107.1z M294.7,107.1c0-2.3-1-3.5-2.5-3.5c-1.5,0-2.5,1.3-2.5,3.5c0,2.3,1,3.5,2.5,3.5
							C293.7,110.6,294.7,109.4,294.7,107.1z"/>
						<path class="st5" d="M298,110.7c0,0.2,0,0.4-0.2,0.7l-0.5,1.7h-0.6l0.4-1.8c-0.3-0.1-0.4-0.3-0.4-0.6c0-0.4,0.3-0.7,0.6-0.7
							C297.8,110.1,298,110.4,298,110.7z"/>
						<path class="st5" d="M299.2,107.1c0-2.7,1.4-4.3,3.4-4.3c2,0,3.4,1.6,3.4,4.3s-1.4,4.3-3.4,4.3
							C300.6,111.4,299.2,109.8,299.2,107.1z M305.1,107.1c0-2.3-1-3.5-2.5-3.5c-1.5,0-2.5,1.3-2.5,3.5c0,2.3,1,3.5,2.5,3.5
							C304.1,110.6,305.1,109.4,305.1,107.1z"/>
						<path class="st5" d="M307.3,107.1c0-2.7,1.4-4.3,3.4-4.3c2,0,3.4,1.6,3.4,4.3s-1.4,4.3-3.4,4.3
							C308.7,111.4,307.3,109.8,307.3,107.1z M313.2,107.1c0-2.3-1-3.5-2.5-3.5c-1.5,0-2.5,1.3-2.5,3.5c0,2.3,1,3.5,2.5,3.5
							C312.1,110.6,313.2,109.4,313.2,107.1z"/>
					</g>
				</g>
			</g>
		</g>
		<g>
			<g>
				<path class="st5" d="M294.4,92.8c0,0.1-8.6,0.3-19.2,0.3c-10.6,0-19.2-0.1-19.2-0.3c0-0.1,8.6-0.3,19.2-0.3
					C285.8,92.6,294.4,92.7,294.4,92.8z"/>
			</g>
		</g>
	</g>
	<g>
		<g>
			<g>
				<path class="st4" d="M219,124.8h-79.1c-5.3,0-9.6-4.3-9.6-9.6V87.9c0-5.3,4.3-9.6,9.6-9.6H219c5.3,0,9.6,4.3,9.6,9.6v27.3
					C228.6,120.5,224.3,124.8,219,124.8z"/>
			</g>
			<g>
				<g>
					<path class="st12" d="M152.6,111.4v1.4H152v-1.4c-1.2-0.1-2.3-0.5-2.9-1.1l0.4-0.7c0.6,0.5,1.5,1,2.6,1v-3.2
						c-1.3-0.3-2.7-0.7-2.7-2.4c0-1.2,0.8-2.2,2.7-2.3v-1.4h0.6v1.4c0.9,0,1.8,0.3,2.5,0.8l-0.3,0.7c-0.7-0.4-1.5-0.7-2.2-0.7v3.2
						c1.4,0.3,2.8,0.7,2.8,2.4C155.4,110.3,154.5,111.3,152.6,111.4z M152,106.6v-3.1c-1.3,0.1-1.8,0.8-1.8,1.5
						C150.1,106,151,106.3,152,106.6z M154.5,109.1c0-1-0.9-1.3-1.9-1.6v3.1C153.9,110.5,154.5,109.9,154.5,109.1z"/>
					<path class="st12" d="M165.6,110.6v0.8h-6v-0.6l3.6-3.5c1-1,1.1-1.5,1.1-2.1c0-1-0.7-1.6-2-1.6c-1,0-1.8,0.3-2.3,1l-0.6-0.5
						c0.7-0.8,1.7-1.2,3-1.2c1.7,0,2.8,0.9,2.8,2.3c0,0.8-0.3,1.5-1.4,2.7l-2.9,2.9H165.6z"/>
					<path class="st12" d="M169.1,102.8v8.5h-0.9v-7.8h-2v-0.8H169.1z"/>
					<path class="st12" d="M171.1,107.1c0-2.7,1.4-4.3,3.4-4.3c2,0,3.4,1.6,3.4,4.3c0,2.7-1.4,4.3-3.4,4.3
						C172.6,111.4,171.1,109.8,171.1,107.1z M177.1,107.1c0-2.3-1-3.5-2.5-3.5c-1.5,0-2.5,1.3-2.5,3.5c0,2.3,1,3.5,2.5,3.5
						C176,110.6,177.1,109.4,177.1,107.1z"/>
					<path class="st12" d="M179.2,107.1c0-2.7,1.4-4.3,3.4-4.3c2,0,3.4,1.6,3.4,4.3c0,2.7-1.4,4.3-3.4,4.3
						C180.7,111.4,179.2,109.8,179.2,107.1z M185.1,107.1c0-2.3-1-3.5-2.5-3.5c-1.5,0-2.5,1.3-2.5,3.5c0,2.3,1,3.5,2.5,3.5
						C184.1,110.6,185.1,109.4,185.1,107.1z"/>
					<path class="st12" d="M188.5,110.7c0,0.2,0,0.4-0.2,0.7l-0.5,1.7h-0.6l0.4-1.8c-0.3-0.1-0.4-0.3-0.4-0.6c0-0.4,0.3-0.7,0.6-0.7
						C188.2,110.1,188.5,110.4,188.5,110.7z"/>
					<path class="st12" d="M195.9,107c0,2.9-1.6,4.4-3.9,4.4c-0.8,0-1.5-0.1-2-0.5l0.4-0.7c0.4,0.3,1,0.4,1.7,0.4c1.8,0,3-1.2,3-3.5
						c0-0.2,0-0.4,0-0.7c-0.4,0.9-1.4,1.5-2.6,1.5c-1.7,0-2.9-1-2.9-2.6c0-1.6,1.3-2.6,2.9-2.6C194.7,102.7,195.9,104.3,195.9,107z
						 M194.7,105.3c0-0.9-0.8-1.8-2.3-1.8c-1.2,0-2.1,0.7-2.1,1.9c0,1.1,0.8,1.8,2.1,1.8C193.8,107.2,194.7,106.4,194.7,105.3z"/>
					<path class="st12" d="M197.2,107.1c0-2.7,1.4-4.3,3.4-4.3c2,0,3.4,1.6,3.4,4.3c0,2.7-1.4,4.3-3.4,4.3
						C198.6,111.4,197.2,109.8,197.2,107.1z M203.1,107.1c0-2.3-1-3.5-2.5-3.5c-1.5,0-2.5,1.3-2.5,3.5c0,2.3,1,3.5,2.5,3.5
						C202.1,110.6,203.1,109.4,203.1,107.1z"/>
				</g>
			</g>
		</g>
		<g>
			<g>
				<path class="st12" d="M183,92.8c0,0.1-7.9,0.3-17.7,0.3c-9.8,0-17.7-0.1-17.7-0.3c0-0.1,7.9-0.3,17.7-0.3
					C175.1,92.6,183,92.7,183,92.8z"/>
			</g>
		</g>
	</g>
	<g>
		<path class="st12" d="M85.5,40.4L85.5,40.4c-4.7,0-8.6-3.8-8.6-8.6l0,0c0-4.7,3.8-8.6,8.6-8.6h0c4.7,0,8.6,3.8,8.6,8.6l0,0
			C94.1,36.5,90.3,40.4,85.5,40.4z"/>
	</g>
</g>
</svg>
