<?xml version="1.0" encoding="utf-8"?>
<!-- Generator: Adobe Illustrator 23.1.0, SVG Export Plug-In . SVG Version: 6.00 Build 0)  -->
<!DOCTYPE svg PUBLIC "-//W3C//DTD SVG 1.1//EN" "http://www.w3.org/Graphics/SVG/1.1/DTD/svg11.dtd" [
	<!ENTITY ns_extend "http://ns.adobe.com/Extensibility/1.0/">
	<!ENTITY ns_ai "http://ns.adobe.com/AdobeIllustrator/10.0/">
	<!ENTITY ns_graphs "http://ns.adobe.com/Graphs/1.0/">
	<!ENTITY ns_vars "http://ns.adobe.com/Variables/1.0/">
	<!ENTITY ns_imrep "http://ns.adobe.com/ImageReplacement/1.0/">
	<!ENTITY ns_sfw "http://ns.adobe.com/SaveForWeb/1.0/">
	<!ENTITY ns_custom "http://ns.adobe.com/GenericCustomNamespace/1.0/">
	<!ENTITY ns_adobe_xpath "http://ns.adobe.com/XPath/1.0/">
]>
<svg version="1.1" id="Layer_1" xmlns:x="&ns_extend;" xmlns:i="&ns_ai;" xmlns:graph="&ns_graphs;"
	 xmlns="http://www.w3.org/2000/svg" xmlns:xlink="http://www.w3.org/1999/xlink" x="0px" y="0px" width="318.4px" height="208.2px"
	 viewBox="0 0 318.4 208.2" style="enable-background:new 0 0 318.4 208.2;" xml:space="preserve">
<style type="text/css">
	.st0{opacity:0.45;}
	.st1{fill:#D2DEF9;}
	.st2{fill:none;stroke:#FFFFFF;stroke-width:1.5;stroke-miterlimit:10;}
	.st3{fill:none;stroke:#FFFFFF;stroke-width:1.5;stroke-linejoin:round;stroke-miterlimit:10;}
	.st4{fill:#E9F1FF;}
	.st5{fill:#F777BA;}
	.st6{fill:#0B0B3A;}
	.st7{fill:#18277A;}
	.st8{fill:#212237;}
	.st9{fill:none;stroke:#CC328A;stroke-width:0.75;stroke-linejoin:round;stroke-miterlimit:10;}
	.st10{fill:#FF855A;}
	.st11{fill:none;stroke:#CC328A;stroke-width:0.5;stroke-linejoin:round;stroke-miterlimit:10;}
	.st12{fill:#FFFFFF;}
	.st13{fill:#00276F;}
	.st14{fill:none;stroke:#00276F;stroke-width:0.5;stroke-linecap:round;stroke-linejoin:round;stroke-miterlimit:10;}
	.st15{fill:#FF9357;}
	.st16{fill:none;stroke:#A52F2D;stroke-width:0.75;stroke-miterlimit:10;}
	.st17{fill:#83A3FC;}
	.st18{opacity:0.19;clip-path:url(#SVGID_2_);}
	.st19{fill:none;stroke:#91ABE5;stroke-width:11;stroke-miterlimit:10;}
	.st20{fill:#FFC7CA;}
	.st21{opacity:0.25;clip-path:url(#SVGID_4_);}
	.st22{fill:none;stroke:#FFFFFF;stroke-width:11;stroke-miterlimit:10;}
	.st23{fill:#B5C8F7;}
	.st24{clip-path:url(#SVGID_6_);}
	.st25{fill:#9FBFFF;}
	.st26{opacity:0.35;clip-path:url(#SVGID_8_);}
	.st27{fill:none;stroke:#1A3987;stroke-width:0.75;stroke-linejoin:round;stroke-miterlimit:10;}
	.st28{fill:#FFE1AD;}
	.st29{fill:#CC328A;}
	.st30{fill:#2A2A68;}
	.st31{fill:none;stroke:#5565AA;stroke-width:0.75;stroke-miterlimit:10;}
	.st32{fill:#2E7EFA;}
	.st33{fill:#4376CF;}
	.st34{fill:#9CD0FF;}
	.st35{fill:#816FC2;}
	.st36{fill:none;stroke:#4C3F89;stroke-width:0.75;stroke-miterlimit:10;}
	.st37{fill:none;stroke:#D19B4B;stroke-width:0.75;stroke-miterlimit:10;}
	.st38{fill:none;stroke:#91ABE5;stroke-width:1.5;stroke-miterlimit:10;}
	.st39{fill:none;stroke:#FF9C94;stroke-width:1.5;stroke-miterlimit:10;}
</style>
<metadata>
	<sfw  xmlns="&ns_sfw;">
		<slices></slices>
		<sliceSourceBounds  bottomLeftOrigin="true" height="252.6" width="318.4" x="-8.5" y="-271.7"></sliceSourceBounds>
	</sfw>
</metadata>
<g>
	<g>
		<g class="st0">
			<path class="st1" d="M6.7,50.7C6.7,50.7,6.7,50.7,6.7,50.7c4.4,0,8.8,0,13.1,0c7.7,0,15.4,0,23.1,0c5.7,0,7.4-0.2,13.1,0
				c0.1-3.5-0.9-6.8-2.6-8.6c-1.4-1.5-3.7-2.2-5.7-1.7c-2.4,0.6-4.1,2.3-5.7,3.5c-0.6-4.8-2.6-9.2-4.7-10.2c-3.7-1.7-7.5,1-9.3,3.5
				c-1.4,2.1-2.2,4.6-2.5,7.1c-2.3-2.6-7.5-4.5-9.3-0.5c-0.7,1.6-0.7,3.4-0.6,5.2C12.6,48.2,9.2,48.9,6.7,50.7z"/>
		</g>
		<g class="st0">
			<path class="st1" d="M272.6,19.5c-0.7-2.8-7.3-7-10.8-4.5c-1.1-5.4-2.1-8.7-5.6-11.4c-3.5-2.7-9.4,0.8-10.3,8.1
				c-0.9-3-5.7-7-9.6-3.6c-3.6,3.1-3.9,8.4-3.6,11.4H272.6z"/>
		</g>
		<g class="st0">
			<path class="st1" d="M318.4,57.1c-1.1-2.7-3.1-4.1-5.6-4.4c-3.1-0.3-6.2,1.4-6.2,1.4s1.2-4.4-0.4-7.9c-1.1-2.4-2.8-4.6-5.1-5.2
				c-2.4-0.6-5,0.6-6.8,2.5c-1.8,1.9-3,4.4-4,6.9c-0.5-1.8-1.3-3.7-2.9-4.4c-1.6-0.7-3.6,0.5-4.4,2.2c-0.9,1.7-0.9,3.7-0.8,5.6
				c-1.9-1.1-4.4-1.5-6.3-0.3c-1.2,0.7-2.1,2.2-2.3,3.7H318.4z"/>
		</g>
	</g>
	<g>
		<g>
			<path class="st1" d="M96.9,117.6c-10-3.4-18.8-10.2-25.3-18.5C65,90.7,57.7,72.3,58.9,56.9c28.9,8.6,40.7,35.4,42.4,51.7"/>
			<path class="st2" d="M58.9,56.9c0,0,4.8,37.3,38.2,57.8"/>
			<path class="st2" d="M58.9,56.9c0,0,19.7,35.3,41.3,56.8"/>
			<path class="st2" d="M58.9,56.9c0,0,29.1,23.1,42.7,54.8"/>
		</g>
		<g>
			<path class="st1" d="M97,179.1c-11.4,4.3-24,4.4-35.8,1.3c-11.7-3.1-31.2-15.2-41-31c27.9-9.5,61.4,3.4,74.4,17.7"/>
			<path class="st3" d="M20.2,149.4c0,0,30.4,32.2,74.9,26.8"/>
			<path class="st3" d="M20.2,149.4c0,0,42.6,19.1,77.1,23.5"/>
			<path class="st3" d="M20.2,149.4c0,0,42.4,0.3,76.9,20.5"/>
		</g>
		<g>
			<path class="st4" d="M107.7,100.7c-9.7-7.2-16.6-17.6-20.3-29c-3.7-11.4-4.2-34.1,3.7-50.6c22.9,18,30.2,52.8,25.3,71.3"/>
			<path class="st3" d="M91.1,21.1c0,0-10.3,42.6,18.1,76.5"/>
			<path class="st3" d="M91.1,21.1c0,0,7.1,45.5,22,76.5"/>
			<path class="st3" d="M91.1,21.1c0,0,22.6,35.3,24.4,74.7"/>
		</g>
		<g>
			<path class="st1" d="M195.4,95.4c9.8-1.9,18.8-6.9,25.9-13.8c7.2-6.9,16.4-22.9,17.3-37.5c-28,4.1-42.4,27.5-46.2,42.3"/>
			<path class="st3" d="M238.6,44.1c0,0-9.4,33.9-43.1,48.6"/>
			<path class="st3" d="M238.6,44.1c0,0-23,30.2-45.9,47.2"/>
			<path class="st3" d="M238.6,44.1c0,0-30.1,17.6-46.9,45.1"/>
		</g>
		<g>
			<path class="st1" d="M222.7,174.2c14.3,2.7,29.3,0.6,42.7-4.9c13.4-5.5,34.6-22.4,43.6-41.7c-40.2-9.4-72.4,14.6-85.6,32.8"/>
			<path class="st3" d="M309.1,127.7c0,0-30.9,41.1-84.7,43"/>
			<path class="st3" d="M309.1,127.7c0,0-42.4,28.3-85.7,36.3"/>
			<path class="st3" d="M309.1,127.7c0,0-50.4,7.8-88,36.3"/>
		</g>
		<g>
			<path class="st4" d="M182.8,91.6c12.3-5.3,22.4-14.7,29.3-26.1c6.9-11.4,13.2-35.7,9-55.6c-29.3,13.6-46.1,49.2-45.6,70.4"/>
			<path class="st3" d="M221.1,9.9c0,0,0.3,48.6-39.1,78"/>
			<path class="st3" d="M221.1,9.9c0,0-19.3,47.4-43.4,77"/>
			<path class="st3" d="M221.1,9.9c0,0-33.4,32.4-45.4,74.4"/>
		</g>
		<g>
			<path class="st4" d="M95,160.4c-6.7,1-18,2.6-24.2-1.6c-3.5-2.3-4.1-6.6-5.4-10.3c-2.3-6.4-7.1-10.2-13.4-11.3
				c-2.5-0.4-5.2-1.6-6.4-4c-1.8-3.6,0.4-8.2-1-12c-0.8-2-2.5-3.5-3.9-5.1c-3.4-3.9-4.2-9.7-4.2-9.7s4.1,1.3,8.6-0.1
				c2.9-0.9,6.1-1.5,9.2-1c2.4,0.4,4.2,1.6,5.8,3.5c1.9,2.2,3.4,3.9,6.1,4.9c4.2,1.4,14.5-2,15.6,3.9c0.3,1.6-0.1,3.4,0.7,4.9
				c1.4,2.8,4.6,1.4,6.9,2.1c3.4,1.1,7.2,3.6,8.7,6.8c3.5,7.7,3.4,18.3,1.4,26.7"/>
			<path class="st3" d="M36.9,106.6c11.2,12.1,28.2,16.7,39.2,29.1c3.3,3.7,5.9,8,9,12c3.1,3.9,6.8,7.5,11.4,9"/>
			<path class="st3" d="M44.6,129.8c5.9,0.6,14.8,0.5,23.6-1.2c0,0-2.2-11.4-4-15.7"/>
			<path class="st3" d="M44.8,126c6.5,0.5,11.9,0.1,19.4-0.2"/>
			<path class="st3" d="M43.9,120.2c0,0,5.5,0.2,10.5-0.5"/>
			<path class="st3" d="M38.5,112.9c0,0.1,1.8,0.3,5.7,0.2"/>
			<path class="st3" d="M52.2,118.4c0,0-2.6-8.1-4.6-12.7"/>
			<path class="st3" d="M62.7,124.8c0,0-2.6-12.8-5.1-18.2"/>
			<path class="st3" d="M57.6,139.1c0.2,0.1,11.2,0.8,20.3-1.1"/>
			<path class="st3" d="M75.2,134.8c0,0-1.1-13.7-2.9-20.7"/>
			<path class="st3" d="M84,123c1.3,8.4,1.5,25.1,1.5,25.1s-14.2,1.9-20.1,0.3"/>
			<path class="st3" d="M91.5,154.1c0,0,0.5-18.9-0.6-28.8"/>
			<path class="st3" d="M66.3,152.2c0,0,11.5,1.6,21.1-1.7"/>
			<path class="st3" d="M93.9,155.6c0,0,3.3-14.9,0.9-28.1"/>
		</g>
		<g>
			<path class="st4" d="M186.6,79c3-7.8,7.9-15.6,4.9-24.2c-1.7-4.8-6.8-6.8-10.7-9.4c-6.7-4.4-9.7-11.1-9.2-19.1
				c0.2-3.2-0.4-6.7-2.8-8.8c-3.6-3.1-9.5-1.5-13.4-4.2c-2.1-1.4-3.3-3.8-4.7-5.9C147.4,2.4,141,0,141,0s0.3,5.3-2.5,10.4
				c-1.8,3.3-3.4,7-3.7,10.9c-0.2,3,0.7,5.5,2.4,7.9c2,2.8,3.5,5.1,3.9,8.6c0.5,5.4-6.3,17.1,0.1,19.9c1.8,0.8,3.9,0.7,5.4,2
				c2.8,2.3,0.3,6,0.4,8.9c0.3,4.4,2.1,9.6,5.3,12.2c7.8,6.2,20,8.6,30,8.3"/>
			<path class="st3" d="M141,0.5c10.7,16.6,11.2,38.4,22.3,54.8c3.3,4.9,7.5,9.2,11.1,13.9c3.6,4.7,6.6,10.1,7.1,16.1"/>
			<path class="st3" d="M157.5,44.1c0,0-12.4-5.5-16.8-8.7"/>
			<path class="st3" d="M161,15.1c-1.3,7.9-3.2,14.4-5.6,23.5"/>
			<path class="st3" d="M154.6,12.5c0,0-1.3,6.7-3.5,12.6"/>
			<path class="st3" d="M147.8,4.1c0.1,0.1-0.2,2.2-1.3,7"/>
			<path class="st3" d="M150.2,22.1c0,0.1-8.5-5.1-13.1-8.7"/>
			<path class="st3" d="M154.6,36.4c0-0.1-13.9-6.3-19.3-10.7"/>
			<path class="st3" d="M171.4,22.1c-1.2,4.6-3.5,16.5-10.4,28.3"/>
			<path class="st3" d="M162.6,54.1c0,0-15.3-4.8-22.7-8.6"/>
			<path class="st3" d="M180,78.7c0,0-21.7-4.1-32.7-7.9"/>
			<path class="st3" d="M184.9,47.7c0,0-1.3,14.3-7.8,25.2"/>
		</g>
		<g>
			<path class="st4" d="M230.3,147.4c8.6-1.7,18.2-1.6,24.2-9.1c3.3-4.1,2.3-9.8,2.4-14.7c0.2-8.4,4.5-14.8,11.8-18.8
				c2.9-1.6,5.8-4,6.2-7.3c0.7-4.9-3.9-9.3-3.7-14.2c0.1-2.7,1.6-5,2.7-7.5c2.5-5.9,1.2-12.9,1.2-12.9s-4.5,3.2-10.7,3.5
				c-4,0.2-8.1,0.9-11.7,2.8c-2.8,1.5-4.5,3.7-5.7,6.6c-1.4,3.4-2.6,6-5.5,8.2c-4.5,3.4-18.7,3.9-17.6,11.2c0.3,2,1.5,3.9,1.2,5.9
				c-0.5,3.8-5.2,3.6-7.6,5.3c-3.8,2.7-7.4,7.2-7.9,11.5c-1.1,10.4,3.5,22.5,9.4,31.3"/>
			<path class="st3" d="M274.7,63.2c-8.8,18.8-27.9,31.3-36.2,50.3c-2.5,5.7-4,11.8-6.2,17.6c-2.2,5.8-5.3,11.5-10.3,15.3"/>
			<path class="st3" d="M274.7,93.3c-7,3.2-18,6.9-29.6,8.8c0,0-2-14-1.6-19.8"/>
			<path class="st3" d="M272.9,89c-7.8,3.3-14.6,5.2-24,8.1"/>
			<path class="st3" d="M271.6,81.9c0,0-6.7,2.6-13.1,3.9"/>
			<path class="st3" d="M275.2,71.2c0,0.1-2.1,1.1-6.9,2.7"/>
			<path class="st3" d="M260.7,83.4c0,0-0.2-10.4,0.4-16.5"/>
			<path class="st3" d="M250.3,95.3c0,0-2.1-15.8-1.2-23.1"/>
			<path class="st3" d="M262.5,109.6c-0.2,0.2-13.5,5.8-25.5,7.5"/>
			<path class="st3" d="M239.1,112.2c0,0-4.3-16.2-5-25"/>
			<path class="st3" d="M223.4,102.4c1.9,10.2,8.6,29.6,8.6,29.6s18.3-3.9,24.9-8.3"/>
			<path class="st3" d="M226.9,141.4c0,0-8.5-21.6-11.2-33.4"/>
			<path class="st3" d="M257.2,128.4c0,0-13.5,6.8-26.8,7.1"/>
			<path class="st3" d="M224.7,144.1c0,0-10.3-15.8-12.7-31.9"/>
		</g>
	</g>
	<g>
		<g>
			<g>
				<g>
					<g>
						<path class="st5" d="M195.3,112.2c1.2,2.5,6,12.9,7.1,15.3c-3.8,1.2-7.3,2.8-11.1,4.2c-1.6,2.1,2-2.1,2.1-4.4"/>
					</g>
					<g>
						<path class="st6" d="M203.5,131l-2.2,0.7c-0.1-0.2-0.3-0.9-0.4-1.1c-0.4,0.1-1.3,0.5-1.4,0.6c-0.1,0.1-0.2,0.3-0.2,0.6
							c-0.1,0.4-0.4,0.6-0.7,0.8l-8.6,3c-1.1,0.4-1.7-0.9-0.8-1.9c0.8-0.9,2.7-2.9,2.7-3c3.5-0.8,8.9-3.4,9.6-5
							C202.8,126.4,203.5,130.9,203.5,131z"/>
					</g>
				</g>
				<path class="st5" d="M194.4,84c0.2,5.6-0.4,16.9,0.4,21.7c0.5,3,5.9,18,5.9,18l-7.2,3.7c0,0-6.1-9.5-9.6-20.7
					c-2.3-7.3-2.4-15.2-2.4-21.8"/>
			</g>
			<g>
				<g>
					<g>
						<path class="st5" d="M213,100.6c2,1.9,10.3,9.8,12.3,11.6c-3.1,2.6-5.8,5.3-8.7,8.1c-0.7,2.6,1-2.7,0.3-4.9"/>
					</g>
					<g>
						<path class="st6" d="M227.6,114.9l-1.7,1.5c-0.2-0.2-0.6-0.7-0.7-0.8c-0.3,0.3-1,0.9-1,1.1c0,0.1,0,0.4,0,0.7
							c0,0.4-0.1,0.7-0.4,1l-6.9,6c-0.9,0.7-1.9-0.2-1.4-1.5c0.4-1.2,1.4-3.7,1.4-3.8c3-2.1,7-6.5,7.1-8.2
							C225.3,110.9,227.6,114.9,227.6,114.9z"/>
					</g>
				</g>
				<path class="st5" d="M206.1,73.4c0,0-0.4,16.6,1.8,20.8c2.7,5,11.4,12.4,11.4,12.4l-2.4,8.7c0,0-12.3-6.8-18.6-15.1
					c-4.9-6.2-5.1-26-5.1-26"/>
			</g>
			<g>
				<path class="st7" d="M205.4,59.5c8.6,6.7,7.9,33.3,7.9,33.3s-9.6,2.5-17.4,2.5c-7.8,0-16-1.2-16-1.2c0.5-22.9,4.5-28.9,6.8-32.8
					"/>
			</g>
		</g>
		<g>
			<g>
				<path class="st8" d="M189.3,23.1c0,0,1.9,5.7,1.6,7c-0.3,1.3-4.6,1-5.7,0.9c-0.1-2.9,0.9-6.9,0.9-6.9"/>
				<path class="st5" d="M189.9,29.8l0.5,3.2c0,0,2.3,1.5,4.2,0.7c2-0.8,1.9-1.9,1.9-1.9l-2.4-5.8"/>
				<path class="st5" d="M186.7,24.2c0,4.1,0.7,7.3,3.4,7.1c2.8-0.2,4.9-2.5,3.9-5.7C192.9,22.2,186.9,21.9,186.7,24.2z"/>
				<path class="st9" d="M190.2,31.5c1.4-0.2,3.1-1,3.8-2.8"/>
				<g>
					<g>
						<polygon class="st10" points="193.6,25.4 193.6,25.4 193.6,25.4 						"/>
					</g>
				</g>
				<g>
					<g>
						<path class="st10" d="M193.5,25.4C193.5,25.4,193.5,25.4,193.5,25.4C193.5,25.5,193.5,25.5,193.5,25.4
							C193.6,25.5,193.6,25.5,193.5,25.4C193.6,25.4,193.6,25.4,193.5,25.4C193.6,25.4,193.6,25.4,193.5,25.4
							C193.5,25.4,193.5,25.4,193.5,25.4L193.5,25.4z"/>
					</g>
				</g>
				<g>
					<path class="st8" d="M190.9,23.9c-2.3,0.6-3.9,0.5-5.4,0c0.2-1.4,1.1-3.3,3.7-3.4c1.8-1.6,3.9-1.1,4.4-0.9
						c1.5,0.5,2.5,1.4,3.3,2.8c1.3,2.2,1.6,5.5,1.5,7.4c-2,0.5-3.7,0.8-5,0.9C193.5,30.6,192.6,25.1,190.9,23.9z"/>
				</g>
				<g>
					<path class="st5" d="M192.3,26.7c0-0.1,0-0.4,0.4-0.6c0.6-0.3,1.1,0.3,1.2,0.9c0,0.4,0,0.7-0.2,1.1c-0.3,0.5-0.7,0.6-1,0.2"/>
				</g>
				<path class="st11" d="M188.8,26.4c0,0-0.5,1.6-0.3,1.9c0.2,0.3,1.1,0.1,1.1,0.1"/>
				<path class="st12" d="M188.8,29.2l2.5-0.4c0,0-0.1,1.4-1.5,1.5C188.8,30.3,188.8,29.2,188.8,29.2z"/>
				<g>
					<g>
						<path class="st13" d="M187.6,26.2C187.5,26.2,187.5,26.2,187.6,26.2c0,0.1,0,0.1,0,0.2c0,0,0,0.1,0,0.1c0,0,0,0.1,0,0.1
							c0,0,0,0,0,0c0,0.1,0,0.1,0,0.2c0,0,0,0.1,0.1,0.1c0,0,0.1,0.1,0.1,0.1c0,0,0.1,0,0.2,0c0,0,0.1,0,0.1,0
							c0.1,0,0.1-0.1,0.2-0.1c0,0,0-0.1,0.1-0.1c0-0.1,0.1-0.1,0.1-0.2c0,0,0,0,0,0c0,0,0-0.1,0-0.1c0,0,0,0,0,0c0,0,0,0,0,0
							c0,0,0-0.1,0-0.1c0,0,0-0.1,0-0.1c0,0,0-0.1,0-0.1c0,0,0-0.1,0-0.1c0,0-0.1-0.1-0.1-0.1c0,0,0,0-0.1,0c0,0-0.1,0-0.1,0
							c0,0-0.1,0-0.1,0c0,0-0.1,0-0.1,0c0,0-0.1,0.1-0.1,0.1C187.6,26.1,187.6,26.1,187.6,26.2L187.6,26.2z"/>
					</g>
				</g>
				<path class="st14" d="M188.3,25.5c0,0-0.5-0.4-0.9,0.2"/>
				<g>
					<g>
						<path class="st13" d="M190.4,26c0,0.1,0,0.1,0,0.2c0,0,0,0.1,0,0.1c0,0,0,0.1,0,0.1c0,0,0,0,0,0c0,0,0,0.1,0,0.1
							c0,0.1,0,0.1,0.1,0.1c0,0,0.1,0.1,0.1,0.1c0,0,0.1,0,0.1,0c0.1,0,0.1,0,0.2,0c0,0,0.1,0,0.1,0c0,0,0.1,0,0.1-0.1
							c0,0,0-0.1,0.1-0.1c0-0.1,0.1-0.1,0.1-0.2c0-0.1,0-0.2,0-0.3c0,0,0-0.1,0-0.1c0,0,0-0.1,0-0.1c0,0,0-0.1,0-0.1
							c0,0-0.1-0.1-0.1-0.1c0,0,0,0-0.1,0c0,0-0.1,0-0.1,0c0,0-0.1,0-0.1,0c0,0-0.1,0-0.1,0c0,0-0.1,0.1-0.1,0.1
							C190.5,26,190.4,26,190.4,26L190.4,26z"/>
					</g>
				</g>
				<path class="st14" d="M190.2,25.2c0,0,0.5-0.4,1.3,0.1"/>
			</g>
		</g>
		<g>
			<g>
				<path class="st5" d="M187.8,46.7C180,57.6,164,67.4,164,67.4l-3.3-4.2c0,0,12-10,19.1-21.5"/>
				<g>
					<path class="st5" d="M162.1,62.1c-1.5,1.3-6.4,4.3-6.3,4.7c0.1,0.4,1.8-0.7,1.9-0.3c0,0.3-2.5,2.1-2.3,2.5
						c0.3,0.5,2.8-1.5,2.8-1.5s-2.6,2.3-2.3,2.6c0.3,0.3,2.4-1.4,3.3-1.9c-0.9,0.7-2.2,2-1.9,2.2c0.3,0.3,1.7-0.8,2.9-1.6
						c-0.7,0.6-1.8,1.6-1.6,1.9c0.2,0.2,4-2.2,7.4-4.6"/>
				</g>
				<path class="st9" d="M158.4,66.4c0,0,1.9,0,2.7-0.4"/>
			</g>
			<path class="st15" d="M189.5,33c-3.4-0.6-6.5,1.8-7.8,3.9c-2.7,4.3-4.1,7.6-4.1,7.6l8,4.8l4.6-14.4"/>
			<path class="st15" d="M189.5,33c1.6,0.3,2,0.9,3.1,0.5c2-0.6,3.6-1.7,3.6-1.7c-1.3,0.1,4.3,1.1,8.7,5.7c1.5,5,1.6,10,2,23.2
				c-10.8,3.5-20.2,0.6-20.2,0.6s-1.2-5.8-2.6-10c-2-3.9-1.1-8.4,1.1-12C185.2,37.1,189.5,33,189.5,33z"/>
			<polygon class="st12" points="196,30.4 192.3,33.6 194.7,36.1 197.1,32.4 			"/>
			<polygon class="st12" points="192.3,33.6 190.2,31.9 189.5,33 190.5,36 			"/>
			<path class="st16" d="M183,46.8c-0.1-2.6,1.4-6.5,1.4-6.5"/>
		</g>
	</g>
	<g>
		<g>
			<g>
				<path class="st17" d="M223.2,199.9c-0.2,0-0.3,0-0.5,0l-52.9-3.7c-3.8-0.3-6.6-3.6-6.4-7.3l1.1-15.6c0.1-1.2,1-2.1,2.2-2.1
					c0.6,0,1.1,0.2,1.5,0.6c1.6,1.5,3.5,2.3,5.5,2.5c0.2,0,0.4,0,0.6,0c5.2,0,9.5-4.6,10-10.6c0.4-6.2-3.6-11.6-9-11.9
					c-0.2,0-0.4,0-0.6,0c-1.8,0-3.6,0.6-5.2,1.7c-0.4,0.3-0.8,0.4-1.3,0.4c-0.6,0-1.2-0.3-1.6-0.7c-0.4-0.5-0.6-1-0.6-1.7l1.1-15.6
					c0.3-3.6,3.3-6.4,6.8-6.4c0.2,0,0.3,0,0.5,0l16.1,1.1c0.9,0.1,1.6,0.6,1.9,1.5c0.3,0.8,0.1,1.8-0.6,2.4c-1.7,1.6-2.8,3.7-2.9,6
					c-0.2,2.6,0.8,5.1,2.8,7.1c2,2,4.8,3.2,7.8,3.5c0.3,0,0.6,0,0.9,0c5.8,0,10.7-4,11-9c0.2-2.3-0.6-4.5-2.1-6.3
					c-0.5-0.7-0.7-1.6-0.3-2.4c0.4-0.8,1.1-1.3,2-1.3c0.1,0,0.1,0,0.2,0l16.1,1.1c1.8,0.1,3.5,1,4.7,2.3s1.8,3.2,1.7,5l-3.7,52.9
					C229.8,197.1,226.8,199.9,223.2,199.9L223.2,199.9z"/>
				<path class="st12" d="M174,130.2c0.1,0,0.3,0,0.4,0l16.1,1.1c1.3,0.1,1.9,1.7,0.9,2.6c-1.8,1.7-3,3.9-3.2,6.5
					c-0.4,5.8,4.6,10.9,11.2,11.4c0.3,0,0.7,0,1,0c6.2,0,11.4-4.2,11.8-9.7c0.2-2.5-0.7-4.9-2.2-6.9c-0.8-1-0.1-2.4,1.1-2.4
					c0,0,0.1,0,0.1,0l16.1,1.1c3.4,0.2,5.9,3.2,5.7,6.5l-3.7,52.9c-0.2,3.2-2.9,5.7-6.1,5.7c-0.1,0-0.3,0-0.4,0l-52.9-3.7
					c-3.4-0.2-5.9-3.2-5.7-6.5l1.1-15.6c0.1-0.8,0.8-1.4,1.5-1.4c0.4,0,0.7,0.1,1,0.4c1.6,1.5,3.7,2.5,6,2.7c0.2,0,0.4,0,0.7,0
					c5.5,0,10.3-4.9,10.7-11.3c0.5-6.6-3.9-12.3-9.7-12.7c-0.2,0-0.4,0-0.7,0c-2,0-4,0.7-5.6,1.8c-0.3,0.2-0.6,0.3-0.9,0.3
					c-0.8,0-1.5-0.7-1.5-1.6l1.1-15.6C168.1,132.7,170.8,130.2,174,130.2 M174,128.7L174,128.7c-4,0-7.3,3.1-7.6,7.1l-1.1,15.6
					c-0.1,0.8,0.2,1.6,0.8,2.2c0.6,0.6,1.4,1,2.2,1c0.6,0,1.2-0.2,1.7-0.6c1.4-1,3.1-1.6,4.8-1.6c0.2,0,0.4,0,0.6,0
					c5,0.4,8.7,5.3,8.3,11.1c-0.4,5.5-4.4,9.9-9.2,9.9c-0.2,0-0.4,0-0.6,0c-1.9-0.1-3.6-0.9-5-2.3c-0.6-0.5-1.3-0.8-2-0.8
					c-1.6,0-2.9,1.2-3,2.8l-1.1,15.6c-0.1,2,0.5,4,1.8,5.5c1.3,1.5,3.2,2.5,5.2,2.6l52.9,3.7c0.2,0,0.4,0,0.5,0c4,0,7.3-3.1,7.6-7.1
					l3.7-52.9c0.3-4.2-2.9-7.8-7.1-8.1l-16.1-1.1c-0.1,0-0.1,0-0.2,0c-1.2,0-2.2,0.7-2.7,1.7c-0.5,1-0.4,2.2,0.4,3.1
					c1.4,1.7,2.1,3.7,1.9,5.8c-0.3,4.7-4.8,8.3-10.3,8.3c-0.3,0-0.6,0-0.9,0c-2.8-0.2-5.4-1.4-7.3-3.2c-1.8-1.8-2.7-4.2-2.6-6.5
					c0.1-2.1,1.1-4,2.7-5.5c0.9-0.8,1.2-2,0.8-3.2c-0.4-1.1-1.4-1.9-2.6-2l-16.1-1.1C174.4,128.7,174.2,128.7,174,128.7L174,128.7z"
					/>
			</g>
			<g>
				<defs>
					<path id="SVGID_1_" d="M211.3,132.8c-1.3-0.1-2.1,1.4-1.3,2.4c1.6,1.9,2.4,4.3,2.2,6.9c-0.4,5.8-6.1,10.1-12.7,9.7
						c-6.6-0.5-11.7-5.6-11.2-11.4c0.2-2.5,1.4-4.8,3.2-6.5c0.9-0.9,0.4-2.5-0.9-2.6l-16.1-1.1c-3.4-0.2-6.3,2.3-6.5,5.7l-1.1,15.6
						c-0.1,1.3,1.3,2,2.3,1.3c1.8-1.3,4-2,6.3-1.8c5.8,0.4,10.1,6.1,9.7,12.7c-0.5,6.6-5.6,11.7-11.4,11.2c-2.3-0.2-4.3-1.1-6-2.7
						c-0.9-0.9-2.4-0.3-2.5,1l-1.1,15.6c-0.2,3.4,2.3,6.3,5.7,6.5l52.9,3.7c3.4,0.2,6.3-2.3,6.5-5.7l3.7-52.9
						c0.2-3.4-2.3-6.3-5.7-6.5L211.3,132.8z"/>
				</defs>
				<clipPath id="SVGID_2_">
					<use xlink:href="#SVGID_1_"  style="overflow:visible;"/>
				</clipPath>
				<g class="st18">
					
						<ellipse transform="matrix(0.997 -7.795323e-02 7.795323e-02 0.997 -15.8408 17.441)" class="st19" cx="215.5" cy="211.6" rx="30.2" ry="30.2"/>
					<circle class="st19" cx="214.9" cy="210.9" r="19.1"/>
					
						<ellipse transform="matrix(0.9653 -0.261 0.261 0.9653 -47.7702 63.5843)" class="st19" cx="215.5" cy="211.6" rx="10" ry="10"/>
				</g>
			</g>
		</g>
		<g>
			<g>
				<path class="st20" d="M147.9,129.2c-0.3,0-0.6,0-0.9-0.1l-16.1-2c-0.9-0.1-1.6-0.7-1.9-1.6c-0.3-0.9,0-1.8,0.7-2.3
					c1.9-1.5,3.1-3.6,3.3-5.9c0.3-2.6-0.5-5.2-2.4-7.3c-1.9-2.1-4.6-3.5-7.6-3.9c-0.5-0.1-1.1-0.1-1.6-0.1c-5.5,0-10.2,3.6-10.8,8.4
					c-0.3,2.3,0.3,4.6,1.8,6.5c0.5,0.7,0.6,1.6,0.2,2.3c-0.4,0.8-1.1,1.2-2,1.2c-0.1,0-0.2,0-0.3,0l-16.1-2
					c-1.8-0.2-3.4-1.2-4.6-2.6s-1.6-3.2-1.4-5.1l6.6-52.6c0.4-3.4,3.4-6,6.8-6c0.3,0,0.6,0,0.9,0.1l52.6,6.6
					c1.8,0.2,3.4,1.2,4.6,2.6s1.6,3.2,1.4,5.1l-2,15.8c-0.1,1.1-1.1,2-2.2,2c-0.6,0-1.2-0.3-1.7-0.8c-1.5-1.7-3.5-2.8-5.6-3.1
					c-0.4,0-0.7-0.1-1.1-0.1c-5,0-9.3,4.3-10.1,10c-0.8,6.2,3,11.7,8.3,12.4c0.4,0,0.7,0.1,1.1,0.1c1.8,0,3.6-0.6,5.2-1.7
					c0.4-0.3,0.8-0.4,1.3-0.4c0.6,0,1.3,0.3,1.7,0.8c0.4,0.5,0.6,1.1,0.5,1.8l-2,15.8C154.3,126.6,151.4,129.2,147.9,129.2z"/>
				<path class="st12" d="M101.9,56.9c0.3,0,0.5,0,0.8,0l52.6,6.6c3.3,0.4,5.7,3.5,5.3,6.8l-2,15.8c-0.1,0.8-0.8,1.3-1.5,1.3
					c-0.4,0-0.8-0.2-1.1-0.5c-1.6-1.8-3.7-3-6.1-3.3c-0.4,0-0.8-0.1-1.2-0.1c-5.3,0-10,4.5-10.8,10.7c-0.8,6.6,3.2,12.5,9,13.2
					c0.4,0,0.8,0.1,1.2,0.1c2,0,3.9-0.7,5.6-1.8c0.3-0.2,0.5-0.3,0.8-0.3c0.8,0,1.6,0.7,1.5,1.7l-2,15.8c-0.4,3.1-3,5.3-6.1,5.3
					c-0.3,0-0.5,0-0.8,0l-16.1-2c-1.3-0.2-1.8-1.8-0.8-2.6c2-1.6,3.3-3.8,3.6-6.4c0.7-5.8-4-11.1-10.6-12c-0.6-0.1-1.2-0.1-1.7-0.1
					c-5.9,0-10.9,3.8-11.5,9.1c-0.3,2.5,0.4,5,1.9,7c0.7,1,0,2.4-1.2,2.4c-0.1,0-0.1,0-0.2,0l-16.1-2c-3.3-0.4-5.7-3.5-5.3-6.8
					l6.6-52.6C96.2,59.2,98.8,56.9,101.9,56.9 M101.9,55.4L101.9,55.4c-3.8,0-7.1,2.9-7.5,6.7l-6.6,52.6c-0.5,4.2,2.4,8,6.6,8.5
					l16.1,2c0.1,0,0.3,0,0.4,0c1.1,0,2.1-0.6,2.7-1.6c0.5-1,0.4-2.2-0.3-3.1c-1.3-1.8-1.9-3.9-1.6-6c0.6-4.4,4.9-7.8,10-7.8
					c0.5,0,1,0,1.5,0.1c2.8,0.4,5.4,1.6,7.1,3.6c1.7,1.9,2.5,4.3,2.2,6.7c-0.3,2.1-1.3,4-3.1,5.4c-0.9,0.8-1.3,2-1,3.1
					c0.3,1.1,1.3,2,2.5,2.1l16.1,2c0.3,0,0.6,0.1,1,0.1c3.8,0,7.1-2.9,7.5-6.7l2-15.8c0.1-0.9-0.1-1.7-0.7-2.3c-0.6-0.6-1.4-1-2.2-1
					c-0.6,0-1.2,0.2-1.7,0.5c-1.5,1-3.1,1.5-4.7,1.5c-0.3,0-0.7,0-1-0.1c-5-0.6-8.4-5.8-7.7-11.6c0.7-5.3,4.7-9.4,9.3-9.4
					c0.3,0,0.7,0,1,0.1c2,0.2,3.8,1.2,5.2,2.8c0.6,0.6,1.4,1,2.2,1c1.5,0,2.8-1.1,3-2.6l2-15.8c0.5-4.2-2.4-8-6.6-8.5l-52.6-6.6
					C102.5,55.5,102.2,55.4,101.9,55.4L101.9,55.4z"/>
			</g>
			<g>
				<defs>
					<path id="SVGID_3_" d="M146.9,107.6c-5.8-0.7-9.8-6.7-9-13.2c0.8-6.6,6.2-11.3,12-10.6c2.4,0.3,4.5,1.5,6.1,3.3
						c0.8,1,2.4,0.5,2.6-0.8l2-15.8c0.4-3.3-2-6.4-5.3-6.8L102.6,57c-3.3-0.4-6.4,2-6.8,5.3l-6.6,52.6c-0.4,3.3,2,6.4,5.3,6.8
						l16.1,2c1.3,0.2,2.1-1.3,1.4-2.3c-1.5-2-2.2-4.5-1.9-7c0.7-5.8,6.7-9.8,13.2-9c6.6,0.8,11.3,6.2,10.6,12
						c-0.3,2.5-1.7,4.8-3.6,6.4c-1,0.8-0.5,2.4,0.8,2.6l16.1,2c3.3,0.4,6.4-2,6.8-5.3l2-15.8c0.2-1.3-1.3-2.1-2.3-1.4
						C151.7,107.2,149.3,107.9,146.9,107.6z"/>
				</defs>
				<clipPath id="SVGID_4_">
					<use xlink:href="#SVGID_3_"  style="overflow:visible;"/>
				</clipPath>
				<g class="st21">
					<circle class="st22" cx="95.6" cy="62.9" r="30.2"/>
					<circle class="st22" cx="95" cy="62.3" r="20.6"/>
					<circle class="st22" cx="95.6" cy="62.9" r="10"/>
				</g>
			</g>
		</g>
		<g>
			<g>
				<path class="st23" d="M196.1,145.8c-7-0.1-12.7-5.2-12.7-11.4c0-2.7,1.1-5.2,3.1-7.3c0.3-0.3,0.2-0.7,0.1-0.8
					c0-0.1-0.2-0.4-0.7-0.5l-16.2-0.2c-1.8,0-3.5-0.8-4.8-2.1c-1.3-1.3-2-3-2-4.9l0.2-15.7c0-0.3-0.1-0.4-0.2-0.5
					c-0.1-0.1-0.3-0.2-0.5-0.2c-0.2,0-0.3,0.1-0.4,0.2c-1.9,1.6-4.2,2.4-6.7,2.4l-0.1,0c-6.2-0.1-11.2-5.8-11.2-12.9
					c0.1-7,5.2-12.7,11.3-12.7l0.1,0c2.4,0,4.8,0.9,6.7,2.6c0.1,0.1,0.3,0.2,0.5,0.2c0.4,0,0.7-0.3,0.7-0.7l0.2-15.7
					c0-3.7,3.1-6.8,6.9-6.8l53.1,0.6c3.8,0,6.8,3.1,6.8,6.9l-0.6,53.1c0,3.7-3.1,6.8-6.9,6.8l-16.3-0.2c-0.5,0-0.6,0.3-0.7,0.4
					c0,0.1-0.2,0.5,0.1,0.8c1.9,2.1,3,4.7,2.9,7.3c-0.1,6.2-5.8,11.2-12.7,11.2L196.1,145.8z"/>
				<path class="st12" d="M170.4,59.6C170.4,59.6,170.4,59.6,170.4,59.6l53.1,0.6c3.4,0,6.1,2.8,6,6.2l-0.6,53.1c0,3.4-2.8,6-6.1,6
					c0,0,0,0-0.1,0l-16.2-0.2c0,0,0,0,0,0c-1.3,0-2,1.5-1.1,2.5c1.7,1.9,2.8,4.2,2.7,6.8c-0.1,5.8-5.4,10.4-12,10.4c0,0-0.1,0-0.1,0
					c-6.6-0.1-12-4.9-11.9-10.7c0-2.6,1.1-4.9,2.9-6.7c0.9-0.9,0.3-2.5-1-2.5l-16.2-0.2c-3.4,0-6.1-2.8-6-6.2l0.2-15.7
					c0-0.9-0.7-1.5-1.5-1.5c-0.3,0-0.6,0.1-0.9,0.3c-1.7,1.4-3.9,2.3-6.2,2.3c0,0-0.1,0-0.1,0c-5.8-0.1-10.5-5.5-10.4-12.1
					c0.1-6.6,4.8-11.9,10.6-11.9c0,0,0.1,0,0.1,0c2.3,0,4.5,0.9,6.2,2.4c0.3,0.2,0.6,0.4,0.9,0.4c0.8,0,1.5-0.6,1.5-1.5l0.2-15.7
					C164.3,62.3,167,59.6,170.4,59.6 M170.4,58.1c-4.2,0-7.6,3.4-7.6,7.5l-0.2,15.7c-2-1.8-4.5-2.7-7.1-2.8l-0.1,0
					c-6.6,0-12,6-12.1,13.4c-0.1,7.5,5.3,13.6,11.9,13.6l0.1,0c2.6,0,5.1-0.9,7.1-2.6l-0.2,15.7c0,2,0.8,4,2.2,5.4s3.3,2.3,5.4,2.3
					l16.2,0.2c-2.1,2.1-3.3,4.9-3.3,7.7c-0.1,6.6,5.9,12.1,13.4,12.2l0.2,0c7.4,0,13.4-5.3,13.5-11.9c0-2.9-1.1-5.6-3.1-7.8
					l16.2,0.2l0.1,0c4.2,0,7.6-3.4,7.6-7.5l0.6-53.1c0-4.2-3.3-7.6-7.5-7.7L170.4,58.1L170.4,58.1L170.4,58.1z"/>
			</g>
			<g>
				<defs>
					<path id="SVGID_5_" d="M223.5,60.2l-53.1-0.6c-3.4,0-6.1,2.7-6.2,6l-0.2,15.7c0,1.3-1.5,1.9-2.4,1.1c-1.7-1.5-3.9-2.4-6.2-2.4
						c-5.8-0.1-10.6,5.3-10.7,11.9c-0.1,6.6,4.6,12.1,10.4,12.1c2.3,0,4.5-0.8,6.3-2.3c1-0.8,2.4-0.1,2.4,1.2l-0.2,15.7
						c0,3.4,2.7,6.1,6,6.2l16.2,0.2c1.3,0,2,1.6,1,2.5c-1.8,1.8-2.8,4.2-2.9,6.7c-0.1,5.8,5.3,10.6,11.9,10.7
						c6.6,0.1,12.1-4.6,12.1-10.4c0-2.6-1-4.9-2.7-6.8c-0.9-0.9-0.2-2.5,1.1-2.5l16.2,0.2c3.4,0,6.1-2.7,6.2-6l0.6-53.1
						C229.6,63,226.9,60.2,223.5,60.2z"/>
				</defs>
				<clipPath id="SVGID_6_">
					<use xlink:href="#SVGID_5_"  style="overflow:visible;"/>
				</clipPath>
				<g class="st24">
					<path class="st12" d="M146.4,69.4c-0.8,0.1-1.5-0.4-1.6-1.2c-0.1-0.8,0.4-1.5,1.2-1.6c0.8-0.1,1.5,0.4,1.6,1.2
						C147.7,68.5,147.2,69.3,146.4,69.4z"/>
					<path class="st12" d="M159.7,67.2c-0.8,0.1-1.5-0.4-1.6-1.2c-0.1-0.8,0.4-1.5,1.2-1.6c0.8-0.1,1.5,0.4,1.6,1.2
						C161,66.3,160.5,67,159.7,67.2z"/>
					<path class="st12" d="M173,64.9c-0.8,0.1-1.5-0.4-1.6-1.2c-0.1-0.8,0.4-1.5,1.2-1.6c0.8-0.1,1.5,0.4,1.6,1.2
						C174.3,64.1,173.8,64.8,173,64.9z"/>
					<path class="st12" d="M186.3,62.7c-0.8,0.1-1.5-0.4-1.6-1.2c-0.1-0.8,0.4-1.5,1.2-1.6c0.8-0.1,1.5,0.4,1.6,1.2
						C187.6,61.8,187.1,62.6,186.3,62.7z"/>
					<path class="st12" d="M199.6,60.4c-0.8,0.1-1.5-0.4-1.6-1.2c-0.1-0.8,0.4-1.5,1.2-1.6c0.8-0.1,1.5,0.4,1.6,1.2
						C200.9,59.6,200.4,60.3,199.6,60.4z"/>
					<path class="st12" d="M212.9,58.2c-0.8,0.1-1.5-0.4-1.6-1.2c-0.1-0.8,0.4-1.5,1.2-1.6c0.8-0.1,1.5,0.4,1.6,1.2
						C214.2,57.3,213.7,58.1,212.9,58.2z"/>
					<path class="st12" d="M226.2,56c-0.8,0.1-1.5-0.4-1.6-1.2c-0.1-0.8,0.4-1.5,1.2-1.6c0.8-0.1,1.5,0.4,1.6,1.2
						C227.5,55.1,226.9,55.8,226.2,56z"/>
					<path class="st12" d="M148.2,80.3c-0.8,0.1-1.5-0.4-1.6-1.2c-0.1-0.8,0.4-1.5,1.2-1.6c0.8-0.1,1.5,0.4,1.6,1.2
						C149.5,79.5,149,80.2,148.2,80.3z"/>
					
						<ellipse transform="matrix(0.9856 -0.1693 0.1693 0.9856 -10.6529 28.4101)" class="st12" cx="161.3" cy="76.7" rx="1.4" ry="1.4"/>
					<path class="st12" d="M174.8,75.8c-0.8,0.1-1.5-0.4-1.6-1.2c-0.1-0.8,0.4-1.5,1.2-1.6c0.8-0.1,1.5,0.4,1.6,1.2
						C176.1,75,175.6,75.7,174.8,75.8z"/>
					<path class="st12" d="M188.1,73.6c-0.8,0.1-1.5-0.4-1.6-1.2c-0.1-0.8,0.4-1.5,1.2-1.6c0.8-0.1,1.5,0.4,1.6,1.2
						C189.4,72.7,188.9,73.5,188.1,73.6z"/>
					<path class="st12" d="M201.4,71.4c-0.8,0.1-1.5-0.4-1.6-1.2c-0.1-0.8,0.4-1.5,1.2-1.6c0.8-0.1,1.5,0.4,1.6,1.2
						C202.7,70.5,202.2,71.2,201.4,71.4z"/>
					<path class="st12" d="M214.7,69.1c-0.8,0.1-1.5-0.4-1.6-1.2c-0.1-0.8,0.4-1.5,1.2-1.6c0.8-0.1,1.5,0.4,1.6,1.2
						C216,68.3,215.5,69,214.7,69.1z"/>
					<path class="st12" d="M228,66.9c-0.8,0.1-1.5-0.4-1.6-1.2c-0.1-0.8,0.4-1.5,1.2-1.6c0.8-0.1,1.5,0.4,1.6,1.2
						C229.3,66,228.8,66.7,228,66.9z"/>
					<path class="st12" d="M150.1,91.3c-0.8,0.1-1.5-0.4-1.6-1.2c-0.1-0.8,0.4-1.5,1.2-1.6c0.8-0.1,1.5,0.4,1.6,1.2
						C151.4,90.4,150.9,91.1,150.1,91.3z"/>
					<path class="st12" d="M163.4,89c-0.8,0.1-1.5-0.4-1.6-1.2c-0.1-0.8,0.4-1.5,1.2-1.6c0.8-0.1,1.5,0.4,1.6,1.2
						C164.7,88.1,164.2,88.9,163.4,89z"/>
					<path class="st12" d="M176.7,86.8c-0.8,0.1-1.5-0.4-1.6-1.2c-0.1-0.8,0.4-1.5,1.2-1.6c0.8-0.1,1.5,0.4,1.6,1.2
						C178,85.9,177.4,86.6,176.7,86.8z"/>
					<path class="st12" d="M190,84.5c-0.8,0.1-1.5-0.4-1.6-1.2c-0.1-0.8,0.4-1.5,1.2-1.6c0.8-0.1,1.5,0.4,1.6,1.2
						S190.7,84.4,190,84.5z"/>
					<path class="st12" d="M203.3,82.3c-0.8,0.1-1.5-0.4-1.6-1.2c-0.1-0.8,0.4-1.5,1.2-1.6c0.8-0.1,1.5,0.4,1.6,1.2
						C204.6,81.4,204,82.1,203.3,82.3z"/>
					<path class="st12" d="M216.6,80c-0.8,0.1-1.5-0.4-1.6-1.2c-0.1-0.8,0.4-1.5,1.2-1.6c0.8-0.1,1.5,0.4,1.6,1.2
						C217.9,79.2,217.3,79.9,216.6,80z"/>
					<path class="st12" d="M229.9,77.8c-0.8,0.1-1.5-0.4-1.6-1.2c-0.1-0.8,0.4-1.5,1.2-1.6c0.8-0.1,1.5,0.4,1.6,1.2
						C231.2,76.9,230.6,77.7,229.9,77.8z"/>
					<path class="st12" d="M151.9,102.2c-0.8,0.1-1.5-0.4-1.6-1.2c-0.1-0.8,0.4-1.5,1.2-1.6c0.8-0.1,1.5,0.4,1.6,1.2
						C153.2,101.3,152.7,102,151.9,102.2z"/>
					<path class="st12" d="M165.2,99.9c-0.8,0.1-1.5-0.4-1.6-1.2c-0.1-0.8,0.4-1.5,1.2-1.6c0.8-0.1,1.5,0.4,1.6,1.2
						C166.5,99.1,166,99.8,165.2,99.9z"/>
					<path class="st12" d="M178.5,97.7c-0.8,0.1-1.5-0.4-1.6-1.2c-0.1-0.8,0.4-1.5,1.2-1.6c0.8-0.1,1.5,0.4,1.6,1.2
						C179.8,96.8,179.3,97.5,178.5,97.7z"/>
					<path class="st12" d="M191.8,95.4c-0.8,0.1-1.5-0.4-1.6-1.2c-0.1-0.8,0.4-1.5,1.2-1.6c0.8-0.1,1.5,0.4,1.6,1.2
						C193.1,94.6,192.6,95.3,191.8,95.4z"/>
					<path class="st12" d="M205.1,93.2c-0.8,0.1-1.5-0.4-1.6-1.2c-0.1-0.8,0.4-1.5,1.2-1.6c0.8-0.1,1.5,0.4,1.6,1.2
						C206.4,92.3,205.9,93.1,205.1,93.2z"/>
					<path class="st12" d="M218.4,91c-0.8,0.1-1.5-0.4-1.6-1.2c-0.1-0.8,0.4-1.5,1.2-1.6c0.8-0.1,1.5,0.4,1.6,1.2
						S219.2,90.8,218.4,91z"/>
					<path class="st12" d="M231.7,88.7c-0.8,0.1-1.5-0.4-1.6-1.2c-0.1-0.8,0.4-1.5,1.2-1.6c0.8-0.1,1.5,0.4,1.6,1.2
						C233,87.8,232.5,88.6,231.7,88.7z"/>
					<path class="st12" d="M153.8,113.1c-0.8,0.1-1.5-0.4-1.6-1.2c-0.1-0.8,0.4-1.5,1.2-1.6s1.5,0.4,1.6,1.2
						C155.1,112.2,154.5,113,153.8,113.1z"/>
					<path class="st12" d="M167.1,110.8c-0.8,0.1-1.5-0.4-1.6-1.2c-0.1-0.8,0.4-1.5,1.2-1.6c0.8-0.1,1.5,0.4,1.6,1.2
						C168.4,110,167.8,110.7,167.1,110.8z"/>
					<path class="st12" d="M180.3,108.6c-0.8,0.1-1.5-0.4-1.6-1.2c-0.1-0.8,0.4-1.5,1.2-1.6c0.8-0.1,1.5,0.4,1.6,1.2
						C181.7,107.7,181.1,108.5,180.3,108.6z"/>
					<path class="st12" d="M193.6,106.4c-0.8,0.1-1.5-0.4-1.6-1.2c-0.1-0.8,0.4-1.5,1.2-1.6c0.8-0.1,1.5,0.4,1.6,1.2
						C194.9,105.5,194.4,106.2,193.6,106.4z"/>
					<path class="st12" d="M206.9,104.1c-0.8,0.1-1.5-0.4-1.6-1.2c-0.1-0.8,0.4-1.5,1.2-1.6c0.8-0.1,1.5,0.4,1.6,1.2
						C208.2,103.2,207.7,104,206.9,104.1z"/>
					<path class="st12" d="M220.2,101.9c-0.8,0.1-1.5-0.4-1.6-1.2c-0.1-0.8,0.4-1.5,1.2-1.6c0.8-0.1,1.5,0.4,1.6,1.2
						C221.5,101,221,101.7,220.2,101.9z"/>
					<path class="st12" d="M233.5,99.6c-0.8,0.1-1.5-0.4-1.6-1.2c-0.1-0.8,0.4-1.5,1.2-1.6c0.8-0.1,1.5,0.4,1.6,1.2
						C234.8,98.8,234.3,99.5,233.5,99.6z"/>
					<path class="st12" d="M155.6,124c-0.8,0.1-1.5-0.4-1.6-1.2c-0.1-0.8,0.4-1.5,1.2-1.6c0.8-0.1,1.5,0.4,1.6,1.2
						C156.9,123.1,156.4,123.9,155.6,124z"/>
					<path class="st12" d="M168.9,121.8c-0.8,0.1-1.5-0.4-1.6-1.2c-0.1-0.8,0.4-1.5,1.2-1.6c0.8-0.1,1.5,0.4,1.6,1.2
						C170.2,120.9,169.7,121.6,168.9,121.8z"/>
					<path class="st12" d="M182.2,119.5c-0.8,0.1-1.5-0.4-1.6-1.2c-0.1-0.8,0.4-1.5,1.2-1.6s1.5,0.4,1.6,1.2
						C183.5,118.6,183,119.4,182.2,119.5z"/>
					<path class="st12" d="M195.5,117.3c-0.8,0.1-1.5-0.4-1.6-1.2c-0.1-0.8,0.4-1.5,1.2-1.6c0.8-0.1,1.5,0.4,1.6,1.2
						C196.8,116.4,196.3,117.1,195.5,117.3z"/>
					<path class="st12" d="M208.8,115c-0.8,0.1-1.5-0.4-1.6-1.2c-0.1-0.8,0.4-1.5,1.2-1.6c0.8-0.1,1.5,0.4,1.6,1.2
						C210.1,114.2,209.6,114.9,208.8,115z"/>
					<path class="st12" d="M222.1,112.8c-0.8,0.1-1.5-0.4-1.6-1.2c-0.1-0.8,0.4-1.5,1.2-1.6c0.8-0.1,1.5,0.4,1.6,1.2
						C223.4,111.9,222.9,112.7,222.1,112.8z"/>
					<path class="st12" d="M235.4,110.5c-0.8,0.1-1.5-0.4-1.6-1.2c-0.1-0.8,0.4-1.5,1.2-1.6c0.8-0.1,1.5,0.4,1.6,1.2
						C236.7,109.7,236.2,110.4,235.4,110.5z"/>
					<path class="st12" d="M157.4,134.9c-0.8,0.1-1.5-0.4-1.6-1.2c-0.1-0.8,0.4-1.5,1.2-1.6c0.8-0.1,1.5,0.4,1.6,1.2
						C158.7,134,158.2,134.8,157.4,134.9z"/>
					<path class="st12" d="M170.7,132.7c-0.8,0.1-1.5-0.4-1.6-1.2s0.4-1.5,1.2-1.6c0.8-0.1,1.5,0.4,1.6,1.2
						C172,131.8,171.5,132.5,170.7,132.7z"/>
					<path class="st12" d="M184,130.4c-0.8,0.1-1.5-0.4-1.6-1.2s0.4-1.5,1.2-1.6c0.8-0.1,1.5,0.4,1.6,1.2
						C185.3,129.6,184.8,130.3,184,130.4z"/>
					<path class="st12" d="M197.3,128.2c-0.8,0.1-1.5-0.4-1.6-1.2c-0.1-0.8,0.4-1.5,1.2-1.6c0.8-0.1,1.5,0.4,1.6,1.2
						C198.6,127.3,198.1,128.1,197.3,128.2z"/>
					<path class="st12" d="M210.6,125.9c-0.8,0.1-1.5-0.4-1.6-1.2c-0.1-0.8,0.4-1.5,1.2-1.6c0.8-0.1,1.5,0.4,1.6,1.2
						C211.9,125.1,211.4,125.8,210.6,125.9z"/>
					<path class="st12" d="M223.9,123.7c-0.8,0.1-1.5-0.4-1.6-1.2c-0.1-0.8,0.4-1.5,1.2-1.6c0.8-0.1,1.5,0.4,1.6,1.2
						C225.2,122.8,224.7,123.6,223.9,123.7z"/>
					<path class="st12" d="M237.2,121.5c-0.8,0.1-1.5-0.4-1.6-1.2c-0.1-0.8,0.4-1.5,1.2-1.6c0.8-0.1,1.5,0.4,1.6,1.2
						C238.5,120.6,238,121.3,237.2,121.5z"/>
					<path class="st12" d="M159.3,145.8c-0.8,0.1-1.5-0.4-1.6-1.2c-0.1-0.8,0.4-1.5,1.2-1.6c0.8-0.1,1.5,0.4,1.6,1.2
						C160.6,145,160.1,145.7,159.3,145.8z"/>
					<path class="st12" d="M172.6,143.6c-0.8,0.1-1.5-0.4-1.6-1.2c-0.1-0.8,0.4-1.5,1.2-1.6c0.8-0.1,1.5,0.4,1.6,1.2
						C173.9,142.7,173.4,143.5,172.6,143.6z"/>
					<path class="st12" d="M185.9,141.3c-0.8,0.1-1.5-0.4-1.6-1.2c-0.1-0.8,0.4-1.5,1.2-1.6c0.8-0.1,1.5,0.4,1.6,1.2
						C187.2,140.5,186.7,141.2,185.9,141.3z"/>
					<path class="st12" d="M199.2,139.1c-0.8,0.1-1.5-0.4-1.6-1.2c-0.1-0.8,0.4-1.5,1.2-1.6c0.8-0.1,1.5,0.4,1.6,1.2
						C200.5,138.2,199.9,139,199.2,139.1z"/>
					<path class="st12" d="M212.5,136.9c-0.8,0.1-1.5-0.4-1.6-1.2c-0.1-0.8,0.4-1.5,1.2-1.6c0.8-0.1,1.5,0.4,1.6,1.2
						C213.8,136,213.2,136.7,212.5,136.9z"/>
					<path class="st12" d="M225.8,134.6c-0.8,0.1-1.5-0.4-1.6-1.2c-0.1-0.8,0.4-1.5,1.2-1.6c0.8-0.1,1.5,0.4,1.6,1.2
						C227.1,133.7,226.5,134.5,225.8,134.6z"/>
					<path class="st12" d="M239.1,132.4c-0.8,0.1-1.5-0.4-1.6-1.2c-0.1-0.8,0.4-1.5,1.2-1.6c0.8-0.1,1.5,0.4,1.6,1.2
						C240.4,131.5,239.8,132.2,239.1,132.4z"/>
				</g>
			</g>
		</g>
		<g>
			<g>
				<path class="st25" d="M99.1,199.6c-3.6,0-6.6-2.8-6.8-6.5l-3-53c-0.1-1.8,0.5-3.6,1.7-5s2.9-2.2,4.7-2.3l16.2-0.9
					c0.4,0,0.6-0.4,0.6-0.5c0-0.1,0.1-0.5-0.2-0.8c-2-1.9-3.2-4.4-3.4-7.1c-0.3-6.2,5.1-11.6,12.1-12c0.3,0,0.5,0,0.8,0
					c6.7,0,12.2,4.7,12.6,10.6c0.1,2.6-0.8,5.3-2.5,7.4c-0.3,0.3-0.2,0.6-0.1,0.8c0,0.1,0.2,0.4,0.7,0.4l16.2-0.9c0.1,0,0.3,0,0.4,0
					c3.6,0,6.6,2.8,6.8,6.5l0.9,15.9c0,0.5,0.4,0.7,0.7,0.7c0.1,0,0.3,0,0.5-0.2c1.9-1.9,4.2-2.9,6.8-3.1c0.2,0,0.4,0,0.6,0
					c6,0,11.1,5.3,11.4,12.1c0.2,3.4-0.8,6.6-2.8,9.2c-2,2.6-4.8,4-7.8,4.2c-0.2,0-0.4,0-0.6,0c0,0,0,0,0,0c-2.3,0-4.6-0.8-6.5-2.3
					c-0.1-0.1-0.3-0.2-0.4-0.2c-0.2,0-0.4,0.1-0.5,0.2c-0.1,0.1-0.2,0.3-0.2,0.5l0.9,15.9c0.2,3.8-2.7,7-6.5,7.2l-53,3
					C99.3,199.6,99.2,199.6,99.1,199.6z"/>
				<g>
					<path class="st12" d="M121.9,112.5c6.3,0,11.5,4.3,11.8,9.9c0.1,2.5-0.8,4.9-2.4,6.9c-0.8,1-0.1,2.4,1.1,2.4c0,0,0.1,0,0.1,0
						l16.2-0.9c0.1,0,0.2,0,0.3,0c3.2,0,5.9,2.5,6.1,5.8l0.9,15.9c0,0.9,0.8,1.4,1.5,1.4c0.4,0,0.7-0.1,1-0.4
						c1.7-1.7,3.9-2.7,6.3-2.9c0.2,0,0.4,0,0.5,0c5.6,0,10.3,5,10.7,11.4c0.4,6.6-4,12.3-9.9,12.6c-0.2,0-0.4,0-0.5,0
						c-2.2,0-4.3-0.8-6-2.1c-0.3-0.2-0.6-0.3-0.9-0.3c-0.8,0-1.5,0.7-1.5,1.6l0.9,15.9c0.2,3.4-2.4,6.3-5.8,6.4l-53,3
						c-0.1,0-0.2,0-0.3,0c-3.2,0-5.9-2.5-6.1-5.8l-3-53c-0.2-3.4,2.4-6.3,5.8-6.4l16.2-0.9c1.3-0.1,1.9-1.7,0.9-2.5
						c-1.8-1.7-3-4-3.1-6.6c-0.3-5.8,4.8-10.8,11.4-11.2C121.4,112.5,121.7,112.5,121.9,112.5 M121.9,111
						C121.9,111,121.9,111,121.9,111C121.9,111,121.9,111,121.9,111c-0.3,0-0.6,0-0.9,0c-3.6,0.2-6.9,1.6-9.3,4
						c-2.5,2.4-3.7,5.6-3.5,8.8c0.2,2.8,1.4,5.5,3.6,7.6l-16.1,0.9c-2,0.1-3.9,1-5.2,2.5c-1.4,1.5-2,3.5-1.9,5.5l3,53
						c0.2,4,3.6,7.2,7.6,7.2c0.1,0,0.3,0,0.4,0l53-3c2-0.1,3.9-1,5.2-2.5c1.4-1.5,2-3.5,1.9-5.5l-0.9-15.9c2,1.6,4.4,2.5,6.9,2.5
						c0.2,0,0.4,0,0.6,0c3.3-0.2,6.2-1.8,8.4-4.5c2.1-2.7,3.1-6.1,2.9-9.7c-0.4-7.2-5.8-12.8-12.2-12.8c-0.2,0-0.4,0-0.6,0
						c-2.7,0.2-5.2,1.3-7.2,3.3l-0.8-15.9c-0.2-4-3.6-7.2-7.6-7.2c-0.1,0-0.3,0-0.4,0l-16.2,0.9c1.9-2.2,2.9-5,2.7-7.9
						C134.9,115.9,129,111,121.9,111L121.9,111L121.9,111z"/>
				</g>
			</g>
			<g>
				<defs>
					<path id="SVGID_7_" d="M164.8,150.5c-2.4,0.1-4.6,1.2-6.3,2.9c-0.9,0.9-2.4,0.3-2.5-1l-0.9-15.9c-0.2-3.4-3.1-5.9-6.4-5.8
						l-16.2,0.9c-1.3,0.1-2.1-1.4-1.2-2.4c1.6-1.9,2.5-4.3,2.4-6.9c-0.3-5.8-6-10.2-12.6-9.9c-6.6,0.4-11.7,5.4-11.4,11.2
						c0.1,2.5,1.3,4.8,3.1,6.6c0.9,0.9,0.4,2.5-0.9,2.5l-16.2,0.9c-3.4,0.2-5.9,3.1-5.8,6.4l3,53c0.2,3.4,3.1,5.9,6.4,5.8l53-3
						c3.4-0.2,5.9-3.1,5.8-6.4l-0.9-15.9c-0.1-1.3,1.4-2,2.4-1.3c1.9,1.5,4.1,2.3,6.6,2.1c5.8-0.3,10.2-6,9.9-12.6
						C175.7,155.2,170.7,150.1,164.8,150.5z"/>
				</defs>
				<clipPath id="SVGID_8_">
					<use xlink:href="#SVGID_7_"  style="overflow:visible;"/>
				</clipPath>
				<g class="st26">
					<path class="st12" d="M61.8,177.4c-0.8,0.2-1.5-0.3-1.7-1c-0.2-0.8,0.3-1.5,1-1.7c0.8-0.2,1.5,0.3,1.7,1
						C63,176.4,62.6,177.2,61.8,177.4z"/>
					<path class="st12" d="M74.9,174.1c-0.8,0.2-1.5-0.3-1.7-1c-0.2-0.8,0.3-1.5,1-1.7c0.8-0.2,1.5,0.3,1.7,1
						C76.1,173.2,75.6,173.9,74.9,174.1z"/>
					<path class="st12" d="M88,170.9c-0.8,0.2-1.5-0.3-1.7-1c-0.2-0.8,0.3-1.5,1-1.7c0.8-0.2,1.5,0.3,1.7,1
						C89.2,169.9,88.7,170.7,88,170.9z"/>
					<path class="st12" d="M101,167.6c-0.8,0.2-1.5-0.3-1.7-1c-0.2-0.8,0.3-1.5,1-1.7c0.8-0.2,1.5,0.3,1.7,1
						C102.3,166.6,101.8,167.4,101,167.6z"/>
					<path class="st12" d="M114.1,164.3c-0.8,0.2-1.5-0.3-1.7-1c-0.2-0.8,0.3-1.5,1-1.7c0.8-0.2,1.5,0.3,1.7,1
						C115.3,163.4,114.9,164.1,114.1,164.3z"/>
					<path class="st12" d="M127.2,161.1c-0.8,0.2-1.5-0.3-1.7-1c-0.2-0.8,0.3-1.5,1-1.7c0.8-0.2,1.5,0.3,1.7,1
						C128.4,160.1,128,160.9,127.2,161.1z"/>
					<path class="st12" d="M140.3,157.8c-0.8,0.2-1.5-0.3-1.7-1c-0.2-0.8,0.3-1.5,1-1.7c0.8-0.2,1.5,0.3,1.7,1
						S141,157.6,140.3,157.8z"/>
					<path class="st12" d="M64.5,188.1c-0.8,0.2-1.5-0.3-1.7-1c-0.2-0.8,0.3-1.5,1-1.7c0.8-0.2,1.5,0.3,1.7,1
						C65.7,187.2,65.2,187.9,64.5,188.1z"/>
					<path class="st12" d="M77.5,184.9c-0.8,0.2-1.5-0.3-1.7-1c-0.2-0.8,0.3-1.5,1-1.7c0.8-0.2,1.5,0.3,1.7,1
						C78.8,183.9,78.3,184.7,77.5,184.9z"/>
					<path class="st12" d="M90.6,181.6c-0.8,0.2-1.5-0.3-1.7-1c-0.2-0.8,0.3-1.5,1-1.7c0.8-0.2,1.5,0.3,1.7,1
						C91.9,180.6,91.4,181.4,90.6,181.6z"/>
					<path class="st12" d="M103.7,178.3c-0.8,0.2-1.5-0.3-1.7-1c-0.2-0.8,0.3-1.5,1-1.7c0.8-0.2,1.5,0.3,1.7,1
						C104.9,177.4,104.5,178.1,103.7,178.3z"/>
					<path class="st12" d="M116.8,175.1c-0.8,0.2-1.5-0.3-1.7-1c-0.2-0.8,0.3-1.5,1-1.7c0.8-0.2,1.5,0.3,1.7,1
						C118,174.1,117.6,174.9,116.8,175.1z"/>
					<path class="st12" d="M129.9,171.8c-0.8,0.2-1.5-0.3-1.7-1c-0.2-0.8,0.3-1.5,1-1.7c0.8-0.2,1.5,0.3,1.7,1
						C131.1,170.8,130.6,171.6,129.9,171.8z"/>
					<path class="st12" d="M143,168.5c-0.8,0.2-1.5-0.3-1.7-1c-0.2-0.8,0.3-1.5,1-1.7c0.8-0.2,1.5,0.3,1.7,1
						C144.2,167.6,143.7,168.4,143,168.5z"/>
					<path class="st12" d="M67.1,198.9c-0.8,0.2-1.5-0.3-1.7-1c-0.2-0.8,0.3-1.5,1-1.7c0.8-0.2,1.5,0.3,1.7,1
						C68.4,197.9,67.9,198.7,67.1,198.9z"/>
					<path class="st12" d="M80.2,195.6c-0.8,0.2-1.5-0.3-1.7-1c-0.2-0.8,0.3-1.5,1-1.7c0.8-0.2,1.5,0.3,1.7,1
						C81.5,194.6,81,195.4,80.2,195.6z"/>
					<path class="st12" d="M93.3,192.3c-0.8,0.2-1.5-0.3-1.7-1c-0.2-0.8,0.3-1.5,1-1.7c0.8-0.2,1.5,0.3,1.7,1
						C94.5,191.4,94.1,192.2,93.3,192.3z"/>
					<path class="st12" d="M106.4,189.1c-0.8,0.2-1.5-0.3-1.7-1c-0.2-0.8,0.3-1.5,1-1.7c0.8-0.2,1.5,0.3,1.7,1
						C107.6,188.1,107.2,188.9,106.4,189.1z"/>
					<path class="st12" d="M119.5,185.8c-0.8,0.2-1.5-0.3-1.7-1c-0.2-0.8,0.3-1.5,1-1.7c0.8-0.2,1.5,0.3,1.7,1
						C120.7,184.8,120.2,185.6,119.5,185.8z"/>
					<path class="st12" d="M132.6,182.6c-0.8,0.2-1.5-0.3-1.7-1c-0.2-0.8,0.3-1.5,1-1.7c0.8-0.2,1.5,0.3,1.7,1
						C133.8,181.6,133.3,182.4,132.6,182.6z"/>
					<circle class="st12" cx="145.3" cy="177.9" r="1.4"/>
					<path class="st12" d="M69.8,209.6c-0.8,0.2-1.5-0.3-1.7-1c-0.2-0.8,0.3-1.5,1-1.7c0.8-0.2,1.5,0.3,1.7,1
						C71.1,208.6,70.6,209.4,69.8,209.6z"/>
					<path class="st12" d="M82.9,206.3c-0.8,0.2-1.5-0.3-1.7-1c-0.2-0.8,0.3-1.5,1-1.7c0.8-0.2,1.5,0.3,1.7,1
						C84.1,205.4,83.7,206.2,82.9,206.3z"/>
					<path class="st12" d="M96,203.1c-0.8,0.2-1.5-0.3-1.7-1c-0.2-0.8,0.3-1.5,1-1.7c0.8-0.2,1.5,0.3,1.7,1
						C97.2,202.1,96.8,202.9,96,203.1z"/>
					<path class="st12" d="M109.1,199.8c-0.8,0.2-1.5-0.3-1.7-1c-0.2-0.8,0.3-1.5,1-1.7c0.8-0.2,1.5,0.3,1.7,1
						C110.3,198.9,109.8,199.6,109.1,199.8z"/>
					<path class="st12" d="M122.2,196.6c-0.8,0.2-1.5-0.3-1.7-1c-0.2-0.8,0.3-1.5,1-1.7c0.8-0.2,1.5,0.3,1.7,1
						C123.4,195.6,122.9,196.4,122.2,196.6z"/>
					<path class="st12" d="M135.2,193.3c-0.8,0.2-1.5-0.3-1.7-1c-0.2-0.8,0.3-1.5,1-1.7s1.5,0.3,1.7,1
						C136.5,192.3,136,193.1,135.2,193.3z"/>
					<circle class="st12" cx="148" cy="188.6" r="1.4"/>
					<path class="st12" d="M72.5,220.4c-0.8,0.2-1.5-0.3-1.7-1c-0.2-0.8,0.3-1.5,1-1.7c0.8-0.2,1.5,0.3,1.7,1
						C73.7,219.4,73.3,220.2,72.5,220.4z"/>
					<path class="st12" d="M85.6,217.1c-0.8,0.2-1.5-0.3-1.7-1c-0.2-0.8,0.3-1.5,1-1.7c0.8-0.2,1.5,0.3,1.7,1
						C86.8,216.1,86.4,216.9,85.6,217.1z"/>
					<path class="st12" d="M98.7,213.8c-0.8,0.2-1.5-0.3-1.7-1c-0.2-0.8,0.3-1.5,1-1.7c0.8-0.2,1.5,0.3,1.7,1
						C99.9,212.9,99.4,213.6,98.7,213.8z"/>
					<path class="st12" d="M111.8,210.6c-0.8,0.2-1.5-0.3-1.7-1c-0.2-0.8,0.3-1.5,1-1.7c0.8-0.2,1.5,0.3,1.7,1
						C113,209.6,112.5,210.4,111.8,210.6z"/>
					<path class="st12" d="M124.8,207.3c-0.8,0.2-1.5-0.3-1.7-1c-0.2-0.8,0.3-1.5,1-1.7c0.8-0.2,1.5,0.3,1.7,1
						C126.1,206.3,125.6,207.1,124.8,207.3z"/>
					<circle class="st12" cx="137.6" cy="202.6" r="1.4"/>
					<path class="st12" d="M151,200.8c-0.8,0.2-1.5-0.3-1.7-1c-0.2-0.8,0.3-1.5,1-1.7c0.8-0.2,1.5,0.3,1.7,1
						C152.2,199.8,151.8,200.6,151,200.8z"/>
					<path class="st12" d="M75.2,231.1c-0.8,0.2-1.5-0.3-1.7-1c-0.2-0.8,0.3-1.5,1-1.7c0.8-0.2,1.5,0.3,1.7,1
						C76.4,230.1,76,230.9,75.2,231.1z"/>
					<path class="st12" d="M88.3,227.8c-0.8,0.2-1.5-0.3-1.7-1c-0.2-0.8,0.3-1.5,1-1.7c0.8-0.2,1.5,0.3,1.7,1
						C89.5,226.9,89,227.6,88.3,227.8z"/>
					<path class="st12" d="M101.3,224.6c-0.8,0.2-1.5-0.3-1.7-1c-0.2-0.8,0.3-1.5,1-1.7c0.8-0.2,1.5,0.3,1.7,1
						C102.6,223.6,102.1,224.4,101.3,224.6z"/>
					<path class="st12" d="M114.4,221.3c-0.8,0.2-1.5-0.3-1.7-1c-0.2-0.8,0.3-1.5,1-1.7c0.8-0.2,1.5,0.3,1.7,1
						C115.7,220.3,115.2,221.1,114.4,221.3z"/>
					<path class="st12" d="M127.5,218c-0.8,0.2-1.5-0.3-1.7-1c-0.2-0.8,0.3-1.5,1-1.7c0.8-0.2,1.5,0.3,1.7,1
						C128.7,217.1,128.3,217.8,127.5,218z"/>
					<path class="st12" d="M140.6,214.8c-0.8,0.2-1.5-0.3-1.7-1c-0.2-0.8,0.3-1.5,1-1.7c0.8-0.2,1.5,0.3,1.7,1
						C141.8,213.8,141.4,214.6,140.6,214.8z"/>
					<path class="st12" d="M153.7,211.5c-0.8,0.2-1.5-0.3-1.7-1c-0.2-0.8,0.3-1.5,1-1.7c0.8-0.2,1.5,0.3,1.7,1
						C154.9,210.5,154.4,211.3,153.7,211.5z"/>
					<path class="st12" d="M77.9,241.8c-0.8,0.2-1.5-0.3-1.7-1c-0.2-0.8,0.3-1.5,1-1.7c0.8-0.2,1.5,0.3,1.7,1
						C79.1,240.9,78.6,241.6,77.9,241.8z"/>
					<path class="st12" d="M90.9,238.6c-0.8,0.2-1.5-0.3-1.7-1c-0.2-0.8,0.3-1.5,1-1.7c0.8-0.2,1.5,0.3,1.7,1
						C92.2,237.6,91.7,238.4,90.9,238.6z"/>
					<path class="st12" d="M104,235.3c-0.8,0.2-1.5-0.3-1.7-1c-0.2-0.8,0.3-1.5,1-1.7c0.8-0.2,1.5,0.3,1.7,1
						C105.3,234.3,104.8,235.1,104,235.3z"/>
					<path class="st12" d="M117.1,232c-0.8,0.2-1.5-0.3-1.7-1c-0.2-0.8,0.3-1.5,1-1.7c0.8-0.2,1.5,0.3,1.7,1
						C118.3,231.1,117.9,231.9,117.1,232z"/>
					<path class="st12" d="M130.2,228.8c-0.8,0.2-1.5-0.3-1.7-1c-0.2-0.8,0.3-1.5,1-1.7s1.5,0.3,1.7,1
						C131.4,227.8,131,228.6,130.2,228.8z"/>
					<circle class="st12" cx="142.9" cy="224.1" r="1.4"/>
					<path class="st12" d="M156.4,222.3c-0.8,0.2-1.5-0.3-1.7-1c-0.2-0.8,0.3-1.5,1-1.7c0.8-0.2,1.5,0.3,1.7,1
						C157.6,221.3,157.1,222.1,156.4,222.3z"/>
					<path class="st12" d="M80.5,252.6c-0.8,0.2-1.5-0.3-1.7-1c-0.2-0.8,0.3-1.5,1-1.7c0.8-0.2,1.5,0.3,1.7,1
						C81.8,251.6,81.3,252.4,80.5,252.6z"/>
					<path class="st12" d="M93.6,249.3c-0.8,0.2-1.5-0.3-1.7-1c-0.2-0.8,0.3-1.5,1-1.7c0.8-0.2,1.5,0.3,1.7,1
						C94.9,248.3,94.4,249.1,93.6,249.3z"/>
					<circle class="st12" cx="106.4" cy="244.7" r="1.4"/>
					<path class="st12" d="M119.8,242.8c-0.8,0.2-1.5-0.3-1.7-1c-0.2-0.8,0.3-1.5,1-1.7c0.8-0.2,1.5,0.3,1.7,1
						C121,241.8,120.6,242.6,119.8,242.8z"/>
					<circle class="st12" cx="132.5" cy="238.1" r="1.4"/>
					<path class="st12" d="M146,236.3c-0.8,0.2-1.5-0.3-1.7-1c-0.2-0.8,0.3-1.5,1-1.7c0.8-0.2,1.5,0.3,1.7,1
						C147.2,235.3,146.7,236.1,146,236.3z"/>
					<path class="st12" d="M159,233c-0.8,0.2-1.5-0.3-1.7-1c-0.2-0.8,0.3-1.5,1-1.7c0.8-0.2,1.5,0.3,1.7,1
						C160.3,232,159.8,232.8,159,233z"/>
				</g>
			</g>
		</g>
	</g>
	<g>
		<g>
			<path class="st5" d="M27.4,123.4c0,0-0.5,21.7-1.8,29.2c-1.5,8.3-13.9,25.2-13.9,25.2l2.9,2.8l4.3,2c0,0,10.9-10.4,17-23.4
				c5.3-11.3,5.5-34.7,5.5-34.7"/>
			<g>
				<g>
					<path class="st13" d="M24.3,189.6c0.1-0.5,0.2-1.2,0-1.4l-4.4-6.5c-4.2-0.8-7.9-4.6-7.9-4.6l-3.7,4.1c-0.1,0.2-0.1,0.4,0.1,0.5
						l14.9,9.4C23.6,191.2,24.3,189.6,24.3,189.6z"/>
					<path class="st27" d="M21.1,182.8c-0.6,0.2-1.2,0.5-1.8,0.9"/>
					<path class="st27" d="M21.5,183.7c-0.7,0.3-1,0.5-1.5,0.8"/>
					<path class="st27" d="M22,184.5c-0.4,0.2-1,0.5-1.4,0.7"/>
				</g>
				<line class="st27" x1="8.8" y1="180.5" x2="24.1" y2="190.1"/>
				<path class="st27" d="M10.7,178.5c0,0,3.5,2.4,2.5,4.7"/>
				<path class="st27" d="M23.4,186.9c0,0-1.9,0.8-2.5,1.3"/>
			</g>
		</g>
		<g>
			<path class="st5" d="M43.4,132.4c0,0,0.8,12.7,1.4,22.4c0.6,9.7,1.7,31.9,1.7,31.9l4.2,1l4.7-0.8c0,0,1.2-19.1,1.2-31.8
				c0-13.1-0.5-31.7-0.5-31.7"/>
			<g>
				<g>
					<path class="st13" d="M63.6,190.4c-0.2-0.5-0.5-1.1-0.8-1.2l-7.2-3.1c-4,1.6-9.2,0.4-9.2,0.4l-0.9,5.5c0,0.2,0.1,0.3,0.3,0.3
						l17.6-0.1C63.9,192.1,63.6,190.4,63.6,190.4z"/>
					<path class="st27" d="M57.2,186.3c-0.4,0.5-0.7,1.1-1,1.7"/>
					<path class="st27" d="M58.1,186.9c-0.4,0.6-0.6,0.9-0.8,1.5"/>
					<path class="st27" d="M58.9,187.3c-0.3,0.4-0.6,0.9-0.8,1.3"/>
				</g>
				<line class="st27" x1="45.6" y1="191" x2="63.7" y2="190.9"/>
				<path class="st27" d="M46.1,188.3c0,0,4.2,0.1,4.6,2.6"/>
				<path class="st27" d="M61.4,188.5c0,0-1.2,1.7-1.4,2.4"/>
			</g>
		</g>
		<g>
			<path class="st28" d="M43.1,60.7c-2.3-0.5-4.4,1-5.4,2.6c-0.3,0.5-0.6,1-0.9,1.5c-2.3,3-11.4,2.1-9.6,8c0.2,0.7,0.6,1.3,0.7,2
				c0.1,0.9-0.4,1.7-0.6,2.6c-0.8,2.8,1.2,6,4,6.6c1.3,0.3,2.7,0.1,3.8,0.8c1,0.6,1.5,1.9,2.2,2.8c2,2.6,5.9,3.2,9,2
				c1.2-0.4,2.3-1.1,2.8-2.3c0.3-0.7,0.3-1.4,0.7-2c0.7-1.2,2.3-1.4,3.5-2c1.7-1,2.7-3.3,1.9-5.1c-0.8-1.9-2.5-3.6-2.9-5.7
				c-0.2-1.1,0.1-2.3-0.1-3.4c-0.2-0.8-0.6-1.6-1.3-2.1c-0.5-0.4-1-0.6-1.5-1c-1-0.8-1.1-2.2-2.1-3c-1-0.8-2.3-1.1-3.4-1.8"/>
		</g>
		<path class="st5" d="M47.2,74.6c5.8-1.6,14.2-1.3,21-8c6.8-6.7,9.7-11.8,9.7-11.8l5.2,4.1c0,0-6.8,13.1-12.9,17.5
			c-8,5.8-13.5,6.7-18.1,7.5"/>
		<g>
			<path class="st5" d="M76.5,57c1.4-2.2,4.9-8.4,5.4-8.4c0.5,0.1-0.6,2.3-0.2,2.2c0.4,0,2.3-3.3,2.8-3.1c0.6,0.3-1.5,3.5-1.5,3.5
				s0.6-0.6,1-0.2c0.3,0.3-0.1,1.2-0.1,1.2s0.6-0.6,1-0.3c0.3,0.3-0.1,1.4-0.1,1.4s0.5-0.3,0.8,0c0.3,0.3-1.4,4.1-4.5,9.2"/>
		</g>
		<path class="st9" d="M81.2,51.7c0,0-0.1,1.1,0,1.9c0.1,1.2-0.2,1.9-0.2,1.9"/>
		<g>
			<path class="st29" d="M82.7,51.6c-0.1,0.4-0.2,0.8-0.3,1.1c-0.1,0.4-0.2,0.8-0.1,1.1c0,0,0,0,0,0c0,0,0,0,0,0c0,0,0.1,0,0.1-0.1
				c0.1-0.1,0.3-0.2,0.4-0.3c0.2-0.3,0.5-0.6,0.7-0.9c0.1-0.2,0.3-0.2,0.5-0.1c0.1,0.1,0.2,0.3,0.1,0.4l0,0c-0.2,0.3-0.3,0.7-0.5,1
				c-0.1,0.2-0.1,0.3-0.2,0.5c-0.1,0.2-0.1,0.3-0.1,0.4c0,0-0.1-0.1-0.1-0.1c0,0,0,0,0.1,0c0.1,0,0.2-0.2,0.3-0.3
				c0.2-0.2,0.5-0.6,0.7-0.9l0,0c0.1-0.2,0.3-0.2,0.5-0.1c0.1,0.1,0.2,0.3,0.1,0.4c-0.2,0.3-0.3,0.6-0.4,0.9
				c-0.1,0.3-0.3,0.6-0.3,0.9c0,0.1,0,0.1,0,0.2c0,0,0,0,0,0c0.1,0,0.3-0.1,0.4-0.2c0.3-0.2,0.5-0.5,0.7-0.8
				c-0.2,0.3-0.3,0.6-0.6,0.9c-0.1,0.1-0.2,0.3-0.5,0.4c-0.1,0-0.4,0-0.4-0.2c-0.1-0.1-0.1-0.3-0.1-0.4c0-0.4,0.1-0.8,0.2-1.1
				c0.1-0.3,0.2-0.7,0.4-1l0.6,0.3c-0.2,0.4-0.4,0.7-0.7,1c-0.1,0.2-0.3,0.3-0.6,0.4c-0.1,0.1-0.3,0.1-0.5,0.1
				c-0.1,0-0.2-0.1-0.3-0.2c-0.1-0.1-0.2-0.2-0.2-0.3c-0.1-0.4,0-0.6,0.1-0.8c0.1-0.2,0.1-0.4,0.2-0.6c0.2-0.4,0.3-0.7,0.5-1.1
				l0.6,0.4c-0.3,0.3-0.5,0.6-0.8,0.9c-0.2,0.1-0.3,0.3-0.5,0.4c-0.1,0.1-0.2,0.1-0.4,0.1c-0.1,0-0.2,0-0.3-0.1
				c-0.1-0.1-0.1-0.2-0.1-0.2c0-0.5,0.2-0.9,0.3-1.2C82.3,52.3,82.5,51.9,82.7,51.6z"/>
		</g>
		<g>
			<path class="st28" d="M40.6,61.7"/>
		</g>
		<g>
			<path class="st28" d="M41.7,61.1c-0.3-0.1-0.6-0.1-0.9-0.3c-0.4-0.3-0.4-0.9-0.2-1.4c0.3-0.7,1.2-1,1.9-0.9
				c1.7,0.3,1.4,1.9,0.4,2.5"/>
		</g>
		<g>
			<path class="st30" d="M32.3,102.5c0,0-6.1,6.5-7.3,15.4s-1.2,23.3-1.2,23.3s17.6,3.2,33.6-0.3c-0.6-7.4,0-28-5.6-38.3"/>
			<path class="st31" d="M27.1,141.6c0,0-0.6-22.3,2-29.8c2-5.9,6.5-11.6,6.5-11.6"/>
		</g>
		<g>
			<path class="st32" d="M57.7,73l2.1,9.9c0,0-4.1,1.6-8.3,1.9c-2.3,0-5.7-8.9-4.4-10.6C50.9,73.1,57.7,73,57.7,73z"/>
			<path class="st32" d="M31.9,84.1c0,0-0.3,11.6,0.4,18.4c9.8,2.2,19.5,0,19.5,0l0.7-10.6c4.9-5,0.6-11.5,0.6-11.5l-6.1-6.2
				L41,73.9L31.9,84.1z"/>
			<path class="st32" d="M41,73.9c0,0-5.4-0.9-10.6,3.4c-1.2,1-2.6,3-3.8,5.4l8.4,5.5l5-5.5"/>
			<path class="st27" d="M54.7,84.3c-0.4-1.6-1.6-4-1.6-5.5"/>
			<line class="st27" x1="56.1" y1="73" x2="58.5" y2="83.3"/>
			<line class="st27" x1="27.3" y1="81.3" x2="33.4" y2="85.1"/>
		</g>
		<g>
			<path class="st5" d="M47.5,63.1c0,0,2.2,5.8,0.6,7.6c-0.9,0.9-3.9,0.4-5-0.5c-0.8-0.6-2-4.5-1.5-5.2
				C43.3,62.1,47.5,63.1,47.5,63.1z"/>
			<path class="st5" d="M41.2,68.1L41,73.9c0.5,1.4,5.3,2.8,6.1,0.3l-0.5-4.3L41.2,68.1z"/>
			<g>
				<path class="st28" d="M38.7,67.5c-0.2-0.5-0.2-1.1-0.2-1.7c0-0.7,0.1-1.5,0.3-2.1c0.4-1.2,1.3-2.2,2.4-2.7c1.1-0.5,3.3-1,5,0
					c0.9-0.1,1.8,0.2,2.5,0.8c0.7,0.6,1,1.6,0.8,2.4c-1.7-0.2-3.3-0.4-5-0.6c-0.3,0.9-1,1.7-1.7,2.2C42,66.3,41.1,67,41.4,68
					c0.1,0.4-0.3,0.5-0.3,1.4C40.2,69.3,38.9,68.1,38.7,67.5C38.7,67.5,38.7,67.5,38.7,67.5z"/>
			</g>
			<path class="st5" d="M42,67.2c-0.5-0.8-1-0.7-1.3-0.3c-0.4,0.5,0.2,1.7,0.5,2c0.6,0.5,1.2,0.5,1.3-0.1"/>
			<path class="st9" d="M46.7,71.3c-2.1,0.1-3.7-1.1-3.7-1.1"/>
			<path class="st11" d="M46.3,66c0,0,1.4,1.2,1.4,1.6c0,0.4-0.9,0.5-0.9,0.5"/>
			<path class="st12" d="M47.8,68.5l-2.4,0.7c0,0,0.6,1.2,1.9,0.7C48.3,69.6,47.8,68.5,47.8,68.5z"/>
			<g>
				<g>
					<path class="st13" d="M47.1,65.5c0,0.1,0,0.1,0,0.2c0,0,0,0.1,0,0.1c0,0,0,0.1,0,0.1c0,0.1,0,0.1,0.1,0.2c0,0,0.1,0.1,0.1,0.1
						c0,0,0.1,0.1,0.1,0.1c0,0,0.1,0,0.1,0c0.1,0,0.1,0,0.2,0c0,0,0.1,0,0.1-0.1c0,0,0.1-0.1,0.1-0.1c0,0,0-0.1,0-0.1
						c0-0.1,0-0.1,0-0.2c0-0.1,0-0.1-0.1-0.2c0,0,0,0,0-0.1c0,0,0,0,0-0.1c0,0-0.1-0.1-0.1-0.1c0,0,0,0-0.1-0.1c0,0-0.1,0-0.1,0
						c0,0-0.1,0-0.1,0c0,0-0.1,0-0.1,0c0,0-0.1,0-0.1,0c0,0,0,0-0.1,0.1c0,0,0,0,0,0.1C47.1,65.4,47.1,65.4,47.1,65.5L47.1,65.5z"/>
				</g>
			</g>
			<path class="st14" d="M46.7,65c0,0,0.3-0.6,0.9-0.2"/>
			<g>
				<g>
					<path class="st13" d="M44.4,66.5c0,0.1,0,0.1,0,0.2c0,0,0,0.1,0,0.1c0,0,0,0.1,0,0.1c0,0,0,0,0,0c0,0,0,0.1,0,0.1c0,0,0,0,0,0
						c0,0,0,0,0,0c0,0,0.1,0.1,0.1,0.1c0,0,0.1,0.1,0.1,0.1c0,0,0.1,0,0.1,0c0.1,0,0.1,0,0.2,0c0,0,0.1,0,0.1-0.1
						c0,0,0.1-0.1,0.1-0.1c0,0,0-0.1,0-0.1c0-0.1,0-0.1,0-0.2c0-0.1-0.1-0.2-0.1-0.2c0,0,0,0,0-0.1c0,0,0,0-0.1-0.1c0,0,0,0-0.1-0.1
						c0,0-0.1-0.1-0.1-0.1c0,0-0.1,0-0.1,0c0,0-0.1,0-0.1,0c0,0-0.1,0-0.1,0c0,0,0,0-0.1,0.1c0,0-0.1,0.1-0.1,0.1
						C44.4,66.4,44.4,66.5,44.4,66.5L44.4,66.5z"/>
				</g>
			</g>
			<path class="st14" d="M44.9,65.5c0,0-0.6-0.1-1.1,0.7"/>
		</g>
		<g>
			<path class="st5" d="M26.5,82.7c-2.6,5.3-4.2,13,1.3,15.3C33.6,100.5,48.7,82,48.7,82L44,78l-12.5,8"/>
			<line class="st9" x1="31.6" y1="86" x2="27.8" y2="88.9"/>
			<g>
				<path class="st30" d="M48.7,79.5L48.7,79.5c-0.8-0.1-1.2-0.9-1.1-1.6l1-5.4l2.7,0.5l-1,5.4C50.2,79.2,49.5,79.7,48.7,79.5z"/>
				<g>
					<path class="st33" d="M51.8,74.2l-2.2-0.5c-1.6-0.4-2.5-1.9-2.1-3.5l0,0c0.4-1.6,1.9-2.5,3.5-2.1l2.2,0.5
						c0.1,0,0.2,0.2,0.2,0.3L52.1,74C52,74.2,51.9,74.3,51.8,74.2z"/>
					<path class="st34" d="M53.4,71.6c-0.4,1.6-1.1,2.7-1.6,2.6c-0.5-0.1-0.6-1.5-0.3-3.1c0.4-1.6,1.1-2.7,1.6-2.6
						C53.7,68.7,53.8,70.1,53.4,71.6z"/>
					<g>
						<path class="st30" d="M58.6,79.1c0,0-4-3.5-6.4-4.9c-0.7-0.6-0.5-2-0.3-2.8c0.5-2,1.2-2.3,1.2-2.3c3.2,0.2,8.3-1.3,8.3-1.3"/>
						<path class="st34" d="M58.9,72.9c-0.9,3.5-0.8,6.6,0.2,6.8c1,0.3,2.5-2.4,3.4-5.9c0.9-3.5,0.8-6.6-0.2-6.8
							C61.3,66.8,59.7,69.4,58.9,72.9z"/>
						<g>
							<path class="st33" d="M59.5,73.1c-0.7,3-0.7,5.5,0,5.7c0.8,0.2,2-2.1,2.7-5c0.7-3,0.7-5.5,0-5.7
								C61.4,67.9,60.2,70.1,59.5,73.1z"/>
							<path class="st30" d="M60.8,74.8c-0.7-0.2-1.3-0.1-1.7,0c0.1-0.5,0.2-1.1,0.3-1.7c0.1-0.6,0.3-1.1,0.5-1.6
								c0.3,0.3,0.8,0.6,1.5,0.8L60.8,74.8z"/>
							<path class="st28" d="M60.8,73.4c-0.2,0.7-0.2,1.3,0,1.4c0.2,0,0.5-0.5,0.7-1.2c0.2-0.7,0.2-1.3,0-1.4
								C61.2,72.2,60.9,72.7,60.8,73.4z"/>
						</g>
					</g>
				</g>
			</g>
			<g>
				<path class="st5" d="M41.8,79.4c3.1-2,5.3-3.2,5.7-3.4c1.2-0.5,2.6-0.3,3.6,0.1c0.3,0.1,0.6,0.3,0.9,0.6
					c0.3,0.3,0.4,0.8,0.4,1.2c0,0.1,0,0.2-0.1,0.2c-0.2,0.1-0.3-0.1-0.4-0.3c-0.2-0.4-0.7-0.6-1.1-0.6c0.2,0,0.3,0.2,0.4,0.5
					c0.1,0.2,0,0.5-0.3,0.6c0.2,0,0.4,0.2,0.4,0.5c0,0.2-0.1,0.5-0.3,0.5c0.2,0.1,0.2,0.2,0.2,0.4c0,0.2-0.1,0.3-0.2,0.4
					c-0.4,0.6-1,1-1.5,1.5C47.8,83,44.3,87,44.3,87"/>
			</g>
		</g>
	</g>
	<g>
		<g>
			<g>
				<g>
					<path class="st5" d="M60.8,189.6l-14.1-1l-4.6,0.5l0.1,17.5c0,0.4,0.4,0.8,0.8,0.8l0,0c0.3,0,0.6-0.2,0.7-0.5l3.6-7.8l14.7,1.8
						"/>
					<path class="st32" d="M42.4,208.1c0.6-0.2,1.2-0.5,1.4-0.9l3.6-8.3c-1.8-4.6-0.4-10.5-0.4-10.5l-6.2-0.5
						c-0.2,0-0.4,0.2-0.4,0.4l0.1,19.6C40.4,208.3,42.3,208.1,42.4,208.1z"/>
					<path class="st27" d="M47,200.7c-0.6-0.5-1.3-0.9-2-1.2"/>
					<path class="st27" d="M46.3,201.8c-0.7-0.5-1-0.7-1.7-1"/>
					<path class="st27" d="M45.9,202.6c-0.4-0.3-1-0.6-1.5-0.9"/>
				</g>
				<line class="st27" x1="41.6" y1="188.1" x2="41.7" y2="208.2"/>
				<path class="st27" d="M44.6,188.3c0,0,0,4.6-3,5.1"/>
				<path class="st27" d="M44.5,205.5c0,0-1.9-1.3-2.8-1.6"/>
			</g>
			<path class="st35" d="M85.4,160.7c0.2,0.4,2.8,19,4.7,32c1.2,8.1,1.3,13.2-10.5,12.3c-16.3-1.3-27.6-2.1-27.6-2.1l-0.4-14.6
				l22.3,1.1L71,174.9c0,0-5.4-7.2-1.4-15.5"/>
			<line class="st36" x1="54" y1="188.4" x2="54.6" y2="202.8"/>
			<path class="st36" d="M81.4,170.3l3.9,22.8c0.1,0.6-0.4,1.2-1.1,1.1l-32.6-2"/>
			<g>
				<g>
					<path class="st5" d="M102.2,187.7l-3,14.1l-0.1,4.6l18.1-0.1c0.4,0,0.8-0.4,0.8-0.8l0,0c0-0.3-0.2-0.6-0.5-0.7l-7.8-3.6
						l3.7-14.7"/>
					<path class="st32" d="M118.8,206.1c-0.2-0.6-0.5-1.2-0.9-1.4l-8.3-3.6c-4.6,1.8-10.5,0.4-10.5,0.4l-1.1,6.2
						c0,0.2,0.2,0.4,0.4,0.4l20.2-0.1C119.1,208.1,118.8,206.1,118.8,206.1z"/>
					<path class="st27" d="M111.5,201.5c-0.5,0.6-0.9,1.3-1.2,2"/>
					<path class="st27" d="M112.5,202.1c-0.5,0.7-0.7,1-1,1.7"/>
					<path class="st27" d="M113.4,202.6c-0.3,0.4-0.6,1-0.9,1.5"/>
				</g>
				<line class="st27" x1="98.2" y1="206.8" x2="118.9" y2="206.7"/>
				<path class="st27" d="M98.8,203.8c0,0,4.9,0.1,5.3,3"/>
				<path class="st27" d="M116.2,204c0,0-1.3,1.9-1.6,2.8"/>
			</g>
			<path class="st35" d="M92.9,156.4l1,4.1c0.1,0.6,0.7,1,1.3,1h14c3.4,0,7,0.1,9,3.1c1.6,2.4,1,6.5-0.3,11.2
				c-1.1,4-5.2,22.2-5.2,22.2H98.3l4.1-21.8H85.7c0,0-10.8,0.1-9.3-10.7"/>
			<line class="st36" x1="98.7" y1="195.7" x2="113.1" y2="195.7"/>
			<path class="st36" d="M87.7,176.2h-2c0,0-10.3,0-10.4-10.7"/>
			<path class="st36" d="M86.6,159.9c0,0,0.3,12.1,10.4,12.1h7.6c0.9,0,1.7,0.9,1.5,1.8l-5,24.1"/>
			<path class="st36" d="M87.5,164.9c0.1,0.2,4.3-1,4.2-5"/>
			<path class="st36" d="M78.7,166.6c0,0,2.2,0,4.2-0.6"/>
			<path class="st36" d="M68.2,166.6c0,0,2,0.1,3.6,0"/>
		</g>
		<g>
			<path class="st5" d="M80.5,116.2c0,0,5-15.5,14.3-27.9l-6.4-3.9c-10,10.9-16.7,29.1-16.7,29.1"/>
			<path class="st28" d="M67.9,142.4c0,0-2.1-19.1,5.8-35.1l9.3,3l-2.4,12.2"/>
			<line class="st37" x1="73" y1="109.1" x2="82.1" y2="112.3"/>
			<g>
				<path class="st5" d="M93.4,90c1.5-2.3,6.9-8.2,6.7-8.7c-0.3-0.5-2.2,1.6-2.3,1.1c-0.1-0.4,2.6-3.8,2.2-4.2c-0.5-0.6-3.2,3-3.2,3
					s2.7-4.1,2.1-4.5c-0.4-0.3-2.6,2.8-3.6,3.8c0.9-1.3,2.2-3.5,1.7-3.8c-0.4-0.3-2,1.8-3.3,3.3c0.7-1,1.9-2.9,1.5-3.2
					c-0.4-0.3-5.6,5.2-9.6,10.8"/>
			</g>
			<path class="st5" d="M86.6,137.6c0,0,9.5,3.6,16.5,4.1c9.1,0.6,19.8-2.8,19.8-2.8s1.4-7.5-2.3-7.2c-4.5,0.8-12.3,1.4-18.2,0.7
				c-3.7-0.4-11.4-4.6-11.4-4.6"/>
			<g>
				<path class="st5" d="M118.6,132.1c2.7-0.4,10.4-2.7,10.7-2.2c0.3,0.5-2.4,1.3-2,1.6c0.3,0.3,4.6-0.7,4.8-0.2
					c0.3,0.7-4.1,1.6-4.1,1.6s4.9-0.7,4.9,0c0,0.5-3.6,1.2-5,1.6c1.6-0.3,4.1-0.4,4.2,0.1c0,0.5-2.5,1-4.4,1.5
					c1.2-0.2,3.4-0.4,3.5,0c0.1,0.5-5.9,2.2-11.6,3.5"/>
			</g>
			<g>
				<path class="st5" d="M76.8,119.7l-1.3,6.5c0,0,3.7,3.7,7.5,0.3l0-4.4L76.8,119.7z"/>
				<path class="st5" d="M83.7,113.5c0,0,3.1,6.2,1.2,8.3c-1,1.1-2.5,1.5-3.8,0.5c-1-0.7-4.8-5.2-4.2-6.1
					C78.9,113,83.7,113.5,83.7,113.5z"/>
				<path class="st5" d="M85,117c0,0,1.2,1.1,1.2,1.9c0,0.3-1.2,0.4-1.2,0.4"/>
				<path class="st12" d="M84.9,120l-2-0.3C82.8,120.4,84.3,122.3,84.9,120z"/>
				<g>
					<g>
						<path class="st13" d="M83.3,116.8C83.3,116.8,83.3,116.8,83.3,116.8c-0.1,0.1-0.1,0.1-0.1,0.2c0,0,0,0,0,0c0,0.1,0,0.1,0,0.2
							c0,0,0,0.1,0,0.1c0,0.1,0.1,0.1,0.1,0.2c0,0,0.1,0.1,0.1,0.1c0.1,0,0.1,0,0.2,0c0.1,0,0.1,0,0.2,0c0,0,0.1-0.1,0.1-0.1
							c0-0.1,0-0.1,0-0.2c0,0,0,0,0,0c0,0,0,0,0-0.1c0-0.1,0-0.1,0-0.1c0,0,0-0.1,0-0.1c0,0,0,0.1,0,0.1c0,0,0-0.1,0-0.1
							c0-0.1,0-0.1,0-0.1c0,0,0,0,0-0.1c0-0.1-0.2-0.1-0.3-0.1C83.5,116.7,83.4,116.7,83.3,116.8L83.3,116.8z"/>
					</g>
				</g>
				<path class="st14" d="M82.5,116.5c0.2-0.3,0.6-0.5,1-0.6c0.2,0,0.3,0,0.5,0.1"/>
				<g>
					<path class="st6" d="M76.2,114c0.3-2.2,2.6-2.7,6.8-2c0.6,0.1,1.6-0.2,1.8,0.3c0.3,0.7,0.2,2-0.5,2.6c-0.6,0.5-1.5,0.2-2.2,0.5
						c-1.1,0.4-0.6,1.5-1.2,2.3c-1,1.3-0.3,3.3-2,4.3c-0.9,0.6-2.1,0.4-3.2,0.2c-0.1,0-0.3-0.1-0.4-0.1c-0.4-0.3-0.2-1.3-0.3-1.7
						c-0.3-1.4-0.5-2.9-0.4-4.3C74.7,114.6,75.7,113.8,76.2,114z"/>
				</g>
				<path class="st5" d="M80.9,117.9c-0.2-1.3-1.2-0.9-1.5-0.4c-0.5,0.6,0.2,2,0.6,2.3c0.7,0.5,1.4,0.5,1.5-0.1"/>
				<path class="st9" d="M82.9,123c-1.4-0.4-2.3-1.1-2.3-1.1"/>
			</g>
			<g>
				<path class="st28" d="M75.5,124.2c0,0-5.7,2.4-7.4,11.4c-0.8,4,0.7,25.4,0.7,25.4c12.3,2.4,25.5-1.1,25.5-1.1s-1.5-14-2.2-19.2
					c-1.6-12.1-10-16-10-16L75.5,124.2z"/>
			</g>
			<path class="st28" d="M82.1,124.6c0,0,4.7,0.7,7.8,2.2c3,1.4,9.9,4.8,9.9,4.8l-3.5,9.7l-12.4-3.9"/>
			<line class="st37" x1="91.9" y1="139.7" x2="85" y2="137.7"/>
			<line class="st37" x1="97.6" y1="130.5" x2="94.3" y2="140.5"/>
			<path class="st37" d="M68.7,159.4c0,0,12,1.8,25.4-0.9"/>
		</g>
	</g>
	<g>
		<g>
			<g>
				<g>
					<path class="st5" d="M259.2,186.4l3,14.1l-0.5,4.6l-17.5-0.1c-0.4,0-0.8-0.4-0.8-0.8l0,0c0-0.3,0.2-0.6,0.5-0.7l7.8-3.6
						l-3.7-14.7"/>
					<path class="st7" d="M242.6,204.8c0.2-0.6,0.5-1.2,0.9-1.4l8.3-3.6c4.6,1.8,10.5,0.4,10.5,0.4l0.5,6.2c0,0.2-0.2,0.4-0.4,0.4
						l-19.6-0.1C242.3,206.8,242.6,204.8,242.6,204.8z"/>
					<path class="st31" d="M250,200.2c0.5,0.6,0.9,1.3,1.2,2"/>
					<path class="st31" d="M248.9,200.8c0.5,0.7,0.7,1,1,1.7"/>
					<path class="st31" d="M248,201.3c0.3,0.4,0.6,1,0.9,1.5"/>
				</g>
				<line class="st31" x1="262.6" y1="205.6" x2="242.5" y2="205.5"/>
				<path class="st31" d="M262.4,202.6c0,0-4.6,0-5.1,3"/>
				<path class="st31" d="M245.2,202.7c0,0,1.3,1.9,1.6,2.8"/>
			</g>
			<path class="st32" d="M252.9,135.3c0,0-11.2,25-10.6,33.9c0.5,8.3,6.8,29.2,6.8,29.2l13.4-2.5c0,0-6.4-25.8-6.1-28.5
				c0.3-2.7,8.5-21.1,8.5-21.1s3.2-4.3,2.1-11.8"/>
			<path class="st27" d="M260.3,196.3c0,0-6.3-26.1-5.9-28.8c0.3-2.7,8.1-20.7,8.1-20.7"/>
			<line class="st27" x1="262" y1="193.4" x2="248.5" y2="196.2"/>
			<g>
				<g>
					<path class="st5" d="M278.6,179.8l6.3,13.1l1.5,4.4l-15.9,7.3c-0.4,0.2-0.9,0-1.1-0.4l0,0c-0.1-0.3-0.1-0.7,0.2-0.9l5.5-6.6
						l-7.2-13.3"/>
					<path class="st7" d="M269,205.1c-0.1-0.6,0-1.3,0.2-1.6l6-6.7c4.9-0.3,9.7-4,9.7-4l3.1,5.5c0.1,0.2,0,0.4-0.2,0.5l-17.8,8.2
						C269.6,207.1,269,205.2,269,205.1z"/>
					<path class="st31" d="M273.7,197.9c0.7,0.4,1.3,0.8,1.9,1.3"/>
					<path class="st31" d="M273,198.9c0.7,0.4,1.1,0.7,1.6,1.1"/>
					<path class="st31" d="M272.4,199.7c0.5,0.3,1,0.7,1.5,1"/>
				</g>
				<line class="st31" x1="287.4" y1="197.4" x2="269.2" y2="205.8"/>
				<path class="st31" d="M286,194.7c0,0-4.2,2-3.3,4.8"/>
				<path class="st31" d="M270.4,202.1c0,0,2,1.2,2.6,1.8"/>
			</g>
			<path class="st32" d="M261.8,136c0,0-4.3,23.7-2.3,32.3c2.3,9.7,12,26.1,12,26.1l12.1-6c0,0-10.4-20-10.4-24.3
				c0-2.7,2.4-19.3,2.4-19.3s2.4-4.8,0.1-12"/>
			<path class="st27" d="M280.8,189.8c0,0-10.4-19.5-10.4-25.1c0-2.7,1.7-15.3,2.4-19.3c0.7-4,2.2-8.7,0.1-12"/>
			<path class="st27" d="M259,160.3c0.6-6.6,1.4-15.6,2.4-23.5"/>
			<path class="st27" d="M268.5,136.8c0,0,0.8,2,5.3,3.2"/>
			<path class="st27" d="M259.5,137.3c0,0-0.7,4.9-0.3,5.5c0.2,0.3,1.6,0.6,1.6,0.6"/>
			<path class="st27" d="M251.2,139.2c0,0,2.7,0.1,4.2-1.6"/>
			<line class="st27" x1="282.5" y1="186.3" x2="270.2" y2="192.3"/>
		</g>
		<g>
			<path class="st7" d="M256.7,99.8c0,0-5.1,1.5-5.8,11.2c-0.7,4,1,26.2,1,26.2c12.3,2.1,25.5-1.7,25.5-1.7s-2.3-13.9-3.2-19.2
				c-2.2-13.1-11.3-15.9-11.3-15.9L256.7,99.8z"/>
		</g>
		<path class="st5" d="M258.8,99.9c0,0-3-5.3-7.7-10.5c-6.1-6.8-15.4-12.5-15.4-12.5s-6.3,4.4-3.4,6.7c3.8,2.6,8.7,7.7,12.3,12.3
			c2.3,2.9,7,11.7,7,11.7"/>
		<g>
			<path class="st5" d="M234.1,84.7c-2.2-1.6-9.3-5.3-9.2-5.9c0.1-0.6,2.6,0.7,2.6,0.2c0-0.5-3.8-2.7-3.5-3.2c0.3-0.7,4,1.8,4,1.8
				s-3.9-2.9-3.5-3.5c0.3-0.4,3.4,1.7,4.7,2.3c-1.3-0.9-3.3-2.6-2.9-3c0.3-0.4,2.5,1,4.2,1.9c-1-0.7-2.8-2.1-2.5-2.5
				c0.3-0.4,5.8,2.4,10.9,6"/>
		</g>
		<g>
			<path class="st5" d="M268.1,116.1c0,0-4.6,9.1-9.4,14.1c-6.4,6.6-16.5,11.2-16.5,11.2s-6.1-4.6-3.2-6.8c3.9-2.4,10-7.3,13.9-11.7
				c2.4-2.8,6.3-11.5,6.3-11.5"/>
			<g>
				<path class="st5" d="M240.9,133.6c-2.2,1.6-9.5,5-9.4,5.6c0.1,0.6,2.6-0.6,2.6-0.2c0,0.5-3.9,2.6-3.7,3.1
					c0.3,0.7,4.1-1.6,4.1-1.6s-4,2.8-3.6,3.3c0.3,0.4,3.5-1.6,4.8-2.2c-1.3,0.8-3.3,2.4-3,2.9c0.3,0.4,2.5-0.9,4.3-1.8
					c-1,0.7-2.8,2-2.6,2.4c0.3,0.4,5.8-2.4,11-5.2"/>
			</g>
			<path class="st7" d="M259,109.1c-1.3,4.3-4.6,11.4-4.6,11.4l9.1,4.8c0,0,4.7-5.7,6.5-12.6"/>
			<path class="st31" d="M263.5,125.2c0,0,5.1-7.1,6-11"/>
			<path class="st31" d="M254.4,120.4c0,0,3.4-6.6,4.1-9.8"/>
		</g>
		<path class="st7" d="M250.7,113.9c-0.1-3.6-1.8-11-7-17.9l8.1-6.5c0,0,7.1,5.7,9.1,10.7"/>
		<g>
			<path class="st5" d="M255.1,89.5c0,0-2.1,5.7-0.2,7.6c1,1,3.8,1.1,5,0.2c0.9-0.7,2.2-5.1,1.7-5.9
				C259.6,88.4,255.1,89.5,255.1,89.5z"/>
			<path class="st11" d="M256.2,92.2c0,0-1.1,1.3-1.1,1.8c0,0.4,1,0.6,1,0.6"/>
			<path class="st12" d="M255,94.9l2.6,0.7c0,0-0.7,1.3-2,0.8C254.6,96,255,94.9,255,94.9z"/>
			<g>
				<g>
					<path class="st13" d="M255.1,91.4c0,0-0.1,0.1-0.1,0.1c0,0,0,0.1,0,0.1c0,0,0,0.1,0,0.1c0,0.1-0.1,0.1-0.1,0.2
						c0,0.1,0,0.1,0,0.2c0,0.1,0,0.1,0,0.1c0,0,0,0.1,0.1,0.1c0,0,0.1,0.1,0.1,0.1c0,0,0.1,0,0.1,0c0.1,0,0.1,0,0.2,0
						c0,0,0.1,0,0.1,0c0.1,0,0.1-0.1,0.1-0.1c0-0.1,0.1-0.1,0.1-0.2c0,0,0-0.1,0-0.1c0,0,0-0.1,0-0.1c0,0,0-0.1,0-0.1c0,0,0,0,0,0
						c0,0,0-0.1,0-0.1c0,0,0-0.1,0-0.1c0,0,0,0-0.1-0.1c0,0-0.1-0.1-0.1-0.1c0,0-0.1,0-0.1,0c0,0-0.1,0-0.1,0c0,0-0.1,0-0.1,0
						C255.2,91.3,255.1,91.4,255.1,91.4L255.1,91.4z"/>
				</g>
			</g>
			<path class="st14" d="M256.1,91.1c0,0-0.3-0.6-1-0.2"/>
			<g>
				<g>
					<path class="st13" d="M258,92.5C257.9,92.5,257.9,92.5,258,92.5c-0.1,0.1-0.1,0.1-0.1,0.2c0,0.1-0.1,0.2-0.1,0.3
						c0,0.1,0,0.1,0,0.2c0,0.1,0,0.1,0,0.1c0,0,0,0.1,0.1,0.1c0,0,0.1,0.1,0.1,0.1c0,0,0.1,0,0.1,0c0.1,0,0.1,0,0.2,0
						c0,0,0.1,0,0.1,0c0.1,0,0.1-0.1,0.1-0.1c0,0,0-0.1,0.1-0.1c0,0,0,0,0,0c0,0,0-0.1,0-0.1c0,0,0-0.1,0-0.1c0-0.1,0-0.1,0-0.2
						c0,0,0-0.1,0-0.1c0,0,0-0.1-0.1-0.1c0,0,0,0-0.1-0.1c0,0-0.1-0.1-0.1-0.1c0,0-0.1,0-0.1,0c0,0-0.1,0-0.1,0
						C258.1,92.4,258.1,92.4,258,92.5C258,92.4,258,92.5,258,92.5L258,92.5z"/>
				</g>
			</g>
			<path class="st14" d="M258.1,91.6c0,0,0.7-0.1,1.2,0.7"/>
			<path class="st5" d="M261.7,94.7l1.1,5.7c0,0-4.3,3.2-6.7-0.2l-0.1-3.7L261.7,94.7z"/>
			<g>
				<path class="st8" d="M263.7,93.7c0-0.2,0.1-0.4,0.2-0.6c0.2-0.5,0.4-0.9,0.6-1.4c0.4-0.9,0.1-2.1-0.7-2.8
					c-0.1-0.1-0.3-0.2-0.4-0.3c-0.3-0.3-0.4-0.7-0.5-1.1c-0.1-0.3-0.3-0.6-0.6-0.8c-0.7-0.4-1.6,0.1-2.3-0.2
					c-0.1-0.1-0.3-0.2-0.4-0.3c-1-0.7-2.1-0.6-3.1-0.2c-0.5,0.2-0.7,0.4-1.1,0.7c-0.4,0.3-1.1,0.3-1.5,0.7c-0.5,0.4-0.6,1-0.6,1.6
					c0,0.2,0,0.4,0.1,0.6c0.1,0.3,0.4,0.4,0.6,0.5c0.6,0.3,1.3,0.2,1.9,0.1c0.6,0,1.4-0.5,2-0.3c0.6,0.2,0.8,1,1.5,1
					c0.3,0,0.6,0,0.8,0.2c0.2,0.3,0.1,0.7,0.2,1c0.1,0.3,0.4,0.5,0.6,0.8c0.4,0.5,0.9,0.9,0.7,1.6c-0.1,0.5-0.7,1.2-0.4,1.8
					c0.1,0.3,0.9,0.3,1.4-0.1c0.6-0.4,0.7-1.3,0.9-1.9C263.6,94.2,263.7,93.9,263.7,93.7z"/>
			</g>
			<path class="st5" d="M261.1,93.8c0.5-0.9,1.1-0.8,1.4-0.4c0.4,0.5-0.2,1.9-0.5,2.1c-0.7,0.5-1.2,0.5-1.4,0"/>
			<path class="st9" d="M256.2,97.9C258.3,98,260,97,260,97"/>
		</g>
		<path class="st31" d="M250.6,112.6c0,0,0.1-5.6-0.5-7.3"/>
		<path class="st31" d="M255.5,101.2c0,0,1,1.8,3.8,1.7c3.1-0.1,4.4-2.2,4.4-2.2"/>
	</g>
	<g>
		<g>
			<g>
				<path class="st5" d="M201.5,71.7c-0.3,2.6-2.3,8.8-1.9,9c0.4,0.2,1.3-2.1,1.6-1.8c0.3,0.3-0.8,3.8-0.3,4
					c0.6,0.2,1.4-3.3,1.4-3.3s-0.7,3.9-0.1,3.9c0.4,0,1.1-2.8,1.5-3.9c-0.2,1.2-0.5,3.1-0.1,3.2c0.4,0,0.9-1.6,1.3-3.1
					c-0.1,0.9-0.6,2.8-0.2,2.9c0.4,0,1.9-4.2,2.8-9.6"/>
			</g>
			<path class="st5" d="M209.2,44.8c1.9,13.9-2.3,30.7-2.3,30.7l-5.8-1.2c0,0,2.2-15.1-0.3-28.4"/>
		</g>
		<path class="st15" d="M197.1,32.4c2.7,0,5.6,0.9,8.1,2.9c3.8,3,4.8,10,4.8,10l-9.1,1.8c0,0-0.5-5.9-0.5-7.9"/>
		<path class="st16" d="M200.5,47.1c-0.3-2.7-1.1-5.1-1.1-5.1"/>
	</g>
	<g>
		
			<rect x="259" y="29.6" transform="matrix(0.2626 0.9649 -0.9649 0.2626 229.2769 -229.3887)" class="st38" width="11.5" height="11.5"/>
		
			<rect x="7.8" y="157.2" transform="matrix(-0.125 0.9922 -0.9922 -0.125 170.758 169.4599)" class="st38" width="5.6" height="5.6"/>
		
			<ellipse transform="matrix(0.1427 -0.9898 0.9898 0.1427 83.2654 430.2379)" class="st39" cx="290" cy="167.1" rx="4.5" ry="4.5"/>
		<path class="st38" d="M112.2,12.1c0,1.3-1,2.3-2.3,2.3c-1.3,0-2.3-1-2.3-2.3c0-1.3,1-2.3,2.3-2.3C111.1,9.9,112.2,10.9,112.2,12.1
			z"/>
		<path class="st38" d="M299.8,111.9c0,1.3-1,2.3-2.3,2.3c-1.3,0-2.3-1-2.3-2.3c0-1.3,1-2.3,2.3-2.3
			C298.8,109.6,299.8,110.7,299.8,111.9z"/>
		<path class="st38" d="M302.1,158.6c0,1.3-1,2.3-2.3,2.3c-1.3,0-2.3-1-2.3-2.3c0-1.3,1-2.3,2.3-2.3
			C301.1,156.4,302.1,157.4,302.1,158.6z"/>
		<path class="st39" d="M5.3,142.2c0,1.3-1,2.3-2.3,2.3c-1.3,0-2.3-1-2.3-2.3s1-2.3,2.3-2.3C4.3,139.9,5.3,140.9,5.3,142.2z"/>
		<path class="st38" d="M60,20.5l0.2,1.5c0.1,0.7,0.7,1.2,1.4,1.1l1,0c0.7,0,1.3,0.5,1.4,1.1l0.2,1c0.1,0.7,0.7,1.2,1.4,1.1l1,0
			c0.7,0,1.3,0.5,1.4,1.1l0.2,1c0.1,0.7,0.7,1.2,1.4,1.1l1.2,0"/>
		<path class="st38" d="M16.6,119.5l-0.5-1.5c-0.2-0.6-0.9-1-1.5-0.9l-1,0.2c-0.7,0.1-1.3-0.3-1.5-0.9l-0.3-1
			c-0.2-0.6-0.9-1-1.5-0.9l-1,0.2c-0.7,0.1-1.3-0.3-1.5-0.9l-0.3-1c-0.2-0.6-0.9-1-1.5-0.9l-1.2,0.2"/>
		<path class="st38" d="M248.8,59.5l1.5-0.1c0.7-0.1,1.2-0.6,1.2-1.3l0.1-1c0-0.7,0.6-1.2,1.2-1.3l1-0.1c0.7-0.1,1.2-0.6,1.2-1.3
			l0.1-1c0-0.7,0.6-1.2,1.2-1.3l1-0.1c0.7-0.1,1.2-0.6,1.2-1.3l0.1-1.2"/>
		<path class="st38" d="M295.7,81.5l-1.5,0.5c-0.6,0.2-1,0.9-0.9,1.5l0.2,1c0.1,0.7-0.3,1.3-0.9,1.5l-1,0.3c-0.6,0.2-1,0.9-0.9,1.5
			l0.2,1c0.1,0.7-0.3,1.3-0.9,1.5l-1,0.3c-0.6,0.2-1,0.9-0.9,1.5l0.2,1.2"/>
		<path class="st38" d="M304,147.6l1.3,0.9c0.6,0.4,1.3,0.3,1.8-0.2l0.7-0.7c0.5-0.5,1.2-0.6,1.8-0.2l0.8,0.6
			c0.6,0.4,1.3,0.3,1.8-0.2l0.7-0.7c0.5-0.5,1.2-0.6,1.8-0.2l0.8,0.6c0.6,0.4,1.3,0.3,1.8-0.2l0.8-0.9"/>
		<line class="st39" x1="290.7" y1="100.2" x2="285.5" y2="103.5"/>
		<line class="st39" x1="237.8" y1="32.3" x2="233" y2="36.2"/>
		<line class="st39" x1="130.8" y1="41.2" x2="124.8" y2="39.8"/>
		<line class="st39" x1="17.4" y1="67.3" x2="12.8" y2="63.2"/>
	</g>
</g>
</svg>
