<svg xmlns="http://www.w3.org/2000/svg" width="192.366" height="192.366" viewBox="0 0 192.366 192.366"><defs><linearGradient id="a" x1="145.283" y1="180.311" x2="49.084" y2="13.689" gradientUnits="userSpaceOnUse"><stop offset="0" stop-color="#73b1fd"/><stop offset=".454" stop-color="#8abefe"/><stop offset=".457" stop-color="#8bbefe"/><stop offset=".6" stop-color="#a9cffe"/><stop offset=".74" stop-color="#bfdbfe"/><stop offset=".875" stop-color="#cce3fe"/><stop offset="1" stop-color="#d0e5fe"/></linearGradient><linearGradient id="b" x1="48.022" y1="14.302" x2="144.221" y2="180.924" gradientUnits="userSpaceOnUse"><stop offset="0" stop-color="#73b1fd"/><stop offset=".165" stop-color="#69acfd"/><stop offset=".443" stop-color="#4f9dfd"/><stop offset=".498" stop-color="#499afd"/><stop offset="1" stop-color="#2c8afc"/></linearGradient><linearGradient id="c" x1="29.173" y1="165.014" x2="165.197" y2="28.99" gradientUnits="userSpaceOnUse"><stop offset="0" stop-color="#157dfc"/><stop offset="1" stop-color="#1371e3"/></linearGradient></defs><path d="M97.183.817a96.2 96.2 0 00-82.3 145.978 67 67 0 1138.353 35.779A96.191 96.191 0 1097.183.817z" transform="translate(-1 -.817)" fill="url(#a)"/><path d="M192.062 81.172c.023.718.038 1.437.038 2.16a67.07 67.07 0 11-24.468-51.807 96.015 96.015 0 1024.43 49.647z" transform="translate(-1 -.817)" fill="url(#b)"/><path d="M97.183.817a96.375 96.375 0 00-22.917 2.755 66.823 66.823 0 11-58.839 66.345 66.537 66.537 0 0114.893-42.05A96.177 96.177 0 1097.183.817z" transform="translate(-1 -.817)" fill="url(#c)"/></svg>