<svg xmlns="http://www.w3.org/2000/svg" width="841.987" height="192.366" viewBox="0 0 841.987 192.366"><defs><linearGradient id="a" x1="544.543" y1="160.344" x2="544.543" y2="37.872" gradientUnits="userSpaceOnUse"><stop offset="0" stop-color="#0f58b0"/><stop offset="1" stop-color="#1164ca"/></linearGradient><linearGradient id="b" x1="145.29" y1="180.311" x2="49.091" y2="13.689" gradientUnits="userSpaceOnUse"><stop offset="0" stop-color="#73b1fd"/><stop offset=".454" stop-color="#8abefe"/><stop offset=".457" stop-color="#8bbefe"/><stop offset=".6" stop-color="#a9cffe"/><stop offset=".74" stop-color="#bfdbfe"/><stop offset=".875" stop-color="#cce3fe"/><stop offset="1" stop-color="#d0e5fe"/></linearGradient><linearGradient id="c" x1="48.029" y1="14.302" x2="144.228" y2="180.924" gradientUnits="userSpaceOnUse"><stop offset="0" stop-color="#73b1fd"/><stop offset=".165" stop-color="#69acfd"/><stop offset=".443" stop-color="#4f9dfd"/><stop offset=".498" stop-color="#499afd"/><stop offset="1" stop-color="#2c8afc"/></linearGradient><linearGradient id="d" x1="29.18" y1="165.014" x2="165.203" y2="28.99" gradientUnits="userSpaceOnUse"><stop offset="0" stop-color="#157dfc"/><stop offset="1" stop-color="#1371e3"/></linearGradient></defs><path d="M249.454 57.107a10.569 10.569 0 01-3.361-8.147 10.312 10.312 0 013.361-8.064q3.358-3.024 9.072-3.024a13.126 13.126 0 018.988 3.024 10.2 10.2 0 013.444 8.064 10.578 10.578 0 01-3.36 8.147q-3.363 3.113-9.072 3.109t-9.072-3.109zm1.6 100.3q-2.942-2.6-2.94-7.476V85.08q0-4.871 2.94-7.392a11.078 11.078 0 017.476-2.52 11.41 11.41 0 017.56 2.52q3.024 2.52 3.024 7.392v64.848q0 4.875-3.024 7.476a11.181 11.181 0 01-7.56 2.6 10.859 10.859 0 01-7.48-2.604zM360.5 83.232q7.221 8.4 7.223 25.368v41.328a9.816 9.816 0 01-2.772 7.392 10.523 10.523 0 01-7.643 2.688 10.823 10.823 0 01-7.728-2.688 9.652 9.652 0 01-2.857-7.392v-40.153q0-9.573-3.612-13.943t-11.339-4.368q-9.073 0-14.533 5.712t-5.46 15.288v37.464a9.659 9.659 0 01-2.856 7.392 10.83 10.83 0 01-7.728 2.688 10.526 10.526 0 01-7.644-2.688 9.82 9.82 0 01-2.772-7.392V84.912a9.242 9.242 0 012.856-7.057 10.83 10.83 0 017.728-2.687 10.021 10.021 0 017.141 2.6 8.913 8.913 0 012.772 6.8v4.535a28.416 28.416 0 0111.255-10.584 33.907 33.907 0 0115.96-3.7q14.785.013 22.009 8.413zm104.832-40.824a8.991 8.991 0 013.024 7.056v100.464a9.45 9.45 0 01-2.856 7.224 11.975 11.975 0 01-15.12 0 9.439 9.439 0 01-2.856-7.224v-4.2a26.311 26.311 0 01-10.668 10.751 32.214 32.214 0 01-15.876 3.864 34.032 34.032 0 01-18.9-5.376 35.636 35.636 0 01-12.936-15.2 52.509 52.509 0 01-4.62-22.6q0-12.765 4.62-22.344a33.914 33.914 0 0131.836-19.991 32.922 32.922 0 0115.792 3.7 25.675 25.675 0 0110.584 10.416v-39.82a8.911 8.911 0 012.772-6.8 10.48 10.48 0 017.476-2.6 11.211 11.211 0 017.728 2.68zm-23.268 94.752q5.457-6.888 5.46-19.656t-5.46-19.572q-5.462-6.8-15.372-6.8-10.08 0-15.624 6.72t-5.544 19.32q0 12.769 5.544 19.824t15.456 7.056q10.076-.004 15.54-6.892zm63.336 17.977a36.017 36.017 0 01-14.7-14.953q-5.208-9.743-5.208-22.68t5.208-22.6a36.162 36.162 0 0114.7-14.864 49.46 49.46 0 0144.184 0A35.665 35.665 0 01564.2 94.908q5.123 9.663 5.124 22.6t-5.124 22.68a35.527 35.527 0 01-14.615 14.953q-9.493 5.208-22.093 5.207t-22.092-5.211zm37.547-17.809q5.376-6.717 5.376-19.824 0-12.934-5.376-19.74t-15.456-6.8q-10.078 0-15.539 6.8t-5.461 19.74q0 13.1 5.376 19.824t15.456 6.72q10.247 0 15.624-6.72zm113.4-54.096q7.221 8.4 7.224 25.368v41.328a9.812 9.812 0 01-2.772 7.392 10.526 10.526 0 01-7.644 2.688 10.823 10.823 0 01-7.728-2.688 9.655 9.655 0 01-2.856-7.392v-40.153q0-9.573-3.612-13.943t-11.34-4.368q-9.072 0-14.532 5.712t-5.46 15.288v37.464a9.665 9.665 0 01-2.855 7.392 10.837 10.837 0 01-7.729 2.688 10.519 10.519 0 01-7.643-2.688 9.813 9.813 0 01-2.773-7.392V84.912a9.236 9.236 0 012.857-7.057 10.823 10.823 0 017.727-2.687 10.018 10.018 0 017.14 2.6 8.913 8.913 0 012.772 6.8v4.535a28.418 28.418 0 0111.256-10.584 33.907 33.907 0 0115.96-3.7q14.783.013 22.008 8.413zm98.194 55.44a9.088 9.088 0 011.765 5.88q0 5.21-6.217 8.736a56.072 56.072 0 01-12.935 5.124 53.432 53.432 0 01-13.777 1.932q-19.825 0-31.416-11.424t-11.592-31.248a47.951 47.951 0 015.04-22.344 36.668 36.668 0 0114.2-15.12 40.206 40.206 0 0120.748-5.376 37.244 37.244 0 0119.32 4.872 33.072 33.072 0 0112.765 13.776q4.536 8.907 4.536 21 0 7.225-6.384 7.224h-49.561q1.008 11.592 6.552 17.052t16.128 5.46a30.527 30.527 0 009.492-1.344 93.061 93.061 0 009.324-3.7q5.042-2.685 7.392-2.688a5.661 5.661 0 014.62 2.188zm-47.376-43.68q-5.125 5.379-6.132 15.456H739q-.338-10.246-5.04-15.54t-13.1-5.292q-8.57 0-13.695 5.376zM842.993 151.1a7.373 7.373 0 01-2.352 5.8q-2.355 2.1-7.056 2.1h-56.112a9.321 9.321 0 01-6.888-2.687 8.718 8.718 0 01-2.688-6.385 11.238 11.238 0 013.024-7.392L814.1 92.641h-37.467q-4.706 0-7.056-2.017a7.31 7.31 0 01-2.352-5.88 7.316 7.316 0 012.352-5.881q2.351-2.014 7.056-2.015H830.9a9.431 9.431 0 016.972 2.6 8.789 8.789 0 012.6 6.468 11.168 11.168 0 01-2.857 7.393l-43.343 49.9h39.312q9.408-.001 9.409 7.891z" transform="translate(-1.007 -.817)" fill="url(#a)"/><path d="M97.19.817a96.2 96.2 0 00-82.3 145.978 67 67 0 1138.353 35.779A96.191 96.191 0 1097.19.817z" transform="translate(-1.007 -.817)" fill="url(#b)"/><path d="M192.069 81.172c.023.718.038 1.437.038 2.16a67.072 67.072 0 11-24.469-51.807 96.011 96.011 0 1024.431 49.647z" transform="translate(-1.007 -.817)" fill="url(#c)"/><path d="M97.19.817a96.369 96.369 0 00-22.917 2.755 66.823 66.823 0 11-58.839 66.345 66.537 66.537 0 0114.893-42.05A96.177 96.177 0 1097.19.817z" transform="translate(-1.007 -.817)" fill="url(#d)"/></svg>